<?xml version="1.0" encoding="UTF-8"?>
<svg id="Capa_2" data-name="Capa 2" xmlns="http://www.w3.org/2000/svg" viewBox="0 0 11.03 16.3">
  <defs>
    <style>
      .cls-1 {
        fill: #ffd7da;
      }
    </style>
  </defs>
  <g id="Layer_2" data-name="Layer 2">
    <path class="cls-1" d="m11.03,16.3c-2.4-2.76-4.71-5.42-7.06-8.13C6.31,5.47,8.64,2.79,11.03.04c-.22-.02-.36-.03-.51-.03-1.69,0-1.34-.01-3.02.01-.22,0-.51.1-.64.26C4.6,2.84,2.36,5.42.12,8c-.04.05-.07.1-.12.18,1.07,1.23,2.13,2.46,3.2,3.69,1.2,1.38,2.39,2.76,3.59,4.13.12.13.31.29.47.29,1.89.02,1.74.01,3.77.01Z"/>
  </g>
</svg>