<?xml version="1.0" encoding="UTF-8"?>
<svg id="Capa_2" data-name="Capa 2" xmlns="http://www.w3.org/2000/svg" viewBox="0 0 363.82 121.23">
  <defs>
    <style>
      .cls-1, .cls-2, .cls-3, .cls-4, .cls-5, .cls-6, .cls-7, .cls-8, .cls-9, .cls-10, .cls-11, .cls-12, .cls-13 {
        fill-rule: evenodd;
      }

      .cls-1, .cls-14 {
        fill: #1a1a1a;
      }

      .cls-15, .cls-13 {
        fill: #0f0f0f;
      }

      .cls-16, .cls-4 {
        fill: #fff;
      }

      .cls-2 {
        fill: #ffba26;
      }

      .cls-3 {
        fill: #302e3d;
      }

      .cls-17, .cls-7 {
        fill: #989898;
      }

      .cls-5 {
        fill: #ffb10a;
      }

      .cls-6 {
        fill: #fab625;
      }

      .cls-8 {
        fill: #121212;
      }

      .cls-9 {
        fill: #afaec1;
      }

      .cls-10 {
        fill: #666;
      }

      .cls-11 {
        fill: #db4600;
      }

      .cls-12 {
        fill: #080808;
      }
    </style>
  </defs>
  <g id="Layer_2" data-name="Layer 2">
    <g id="_5" data-name="5">
      <path class="cls-13" d="m329.9,118.07H29.07c-.87,0-1.58.71-1.58,1.58h0c0,.87.73,1.58,1.58,1.58h300.83c.85,0,1.58-.71,1.58-1.58h0c0-.87-.71-1.58-1.58-1.58h0Zm25.03,0h-12.15c-.87,0-1.58.71-1.58,1.58h0c0,.87.73,1.58,1.58,1.58h12.15c.85,0,1.58-.71,1.58-1.58h0c0-.87-.71-1.58-1.58-1.58h0Zm-339.01,0H6.4c-.87,0-1.58.71-1.58,1.58h0c0,.87.72,1.58,1.58,1.58h9.52c.85,0,1.58-.71,1.58-1.58h0c0-.87-.71-1.58-1.58-1.58Z"/>
      <polygon class="cls-13" points="21.83 102.77 71.96 102.77 71.96 54.64 21.83 54.64 16.26 97.44 21.83 102.77"/>
      <rect class="cls-15" x="184.38" y="59.61" width="57.45" height="48.13"/>
      <path class="cls-13" d="m140.31,119.69h12.33c10.47,0,18.96-13.1,18.96-29.25s-8.49-29.26-18.96-29.26h-12.33c-10.47,0-18.96,13.1-18.96,29.26s8.49,29.25,18.96,29.25h0Zm164.86-58.51c-10.47,0-18.96,13.1-18.96,29.26s8.49,29.25,18.96,29.25h12.33c10.47,0,18.96-13.1,18.96-29.25s-8.49-29.26-18.96-29.26h-12.33Z"/>
      <polygon class="cls-5" points="238.87 57.02 252.28 68.71 249.15 99.2 248.15 107.74 363.82 107.74 357.08 100.76 361.14 76.32 349.76 57.91 334.93 59.2 306.05 57.92 238.87 57.02"/>
      <g>
        <path class="cls-13" d="m43.3,119.69h12.33c10.47,0,18.96-13.1,18.96-29.25s-8.49-29.25-18.96-29.25h-12.33c-11.41,0-11.78,58.51,0,58.51Z"/>
        <ellipse class="cls-14" cx="43.3" cy="90.43" rx="18.96" ry="29.25"/>
        <ellipse class="cls-16" cx="43.3" cy="90.43" rx="14.92" ry="23.01"/>
        <path class="cls-7" d="m43.3,110.17c7.05,0,12.79-8.87,12.79-19.74s-5.75-19.74-12.79-19.74-12.79,8.87-12.79,19.74,5.75,19.74,12.79,19.74Z"/>
        <path class="cls-1" d="m45.78,109.8c5.88-1.78,10.32-9.77,10.32-19.37s-4.44-17.59-10.32-19.37c-5.88,1.78-10.32,9.77-10.32,19.37s4.44,17.59,10.32,19.37Z"/>
        <path class="cls-10" d="m45.77,109.8c1.25-.38,2.43-1.03,3.52-1.92-1.06-2.9-1.61-6.39-1.57-9.83.17.03.34.04.52.04.31,0,.6-.04.89-.12.76,2.38,1.76,4.47,3.19,6.46.84-1.29,1.57-2.77,2.16-4.38-1.14-.96-2.21-2.21-3.12-3.66.37-.46.69-1,.96-1.6,1.06.56,2.13.92,3.29,1.06.3-1.61.46-3.3.48-5.04-.96.31-1.94.46-2.92.44.02-.26.03-.53.03-.8,0-.47-.03-.93-.08-1.38.96-.73,1.85-1.61,2.7-2.7-.27-1.98-.73-3.84-1.35-5.55-.62,1.77-1.43,3.41-2.37,4.81-.3-.57-.65-1.07-1.04-1.49.58-2.64.83-5.36.69-8.52-1.49-2.02-3.28-3.51-5.27-4.3,1.52,3.18,2.32,7.38,2.28,11.51-.17-.03-.34-.04-.52-.04-.3,0-.6.04-.89.12-1.14-3.57-2.82-6.51-5.69-9.39h-1.72l-2.02,5.26c2.64.48,5.26,2.63,7.2,5.72-.37.46-.69,1-.96,1.6-2.44-1.28-4.98-1.52-8.33-.44l-1.95,7.79h1.72c2.08-2.54,4.92-3.88,7.71-3.81-.02.26-.03.53-.03.8,0,.47.03.93.08,1.38-2.31,1.76-4.22,4.36-6.09,8.77l1.69,5.76h1.72c.31-4.07,1.7-8.11,3.71-11.1.3.57.65,1.07,1.04,1.48-.83,3.77-.99,7.68-.28,12.85.21.08.42.15.64.22Z"/>
        <path class="cls-4" d="m44.91,110.01c1.06-.2,2.08-.61,3.04-1.19-1.31-3.07-1.99-6.96-1.95-10.78.17.03.34.04.52.04.31,0,.6-.04.89-.12.91,2.84,2.16,5.29,4.08,7.62,1.01-1.31,1.89-2.85,2.6-4.57-1.65-1.01-3.2-2.62-4.46-4.63.37-.46.69-1,.96-1.6,1.56.82,3.17,1.21,5,1.11.32-1.73.5-3.56.5-5.46v-.39c-1.47.83-3.06,1.24-4.64,1.19.02-.26.03-.53.03-.8,0-.47-.03-.93-.08-1.38,1.49-1.13,2.82-2.62,4.07-4.72-.45-2.15-1.14-4.15-2.01-5.9-.65,2.66-1.73,5.16-3.08,7.18-.3-.57-.65-1.07-1.04-1.49.71-3.21.92-6.52.54-10.63-1.49-1.38-3.17-2.3-4.97-2.65-.11.02-.23.05-.34.07,1.65,3.22,2.51,7.59,2.47,11.89-.17-.03-.34-.04-.52-.04-.31,0-.6.04-.89.12-1.14-3.57-2.82-6.51-5.69-9.39-1.46,1.35-2.73,3.15-3.74,5.26,2.64.48,5.26,2.63,7.2,5.72-.37.46-.69,1-.96,1.6-2.44-1.28-4.98-1.52-8.33-.44-.25,1.53-.38,3.14-.38,4.79,0,1.02.05,2.02.15,3,2.08-2.54,4.92-3.88,7.71-3.81-.02.26-.03.53-.03.8,0,.47.03.93.08,1.38-2.32,1.76-4.22,4.36-6.09,8.77.88,2.25,2.04,4.21,3.41,5.76.31-4.07,1.7-8.11,3.71-11.1.3.57.65,1.07,1.04,1.48-.83,3.77-.99,7.68-.28,12.85.49.19.99.33,1.5.43Z"/>
        <path class="cls-7" d="m46.52,94.5c1.45,0,2.63-1.83,2.63-4.06s-1.18-4.06-2.63-4.06-2.63,1.83-2.63,4.06,1.18,4.06,2.63,4.06Z"/>
      </g>
      <polygon class="cls-2" points="248.61 103.83 248.15 107.74 363.82 107.74 360.05 103.83 248.61 103.83"/>
      <polygon class="cls-6" points="349.76 57.91 281.88 68.66 257.26 76.54 361.14 76.32 349.76 57.91"/>
      <path class="cls-2" d="m352.53,57.27c-.16-3.1-1.92-6.35-5.3-8.48-20.5-8.89-47.05-13.91-83.38-14.65-20.77-13.72-41.25-25.31-60.73-29.36C170.17-.16,137.59-1.29,105.41,1.49c-3.34.36-6.6.81-9.79,1.37,2.88-.24,9.73,45.56,147.64,54.17l64.82.9h42.17s2.28-.65,2.28-.65Z"/>
      <path class="cls-8" d="m263.85,34.14c-.3-.19-2.78-1.83-2.8-1.83-14.68-9.56-29.2-17.94-43.3-23.21-2.27-.85-4.56-1.62-6.87-2.32-19.94-1.52-45.76-1.63-66.05-.67h0c12.68,6.67,23.39,18.34,33.94,30.43l33.05-2.42,52.03.03Z"/>
      <path class="cls-3" d="m261.06,32.31h0,0Zm-36.66-20.52c-.89-.39-1.77-.76-2.66-1.13.89.36,1.77.74,2.66,1.13h0Zm-2.66-1.13c-1.33-.55-2.65-1.07-3.97-1.56h0s0,0,0,0c1.32.49,2.65,1.02,3.98,1.56h0Zm-11.15-2.08l4.98.36c15.42,5.43,30.56,14.37,44.4,23.37l-48.2-.02-32.29,2.36c-8.48-9.7-17.72-19.92-28.45-26.97,8.64-.31,17.29-.41,25.92-.35,11.2.08,22.47.41,33.64,1.26Z"/>
      <g>
        <path class="cls-13" d="m208.72,119.69h12.33c10.47,0,18.96-13.1,18.96-29.25s-8.49-29.25-18.96-29.25h-12.33c-11.41,0-11.78,58.51,0,58.51Z"/>
        <ellipse class="cls-14" cx="208.72" cy="90.43" rx="18.96" ry="29.25"/>
        <ellipse class="cls-16" cx="208.72" cy="90.43" rx="14.92" ry="23.01"/>
        <ellipse class="cls-17" cx="208.72" cy="90.43" rx="12.79" ry="19.74"/>
        <path class="cls-1" d="m211.2,109.8c5.88-1.78,10.32-9.77,10.32-19.37s-4.44-17.59-10.32-19.37c-5.88,1.78-10.32,9.77-10.32,19.37s4.44,17.59,10.32,19.37Z"/>
        <path class="cls-10" d="m211.19,109.8c1.25-.38,2.43-1.03,3.52-1.92-1.06-2.9-1.61-6.39-1.57-9.83.17.03.34.04.52.04.31,0,.61-.04.89-.12.76,2.38,1.76,4.47,3.19,6.46.84-1.29,1.57-2.77,2.16-4.38-1.14-.96-2.21-2.21-3.12-3.66.37-.46.69-1,.96-1.6,1.06.56,2.13.92,3.29,1.06.3-1.61.46-3.3.48-5.04-.96.31-1.94.46-2.92.44.02-.26.03-.53.03-.8,0-.47-.03-.93-.08-1.38.96-.73,1.85-1.61,2.7-2.7-.27-1.98-.73-3.84-1.35-5.55-.62,1.77-1.43,3.41-2.37,4.81-.3-.57-.65-1.07-1.04-1.49.58-2.64.83-5.36.69-8.52-1.49-2.02-3.28-3.51-5.26-4.3,1.52,3.18,2.32,7.38,2.27,11.51-.17-.03-.34-.04-.52-.04-.3,0-.6.04-.89.12-1.14-3.57-2.82-6.51-5.69-9.39h-1.72l-2.02,5.26c2.64.48,5.26,2.63,7.2,5.72-.37.46-.69,1-.96,1.6-2.44-1.28-4.98-1.52-8.33-.44l-1.95,7.79h1.72c2.08-2.54,4.92-3.88,7.71-3.81-.02.26-.03.53-.03.8,0,.47.03.93.08,1.38-2.31,1.76-4.22,4.36-6.09,8.77l1.69,5.76h1.72c.31-4.07,1.7-8.11,3.71-11.1.3.57.65,1.07,1.04,1.48-.83,3.77-.99,7.68-.28,12.85.21.08.42.15.64.22Z"/>
        <path class="cls-4" d="m210.33,110.01c1.06-.2,2.08-.61,3.04-1.19-1.31-3.07-1.99-6.96-1.95-10.78.17.03.35.04.52.04.31,0,.6-.04.89-.12.91,2.84,2.16,5.29,4.08,7.62,1.01-1.31,1.89-2.85,2.6-4.57-1.65-1.01-3.2-2.62-4.46-4.63.37-.46.69-1,.96-1.6,1.56.82,3.17,1.21,5,1.11.32-1.73.5-3.56.5-5.46v-.39c-1.47.83-3.06,1.24-4.64,1.19.02-.26.03-.53.03-.8,0-.47-.03-.93-.08-1.38,1.49-1.13,2.82-2.62,4.07-4.72-.45-2.15-1.14-4.15-2.01-5.9-.65,2.66-1.73,5.16-3.08,7.18-.3-.57-.65-1.07-1.04-1.49.71-3.21.92-6.52.54-10.63-1.49-1.38-3.17-2.3-4.97-2.65-.11.02-.23.05-.34.07,1.65,3.22,2.51,7.59,2.47,11.89-.17-.03-.34-.04-.52-.04-.31,0-.6.04-.89.12-1.14-3.57-2.82-6.51-5.69-9.39-1.46,1.35-2.73,3.15-3.74,5.26,2.64.48,5.26,2.63,7.2,5.72-.37.46-.69,1-.96,1.6-2.44-1.28-4.98-1.52-8.33-.44-.25,1.53-.38,3.14-.38,4.79,0,1.02.05,2.02.15,3,2.08-2.54,4.92-3.88,7.71-3.81-.02.26-.03.53-.03.8,0,.47.03.93.08,1.38-2.31,1.76-4.22,4.36-6.09,8.77.88,2.25,2.04,4.21,3.41,5.76.31-4.07,1.7-8.11,3.71-11.1.3.57.65,1.07,1.04,1.48-.83,3.77-.99,7.68-.28,12.85.49.19.99.33,1.5.43Z"/>
        <path class="cls-7" d="m211.94,94.5c1.45,0,2.63-1.83,2.63-4.06s-1.18-4.06-2.63-4.06-2.63,1.83-2.63,4.06,1.18,4.06,2.63,4.06Z"/>
      </g>
      <path class="cls-1" d="m261.06,32.31h0,0Zm-11.24-6.4c-21.26-3.9-44.9-6.63-69.88-7.82-5.59-.27-11.12-.45-16.59-.55l.07.06.2.19.25.23.02.02.27.25.27.25.27.26.07.07.19.19.25.24h.01s.26.27.26.27l.17.16.1.1.26.26.26.26.26.26h0s.26.26.26.26l.17.17.09.09.26.26.09.09.17.17.26.26h0s.25.26.25.26l.18.18.08.08.26.27.1.1.16.17.26.27h.01s.24.27.24.27l.19.2.07.07.26.27.1.11.15.16.51.54.19.21.06.06.25.27.11.12.14.15.25.27.03.03.22.24.2.22.05.05.25.27.12.13.13.14.25.27.04.04.21.23.21.23.04.05.25.27.25.27.25.27.05.05.2.22.21.24.03.04.25.27.13.15.11.12.24.27.05.06.19.21.22.25.02.03.24.27.14.16.1.12.24.27.06.07.18.2.22.25.02.02.24.27.15.17.09.11.24.27.07.08.17.19.23.26h0s.24.28.24.28l.15.17.09.1.24.27.08.09.16.18.24.27,32.29-2.36,48.2.02c-3.31-2.15-6.7-4.3-10.14-6.4Z"/>
      <path class="cls-5" d="m95.62,2.85c-15.81,2.74-29.75,7.88-42.02,15.16l-29.12,15.29-12.35,1.47-3.83,6.49-2.15,8.26L0,63.03l5.09,31.81-.96,3.96,16.05,3.56.75-3.83v-4.38c0-18.3,9.28-33.13,23.13-33.13s22.58,14.83,22.58,33.13v9.68l.64,3.35h118.87l-.09-5.56v-7.46c0-18.3,8.67-33.13,22.52-33.13s22.64,14.83,22.64,33.13v9.67l3.08.1.69,3.82h21.75l5.18-8.31,2.44-16.63-7.11-6.27,6.14-10.06-7.93-12.86-22.96-6.21-53.73-10.88c-10.91-12.5-21.99-24.56-35.24-31.09-10.64-4.57-28.35-4.22-47.92-2.58Z"/>
      <path class="cls-2" d="m184.89,53.72c-57.14-2.9-121.11-4.47-178.74-4.19L0,63.03c33.92-12.81,27.77,1.94,31.6-2.37,2.61-2.95,7.86-.55,11.76-.62,4.1-.08,21.84,8.02,19.57,4.61-3.63-5.44,11.5-6.84,32.68-6.9l89.27-4.02Z"/>
      <path class="cls-2" d="m16.26,101.47l4.66-2.94v-4.38c0-18.3,9.28-33.13,23.13-33.13s22.59,14.83,22.59,33.13v9.68l1.13,3.35,4.18-4.73v-9.66c0-21.11-12.47-38.22-27.85-38.22s-27.85,17.11-27.85,38.22v8.67Z"/>
      <path class="cls-2" d="m186.16,107.74l.9-3.81c-.28-3.63-1-6.07-1-9.78,0-18.3,8.68-33.13,22.53-33.13s22.64,14.83,22.64,33.13v9.67s5.82,3.91,5.82,3.91v-12.64c0-22.45-11.57-40.65-28.46-40.65-24.77,0-29.24,29.19-26.89,49.38l4.45,3.9Z"/>
      <path class="cls-2" d="m211.82,34.11c41.2,4.44,76.86,11.09,95.98,23.81l-9.06,10.55-16.86.23-18.47-2.22-7.98-12.06-22.91-7.01c-66.26-5.86-142.53-6.86-224.21-6.14l3.77-6.49,150.64,2.85,49.11-3.52Z"/>
      <polygon class="cls-12" points="307.8 57.92 281.88 68.7 353.16 67.83 349.76 57.91 307.8 57.92"/>
      <polygon class="cls-1" points="308.01 57.92 281.88 68.66 349.63 67.83 346.23 57.91 346.23 57.91 308.01 57.92"/>
      <path class="cls-11" d="m4.81,41.04c.73-2.74,6.35-6.26,7.32-6.26l4.61,6.22-10.59,8.53-1.34-8.49Z"/>
      <polygon class="cls-12" points="264.37 82.81 295.31 82.81 292.39 84.98 280.9 86.54 264.27 99.43 258.22 99.43 264.37 82.81"/>
      <polygon class="cls-1" points="264.37 82.81 291.78 82.81 288.87 84.97 277.37 86.54 260.74 99.43 258.22 99.43 264.37 82.81"/>
      <polygon class="cls-12" points="286.51 99.43 307.95 82.81 353.69 82.81 350.93 99.43 286.51 99.43"/>
      <polygon class="cls-1" points="286.51 99.43 307.95 82.81 350.17 82.81 347.41 99.43 286.51 99.43"/>
      <g>
        <polygon class="cls-12" points="333.59 60.35 327.29 60.35 329.48 66.72 330.98 66.72 333.59 60.35"/>
        <polygon class="cls-9" points="335.1 60.35 328.8 60.35 330.98 66.72 335.1 60.35"/>
      </g>
      <path class="cls-8" d="m51.08,22.53c8.71-4.06,17.1-9.02,26.14-12.17,14.36-5,29.45-6.03,47.28-5.63,20.68.46,32.7,15.09,44.75,30.42l-108.38-2.17-9.78-10.45Z"/>
      <path class="cls-3" d="m71.54,14.56c-1.64,2-3.13,3.99-4.54,6-2.22,3.17-4.21,6.38-6.23,9.74l-6.72-7.18c5.83-2.82,11.56-5.96,17.48-8.56h0Zm40.5-8.01c-11.61.31-23.16,1.67-34.29,5.55l-.23.08c-3.2,3.42-5.84,6.78-8.23,10.2-2.01,2.87-3.84,5.79-5.67,8.82l42.95.86c.45-4.66,1.15-9.23,2.12-13.68.88-4.01,1.98-7.95,3.34-11.83h0Zm-.33,25.61c.43-4.23,1.08-8.41,1.98-12.54.98-4.48,2.26-8.87,3.88-13.14,2.3,0,4.6.03,6.89.08,18.59.41,29.95,12.76,41.04,26.69l-53.79-1.08Z"/>
      <path class="cls-1" d="m66.91,20.68c-2.18,3.13-4.15,6.3-6.14,9.61l-6.72-7.18c1.18-.57,2.35-1.15,3.52-1.74,3.07-.26,6.18-.49,9.34-.69h0Zm60.53-.38c-4.64-.22-9.24-.38-13.79-.49-.88,4.07-1.52,8.19-1.94,12.36l53.79,1.08c-3.03-3.8-6.08-7.49-9.29-10.84-9.34-.92-18.95-1.63-28.77-2.1h0Zm-19.03-.59c-13.04-.19-25.68.07-37.75.75-.47.64-.93,1.28-1.37,1.92-2.01,2.87-3.84,5.79-5.67,8.82l42.95.86c.41-4.2,1.01-8.32,1.84-12.35Z"/>
      <path class="cls-4" d="m293.76,58.26c-18.08-6.17-40.89-9.03-61.25-10.85l22.91,7.01,7.98,12.06,30.36-8.21Z"/>
      <path class="cls-2" d="m177.7,73.45c-28.35,12.12-37.36,13.5-96.12,20.17h73.11l23-20.17Z"/>
      <path class="cls-2" d="m66.65,103.83l.64,3.9h118.87l1.02-.87-.12-3.04h-120.41Zm164.59,0l3.77,3.91h21.75l2.43-3.9h-27.95Z"/>
      <polygon class="cls-2" points="5.09 94.84 4.13 98.8 21.83 102.77 20.93 98.53 5.09 94.84"/>
      <polygon class="cls-1" points="123.5 43.91 111.42 43.91 108.88 46.21 120.97 46.21 123.5 43.91"/>
      <polygon class="cls-1" points="70.81 43.91 58.73 43.91 56.19 46.21 68.28 46.21 70.81 43.91"/>
      <polygon class="cls-5" points="157.21 36.41 164.75 36.69 164.71 32.7 153.73 23.41 151.84 26.71 157.21 36.41"/>
      <polygon class="cls-5" points="134.92 23.89 154.33 21.34 157.02 26.48 155.83 31.62 148.27 33.89 132.06 30.13 134.92 23.89"/>
      <polygon class="cls-2" points="134.92 23.89 154.33 21.34 157.02 26.48 134.92 23.89"/>
    </g>
  </g>
</svg>