<?xml version="1.0" encoding="UTF-8"?>
<svg id="Capa_2" data-name="Capa 2" xmlns="http://www.w3.org/2000/svg" viewBox="0 0 30.05 16">
  <defs>
    <style>
      .cls-1 {
        fill: #b4bfd5;
      }
    </style>
  </defs>
  <g id="Layer_2" data-name="Layer 2">
    <g>
      <path class="cls-1" d="m12.78.04c-.11.15-.18.25-.26.34-2.08,2.4-4.16,4.81-6.26,7.2-.27.31-.29.49,0,.81,2.11,2.4,4.2,4.82,6.3,7.23.08.09.15.2.28.37-.27,0-.46,0-.65,0-1.61,0-3.21,0-4.82,0-.19,0-.45-.06-.56-.19-2.27-2.58-4.51-5.18-6.79-7.81.6-.69,1.19-1.38,1.79-2.06,1.61-1.86,3.23-3.71,4.84-5.58C6.83.11,7.03,0,7.37,0c1.64.02,3.28,0,4.92,0,.14,0,.28.02.49.03Z"/>
      <path class="cls-1" d="m30.05,0c-2.35,2.71-4.62,5.32-6.93,7.98,2.29,2.64,4.58,5.28,6.92,7.97-.22.02-.36.03-.5.03-1.66,0-3.31.01-4.97,0-.21,0-.5-.1-.63-.25-2.21-2.52-4.41-5.06-6.61-7.59-.04-.05-.07-.1-.12-.17,1.05-1.21,2.09-2.41,3.14-3.62,1.17-1.35,2.34-2.7,3.52-4.05.11-.13.31-.28.46-.28,1.85-.02,3.7-.01,5.7-.01Z"/>
      <path class="cls-1" d="m14.52,7.99c2.31,2.66,4.58,5.28,6.92,7.97-.23.02-.37.03-.51.03-1.66,0-3.31,0-4.97,0-.2,0-.47-.08-.59-.22-2.22-2.53-4.43-5.08-6.63-7.63-.03-.04-.05-.08-.1-.15.08-.1.15-.22.24-.32,2.11-2.44,4.23-4.87,6.34-7.31C15.43.11,15.65,0,16,0c1.62.02,3.24,0,4.87,0h.57c-2.35,2.7-4.62,5.32-6.93,7.98Z"/>
    </g>
  </g>
</svg>