<?xml version="1.0" encoding="UTF-8"?>
<svg id="Capa_2" data-name="Capa 2" xmlns="http://www.w3.org/2000/svg" viewBox="0 0 59.32 2.95">
  <defs>
    <style>
      .cls-1 {
        fill: #8a8a8a;
        fill-rule: evenodd;
      }
    </style>
  </defs>
  <g id="Layer_2" data-name="Layer 2">
    <g>
      <path class="cls-1" d="m12.85,0H1.48C.66,0,0,.66,0,1.48h0c0,.81.69,1.48,1.48,1.48h11.37c.78,0,1.48-.66,1.48-1.48h0c0-.81-.66-1.48-1.48-1.48Z"/>
      <path class="cls-1" d="m35.35,0h-11.37c-.81,0-1.48.66-1.48,1.48h0c0,.81.69,1.48,1.48,1.48h11.37c.78,0,1.48-.66,1.48-1.48h0c0-.81-.66-1.48-1.48-1.48Z"/>
      <path class="cls-1" d="m57.85,0h-11.37c-.81,0-1.48.66-1.48,1.48h0c0,.81.69,1.48,1.48,1.48h11.37c.78,0,1.48-.66,1.48-1.48h0c0-.81-.66-1.48-1.48-1.48Z"/>
    </g>
  </g>
</svg>