<?xml version="1.0" encoding="UTF-8"?>
<svg id="Capa_2" data-name="Capa 2" xmlns="http://www.w3.org/2000/svg" viewBox="0 0 81.25 84.42">
  <defs>
    <style>
      .cls-1 {
        letter-spacing: .02em;
      }

      .cls-2 {
        fill: #990004;
        stroke: #fff;
        stroke-miterlimit: 10;
        stroke-width: 2px;
      }

      .cls-3 {
        fill: #fff;
        font-family: Montserrat-SemiBold, Montserrat;
        font-size: 35.7px;
        font-weight: 600;
      }

      .cls-4 {
        letter-spacing: 0em;
      }

      .cls-5 {
        fill: #c10b10;
      }

      .cls-6 {
        letter-spacing: 0em;
      }
    </style>
  </defs>
  <g id="Layer_2" data-name="Layer 2">
    <path class="cls-2" d="m80.25,42.21c-.89,54.95-78.37,54.94-79.25,0,.89-54.95,78.37-54.94,79.25,0Z"/>
    <path class="cls-5" d="m60.8,21.01c-2.68,2.58-5.3,5.09-7.93,7.63-10.12-9.69-27.89-2.72-29.57,11.3-3.79,21.11,29.4,30.25,34.46,8.48h-16.5v-10.02c8.83,0,17.66,0,26.49,0,1.07,0,1.01-.21,1.16.99,4.45,26.18-26.02,42.2-46.03,25.88C-7.4,40.01,31.22-5.21,60.8,21.01Z"/>
    <text class="cls-3" transform="translate(13.29 51.73)"><tspan class="cls-1" x="0" y="0">4</tspan><tspan class="cls-4" x="24.95" y="0">.</tspan><tspan class="cls-6" x="34.02" y="0">2</tspan></text>
  </g>
</svg>