<?xml version="1.0" encoding="UTF-8"?>
<svg id="Capa_2" data-name="Capa 2" xmlns="http://www.w3.org/2000/svg" viewBox="0 0 30.5 31">
  <defs>
    <style>
      .cls-1 {
        fill: #fff;
      }

      .cls-2 {
        fill: #21599c;
      }
    </style>
  </defs>
  <g id="Layer_2" data-name="Layer 2">
    <circle class="cls-2" cx="14.5" cy="16.5" r="14.5"/>
    <g>
      <path class="cls-1" d="m16.8.38c-.35-.06-.68-.25-1.02-.38"/>
      <path class="cls-1" d="m30.5,14.57c-.19-.76-.37-1.51-.56-2.27"/>
      <path class="cls-1" d="m12.52,16.54c-.9.37-1.5.68-2.14.86-.29.08-.79.03-.94-.16-.15-.2-.13-.79.05-.94,1.92-1.61,3.94-3.08,6.54-3.41,1.39-.18,2.07.43,1.79,1.81-.42,2.11-.91,4.21-1.38,6.31-.16.7-.34,1.4-.61,2.5.91-.4,1.48-.74,2.1-.9.37-.1.81.05,1.22.09-.09.36-.05.9-.28,1.04-1.79,1.11-3.53,2.36-5.46,3.15-1.78.73-2.96-.37-2.62-2.27.46-2.58,1.1-5.13,1.74-8.08Z"/>
      <path class="cls-1" d="m15.82,5.27c1.42.03,2.33.9,2.32,2.24-.01,1.58-1.4,2.89-3,2.83-1.57-.06-2.48-.94-2.42-2.31.08-1.56,1.46-2.79,3.1-2.76Z"/>
    </g>
  </g>
</svg>