<?xml version="1.0" encoding="UTF-8"?>
<svg id="Capa_2" data-name="Capa 2" xmlns="http://www.w3.org/2000/svg" viewBox="0 0 36 36">
  <defs>
    <style>
      .cls-1 {
        fill: #eaaca8;
      }

      .cls-2 {
        fill: #8a0004;
      }
    </style>
  </defs>
  <g id="Layer_2" data-name="Layer 2">
    <g>
      <rect class="cls-2" width="36" height="36"/>
      <g>
        <path class="cls-1" d="m13.86,14.2h4.89v1.94c.37-.41.67-.81,1.03-1.14.85-.78,1.89-1.1,3.04-1.11,1.5-.02,2.85.38,3.91,1.48.88.92,1.31,2.06,1.49,3.29.08.54.12,1.09.12,1.63.01,2.69,0,5.37,0,8.06v.29h-4.87c0-.14,0-.25,0-.37,0-2.44,0-4.88,0-7.33,0-.8-.04-1.6-.41-2.34-.23-.45-.57-.75-1.05-.9-1.52-.47-3.17.68-3.21,2.27-.04,1.44-.03,2.88-.04,4.32,0,1.33,0,2.66,0,3.98,0,.12,0,.24,0,.38h-4.89v-14.45Z"/>
        <path class="cls-1" d="m6.74,14.2h4.8v14.45h-4.8v-14.45Z"/>
        <path class="cls-1" d="m9.02,12.32c-1.21-.04-2.18-.68-2.49-1.7-.45-1.48.4-2.89,1.93-3.15,1.05-.18,2,0,2.72.88,1.06,1.28.43,3.34-1.17,3.79-.32.09-.65.12-.98.18Z"/>
      </g>
    </g>
  </g>
</svg>