<?xml version="1.0" encoding="UTF-8"?>
<svg xmlns="http://www.w3.org/2000/svg" xmlns:xlink="http://www.w3.org/1999/xlink" viewBox="0 0 408.63 215.67">
  <defs>
    <style>
      .cls-1 {
        fill: #f2f2f2;
        opacity: .05;
      }

      .cls-1, .cls-2, .cls-3, .cls-4, .cls-5, .cls-6, .cls-7, .cls-8, .cls-9, .cls-10, .cls-11, .cls-12, .cls-13, .cls-14, .cls-15, .cls-16, .cls-17, .cls-18, .cls-19, .cls-20, .cls-21, .cls-22, .cls-23, .cls-24, .cls-25, .cls-26, .cls-27, .cls-28, .cls-29, .cls-30, .cls-31, .cls-32, .cls-33, .cls-34, .cls-35, .cls-36, .cls-37, .cls-38, .cls-39, .cls-40, .cls-41, .cls-42, .cls-43, .cls-44, .cls-45, .cls-46, .cls-47, .cls-48, .cls-49, .cls-50, .cls-51, .cls-52, .cls-53, .cls-54, .cls-55, .cls-56, .cls-57, .cls-58, .cls-59, .cls-60, .cls-61, .cls-62, .cls-63, .cls-64, .cls-65, .cls-66, .cls-67, .cls-68, .cls-69, .cls-70, .cls-71, .cls-72, .cls-73, .cls-74, .cls-75, .cls-76, .cls-77, .cls-78, .cls-79, .cls-80, .cls-81, .cls-82, .cls-83, .cls-84, .cls-85, .cls-86, .cls-87 {
        fill-rule: evenodd;
      }

      .cls-88 {
        mix-blend-mode: multiply;
        opacity: .4;
      }

      .cls-2 {
        fill: #606060;
        opacity: .62;
      }

      .cls-3 {
        fill: url(#_Áåçûìÿííûé_ãðàäèåíò_5-2);
      }

      .cls-4 {
        fill: #1a1a1a;
      }

      .cls-89 {
        fill: #0f0f0f;
      }

      .cls-5 {
        fill: #464646;
      }

      .cls-90, .cls-15, .cls-66 {
        fill: #fff;
      }

      .cls-6 {
        fill: #545454;
        opacity: .67;
      }

      .cls-7 {
        fill: #e6e6e6;
        opacity: .1;
      }

      .cls-8 {
        fill: #cdcdcd;
        opacity: .2;
      }

      .cls-91, .cls-68 {
        fill: #cbcbcb;
      }

      .cls-9 {
        fill: #4f4f4f;
        opacity: .69;
      }

      .cls-10 {
        fill: #4b4b4b;
        opacity: .7;
      }

      .cls-92, .cls-20 {
        fill: #a5aaaf;
      }

      .cls-11 {
        fill: #363636;
        opacity: .79;
      }

      .cls-12 {
        fill: #a7a7a7;
        opacity: .34;
      }

      .cls-13 {
        fill: #a66817;
      }

      .cls-14 {
        fill: #e19b23;
      }

      .cls-16 {
        fill: #c4c4c4;
        opacity: .23;
      }

      .cls-17 {
        fill: #6d6d6d;
        opacity: .57;
      }

      .cls-18 {
        fill: #797979;
        opacity: .52;
      }

      .cls-19 {
        fill: #969696;
        opacity: .41;
      }

      .cls-21 {
        fill: #f7f7f7;
        opacity: .03;
      }

      .cls-22 {
        fill: silver;
        opacity: .25;
      }

      .cls-93 {
        isolation: isolate;
      }

      .cls-23 {
        fill: #ce2929;
      }

      .cls-24 {
        fill: #a31a1a;
      }

      .cls-25, .cls-94 {
        fill: #2a2f37;
      }

      .cls-26 {
        fill: #b4b4b4;
        opacity: .3;
      }

      .cls-27 {
        fill: #474747;
        opacity: .72;
      }

      .cls-95, .cls-31 {
        fill: #1c1f25;
      }

      .cls-28 {
        fill: #fbfbfb;
        opacity: .02;
      }

      .cls-29 {
        fill: #757575;
        opacity: .54;
      }

      .cls-30 {
        fill: #0093b9;
        opacity: .25;
      }

      .cls-32 {
        fill: #c3c3c3;
      }

      .cls-33 {
        fill: #9f9f9f;
        opacity: .38;
      }

      .cls-34 {
        fill: #828282;
        opacity: .49;
      }

      .cls-35 {
        fill: #5c5c5c;
        opacity: .64;
      }

      .cls-36 {
        fill: #111;
        opacity: .93;
      }

      .cls-37 {
        fill: #d9d9d9;
        opacity: .15;
      }

      .cls-38 {
        fill: #eaeaea;
        opacity: .08;
      }

      .cls-39 {
        fill: #d57629;
      }

      .cls-40 {
        fill: #ed2e00;
      }

      .cls-41 {
        fill: #b8b8b8;
        opacity: .28;
      }

      .cls-42 {
        fill: #585858;
        opacity: .66;
      }

      .cls-43 {
        fill: #9f531a;
      }

      .cls-44 {
        fill: #c9c9c9;
        opacity: .21;
      }

      .cls-45 {
        fill: #434343;
        opacity: .74;
      }

      .cls-46 {
        fill: #080808;
        opacity: .97;
      }

      .cls-47 {
        fill: #323232;
        opacity: .8;
      }

      .cls-48 {
        fill: #040404;
        opacity: .98;
      }

      .cls-49 {
        fill: #ababab;
        opacity: .33;
      }

      .cls-50 {
        fill: #a3a3a3;
        opacity: .36;
      }

      .cls-51 {
        fill: #d93a3a;
      }

      .cls-52 {
        fill: #cacaca;
      }

      .cls-53 {
        fill: #bcbcbc;
        opacity: .26;
      }

      .cls-54 {
        fill: #b0b0b0;
        opacity: .31;
      }

      .cls-55 {
        fill: #151515;
        opacity: .92;
      }

      .cls-56 {
        fill: #d5d5d5;
        opacity: .16;
      }

      .cls-57 {
        fill: #646464;
        opacity: .61;
      }

      .cls-58 {
        fill: #a15e18;
      }

      .cls-59 {
        fill: #eee;
        opacity: .07;
      }

      .cls-60 {
        fill: #262626;
        opacity: .85;
      }

      .cls-61 {
        fill: #333;
      }

      .cls-62 {
        fill: #701c00;
      }

      .cls-63 {
        fill: #9b9b9b;
        opacity: .39;
      }

      .cls-64 {
        fill: #8e8e8e;
        opacity: .44;
      }

      .cls-65 {
        fill: #0d0d0d;
        opacity: .95;
      }

      .cls-66 {
        opacity: 0;
      }

      .cls-67 {
        fill: #2a2a2a;
        opacity: .84;
      }

      .cls-69 {
        fill: #929292;
        opacity: .43;
      }

      .cls-70 {
        fill: #3f3f3f;
        opacity: .75;
      }

      .cls-71 {
        fill: #717171;
        opacity: .56;
      }

      .cls-72 {
        fill: #707070;
      }

      .cls-73 {
        fill: #d1d1d1;
        opacity: .18;
      }

      .cls-74 {
        fill: #212121;
        opacity: .87;
      }

      .cls-75 {
        fill: #868686;
        opacity: .48;
      }

      .cls-76 {
        fill: #191919;
        opacity: .9;
      }

      .cls-77 {
        fill: #696969;
        opacity: .59;
      }

      .cls-78 {
        fill: #2e2e2e;
        opacity: .82;
      }

      .cls-79 {
        fill: #e2e2e2;
        opacity: .11;
      }

      .cls-80 {
        fill: url(#_Áåçûìÿííûé_ãðàäèåíò_5);
      }

      .cls-96 {
        fill: #666;
      }

      .cls-81 {
        fill: #3b3b3b;
        opacity: .77;
      }

      .cls-82 {
        fill: #1d1d1d;
        opacity: .89;
      }

      .cls-83 {
        fill: #7d7d7d;
        opacity: .51;
      }

      .cls-85 {
        fill: #dedede;
        opacity: .13;
      }

      .cls-86 {
        fill: #edc01d;
      }

      .cls-87 {
        fill: #8a8a8a;
        opacity: .46;
      }
    </style>
    <linearGradient id="_Áåçûìÿííûé_ãðàäèåíò_5" data-name="Áåçûìÿííûé ãðàäèåíò 5" x1="303.38" y1="103.99" x2="303.38" y2="119.77" gradientUnits="userSpaceOnUse">
      <stop offset="0" stop-color="#25292e"/>
      <stop offset="1" stop-color="#1c1f25"/>
    </linearGradient>
    <linearGradient id="_Áåçûìÿííûé_ãðàäèåíò_5-2" data-name="Áåçûìÿííûé ãðàäèåíò 5" x1="237.46" y1="103.71" x2="237.46" y2="121.87" xlink:href="#_Áåçûìÿííûé_ãðàäèåíò_5"/>
  </defs>
  <g class="cls-93">
    <g id="Capa_2" data-name="Capa 2">
      <g id="Layer_2" data-name="Layer 2">
        <g>
          <path class="cls-30" d="m186.88,88.52c-16.22,4.38-22.86-20.19-6.62-24.53l104.28-27.85c16.24-4.34,22.85,20.15,6.62,24.53-16.22,4.38-9.6,28.91,6.62,24.53l64.75-17.49c16.22-4.38,25.06,19.55,6.62,24.53-9.28,2.51-6.77,1.81-7.26,1.94-16.22,4.38-9.6,28.91,6.62,24.53l24.8-6.64c15.52-4.15,21.83,20.45,6.57,24.53l-136.28,36.52c-16.23,4.35-22.86-20.17-6.62-24.52l8.83-2.37c16.23-4.35,9.61-28.87-6.61-24.49l-72.9,19.54c-6.78,1.82-13.75-2.18-15.58-8.95-1.83-6.77,2.18-13.75,8.95-15.58l13.91-3.73c16.22-4.38,9.53-28.9-6.69-24.51h0Zm142.2-38.09c6.77-1.83,10.78-8.8,8.95-15.58-1.83-6.77-8.8-10.78-15.58-8.95-6.77,1.83-10.78,8.8-8.95,15.58,1.83,6.77,8.8,10.78,15.58,8.95Z"/>
          <g>
            <path class="cls-43" d="m298.1,32.47c16.05,18.2,37.84,52.52,58.73,104.59,3.11-7.74,11.41-19.6,24.45-24.87-15.65-45.42-80.14-78.91-83.18-79.72Z"/>
            <path class="cls-58" d="m298.11,32.47c9.56,16.56,5.47,72.43,5.47,112.52,9.94-5.86,34.72-12.72,53.26-7.93-7.19-33.2-22.44-66.42-58.73-104.59Z"/>
            <path class="cls-86" d="m299.16,28.55l38.81,46.88c17.91,4.8,30.77,17.44,43.31,36.76-7.85-41.21-51.04-75.32-82.12-83.65Z"/>
            <path class="cls-25" d="m300.86,22.19h0c-1.08-.29-2.2.36-2.49,1.44l-2.71,10.1c-.29,1.08.36,2.2,1.44,2.49h0c1.08.29,2.2-.36,2.49-1.44l2.71-10.1c.29-1.08-.36-2.2-1.44-2.49Z"/>
            <path class="cls-43" d="m298.11,32.47c-23,7.74-59.03,26.56-103.15,61.21,1.18-8.25-.08-22.68-8.74-33.76,36.26-31.51,108.85-28.26,111.89-27.45Z"/>
            <path class="cls-58" d="m298.1,32.47c-16.56,9.56-40.95,59.99-61,94.71-5.68-10.04-23.71-28.38-42.15-33.5,22.83-25.15,52.65-46.3,103.15-61.21Z"/>
            <path class="cls-13" d="m298.1,32.47c12.17,3.26,16.27,72.22,5.47,112.52-17.43-11.43-45.85-19.09-66.47-17.81,9.46-35.29,48.83-97.97,61-94.71Z"/>
            <path class="cls-68" d="m290.26,61.75h0c-.83-.22-1.69.28-1.92,1.11l-26.83,100.13c-.22.83.28,1.69,1.11,1.92h0c.83.22,1.69-.28,1.92-1.11l26.83-100.13c.22-.83-.28-1.69-1.11-1.92Z"/>
            <path class="cls-31" d="m293.04,51.37h0c-1.25-.34-2.55.41-2.89,1.67l-3.14,11.72c-.34,1.25.41,2.55,1.67,2.89h0c1.25.34,2.55-.41,2.89-1.67l3.14-11.72c.34-1.25-.41-2.55-1.67-2.89Z"/>
            <path class="cls-39" d="m299.16,28.55l-57.05,21.2c-17.91-4.8-35.37-.28-55.89,10.18,27.4-31.76,81.86-39.71,112.95-31.38Z"/>
            <path class="cls-14" d="m299.16,28.55c17.55,4.7,35.93,22.12,38.81,46.88-28.69-20.75-60.62-29.4-95.86-25.69,15.01-20.18,39.5-25.9,57.05-21.2Z"/>
          </g>
          <g>
            <polygon class="cls-31" points="317.17 164.72 211.12 164.72 184.07 160.87 179.83 160.87 177.01 151.63 177.46 134.33 317.17 134.33 317.17 164.72"/>
            <path class="cls-31" d="m260.64,139.75h7.5c6.37,0,11.53,7.96,11.53,17.79s-5.16,17.79-11.53,17.79h-7.5c-6.37,0-11.53-7.96-11.53-17.79s5.16-17.79,11.53-17.79h0Zm92.57,35.58c-6.37,0-11.53-7.96-11.53-17.79s5.16-17.79,11.53-17.79h7.5c6.37,0,11.53,7.96,11.53,17.79s-5.16,17.79-11.53,17.79h-7.5Z"/>
            <path class="cls-31" d="m286.39,175.32h7.5c6.37,0,11.53-7.96,11.53-17.79s-5.16-17.79-11.53-17.79h-7.5c-6.93,0-7.16,35.58,0,35.58Z"/>
            <ellipse class="cls-94" cx="286.39" cy="157.53" rx="11.53" ry="17.79"/>
            <ellipse class="cls-90" cx="286.39" cy="157.53" rx="8.5" ry="13.12"/>
            <ellipse class="cls-92" cx="286.39" cy="157.53" rx="7.29" ry="11.25"/>
            <path class="cls-31" d="m287.8,168.58c3.35-1.01,5.88-5.57,5.88-11.04s-2.53-10.03-5.88-11.04c-3.35,1.01-5.88,5.57-5.88,11.04s2.53,10.03,5.88,11.04Z"/>
            <path class="cls-25" d="m287.9,168.55c1.95-.63,3.61-2.46,4.64-4.97-.48-.55-.75-1.68-.12-3.36.39-1.03.82-1.5,1.23-1.63.02-.35.03-.7.03-1.05s-.01-.71-.03-1.06c-.41-.13-.84-.6-1.23-1.63-.63-1.68-.36-2.81.12-3.36-1.04-2.51-2.7-4.34-4.64-4.97-3.3,1.07-5.78,5.6-5.78,11.01s2.48,9.94,5.78,11.01h0Zm1.51-16.39c-2.37,0-2.04-3.29-1.23-3.55.82-.27,1.65-.28,2.47,0,.81.27,1.13,3.55-1.24,3.55h0Zm-3.02,2.69c-1.19,3.17-2.86,1.08-2.61-.13.26-1.24.67-2.34,1.24-3.3.56-.94,2.56.27,1.38,3.43h0Zm0,5.38c1.18,3.17-.83,4.37-1.38,3.43-.56-.96-.98-2.06-1.24-3.3-.25-1.21,1.43-3.29,2.61-.13h0Zm3.02,2.69c2.37,0,2.04,3.29,1.24,3.55-.82.27-1.65.28-2.47,0-.81-.27-1.13-3.55,1.24-3.55Z"/>
            <path class="cls-15" d="m287.37,168.69c2.08-.43,3.89-2.21,5.03-4.76-.75.25-2.04-1.03-1.04-3.71.77-2.06,1.74-1.9,2.27-1.2.04-.49.06-.98.06-1.48s-.02-1-.06-1.48c-.52.69-1.5.85-2.27-1.2-1-2.68.29-3.95,1.04-3.71-1.14-2.54-2.95-4.33-5.03-4.76-3.57.73-6.32,5.45-6.32,11.15s2.75,10.42,6.32,11.15h0Zm.97-16.53c-2.37,0-2.04-3.29-1.23-3.55.82-.27,1.65-.28,2.47,0,.81.27,1.13,3.55-1.24,3.55h0Zm-3.02,2.69c-1.19,3.17-2.86,1.08-2.61-.13.26-1.24.67-2.34,1.24-3.3.56-.94,2.56.27,1.38,3.43h0Zm0,5.38c1.18,3.17-.83,4.37-1.38,3.43-.56-.96-.98-2.06-1.24-3.3-.25-1.21,1.43-3.29,2.61-.13h0Zm3.02,2.69c2.37,0,2.04,3.29,1.24,3.55-.82.27-1.65.28-2.47,0-.81-.27-1.13-3.55,1.24-3.55Z"/>
            <path class="cls-20" d="m288.41,154.4c-1.17,0-2.11,1.46-2.11,3.26s.95,3.26,2.11,3.26,2.11-1.46,2.11-3.26-.95-3.26-2.11-3.26Z"/>
            <path class="cls-31" d="m193.82,175.32h7.5c6.37,0,11.53-7.96,11.53-17.79s-5.16-17.79-11.53-17.79h-7.5c-6.93,0-7.16,35.58,0,35.58Z"/>
            <ellipse class="cls-94" cx="193.82" cy="157.53" rx="11.53" ry="17.79"/>
            <ellipse class="cls-90" cx="193.82" cy="157.53" rx="8.5" ry="13.12"/>
            <ellipse class="cls-92" cx="193.82" cy="157.53" rx="7.29" ry="11.25"/>
            <path class="cls-31" d="m195.23,168.58c3.35-1.01,5.88-5.57,5.88-11.04s-2.53-10.03-5.88-11.04c-3.35,1.01-5.88,5.57-5.88,11.04s2.53,10.03,5.88,11.04Z"/>
            <path class="cls-25" d="m195.33,168.55c1.95-.63,3.61-2.46,4.64-4.97-.48-.55-.75-1.68-.12-3.36.39-1.03.82-1.5,1.23-1.63.02-.35.03-.7.03-1.05s-.01-.71-.03-1.06c-.41-.13-.84-.6-1.23-1.63-.63-1.68-.36-2.81.12-3.36-1.04-2.51-2.7-4.34-4.64-4.97-3.3,1.07-5.78,5.6-5.78,11.01s2.48,9.94,5.78,11.01h0Zm1.51-16.39c-2.37,0-2.04-3.29-1.23-3.55.82-.27,1.65-.28,2.47,0,.81.27,1.13,3.55-1.24,3.55h0Zm-3.02,2.69c-1.19,3.17-2.86,1.08-2.61-.13.26-1.24.67-2.34,1.24-3.3.56-.94,2.56.27,1.38,3.43h0Zm0,5.38c1.18,3.17-.83,4.37-1.38,3.43-.56-.96-.98-2.06-1.24-3.3-.25-1.21,1.43-3.29,2.61-.13h0Zm3.02,2.69c2.37,0,2.04,3.29,1.24,3.55-.82.27-1.65.28-2.47,0-.81-.27-1.13-3.55,1.24-3.55Z"/>
            <path class="cls-15" d="m194.79,168.69c2.08-.43,3.89-2.21,5.03-4.76-.75.25-2.04-1.03-1.04-3.71.77-2.06,1.74-1.9,2.27-1.2.04-.49.06-.98.06-1.48s-.02-1-.06-1.48c-.52.69-1.5.85-2.27-1.2-1-2.68.29-3.95,1.04-3.71-1.14-2.54-2.95-4.33-5.03-4.76-3.57.73-6.32,5.45-6.32,11.15s2.75,10.42,6.32,11.15h0Zm.97-16.53c-2.37,0-2.04-3.29-1.23-3.55.82-.27,1.65-.28,2.47,0,.81.27,1.13,3.55-1.24,3.55h0Zm-3.02,2.69c-1.19,3.17-2.86,1.08-2.61-.13.26-1.24.67-2.34,1.24-3.3.56-.94,2.56.27,1.38,3.43h0Zm0,5.38c1.18,3.17-.83,4.37-1.38,3.43-.56-.96-.98-2.06-1.24-3.3-.25-1.21,1.43-3.29,2.61-.13h0Zm3.02,2.69c2.37,0,2.04,3.29,1.24,3.55-.82.27-1.65.28-2.47,0-.81-.27-1.13-3.55,1.24-3.55Z"/>
            <path class="cls-20" d="m195.84,154.4c-1.17,0-2.11,1.46-2.11,3.26s.95,3.26,2.11,3.26,2.11-1.46,2.11-3.26-.95-3.26-2.11-3.26Z"/>
            <path class="cls-23" d="m179.03,121.8c4.06-1.21,8.3-2.15,12.67-2.87,6.91-4.67,13.48-9.9,20.74-14.02,3.68-2.09,7.7-3.76,11.87-4.5,14.99-2.66,28.79-3.04,42.7-2.77,13.6.26,30.14,1.31,39.84,4.36,14.15,4.45,25.17,12.28,35.73,19.86,11.71,1.9,23.15,5.41,31.88,9.85.3.15.56.48.68.75l2.62,5.77,1.54,1.52c.5.5.71,1.07.78,1.64l.67,6.22c.4.49.79.97,1.19,1.46.18.21.29.48.31.82l-.17,2.57c-.05.82-.55,1.99-1.46,1.99h-.72l-.14,4.98c.69,0,1.08.47,1.08,1.11v3.09c0,.67-.36,1.09-1.09,1.09h-76.17c-2.38-.32-2.06-4.87-3.12-11.07-1.39-8.12-6.32-16.41-14.13-16.41-9.41,0-13.73,12.12-13.73,19.96,0,2.27.33,4.44.94,6.44.19.64-.16,1.09-.65,1.09h-61.77c-2.38-.32-2.06-4.87-3.12-11.07-1.39-8.12-6.32-16.41-14.13-16.41-9.41,0-13.73,12.12-13.73,19.96,0,.93.06,1.85.16,2.74.11.9-.24,1.02-.64.92l-3.1-.84c-.68-.18-1.12-.47-1.59-.97l-1.39-1.46c-.36-.38-.7-1.03-.7-1.96v-3.61s-1.08-3.62-1.08-3.62c-.22-.74-.33-1.51-.39-2.32l-.16-2c-.07-.86.14-1.59.42-2.22l1.19-2.67.78-4.58-.52-.85c-.2-.33-.32-.71-.21-1.12l1.07-4.09c.07-.28.28-.45.53-.59l1.09-.6c.57-1.69,1.34-3.34,2.53-4.94.2-.27.56-.5.91-.61Z"/>
            <path class="cls-23" d="m179.03,121.8c4.06-1.21,8.3-2.15,12.67-2.87,6.91-4.67,13.48-9.9,20.74-14.02,3.68-2.09,7.7-3.76,11.87-4.5,14.99-2.66,28.79-3.04,42.7-2.77,13.6.26,30.14,1.31,39.84,4.36,14.15,4.45,25.17,12.28,35.73,19.86,5.76.93,11.46,2.26,16.79,3.89h-183.17c.49-1.14,1.11-2.25,1.92-3.34.2-.27.56-.5.91-.61Z"/>
            <path class="cls-23" d="m377.67,138.01l.1.21,1.54,1.52c.5.5.71,1.07.78,1.64l.67,6.22c.4.49.79.97,1.19,1.46.18.21.29.48.31.82l-.17,2.57c-.05.82-.55,1.99-1.46,1.99h-.72l-.14,4.98c.69,0,1.08.47,1.08,1.11v3.09c0,.67-.36,1.09-1.09,1.09h-71.48c12.56-9.5,7.96-22.61.06-28.59-6.03-4.57,7.81-3.73,24.21-1.85,17.19,1.97,37.31,5.07,45.13,3.73Z"/>
            <path class="cls-51" d="m212.46,164.72h-1.34c-2.38-.32-2.06-4.87-3.12-11.07-1.39-8.12-6.32-16.41-14.13-16.41-9.41,0-13.73,12.12-13.73,19.96,0,.93.06,1.85.16,2.74.11.9-.24,1.02-.64.92l-1.9-.51c-.15-1.13-.24-2.3-.24-3.49,0-10.4,5.9-22.52,16.56-22.52s15.09,9.35,16.66,18.51c.98,5.77.42,10.27,1.7,11.88Z"/>
            <path class="cls-51" d="m305,164.72h-1.42c-2.38-.32-2.06-4.87-3.12-11.07-1.39-8.12-6.32-16.41-14.13-16.41-9.41,0-13.73,12.12-13.73,19.96,0,2.27.33,4.44.94,6.44.19.64-.16,1.09-.65,1.09h-1.72c.04-.18.03-.38-.04-.61-.68-2.25-1.05-4.7-1.05-7.26,0-10.4,5.9-22.52,16.56-22.52s15.09,9.35,16.66,18.51c.98,5.77.42,10.27,1.7,11.88Z"/>
            <path class="cls-51" d="m179.03,121.8c4.06-1.21,8.3-2.15,12.67-2.87l10.78,3.05h73.78l6.39-.2-3.88-1.5-2.14-2.03-12.48-13.21c-1.21-1.21-2.83-2.86-6.58-3.88-7.04-1.93-21.39-1.76-37.44.29h0c1.37-.44,2.75-.8,4.16-1.05,14.99-2.66,28.79-3.04,42.7-2.77h.64s.64.03.64.03h0c10.54.24,22.64.96,31.88,2.71h0c.38.07.75.14,1.12.22h0s.55.11.55.11h0s.54.12.54.12h0s.53.12.53.12h0s.52.12.52.12h0s.51.12.51.12c.17.04.34.08.51.13l.5.13.49.13.48.14c.16.05.31.09.47.14.15.05.31.09.46.14,14.15,4.45,25.17,12.28,35.73,19.86,4.11.72,8.15,1.57,12.1,2.58,7.29,1.93,14.16,4.45,19.81,7.28h.01s0,.01,0,.01h0s0,0,0,0h0s0,0,0,0h0s0,0,0,0h0s0,0,0,0h0s0,0,0,0h0s0,0,0,0h0s0,0,0,0h0s0,0,0,0h0s0,0,0,0h0s0,0,0,0h0s0,0,0,0h0s0,0,0,0h0s0,0,0,0h0s0,0,0,0h0s0,0,0,0h0s0,0,0,0h0s0,0,0,0h0s0,0,0,0h0s0,0,0,0h0s0,0,0,0h0s0,0,0,0h0s0,0,0,0h0s0,0,0,0h0s0,0,0,0h0s0,0,0,0h0s0,0,0,0h0s0,0,0,0h0s0,0,0,0h0s0,0,0,0h0s0,0,0,0h0s0,0,0,0h0s0,0,0,0h0s0,0,0,0h0s0,0,0,0h0s0,0,0,0h0s0,0,0,0h0s0,0,0,0h0s0,0,0,0h0s0,0,0,0h0s0,0,0,0h0s0,0,0,0h0s0,0,0,0l-1.43,1.92h-3.09s-45.65.45-45.65.45l-18.39-2.34c-4.99-2.19-23.19-5.75-32.63-5.66l-98.03.99c.57-1.69,1.34-3.34,2.53-4.94l.02-.03h.01s0-.02,0-.02h0s.01-.02.01-.02h0s0-.01,0-.01h0s.03-.03.03-.03h0s.01-.01.01-.01h0s.01-.01.01-.01h0s0-.01,0-.01h.01s0-.02,0-.02h0s0,0,0,0h0s0-.01,0-.01h0s0,0,0,0h0s0,0,0,0h0s0,0,0,0h0s0,0,0,0h0s0,0,0,0h0s0,0,0,0h0s0,0,0,0h0s0,0,0,0h0s0,0,0,0h0s0-.01,0-.01h0s0,0,0,0h0s0-.01,0-.01h0s0,0,0,0h0s0-.01,0-.01h0s0,0,0,0h0s0,0,0,0h0s0,0,0,0h0s0,0,0,0h0s0,0,0,0h0s0,0,0,0h0s0,0,0,0h0s0,0,0,0h0s0,0,0,0h0s0,0,0,0h0s0,0,0,0h0s0,0,0,0h0s0,0,0,0h0s0,0,0,0h0s0,0,0,0h0s0,0,0,0h0s0,0,0,0h0s0,0,0,0h0s0,0,0,0h0s0,0,0,0h0s0,0,0,0h0s0,0,0,0h0s0,0,0,0h0s0,0,0,0h.02s0-.01,0-.01h0s0,0,0,0h0s0,0,0,0h0s0,0,0,0h0s0,0,0,0h0s0,0,0,0h0s0,0,0,0h.01s0,0,0,0h.02s0,0,0,0h0s0,0,0,0h0c.06-.03.12-.05.19-.07h0s0,0,0,0h0s.02,0,.02,0h.02Z"/>
            <path class="cls-31" d="m306.01,101.74c.29.08.57.17.85.26,14.15,4.45,25.17,12.28,35.73,19.86h-51.42c-4.54,0-9.03-1.01-11.8-3.89l-14.69-15.29c-.4-.41-.23-.94.46-.94h40.88Z"/>
            <path class="cls-80" d="m340.46,120.77h-49.3c-3.75,0-8.3-.73-11.02-3.56l-13.84-14.4h41.91c12.07,4.06,22,10.65,32.24,17.96Z"/>
            <path class="cls-24" d="m173.65,134.59l-.52-.85c-.2-.33-.32-.7-.22-1.1l1.07-4.11c.08-.28.25-.46.51-.58l1.11-.61,3.37-.05c.65,0,.88.63.44,1.13l-5.26,5.97c-.12.14-.32.21-.51.2Z"/>
            <path class="cls-51" d="m377.77,138.22l1.54,1.52.02.02h.01s.01.02.01.02h0s0,.01,0,.01h.01s0,.01,0,.01h0s.01.02.01.02h0s0,.01,0,.01h.01s0,.02,0,.02h0s.01.01.01.01h0s0,.01,0,.01h0s0,.02,0,.02h0s0,.01,0,.01h0s0,.01,0,.01h0s0,.02,0,.02h0s0,.01,0,.01h0s0,.02,0,.02h0s0,.02,0,.02h0s0,.01,0,.01h0s0,.02,0,.02h0s0,.01,0,.01h0s0,.01,0,.01h0s0,.02,0,.02h0s0,.01,0,.01h0s0,.02,0,.02h0s0,.02,0,.02h0s0,.01,0,.01h0s0,.02,0,.02h0s0,.02,0,.02h0s0,.01,0,.01h0s0,.02,0,.02h0s0,.01,0,.01h0s0,.01,0,.01h0s0,.02,0,.02h0s0,.01,0,.01h0s0,.02,0,.02h0s0,.02,0,.02h0s0,.01,0,.01h0s0,.02,0,.02h0s0,.01,0,.01l.02.04h0s0,.02,0,.02h0s0,.01,0,.01h0s0,.02,0,.02h0s0,.02,0,.02h0s0,.01,0,.01h0s0,.02,0,.02h0s0,.01,0,.01l-4.26,4.11c-.7.67-1.55,1.12-2.64,1.12l-38.59.14c-1.38,0-2.7-.24-3.97-.65l-20.64-7.38,23.03,4.07c2.13.38,1.97.22,4.44.22h32.85c1.43.03,3.49-.18,4.44-.78l3.27-3.12h0Zm2.98,9.39l.02.02.02.02.02.02.02.02.02.02.02.02.02.02.02.02.02.02.02.02.02.02.02.02.02.02.02.02.02.02.02.02.02.02.02.02.02.02.02.02.02.02.02.02.02.02.02.02.02.02.02.02.02.02.02.02.02.02.02.02.02.02.02.02.02.02.02.02.02.02.02.02.02.02.02.02.02.02.02.02.02.02.02.02.02.02.02.02.02.02.02.02.02.02.02.02.02.02.02.02.02.02.02.02.02.02.02.02.02.02.02.02.02.02.02.02.02.02.02.02.02.02.02.02.02.02.02.02h0s0,.02,0,.02h0c.08.12.15.23.2.37l-5.9,2.99,4.49-4.84Z"/>
            <path class="cls-31" d="m379.9,156.25l-.14,4.98c-.86,0-1.72,0-2.58,0-.34,0-.66-.19-.7-.62l-.34-3.64c-.05-.49.25-.72.63-.72h3.14Z"/>
            <path class="cls-25" d="m370.54,133.91h-36.24c-.43,0-.75.49-.47.93l4.11,6.31c.31.51,1.07.97,1.82.97h31.37c.28,0,.6-.34.58-.63l-.6-7.05c-.03-.35-.26-.55-.57-.55Z"/>
            <path class="cls-31" d="m368.6,133.91h-34.3c-.43,0-.75.49-.47.93l4.11,6.31c.31.51,1.07.97,1.82.97h29.42c.28,0,.6-.34.58-.63l-.6-7.05c-.03-.34-.25-.54-.55-.55Z"/>
            <path class="cls-25" d="m372.58,155.17h-35.16c-.72,0-1.57.4-1.96.81l-4.79,4.97c-.36.37-.14,1,.46,1h42.51c.44,0,.71-.35.65-.74l-.87-5.42c-.05-.32-.36-.62-.84-.62Z"/>
            <path class="cls-31" d="m370.55,155.17h-33.14c-.72,0-1.57.4-1.96.81l-4.79,4.97c-.36.37-.14,1,.46,1h40.48s.02,0,.02,0c.43-.01.69-.36.63-.74l-.87-5.42c-.05-.32-.36-.62-.84-.62Z"/>
            <path class="cls-25" d="m328.26,156.25h-7.22c-.8,0-1.49.35-1.98.89l-2.71,3c-.39.43-.18,1.09.48,1.09h6.84c.82,0,1.67-.4,2.04-.8l2.99-3.18c.4-.42.19-1-.44-1Z"/>
            <path class="cls-31" d="m326.23,156.25h-5.19c-.8,0-1.49.35-1.98.89l-2.71,3c-.39.43-.18,1.09.48,1.09h4.82c.82,0,1.67-.4,2.04-.8l2.99-3.18c.4-.42.19-1-.44-1Z"/>
            <path class="cls-15" d="m374.83,131.98c.14.15.25.32.32.47,1.11,1.79,1.94,3.74,2.62,5.77l-3.08,3.02c-.46.33-.9.1-.95-.42l-.62-6.47c-.04-.44.2-.68.54-1.07l1.16-1.3Z"/>
            <rect class="cls-89" x="353" y="136.96" width="6.68" height="2.11" rx="1.05" ry="1.05"/>
            <rect class="cls-91" x="354.06" y="136.96" width="6.68" height="2.11" rx="1.05" ry="1.05"/>
            <rect class="cls-95" x="233.11" y="128.78" width="7.1" height="2.16" rx="1.08" ry="1.08"/>
            <rect class="cls-95" x="202.56" y="128.78" width="7.1" height="2.16" rx="1.08" ry="1.08"/>
            <polygon class="cls-25" points="372.67 157.69 333.8 157.69 332.14 159.42 372.67 159.42 372.67 157.69"/>
            <polygon class="cls-25" points="326.93 157.69 318.56 157.69 316.9 159.42 325.55 159.42 326.93 157.69"/>
            <path class="cls-25" d="m379.81,157.69h-3.6l.16,1.73h3.45c.9,0,.92-1.73,0-1.73Z"/>
            <path class="cls-51" d="m211.24,143.19l6.45,7.66c3.67,3.4,8.53,5.32,14.44,5.94l32.79,2.24c4.44.41-.31-2.54-11.48-4.18-14.81-2.17-26.41-4.62-35.2-10.2-5.95-3.91-9.7-4.44-7-1.46Z"/>
            <path class="cls-15" d="m306.91,131.47l21.12,2.34c.54.06.99.38,1.21.73l4.04,6.45c.3.47-.1.99-.56.91l-22.98-4.07c-.4-.09-.83-.37-1.03-.79l-2.38-4.71c-.19-.38.1-.9.58-.85Z"/>
            <path class="cls-31" d="m275.32,121.97h-72.83l-2.67-.75c-.44,0-.55-.48-.39-.71,2.91-4.29,16.06-14.76,21.63-16.19,6.99-1.8,14.48-2.48,21.56-2.68,4.8-.14,11.36.14,16.13,2.32,4.41,2.02,11.72,10.51,16.93,17.27.25.33.1.74-.37.74Z"/>
            <path class="cls-3" d="m274.06,120.89h-34.66l.04-.29v-.07s.04-.22.04-.22l.05-.29.04-.23v-.06s.06-.29.06-.29v-.02s.05-.27.05-.27l.02-.1.03-.19v-.03s.05-.26.05-.26l.05-.26v-.03s.06-.29.06-.29v-.05s.05-.24.05-.24l.02-.13.03-.16.04-.21.02-.08.05-.29h0l.06-.29.02-.08.04-.21.03-.16.03-.13.05-.24v-.05s.13-.57.13-.57l.02-.11.04-.18v-.03s.06-.26.06-.26l.06-.26v-.02s.07-.28.07-.28v-.06s.06-.22.06-.22l.03-.14.03-.14.05-.22.02-.07.06-.28h0s.06-.28.06-.28l.07-.28.04-.17.03-.11.06-.24v-.04s.08-.28.08-.28v-.04s.07-.24.07-.24l.03-.12.04-.16.05-.2.02-.08.07-.27h0s.14-.57.14-.57l.04-.15.03-.13.06-.23v-.06s.09-.28.09-.28v-.02s.08-.26.08-.26l.03-.1.05-.18.05-.18.03-.1.07-.26v-.03s.09-.28.09-.28v-.05s.08-.23.08-.23l.04-.13.04-.15.06-.21.02-.07.08-.28h0s.08-.28.08-.28l.02-.08.06-.2.05-.16.04-.12.07-.24v-.04s.1-.28.1-.28v-.03s.08-.25.08-.25l.03-.11.05-.17.06-.19.03-.09.08-.27h0s.09-.3.09-.3l.02-.06.07-.22.04-.14.04-.14.07-.22.02-.06c4.71-.07,10.41.33,14.6,2.25,4.52,2.07,11.94,11.08,15.75,15.95h0Zm-39.73,0h-24.07c2.04-4.87,4.4-9.26,7.19-13.79,1.52-.86,2.87-1.48,3.89-1.75,5.55-1.43,11.36-2.14,17.11-2.47-1.8,6-3.24,11.76-4.13,18h0Zm-26.09,0c1.01-2.55,2.17-5.09,3.48-7.61.68-1.32,1.4-2.64,2.16-3.94-5.03,3.4-10.65,8.12-13.01,11.05l1.78.5h5.6Z"/>
            <path class="cls-31" d="m376.6,174.09h-198.7c-.62,0-1.14.51-1.14,1.14h0c0,.62.53,1.14,1.14,1.14h198.7c.6,0,1.14-.51,1.14-1.14h0c0-.62-.51-1.14-1.14-1.14h0Zm12.26,0h-4.63c-.62,0-1.14.51-1.14,1.14h0c0,.62.53,1.14,1.14,1.14h4.63c.6,0,1.14-.51,1.14-1.14h0c0-.62-.51-1.14-1.14-1.14h0Zm-218.36,0h-5.04c-.62,0-1.14.51-1.14,1.14h0c0,.62.53,1.14,1.14,1.14h5.04c.6,0,1.14-.51,1.14-1.14h0c0-.62-.51-1.14-1.14-1.14Z"/>
          </g>
        </g>
        <g class="cls-88">
          <path class="cls-66" d="m133.51,50.4L35.56,29.54c-3.87-.82-7.7,1.67-8.53,5.53l-8.5,39.89-.07.32L.78,158.32c-4.08,19.16,8.26,38.17,27.41,42.26l70.15,14.94c3.87.82,7.7-1.67,8.53-5.53l23.61-110.84.07-.32,8.5-39.89c.82-3.87-1.67-7.7-5.53-8.53Z"/>
          <path class="cls-28" d="m134.5,49.92L36.55,29.06c-3.87-.82-7.7,1.67-8.53,5.53l-8.5,39.89-.07.32L1.67,158.3c-4.03,18.91,8.15,37.67,27.06,41.7l70.6,15.04c3.87.82,7.7-1.67,8.53-5.53l23.61-110.84.07-.32,8.5-39.89c.82-3.87-1.67-7.7-5.53-8.53Z"/>
          <path class="cls-21" d="m135.49,49.44L37.54,28.58c-3.87-.82-7.7,1.67-8.53,5.53l-8.5,39.89-.07.32L2.57,158.27c-3.97,18.66,8.04,37.17,26.7,41.15l71.06,15.14c3.87.82,7.7-1.67,8.53-5.53l23.61-110.84.07-.32,8.5-39.89c.82-3.87-1.67-7.7-5.53-8.53Z"/>
          <path class="cls-1" d="m136.48,48.96L38.53,28.1c-3.87-.82-7.7,1.67-8.53,5.53l-8.5,39.89-.07.32L3.46,158.25c-3.92,18.41,7.93,36.68,26.34,40.6l71.52,15.23c3.87.82,7.7-1.67,8.53-5.53l23.61-110.84.07-.32,8.5-39.89c.82-3.87-1.67-7.7-5.53-8.53Z"/>
          <path class="cls-59" d="m137.47,48.48L39.52,27.62c-3.87-.82-7.7,1.67-8.53,5.53l-8.5,39.89-.07.32L4.35,158.22c-3.87,18.16,7.82,36.18,25.98,40.04l71.97,15.33c3.87.82,7.7-1.67,8.53-5.53l23.61-110.84.07-.32,8.5-39.89c.82-3.87-1.67-7.7-5.53-8.53Z"/>
          <path class="cls-38" d="m138.46,48L40.51,27.14c-3.87-.82-7.7,1.67-8.53,5.53l-8.5,39.89-.07.32L5.24,158.2c-3.81,17.91,7.72,35.68,25.62,39.49l72.43,15.43c3.87.82,7.7-1.67,8.53-5.53l23.61-110.84.07-.32,8.5-39.89c.82-3.87-1.67-7.7-5.53-8.53Z"/>
          <path class="cls-7" d="m139.45,47.52L41.5,26.66c-3.87-.82-7.7,1.67-8.53,5.53l-8.5,39.89-.07.32L6.14,158.18c-3.76,17.65,7.61,35.18,25.26,38.94l72.88,15.52c3.87.82,7.7-1.67,8.53-5.53l23.61-110.84.07-.32,8.5-39.89c.82-3.87-1.67-7.7-5.53-8.53Z"/>
          <path class="cls-79" d="m140.44,47.04L42.49,26.18c-3.87-.82-7.7,1.67-8.53,5.53l-8.5,39.89-.07.32L7.03,158.15c-3.71,17.4,7.5,34.68,24.9,38.38l73.34,15.62c3.87.82,7.7-1.67,8.53-5.53l23.61-110.84.07-.32,8.5-39.89c.82-3.87-1.67-7.7-5.53-8.53Z"/>
          <path class="cls-85" d="m141.43,46.56L43.48,25.7c-3.87-.82-7.7,1.67-8.53,5.53l-8.5,39.89-.07.32L7.92,158.13c-3.65,17.15,7.39,34.18,24.54,37.83l73.8,15.72c3.87.82,7.7-1.67,8.53-5.53l23.61-110.84.07-.32,8.5-39.89c.82-3.87-1.67-7.7-5.53-8.53Z"/>
          <path class="cls-37" d="m142.42,46.08L44.47,25.22c-3.87-.82-7.7,1.67-8.53,5.53l-8.5,39.89-.07.32-18.56,87.13c-3.6,16.9,7.28,33.68,24.19,37.28l74.25,15.82c3.87.82,7.7-1.67,8.53-5.53l23.61-110.84.07-.32,8.5-39.89c.82-3.87-1.67-7.7-5.53-8.53Z"/>
          <path class="cls-56" d="m143.41,45.6L45.46,24.74c-3.87-.82-7.7,1.67-8.53,5.53l-8.5,39.89-.07.32-18.66,87.59c-3.55,16.65,7.18,33.18,23.83,36.73l74.71,15.91c3.87.82,7.7-1.67,8.53-5.53l23.61-110.84.07-.32,8.5-39.89c.82-3.87-1.67-7.7-5.53-8.53Z"/>
          <path class="cls-73" d="m144.4,45.12L46.45,24.26c-3.87-.82-7.7,1.67-8.53,5.53l-8.5,39.89-.07.32-18.75,88.05c-3.49,16.4,7.07,32.68,23.47,36.17l75.16,16.01c3.87.82,7.7-1.67,8.53-5.53l23.61-110.84.07-.32,8.5-39.89c.82-3.87-1.67-7.7-5.53-8.53Z"/>
          <path class="cls-8" d="m145.39,44.64L47.44,23.78c-3.87-.82-7.7,1.67-8.53,5.53l-8.5,39.89-.07.32-18.85,88.5c-3.44,16.15,6.96,32.18,23.11,35.62l75.62,16.11c3.87.82,7.7-1.67,8.53-5.53l23.61-110.84.07-.32,8.5-39.89c.82-3.87-1.67-7.7-5.53-8.53Z"/>
          <path class="cls-44" d="m146.38,44.17L48.43,23.3c-3.87-.82-7.7,1.67-8.53,5.53l-8.5,39.89-.07.32-18.95,88.96c-3.39,15.9,6.85,31.68,22.75,35.07l76.07,16.2c3.87.82,7.7-1.67,8.53-5.53l23.61-110.84.07-.32,8.5-39.89c.82-3.87-1.67-7.7-5.53-8.53Z"/>
          <path class="cls-16" d="m147.37,43.69L49.41,22.82c-3.87-.82-7.7,1.67-8.53,5.53l-8.5,39.89-.07.32-19.05,89.41c-3.33,15.65,6.74,31.18,22.39,34.51l76.53,16.3c3.87.82,7.7-1.67,8.53-5.53l23.61-110.84.07-.32,8.5-39.89c.82-3.87-1.67-7.7-5.53-8.53Z"/>
          <path class="cls-22" d="m148.36,43.21L50.4,22.34c-3.87-.82-7.7,1.67-8.53,5.53l-8.5,39.89-.07.32-19.14,89.87c-3.28,15.4,6.64,30.68,22.03,33.96l76.99,16.4c3.87.82,7.7-1.67,8.53-5.53l23.61-110.84.07-.32,8.5-39.89c.82-3.87-1.67-7.7-5.53-8.53Z"/>
          <path class="cls-53" d="m149.35,42.73L51.39,21.86c-3.87-.82-7.7,1.67-8.53,5.53l-8.5,39.89-.07.32-19.24,90.32c-3.23,15.15,6.53,30.18,21.67,33.41l77.44,16.5c3.87.82,7.7-1.67,8.53-5.53l23.61-110.84.07-.32,8.5-39.89c.82-3.87-1.67-7.7-5.53-8.53Z"/>
          <path class="cls-41" d="m150.34,42.25L52.38,21.38c-3.87-.82-7.7,1.67-8.53,5.53l-8.5,39.89-.07.32-19.34,90.78c-3.17,14.9,6.42,29.68,21.32,32.86l77.9,16.59c3.87.82,7.7-1.67,8.53-5.53l23.61-110.84.07-.32,8.5-39.89c.82-3.87-1.67-7.7-5.53-8.53Z"/>
          <path class="cls-26" d="m151.33,41.77L53.37,20.9c-3.87-.82-7.7,1.67-8.53,5.53l-8.5,39.89-.07.32-19.43,91.24c-3.12,14.65,6.31,29.18,20.96,32.3l78.35,16.69c3.87.82,7.7-1.67,8.53-5.53l23.61-110.84.07-.32,8.5-39.89c.82-3.87-1.67-7.7-5.53-8.53Z"/>
          <path class="cls-54" d="m152.32,41.29L54.36,20.42c-3.87-.82-7.7,1.67-8.53,5.53l-8.5,39.89-.07.32-19.53,91.69c-3.07,14.4,6.2,28.68,20.6,31.75l78.81,16.79c3.87.82,7.7-1.67,8.53-5.53l23.61-110.84.07-.32,8.5-39.89c.82-3.87-1.67-7.7-5.53-8.53Z"/>
          <path class="cls-49" d="m153.31,40.81L55.35,19.94c-3.87-.82-7.7,1.67-8.53,5.53l-8.5,39.89-.07.32-19.63,92.15c-3.01,14.14,6.09,28.18,20.24,31.2l79.27,16.88c3.87.82,7.7-1.67,8.53-5.53l23.61-110.84.07-.32,8.5-39.89c.82-3.87-1.67-7.7-5.53-8.53Z"/>
          <path class="cls-12" d="m154.29,40.33L56.34,19.46c-3.87-.82-7.7,1.67-8.53,5.53l-8.5,39.89-.07.32-19.73,92.6c-2.96,13.89,5.99,27.68,19.88,30.64l79.72,16.98c3.87.82,7.7-1.67,8.53-5.53l23.61-110.84.07-.32,8.5-39.89c.82-3.87-1.67-7.7-5.53-8.53Z"/>
          <path class="cls-50" d="m155.28,39.85L57.33,18.98c-3.87-.82-7.7,1.67-8.53,5.53l-8.5,39.89-.07.32-19.82,93.06c-2.91,13.64,5.88,27.18,19.52,30.09l80.18,17.08c3.87.82,7.7-1.67,8.53-5.53l23.61-110.84.07-.32,8.5-39.89c.82-3.87-1.67-7.7-5.53-8.53Z"/>
          <path class="cls-33" d="m156.27,39.37L58.32,18.5c-3.87-.82-7.7,1.67-8.53,5.53l-8.5,39.89-.07.32-19.92,93.52c-2.85,13.39,5.77,26.69,19.16,29.54l80.63,17.18c3.87.82,7.7-1.67,8.53-5.53l23.61-110.84.07-.32,8.5-39.89c.82-3.87-1.67-7.7-5.53-8.53Z"/>
          <path class="cls-63" d="m157.26,38.89L59.31,18.02c-3.87-.82-7.7,1.67-8.53,5.53l-8.5,39.89-.07.32-20.02,93.97c-2.8,13.14,5.66,26.19,18.81,28.99l81.09,17.27c3.87.82,7.7-1.67,8.53-5.53l23.61-110.84.07-.32,8.5-39.89c.82-3.87-1.67-7.7-5.53-8.53Z"/>
          <path class="cls-19" d="m158.25,38.41L60.3,17.54c-3.87-.82-7.7,1.67-8.53,5.53l-8.5,39.89-.07.32-20.11,94.43c-2.75,12.89,5.55,25.69,18.45,28.43l81.54,17.37c3.87.82,7.7-1.67,8.53-5.53l23.61-110.84.07-.32,8.5-39.89c.82-3.87-1.67-7.7-5.53-8.53Z"/>
          <path class="cls-69" d="m159.24,37.93L61.29,17.06c-3.87-.82-7.7,1.67-8.53,5.53l-8.5,39.89-.07.32-20.21,94.88c-2.69,12.64,5.45,25.19,18.09,27.88l82,17.47c3.87.82,7.7-1.67,8.53-5.53l23.61-110.84.07-.32,8.5-39.89c.82-3.87-1.67-7.7-5.53-8.53Z"/>
          <path class="cls-64" d="m160.23,37.45L62.28,16.58c-3.87-.82-7.7,1.67-8.53,5.53l-8.5,39.89-.07.32-20.31,95.34c-2.64,12.39,5.34,24.69,17.73,27.33l82.46,17.56c3.87.82,7.7-1.67,8.53-5.53l23.61-110.84.07-.32,8.5-39.89c.82-3.87-1.67-7.7-5.53-8.53Z"/>
          <path class="cls-87" d="m161.22,36.97L63.27,16.1c-3.87-.82-7.7,1.67-8.53,5.53l-8.5,39.89-.07.32-20.41,95.79c-2.59,12.14,5.23,24.19,17.37,26.77l82.91,17.66c3.87.82,7.7-1.67,8.53-5.53l23.61-110.84.07-.32,8.5-39.89c.82-3.87-1.67-7.7-5.53-8.53Z"/>
          <path class="cls-75" d="m162.21,36.49L64.26,15.62c-3.87-.82-7.7,1.67-8.53,5.53l-8.5,39.89-.07.32-20.5,96.25c-2.53,11.89,5.12,23.69,17.01,26.22l83.37,17.76c3.87.82,7.7-1.67,8.53-5.53l23.61-110.84.07-.32,8.5-39.89c.82-3.87-1.67-7.7-5.53-8.53Z"/>
          <path class="cls-34" d="m163.2,36.01L65.25,15.14c-3.87-.82-7.7,1.67-8.53,5.53l-8.5,39.89-.07.32-20.6,96.71c-2.48,11.64,5.01,23.19,16.65,25.67l83.82,17.86c3.87.82,7.7-1.67,8.53-5.53l23.61-110.84.07-.32,8.5-39.89c.82-3.87-1.67-7.7-5.53-8.53Z"/>
          <path class="cls-83" d="m164.19,35.53L66.24,14.66c-3.87-.82-7.7,1.67-8.53,5.53l-8.5,39.89-.07.32-20.7,97.16c-2.43,11.39,4.91,22.69,16.29,25.11l84.28,17.95c3.87.82,7.7-1.67,8.53-5.53l23.61-110.84.07-.32,8.5-39.89c.82-3.87-1.67-7.7-5.53-8.53Z"/>
          <path class="cls-18" d="m165.18,35.05L67.23,14.18c-3.87-.82-7.7,1.67-8.53,5.53l-8.5,39.89-.07.32-20.79,97.62c-2.37,11.14,4.8,22.19,15.94,24.56l84.74,18.05c3.87.82,7.7-1.67,8.53-5.53l23.61-110.84.07-.32,8.5-39.89c.82-3.87-1.67-7.7-5.53-8.53Z"/>
          <path class="cls-29" d="m166.17,34.57L68.22,13.7c-3.87-.82-7.7,1.67-8.53,5.53l-8.5,39.89-.07.32-20.89,98.07c-2.32,10.89,4.69,21.69,15.58,24.01l85.19,18.15c3.87.82,7.7-1.67,8.53-5.53l23.61-110.84.07-.32,8.5-39.89c.82-3.87-1.67-7.7-5.53-8.53Z"/>
          <path class="cls-71" d="m167.16,34.09L69.21,13.22c-3.87-.82-7.7,1.67-8.53,5.53l-8.5,39.89-.07.32-20.99,98.53c-2.27,10.63,4.58,21.19,15.22,23.46l85.65,18.24c3.87.82,7.7-1.67,8.53-5.53l23.61-110.84.07-.32,8.5-39.89c.82-3.87-1.67-7.7-5.53-8.53Z"/>
          <path class="cls-17" d="m168.15,33.61L70.2,12.74c-3.87-.82-7.7,1.67-8.53,5.53l-8.5,39.89-.07.32-21.08,98.99c-2.21,10.38,4.47,20.69,14.86,22.9l86.1,18.34c3.87.82,7.7-1.67,8.53-5.53l23.61-110.84.07-.32,8.5-39.89c.82-3.87-1.67-7.7-5.53-8.53Z"/>
          <path class="cls-77" d="m169.14,33.13L71.19,12.26c-3.87-.82-7.7,1.67-8.53,5.53l-8.5,39.89-.07.32-21.18,99.44c-2.16,10.13,4.37,20.19,14.5,22.35l86.56,18.44c3.87.82,7.7-1.67,8.53-5.53l23.61-110.84.07-.32,8.5-39.89c.82-3.87-1.67-7.7-5.53-8.53Z"/>
          <path class="cls-57" d="m170.13,32.65L72.17,11.79c-3.87-.82-7.7,1.67-8.53,5.53l-8.5,39.89-.07.32-21.28,99.9c-2.11,9.88,4.26,19.69,14.14,21.8l87.01,18.53c3.87.82,7.7-1.67,8.53-5.53l23.61-110.84.07-.32,8.5-39.89c.82-3.87-1.67-7.7-5.53-8.53Z"/>
          <path class="cls-2" d="m171.12,32.17L73.16,11.31c-3.87-.82-7.7,1.67-8.53,5.53l-8.5,39.89-.07.32-21.38,100.35c-2.05,9.63,4.15,19.19,13.78,21.24l87.47,18.63c3.87.82,7.7-1.67,8.53-5.53l23.61-110.84.07-.32,8.5-39.89c.82-3.87-1.67-7.7-5.53-8.53Z"/>
          <path class="cls-35" d="m172.11,31.69L74.15,10.83c-3.87-.82-7.7,1.67-8.53,5.53l-8.5,39.89-.07.32-21.47,100.81c-2,9.38,4.04,18.69,13.42,20.69l87.93,18.73c3.87.82,7.7-1.67,8.53-5.53l23.61-110.84.07-.32,8.5-39.89c.82-3.87-1.67-7.7-5.53-8.53Z"/>
          <path class="cls-42" d="m173.1,31.21L75.14,10.35c-3.87-.82-7.7,1.67-8.53,5.53l-8.5,39.89-.07.32-21.57,101.26c-1.94,9.13,3.93,18.19,13.07,20.14l88.38,18.83c3.87.82,7.7-1.67,8.53-5.53l23.61-110.84.07-.32,8.5-39.89c.82-3.87-1.67-7.7-5.53-8.53Z"/>
          <path class="cls-6" d="m174.09,30.73L76.13,9.87c-3.87-.82-7.7,1.67-8.53,5.53l-8.5,39.89-.07.32-21.67,101.72c-1.89,8.88,3.83,17.69,12.71,19.59l88.84,18.92c3.87.82,7.7-1.67,8.53-5.53l23.61-110.84.07-.32,8.5-39.89c.82-3.87-1.67-7.7-5.53-8.53Z"/>
          <path class="cls-9" d="m175.08,30.25L77.12,9.39c-3.87-.82-7.7,1.67-8.53,5.53l-8.5,39.89-.07.32-21.76,102.18c-1.84,8.63,3.72,17.19,12.35,19.03l89.29,19.02c3.87.82,7.7-1.67,8.53-5.53l23.61-110.84.07-.32,8.5-39.89c.82-3.87-1.67-7.7-5.53-8.53Z"/>
          <path class="cls-10" d="m176.07,29.77L78.11,8.91c-3.87-.82-7.7,1.67-8.53,5.53l-8.5,39.89-.07.32-21.86,102.63c-1.78,8.38,3.61,16.7,11.99,18.48l89.75,19.12c3.87.82,7.7-1.67,8.53-5.53l23.61-110.84.07-.32,8.5-39.89c.82-3.87-1.67-7.7-5.53-8.53Z"/>
          <path class="cls-27" d="m177.06,29.29L79.1,8.43c-3.87-.82-7.7,1.67-8.53,5.53l-8.5,39.89-.07.32-21.96,103.09c-1.73,8.13,3.5,16.2,11.63,17.93l90.2,19.21c3.87.82,7.7-1.67,8.53-5.53l23.61-110.84.07-.32,8.5-39.89c.82-3.87-1.67-7.7-5.53-8.53Z"/>
          <path class="cls-45" d="m178.04,28.81L80.09,7.95c-3.87-.82-7.7,1.67-8.53,5.53l-8.5,39.89-.07.32-22.06,103.54c-1.68,7.88,3.39,15.7,11.27,17.37l90.66,19.31c3.87.82,7.7-1.67,8.53-5.53l23.61-110.84.07-.32,8.5-39.89c.82-3.87-1.67-7.7-5.53-8.53Z"/>
          <path class="cls-70" d="m179.03,28.33L81.08,7.47c-3.87-.82-7.7,1.67-8.53,5.53l-8.5,39.89-.07.32-22.15,104c-1.62,7.63,3.29,15.2,10.91,16.82l91.12,19.41c3.87.82,7.7-1.67,8.53-5.53l23.61-110.84.07-.32,8.5-39.89c.82-3.87-1.67-7.7-5.53-8.53Z"/>
          <path class="cls-81" d="m180.02,27.85L82.07,6.99c-3.87-.82-7.7,1.67-8.53,5.53l-8.5,39.89-.07.32-22.25,104.45c-1.57,7.38,3.18,14.7,10.55,16.27l91.57,19.51c3.87.82,7.7-1.67,8.53-5.53l23.61-110.84.07-.32,8.5-39.89c.82-3.87-1.67-7.7-5.53-8.53Z"/>
          <path class="cls-11" d="m181.01,27.37L83.06,6.51c-3.87-.82-7.7,1.67-8.53,5.53l-8.5,39.89-.07.32-22.35,104.91c-1.52,7.12,3.07,14.2,10.2,15.72l92.03,19.6c3.87.82,7.7-1.67,8.53-5.53l23.61-110.84.07-.32,8.5-39.89c.82-3.87-1.67-7.7-5.53-8.53Z"/>
          <path class="cls-47" d="m182,26.89L84.05,6.03c-3.87-.82-7.7,1.67-8.53,5.53l-8.5,39.89-.07.32-22.44,105.37c-1.46,6.87,2.96,13.7,9.84,15.16l92.48,19.7c3.87.82,7.7-1.67,8.53-5.53l23.61-110.84.07-.32,8.5-39.89c.82-3.87-1.67-7.7-5.53-8.53Z"/>
          <path class="cls-78" d="m182.99,26.41L85.04,5.55c-3.87-.82-7.7,1.67-8.53,5.53l-8.5,39.89-.07.32-22.54,105.82c-1.41,6.62,2.85,13.2,9.48,14.61l92.94,19.8c3.87.82,7.7-1.67,8.53-5.53l23.61-110.84.07-.32,8.5-39.89c.82-3.87-1.67-7.7-5.53-8.53Z"/>
          <path class="cls-67" d="m183.98,25.93L86.03,5.07c-3.87-.82-7.7,1.67-8.53,5.53l-8.5,39.89-.07.32-22.64,106.28c-1.36,6.37,2.75,12.7,9.12,14.06l93.4,19.89c3.87.82,7.7-1.67,8.53-5.53l23.61-110.84.07-.32,8.5-39.89c.82-3.87-1.67-7.7-5.53-8.53Z"/>
          <path class="cls-60" d="m184.97,25.45L87.02,4.59c-3.87-.82-7.7,1.67-8.53,5.53l-8.5,39.89-.07.32-22.74,106.73c-1.3,6.12,2.64,12.2,8.76,13.5l93.85,19.99c3.87.82,7.7-1.67,8.53-5.53l23.61-110.84.07-.32,8.5-39.89c.82-3.87-1.67-7.7-5.53-8.53Z"/>
          <path class="cls-74" d="m185.96,24.97L88.01,4.11c-3.87-.82-7.7,1.67-8.53,5.53l-8.5,39.89-.07.32-22.83,107.19c-1.25,5.87,2.53,11.7,8.4,12.95l94.31,20.09c3.87.82,7.7-1.67,8.53-5.53l23.61-110.84.07-.32,8.5-39.89c.82-3.87-1.67-7.7-5.53-8.53Z"/>
          <path class="cls-82" d="m186.95,24.49L89,3.63c-3.87-.82-7.7,1.67-8.53,5.53l-8.5,39.89-.07.32-22.93,107.65c-1.2,5.62,2.42,11.2,8.04,12.4l94.76,20.19c3.87.82,7.7-1.67,8.53-5.53l23.61-110.84.07-.32,8.5-39.89c.82-3.87-1.67-7.7-5.53-8.53Z"/>
          <path class="cls-76" d="m187.94,24.01L89.99,3.15c-3.87-.82-7.7,1.67-8.53,5.53l-8.5,39.89-.07.32-23.03,108.1c-1.14,5.37,2.31,10.7,7.68,11.84l95.22,20.28c3.87.82,7.7-1.67,8.53-5.53l23.61-110.84.07-.32,8.5-39.89c.82-3.87-1.67-7.7-5.53-8.53Z"/>
          <path class="cls-55" d="m188.93,23.53L90.98,2.67c-3.87-.82-7.7,1.67-8.53,5.53l-8.5,39.89-.07.32-23.12,108.56c-1.09,5.12,2.21,10.2,7.33,11.29l95.67,20.38c3.87.82,7.7-1.67,8.53-5.53l23.61-110.84.07-.32,8.5-39.89c.82-3.87-1.67-7.7-5.53-8.53Z"/>
          <path class="cls-36" d="m189.92,23.05L91.97,2.19c-3.87-.82-7.7,1.67-8.53,5.53l-8.5,39.89-.07.32-23.22,109.01c-1.04,4.87,2.1,9.7,6.97,10.74l96.13,20.48c3.87.82,7.7-1.67,8.53-5.53l23.61-110.84.07-.32,8.5-39.89c.82-3.87-1.67-7.7-5.53-8.53Z"/>
          <path class="cls-65" d="m190.91,22.57L92.96,1.71c-3.87-.82-7.7,1.67-8.53,5.53l-8.5,39.89-.07.32-23.32,109.47c-.98,4.62,1.99,9.2,6.61,10.19l96.59,20.57c3.87.82,7.7-1.67,8.53-5.53l23.61-110.84.07-.32,8.5-39.89c.82-3.87-1.67-7.7-5.53-8.53Z"/>
          <path class="cls-46" d="m191.9,22.09L93.94,1.23c-3.87-.82-7.7,1.67-8.53,5.53l-8.5,39.89-.07.32-23.42,109.92c-.93,4.37,1.88,8.7,6.25,9.63l97.04,20.67c3.87.82,7.7-1.67,8.53-5.53l23.61-110.84.07-.32,8.5-39.89c.82-3.87-1.67-7.7-5.53-8.53Z"/>
          <path class="cls-48" d="m192.89,21.62L94.93.75c-3.87-.82-7.7,1.67-8.53,5.53l-8.5,39.89-.07.32-23.51,110.38c-.88,4.12,1.77,8.2,5.89,9.08l97.5,20.77c3.87.82,7.7-1.67,8.53-5.53l23.61-110.84.07-.32,8.5-39.89c.82-3.87-1.67-7.7-5.53-8.53Z"/>
          <path class="cls-84" d="m193.88,21.14L95.92.27c-3.87-.82-7.7,1.67-8.53,5.53l-8.5,39.89-.07.32-23.61,110.84c-.82,3.87,1.67,7.7,5.53,8.53l97.95,20.87c3.87.82,7.7-1.67,8.53-5.53l23.61-110.84.07-.32,8.5-39.89c.82-3.87-1.67-7.7-5.53-8.53Z"/>
        </g>
        <path class="cls-4" d="m193.9,21.04L95.88.16c-3.87-.82-7.71,1.67-8.53,5.54l-8.5,39.92-.07.32-23.62,110.9c-.82,3.87,1.67,7.71,5.54,8.53l98.01,20.88c3.87.82,7.71-1.67,8.53-5.54l23.62-110.9.07-.32,8.5-39.92c.82-3.87-1.67-7.71-5.54-8.53Z"/>
        <path class="cls-61" d="m57.97,154.24c-.81,3.79,1.63,7.56,5.43,8.37l96.11,20.47c3.79.81,7.56-1.63,8.37-5.43,10.52-49.41,21.05-98.81,31.57-148.22.81-3.79-1.63-7.56-5.43-8.37L97.91.6c-3.79-.81-7.56,1.63-8.37,5.43-10.52,49.41-21.05,98.81-31.57,148.22Z"/>
        <path class="cls-96" d="m128.88-12.17h23.28c2.3,0,4.16,1.87,4.16,4.16v88.74c0,2.3-1.87,4.16-4.16,4.16h-23.28c-2.3,0-4.16-1.87-4.16-4.16V-8.01c0-2.3,1.87-4.16,4.16-4.16Z" transform="translate(75.69 166.22) rotate(-77.98)"/>
        <g>
          <path class="cls-62" d="m127.58,66.26l-13.8-2.94c-1.13-.24-2.25.49-2.49,1.61l-2.08,9.75c-.24,1.13.49,2.24,1.61,2.48l13.8,2.94c1.13.24,2.24-.49,2.48-1.61l2.08-9.75c.24-1.13-.48-2.25-1.61-2.49h0Zm-26.38-5.62l-13.8-2.94c-1.13-.24-2.25.49-2.48,1.61l-2.08,9.75c-.24,1.13.49,2.24,1.61,2.48l13.8,2.94c1.13.24,2.25-.49,2.49-1.61l2.08-9.75c.24-1.13-.49-2.25-1.61-2.49Z"/>
          <path class="cls-5" d="m167.08,139.69l-13.8-2.94c-1.13-.24-2.24.49-2.48,1.61l-6.49,30.48c-.24,1.13.49,2.24,1.61,2.48l13.8,2.94c1.13.24,2.24-.48,2.48-1.61l6.49-30.48c.24-1.13-.48-2.24-1.61-2.48h0Zm-13.13-67.81l-13.8-2.94c-1.13-.24-2.24.49-2.48,1.61l-2.08,9.75c-.24,1.13.49,2.24,1.61,2.48l13.8,2.94c1.13.24,2.24-.49,2.48-1.61l2.08-9.75c.24-1.13-.49-2.25-1.61-2.49h0Zm26.38,5.62l-13.8-2.94c-1.13-.24-2.24.49-2.48,1.61l-2.08,9.75c-.24,1.13.49,2.24,1.61,2.48l13.8,2.94c1.13.24,2.24-.49,2.48-1.61l2.08-9.75c.24-1.13-.48-2.25-1.61-2.49h0Zm-4.42,20.73l-13.8-2.94c-1.13-.24-2.24.49-2.48,1.61l-2.08,9.75c-.24,1.13.49,2.24,1.61,2.48l13.8,2.94c1.13.24,2.24-.48,2.48-1.61l2.08-9.75c.24-1.13-.48-2.24-1.61-2.48h0Zm-26.38-5.62l-13.8-2.94c-1.13-.24-2.24.49-2.48,1.61l-2.08,9.75c-.24,1.13.49,2.24,1.61,2.48l13.8,2.94c1.13.24,2.24-.48,2.48-1.61l2.08-9.75c.24-1.13-.49-2.24-1.61-2.48h0Zm-26.38-5.62l-13.8-2.94c-1.13-.24-2.24.49-2.48,1.61l-2.08,9.75c-.24,1.13.49,2.24,1.61,2.48l13.8,2.94c1.13.24,2.24-.48,2.48-1.61l2.08-9.75c.24-1.13-.48-2.24-1.61-2.48h0Zm-26.38-5.62l-13.8-2.94c-1.13-.24-2.24.49-2.48,1.61l-2.08,9.75c-.24,1.13.49,2.24,1.61,2.48l13.8,2.94c1.13.24,2.24-.48,2.49-1.61l2.08-9.75c.24-1.13-.49-2.24-1.61-2.48h0Zm-4.42,20.73l-13.8-2.94c-1.13-.24-2.24.49-2.48,1.61l-2.08,9.75c-.24,1.13.49,2.25,1.61,2.49l13.8,2.94c1.13.24,2.25-.49,2.49-1.61l2.08-9.75c.24-1.13-.49-2.24-1.61-2.48h0Zm26.38,5.62l-13.8-2.94c-1.13-.24-2.24.48-2.48,1.61l-2.08,9.75c-.24,1.13.49,2.25,1.61,2.49l13.8,2.94c1.13.24,2.24-.49,2.48-1.61l2.08-9.75c.24-1.13-.49-2.24-1.61-2.48h0Zm26.38,5.62l-13.8-2.94c-1.13-.24-2.24.49-2.48,1.61l-2.08,9.75c-.24,1.13.48,2.25,1.61,2.49l13.8,2.94c1.13.24,2.24-.49,2.48-1.61l2.08-9.75c.24-1.13-.49-2.24-1.61-2.48h0Zm26.38,5.62l-13.8-2.94c-1.13-.24-2.24.49-2.48,1.61l-2.08,9.75c-.24,1.13.49,2.25,1.61,2.49l13.8,2.94c1.13.24,2.24-.49,2.48-1.61l2.08-9.75c.24-1.13-.48-2.24-1.61-2.48h0Zm-30.79,15.11l-13.8-2.94c-1.13-.24-2.24.49-2.48,1.61l-2.08,9.75c-.24,1.13.49,2.24,1.61,2.48l13.8,2.94c1.13.24,2.24-.49,2.48-1.61l2.08-9.75c.24-1.13-.49-2.24-1.61-2.48h0Zm-26.38-5.62l-13.8-2.94c-1.13-.24-2.24.48-2.48,1.61l-2.08,9.75c-.24,1.13.49,2.24,1.61,2.48l13.8,2.94c1.13.24,2.24-.49,2.48-1.61l2.08-9.75c.24-1.13-.49-2.24-1.61-2.48h0Zm-26.38-5.62l-13.8-2.94c-1.13-.24-2.24.48-2.48,1.61l-2.08,9.75c-.24,1.13.49,2.24,1.61,2.48l13.8,2.94c1.13.24,2.25-.49,2.49-1.61l2.08-9.75c.24-1.13-.49-2.24-1.61-2.48h0Zm-4.42,20.73l-13.8-2.94c-1.13-.24-2.24.48-2.48,1.61l-2.08,9.75c-.24,1.13.49,2.24,1.61,2.48l13.8,2.94c1.13.24,2.25-.48,2.49-1.61l2.08-9.75c.24-1.13-.49-2.24-1.61-2.48h0Zm26.38,5.62l-13.8-2.94c-1.13-.24-2.24.48-2.48,1.61l-2.08,9.75c-.24,1.13.49,2.24,1.61,2.48l13.8,2.94c1.13.24,2.24-.49,2.48-1.61l2.08-9.75c.24-1.13-.49-2.24-1.61-2.48h0Zm26.38,5.62l-13.8-2.94c-1.13-.24-2.24.49-2.48,1.61l-2.08,9.75c-.24,1.13.49,2.24,1.61,2.48l13.8,2.94c1.13.24,2.24-.48,2.48-1.61l2.08-9.75c.24-1.13-.49-2.24-1.61-2.48Z"/>
          <path class="cls-40" d="m127.83,65.12l-13.8-2.94c-1.13-.24-2.24.49-2.48,1.61l-2.08,9.75c-.24,1.13.49,2.24,1.61,2.48l13.8,2.94c1.13.24,2.24-.49,2.48-1.61l2.08-9.75c.24-1.13-.49-2.24-1.61-2.48h0Zm-26.38-5.62l-13.8-2.94c-1.13-.24-2.24.49-2.48,1.61l-2.08,9.75c-.24,1.13.49,2.24,1.61,2.48l13.8,2.94c1.13.24,2.25-.49,2.49-1.61l2.08-9.75c.24-1.13-.49-2.24-1.61-2.48Z"/>
          <path class="cls-72" d="m180.58,76.35l-13.8-2.94c-1.13-.24-2.24.49-2.48,1.61l-2.08,9.75c-.24,1.13.49,2.24,1.61,2.48l13.8,2.94c1.13.24,2.24-.49,2.48-1.61l2.08-9.75c.24-1.13-.48-2.24-1.61-2.48h0Zm-96.79,66.07l-13.8-2.94c-1.13-.24-2.24.49-2.49,1.61l-2.08,9.75c-.24,1.13.49,2.24,1.61,2.48l13.8,2.94c1.13.24,2.25-.49,2.49-1.61l2.08-9.75c.24-1.13-.49-2.25-1.61-2.49h0Zm26.38,5.62l-13.8-2.94c-1.13-.24-2.25.49-2.49,1.61l-2.08,9.75c-.24,1.13.49,2.24,1.61,2.48l13.8,2.94c1.13.24,2.24-.49,2.48-1.61l2.08-9.75c.24-1.13-.48-2.25-1.61-2.49h0Zm26.38,5.62l-13.8-2.94c-1.13-.24-2.24.49-2.48,1.61l-2.08,9.75c-.24,1.13.49,2.24,1.61,2.48l13.8,2.94c1.13.24,2.24-.49,2.48-1.61l2.08-9.75c.24-1.13-.48-2.25-1.61-2.49h0Zm30.79-15.11l-13.8-2.94c-1.13-.24-2.24.49-2.48,1.61l-6.49,30.48c-.24,1.13.49,2.24,1.61,2.48l13.8,2.94c1.13.24,2.24-.49,2.48-1.61l6.49-30.48c.24-1.13-.48-2.24-1.61-2.48h0Zm-26.38-5.62l-13.8-2.94c-1.13-.24-2.24.48-2.48,1.61l-2.08,9.75c-.24,1.13.49,2.24,1.61,2.48l13.8,2.94c1.13.24,2.24-.48,2.48-1.61l2.08-9.75c.24-1.13-.49-2.24-1.61-2.48h0Zm-26.38-5.62l-13.8-2.94c-1.13-.24-2.24.48-2.48,1.61l-2.08,9.75c-.24,1.13.49,2.24,1.61,2.48l13.8,2.94c1.13.24,2.24-.48,2.48-1.61l2.08-9.75c.24-1.13-.48-2.24-1.61-2.48h0Zm-26.38-5.62l-13.8-2.94c-1.13-.24-2.24.48-2.48,1.61l-2.08,9.75c-.24,1.13.49,2.24,1.61,2.48l13.8,2.94c1.13.24,2.25-.48,2.49-1.61l2.08-9.75c.24-1.13-.49-2.24-1.61-2.48h0Zm4.42-20.73l-13.8-2.94c-1.13-.24-2.24.48-2.48,1.61l-2.08,9.75c-.24,1.13.49,2.24,1.61,2.48l13.8,2.94c1.13.24,2.25-.48,2.49-1.61l2.08-9.75c.24-1.13-.49-2.24-1.61-2.48h0Zm26.38,5.62l-13.8-2.94c-1.13-.24-2.24.48-2.48,1.61l-2.08,9.75c-.24,1.13.49,2.24,1.61,2.48l13.8,2.94c1.13.24,2.24-.49,2.48-1.61l2.08-9.75c.24-1.13-.48-2.24-1.61-2.48h0Zm26.38,5.62l-13.8-2.94c-1.13-.24-2.24.49-2.48,1.61l-2.08,9.75c-.24,1.13.48,2.24,1.61,2.48l13.8,2.94c1.13.24,2.24-.48,2.48-1.61l2.08-9.75c.24-1.13-.49-2.24-1.61-2.48h0Zm26.38,5.62l-13.8-2.94c-1.13-.24-2.24.49-2.48,1.61l-2.08,9.75c-.24,1.13.49,2.24,1.61,2.48l13.8,2.94c1.13.24,2.24-.48,2.48-1.61l2.08-9.75c.24-1.13-.48-2.24-1.61-2.48h0Zm4.42-20.73l-13.8-2.94c-1.13-.24-2.24.49-2.48,1.61l-2.08,9.75c-.24,1.13.49,2.24,1.61,2.48l13.8,2.94c1.13.24,2.24-.48,2.48-1.61l2.08-9.75c.24-1.13-.48-2.24-1.61-2.48h0Zm-26.38-5.62l-13.8-2.94c-1.13-.24-2.24.49-2.48,1.61l-2.08,9.75c-.24,1.13.49,2.24,1.61,2.48l13.8,2.94c1.13.24,2.24-.48,2.48-1.61l2.08-9.75c.24-1.13-.49-2.24-1.61-2.48h0Zm-26.38-5.62l-13.8-2.94c-1.13-.24-2.24.48-2.48,1.61l-2.08,9.75c-.24,1.13.49,2.24,1.61,2.48l13.8,2.94c1.13.24,2.24-.49,2.48-1.61l2.08-9.75c.24-1.13-.49-2.24-1.61-2.48h0Zm-26.38-5.62l-13.8-2.94c-1.13-.24-2.24.48-2.48,1.61l-2.08,9.75c-.24,1.13.49,2.24,1.61,2.48l13.8,2.94c1.13.24,2.25-.48,2.49-1.61l2.08-9.75c.24-1.13-.49-2.24-1.61-2.48h0Zm57.17-9.49l-13.8-2.94c-1.13-.24-2.24.49-2.48,1.61l-2.08,9.75c-.24,1.13.48,2.24,1.61,2.48l13.8,2.94c1.13.24,2.24-.49,2.48-1.61l2.08-9.75c.24-1.13-.49-2.24-1.61-2.48Z"/>
          <path class="cls-15" d="m75.24,148.69c-.24-.05-.42-.17-.54-.36-.12-.19-.15-.4-.1-.62.05-.23.16-.4.35-.53.19-.12.4-.16.64-.11.24.05.42.17.54.36.12.19.15.4.1.62-.05.23-.17.4-.35.53-.19.12-.4.16-.64.11h0Zm21.51-86.56c-.44-.25-.76-.43-.97-.52-.31-.13-.72-.25-1.23-.36-.5-.11-1.03-.11-1.6-.02-.49.08-.93.26-1.33.52-.37.24-.69.58-.96,1.01-.27.43-.47.93-.6,1.52-.24,1.15-.1,2.14.43,2.99.26.39.6.74,1.04,1.04.44.3.94.51,1.51.63.83.18,1.61.17,2.34,0l-.07-.75c-.69.1-1.3.1-1.83-.01-.63-.13-1.16-.38-1.58-.75-.38-.35-.65-.77-.8-1.28-.16-.51-.17-1.07-.04-1.67.13-.62.36-1.14.68-1.55.32-.41.71-.69,1.18-.85.44-.13,1.02-.12,1.72.03.35.08.65.17.88.29.23.12.5.28.8.49l.43-.76h0Zm19.73,3.91l-4.14,6.91.94.2,1.17-2.03,2.85.61.24,2.33,1,.21-.98-8-1.08-.23h0Zm-1.61,4.36l1.91-3.32.42,3.81-2.33-.5h0Zm11.55-1.95c-.44-.25-.76-.43-.97-.52-.31-.13-.72-.25-1.23-.36-.5-.11-1.03-.11-1.6-.02-.49.08-.93.26-1.33.52-.37.24-.69.58-.96,1.01-.27.43-.47.93-.59,1.52-.24,1.15-.1,2.14.43,2.99.26.39.6.74,1.04,1.04.44.3.94.51,1.51.63.83.18,1.61.17,2.34,0l-.07-.75c-.69.1-1.3.1-1.83-.01-.63-.13-1.16-.38-1.58-.75-.38-.35-.65-.77-.8-1.28-.16-.51-.17-1.07-.04-1.67.13-.62.36-1.14.68-1.55.32-.41.71-.69,1.18-.85.44-.13,1.02-.12,1.72.03.35.08.64.17.88.29.23.12.5.28.8.49l.43-.76h0Zm20.36,10.16c.15-.71.52-1,1.1-.88.58.12.79.54.64,1.25-.15.71-.52,1-1.1.88-.58-.12-.79-.54-.64-1.25h0Zm2.64.57c.12-.55.06-1.05-.17-1.5-.23-.45-.63-.73-1.18-.85-.57-.12-1.05-.02-1.44.29-.39.31-.65.74-.77,1.3-.12.57-.07,1.07.16,1.52.23.44.63.73,1.21.85.56.12,1.03.02,1.42-.29.39-.31.65-.75.77-1.32h0Zm-6.25-5.81c.15-.71.52-1,1.1-.88.58.12.79.54.64,1.25-.15.71-.52,1-1.1.88-.58-.12-.79-.54-.64-1.25h0Zm-.41,6.47l7.4-7.04-1.21-.26-7.38,7.04,1.19.25h0Zm3.06-5.9c.12-.55.06-1.05-.17-1.5-.23-.45-.63-.73-1.18-.85-.57-.12-1.05-.02-1.44.29-.39.31-.65.74-.77,1.3-.12.57-.07,1.07.16,1.51.23.45.63.73,1.21.85.56.12,1.03.02,1.42-.29.4-.31.65-.75.77-1.32h0Zm29.01,4.8l1.32.28-3.26,2.96,1.78,3.99-1.43-.3-1.29-2.94-2.37,2.16-1.3-.28,3.21-2.89-1.73-4.06,1.34.29,1.33,3.01,2.4-2.22h0Zm-87.37,11.01l-1.1-.23,4.46-6.63-4.2-.89.22-1.01,5.45,1.16-.15.72-4.67,6.89h0Zm26.94,4.8c.51.11.95.07,1.33-.12.38-.18.61-.47.69-.87.08-.39.06-.73-.07-1.01-.13-.28-.39-.56-.79-.85-.18-.12-.37-.23-.58-.31-.52.02-.98.15-1.38.36-.4.21-.64.54-.74.98-.09.4.01.78.29,1.12.28.34.69.58,1.23.69h0Zm1.3-6.55c-.34-.07-.66-.04-.95.11-.29.14-.47.36-.53.64-.07.33-.03.64.14.91.16.27.45.58.87.93.41-.13.76-.3,1.06-.49.3-.2.49-.45.55-.78.07-.34,0-.63-.23-.86-.23-.23-.53-.38-.9-.46h0Zm.27-1c.74.16,1.29.45,1.65.89.37.44.49.97.35,1.59-.09.42-.27.75-.55,1-.28.26-.61.49-1,.7.45.33.77.72.98,1.18.19.43.23.88.13,1.35-.16.73-.54,1.27-1.15,1.63-.61.36-1.35.45-2.2.27-.6-.13-1.09-.34-1.45-.63-.36-.29-.64-.65-.84-1.08-.17-.4-.2-.84-.1-1.33.11-.5.36-.92.75-1.25.39-.33.83-.56,1.31-.67-.21-.26-.37-.47-.47-.63-.1-.16-.19-.39-.26-.67-.07-.28-.06-.6.01-.96.12-.56.46-.97,1-1.24.55-.26,1.16-.32,1.83-.17h0Zm23.94,8.01c-.22,1.04.24,1.68,1.39,1.92.45.1.83.11,1.14.06.31-.05.63-.16.96-.32.16-.81.11-1.47-.14-1.97-.25-.5-.68-.82-1.28-.95-.54-.12-1-.05-1.36.19-.37.24-.6.6-.7,1.05h0Zm2.3-2.28c1.04.22,1.72.73,2.05,1.54.33.81.37,1.8.12,2.97-.32,1.48-.95,2.51-1.91,3.1-.96.58-2.21.71-3.77.38l.1-.99c1.17.25,2.1.21,2.79-.13.69-.34,1.19-.9,1.49-1.68-.64.2-1.33.22-2.07.06-.75-.16-1.34-.51-1.76-1.06-.43-.55-.55-1.25-.37-2.09.16-.74.53-1.31,1.12-1.73.59-.42,1.33-.54,2.22-.35h0Zm24.93,12.97c-.24-.05-.42-.16-.53-.34-.11-.17-.14-.38-.09-.61.05-.23.16-.4.33-.52.17-.12.38-.15.62-.1.24.05.41.16.52.34.11.17.14.37.09.6-.05.23-.16.4-.33.52-.17.12-.37.15-.62.1h0Zm3.55-2.01l.22-1.01-5.97-1.27-.22,1.01,5.97,1.27h0Zm-2.54-2.73c-.24-.05-.42-.16-.53-.34-.11-.17-.14-.38-.09-.61.05-.23.16-.4.33-.52.17-.11.38-.15.62-.1.24.05.41.16.52.34.11.17.14.37.09.6-.05.23-.16.4-.33.52-.17.11-.37.15-.62.1h0Zm-1.81,23.4l-6.08-1.3.18-.85,6.08,1.3-.18.85h0Zm-29.81-3.52c.54.12.99.05,1.34-.2.35-.25.57-.61.67-1.08.22-1.03-.23-1.66-1.34-1.89-.47-.1-.87-.12-1.19-.05-.32.06-.66.19-1.01.36-.13.78-.06,1.42.21,1.92.27.5.71.81,1.31.94h0Zm.97-4.2c.75.16,1.33.51,1.75,1.06.42.55.54,1.24.36,2.07-.16.75-.53,1.33-1.11,1.75-.58.42-1.32.54-2.21.35-1.04-.22-1.74-.73-2.1-1.53-.36-.8-.42-1.74-.2-2.81.33-1.54,1-2.62,2.01-3.22,1.01-.6,2.28-.74,3.8-.42l-.09.98c-1.18-.25-2.14-.2-2.86.16-.72.36-1.22.93-1.49,1.72.62-.25,1.33-.28,2.14-.11h0Zm-27.5-5c-.37-.08-.87-.13-1.48-.14l-.25-.15.85-4,4.71,1-.2.96-3.62-.77-.43,2.03c.31.03.67.08,1.08.17.98.21,1.67.62,2.09,1.23.42.61.55,1.31.38,2.09-.21.98-.68,1.61-1.4,1.91-.73.3-1.57.35-2.54.14-.33-.07-.68-.18-1.05-.34-.38-.16-.73-.33-1.07-.53l.51-.97c.72.4,1.33.66,1.83.76.76.16,1.36.15,1.79-.04.44-.19.72-.57.84-1.15.13-.6.03-1.07-.28-1.42-.31-.34-.89-.6-1.75-.79h0Zm-27.91-4.49l2.73.58.87-4.08-3.6,3.5h0Zm5.23,1.11l-.22,1.01-1.43-.3-.42,1.99-1.07-.23.42-1.99-4.09-.87.17-.81,4.82-4.68,1.5.32-1.12,5.26,1.43.3h0Zm-6.07,22.56l-.19.91-4.03-.86.19-.91,1.56.33,1.33-6.23-1.39.23-.22-.94,1.7-.42,1.21.26-1.56,7.34,1.41.3h0Zm23.07-2c.54-.16,1.01-.27,1.42-.33.41-.06.91-.02,1.49.1.4.08.77.25,1.11.51.34.25.6.59.77,1.01.17.42.2.89.09,1.41-.13.63-.41,1.15-.82,1.58-.41.43-1.05.94-1.92,1.52l-1.73,1.18,3.46.74-.21,1-5.07-1.08.17-.78c.75-.56,1.56-1.13,2.43-1.72.62-.42.96-.66,1.02-.71.59-.44.98-.79,1.19-1.05.21-.26.35-.56.42-.91.09-.42.02-.79-.21-1.09-.23-.3-.59-.5-1.08-.61-.37-.08-.7-.1-.98-.07-.28.04-.54.09-.79.16-.25.07-.43.12-.55.15l-.2-1.03h0Zm29.06,5.28c.78.17,1.37.49,1.75.95.38.47.5,1.05.35,1.76-.09.44-.3.81-.61,1.11-.31.31-.66.52-1.05.64.48.27.84.59,1.07.97.23.38.28.85.17,1.4-.16.73-.54,1.25-1.16,1.54-.62.29-1.37.35-2.25.16-.53-.11-.99-.27-1.38-.47-.39-.2-.82-.48-1.29-.83l.6-.94c.44.32.82.57,1.16.76.34.19.69.32,1.05.4,1.23.26,1.94-.05,2.13-.92.11-.52-.03-.93-.42-1.23-.39-.3-1.02-.55-1.89-.73l-.14-.03.23-1.06c1.57.33,2.45.03,2.65-.9.1-.46.04-.8-.17-1.02-.21-.22-.55-.39-1.02-.49-.34-.07-.68-.09-1.03-.07-.35.03-.78.1-1.31.22l-.18-1.05c.55-.15,1.04-.24,1.46-.27.42-.03.85,0,1.29.09h0Zm23.79,20.84l-.54,2.55-1.01-.22.54-2.55-2.48-.53.22-1.01,2.48.53.52-2.45,1.01.22-.52,2.45,2.51.54-.22,1.01-2.51-.54h0Zm-26.1,6.74l.22-1.01-6.55-1.4-.22,1.01,6.55,1.4h0Zm.57-2.69l.22-1.01-6.55-1.4-.22,1.01,6.55,1.4h0Zm-30.53-2.16c.76.16,1.38-.04,1.85-.61.47-.57.81-1.32,1.01-2.25.2-.93.2-1.75,0-2.46-.2-.71-.68-1.15-1.44-1.31-.76-.16-1.38.04-1.85.61-.47.57-.81,1.32-1.01,2.25-.2.93-.2,1.75,0,2.46.2.71.68,1.15,1.44,1.31h0Zm1.64-7.58c1.06.23,1.78.79,2.15,1.71.37.91.43,2,.16,3.25-.26,1.23-.75,2.19-1.48,2.88-.72.69-1.61.93-2.65.7-1.06-.23-1.79-.8-2.18-1.73-.39-.93-.45-2-.19-3.24.26-1.23.76-2.19,1.49-2.88.73-.69,1.63-.92,2.69-.69Z"/>
        </g>
        <path class="cls-52" d="m186.98,31.24L100.19,12.75c-2.24-.48-4.44.86-4.89,2.97l-4.57,21.47c-.45,2.11,1.01,4.23,3.25,4.71l86.79,18.49c2.24.48,4.44-.86,4.89-2.97l4.57-21.47c.45-2.11-1.01-4.23-3.25-4.71Z"/>
        <path class="cls-32" d="m107.78,29.66l-1.81,8.49-1.25-1.91,1.27-5.97,1.78-.6h0Zm74.79,15.93l-1.81,8.49-1.25-1.91,1.27-5.97,1.78-.6h0Zm-2.29,8.6l-1.27-1.92-5.31-1.13-1.91,1.25,8.49,1.81h0Zm-6.57-10.8l1.4,1.13,5.31,1.13,1.77-.45-1.44-1.13-5.31-1.13-1.74.45h0Zm10.39-7.13l-8.49-1.81,1.24,1.92,5.31,1.13,1.94-1.24h0Zm-10.95,7.32l1.38,1.28-1.27,5.97-1.92,1.24,1.81-8.49h0Zm.11-.54l1.81-8.49,1.25,1.91-1.27,5.97-1.78.6h0Zm9.42,2.01l-1.38-1.28,1.27-5.97,1.92-1.24-1.81,8.49h0Zm-12.58-2.12l-1.81,8.49-1.25-1.91,1.27-5.97,1.78-.6h0Zm-2.29,8.6l-1.27-1.92-5.31-1.13-1.91,1.25,8.49,1.81h0Zm-6.57-10.8l1.4,1.13,5.31,1.13,1.77-.45-1.44-1.13-5.31-1.13-1.74.45h0Zm10.39-7.13l-8.49-1.81,1.24,1.92,5.31,1.13,1.94-1.24h0Zm-10.95,7.32l1.38,1.28-1.27,5.97-1.92,1.24,1.81-8.49h0Zm.11-.54l1.81-8.49,1.25,1.91-1.27,5.97-1.78.6h0Zm9.42,2.01l-1.38-1.28,1.27-5.97,1.92-1.24-1.81,8.49h0Zm-12.58-2.12l-1.81,8.49-1.25-1.91,1.27-5.97,1.78-.6h0Zm-2.29,8.6l-1.27-1.92-5.31-1.13-1.91,1.25,8.49,1.81h0Zm-6.57-10.8l1.4,1.13,5.31,1.13,1.77-.45-1.44-1.13-5.31-1.13-1.74.45h0Zm10.39-7.13l-8.49-1.81,1.24,1.91,5.31,1.13,1.94-1.24h0Zm-10.95,7.32l1.38,1.28-1.27,5.97-1.92,1.24,1.81-8.49h0Zm.11-.54l1.81-8.49,1.25,1.91-1.27,5.97-1.78.6h0Zm9.42,2.01l-1.38-1.28,1.27-5.97,1.92-1.24-1.81,8.49h0Zm-12.58-2.12l-1.81,8.49-1.25-1.91,1.27-5.97,1.78-.6h0Zm-2.29,8.6l-1.27-1.92-5.31-1.13-1.91,1.25,8.49,1.81h0Zm-6.57-10.8l1.4,1.13,5.31,1.13,1.77-.45-1.44-1.13-5.31-1.13-1.74.45h0Zm10.39-7.13l-8.49-1.81,1.24,1.91,5.31,1.13,1.94-1.24h0Zm-10.95,7.32l1.38,1.28-1.27,5.97-1.92,1.24,1.81-8.49h0Zm.11-.54l1.81-8.49,1.25,1.91-1.27,5.97-1.78.6h0Zm9.42,2.01l-1.38-1.28,1.27-5.97,1.92-1.24-1.81,8.49h0Zm-12.58-2.12l-1.81,8.49-1.25-1.91,1.27-5.97,1.78-.6h0Zm-2.29,8.6l-1.27-1.92-5.31-1.13-1.91,1.25,8.49,1.81h0Zm-6.57-10.8l1.4,1.13,5.31,1.13,1.77-.45-1.44-1.13-5.31-1.13-1.74.45h0Zm10.39-7.13l-8.49-1.81,1.24,1.91,5.31,1.13,1.94-1.24h0Zm-10.95,7.32l1.38,1.28-1.27,5.97-1.92,1.24,1.81-8.49h0Zm.11-.54l1.81-8.49,1.25,1.91-1.27,5.97-1.78.6h0Zm9.42,2.01l-1.38-1.28,1.27-5.97,1.92-1.24-1.81,8.49h0Zm-12.58-2.12l-1.81,8.49-1.24-1.91,1.27-5.97,1.78-.6h0Zm-2.29,8.6l-1.27-1.92-5.31-1.13-1.91,1.25,8.49,1.81h0Zm-6.57-10.8l1.4,1.13,5.31,1.13,1.77-.45-1.44-1.13-5.31-1.13-1.74.45h0Zm10.39-7.13l-8.49-1.81,1.24,1.92,5.31,1.13,1.94-1.24h0Zm-10.95,7.32l1.38,1.28-1.27,5.97-1.92,1.24,1.81-8.49h0Zm.11-.54l1.81-8.49,1.25,1.91-1.27,5.97-1.78.6h0Zm9.42,2.01l-1.38-1.28,1.27-5.97,1.91-1.24-1.81,8.49h0Zm-14.87,6.49l-1.27-1.92-5.31-1.13-1.91,1.25,8.49,1.81h0Zm-6.57-10.8l1.4,1.13,5.31,1.13,1.77-.45-1.44-1.13-5.31-1.13-1.74.45h0Zm10.39-7.13l-8.49-1.81,1.24,1.92,5.31,1.13,1.94-1.24h0Zm-10.95,7.32l1.38,1.28-1.27,5.97-1.92,1.24,1.81-8.49h0Zm.11-.54l1.81-8.49,1.25,1.91-1.27,5.97-1.78.6h0Zm9.42,2.01l-1.38-1.28,1.27-5.97,1.92-1.24-1.81,8.49Z"/>
      </g>
    </g>
  </g>
</svg>