<?xml version="1.0" encoding="UTF-8"?>
<svg id="Capa_2" data-name="Capa 2" xmlns="http://www.w3.org/2000/svg" viewBox="0 0 11.03 16.3">
  <defs>
    <style>
      .cls-1 {
        fill: #82a0ca;
      }
    </style>
  </defs>
  <g id="Layer_2" data-name="Layer 2">
    <path class="cls-1" d="m0,16.3c2.4-2.76,4.71-5.42,7.06-8.13C4.72,5.47,2.39,2.79,0,.04.23.02.37,0,.51,0,2.2,0,1.85,0,3.54.01c.22,0,.51.1.64.26,2.26,2.57,4.49,5.15,6.74,7.74.04.05.07.1.12.18-1.07,1.23-2.13,2.46-3.2,3.69-1.2,1.38-2.39,2.76-3.59,4.13-.12.13-.31.29-.47.29-1.89.02-1.74.01-3.77.01Z"/>
  </g>
</svg>