<?xml version="1.0" encoding="UTF-8"?>
<svg id="Capa_2" data-name="Capa 2" xmlns="http://www.w3.org/2000/svg" xmlns:xlink="http://www.w3.org/1999/xlink" viewBox="0 0 250.91 162.5">
  <defs>
    <style>
      .cls-1 {
        fill: #dfd0a5;
      }

      .cls-2 {
        fill: #ccbb9d;
      }

      .cls-3 {
        fill: url(#linear-gradient-2);
      }

      .cls-4 {
        fill: #c59d69;
      }

      .cls-5 {
        fill: #f0f1df;
      }

      .cls-6 {
        fill: #5b4223;
      }

      .cls-7 {
        fill: #5f3421;
      }

      .cls-8 {
        fill: #b5986e;
      }

      .cls-9 {
        fill: #f1f4df;
      }

      .cls-10 {
        fill: #c5a278;
      }

      .cls-11 {
        fill: #3f3e39;
      }

      .cls-12 {
        fill: #c8ad80;
      }

      .cls-13 {
        fill: #fafcf9;
      }

      .cls-14 {
        fill: #b58a55;
      }

      .cls-15 {
        fill: #4f3014;
      }

      .cls-16 {
        fill: #e5c988;
      }

      .cls-17 {
        fill: #7b4224;
      }

      .cls-18 {
        fill: #aa8862;
      }

      .cls-19 {
        fill: #dcdbe0;
      }

      .cls-20 {
        fill: #5d3c1b;
      }

      .cls-21 {
        fill: #f3f2de;
      }

      .cls-22 {
        fill: #403424;
      }

      .cls-23 {
        fill: #f3f5e0;
      }

      .cls-24 {
        fill: url(#radial-gradient);
      }

      .cls-25 {
        opacity: .4;
      }

      .cls-26 {
        opacity: .3;
      }

      .cls-27 {
        fill: #b9a2be;
      }

      .cls-28 {
        fill: #5f3014;
      }

      .cls-29 {
        fill: #f8f9f1;
      }

      .cls-30 {
        fill: #a1d09c;
      }

      .cls-31 {
        fill: #f3f0e7;
      }

      .cls-32 {
        fill: #f3e2ac;
      }

      .cls-33 {
        fill: url(#radial-gradient-2);
      }

      .cls-34 {
        fill: #463722;
      }

      .cls-35 {
        fill: #dbcbbb;
      }

      .cls-36 {
        fill: url(#linear-gradient);
      }

      .cls-37 {
        fill: #4b4137;
      }

      .cls-38 {
        fill: #7d4627;
      }

      .cls-39 {
        fill: #e6e0ca;
      }

      .cls-40 {
        fill: #ede5da;
      }

      .cls-41 {
        fill: #a56d34;
      }
    </style>
    <linearGradient id="linear-gradient" x1="137.06" y1="89.69" x2="228.98" y2="89.69" gradientTransform="translate(-69.99 30.42) rotate(-7.73)" gradientUnits="userSpaceOnUse">
      <stop offset="0" stop-color="#e2ddbf"/>
      <stop offset="1" stop-color="#e5c988"/>
    </linearGradient>
    <radialGradient id="radial-gradient" cx="106.38" cy="133.6" fx="106.38" fy="133.6" r="100.15" gradientTransform="translate(-69.99 30.42) rotate(-7.73)" gradientUnits="userSpaceOnUse">
      <stop offset="0" stop-color="#c5a278"/>
      <stop offset=".47" stop-color="#dbcebe"/>
      <stop offset="1" stop-color="#d7c78b"/>
    </radialGradient>
    <linearGradient id="linear-gradient-2" x1="176.24" y1="85.78" x2="268.15" y2="85.78" gradientTransform="translate(-125.37 64.81) rotate(-16.78)" xlink:href="#linear-gradient"/>
    <radialGradient id="radial-gradient-2" cx="145.55" cy="129.69" fx="145.55" fy="129.69" r="100.16" gradientTransform="translate(-125.37 64.81) rotate(-16.78)" xlink:href="#radial-gradient"/>
  </defs>
  <g id="Layer_2" data-name="Layer 2">
    <path class="cls-25" d="m230.14,31.57l-20.12,2.73-.6.08-13.71,1.86-.6.08-22.15,3.01-.6.08-6.88.93-.42.06-.18.02-.42.06-.49.07-.6.08-4.77.65-.6.08-44.9,6.09-94.82,12.87,1.7,12.5s-.23-.05-.33-.07c.1.02.32.03.33.08l2.1,15.44,5.93,43.7,2.05,15.11,1.86,13.74,122.65-16.65,17.6-2.39.6-.08,12.95-1.76.6-.08.3-.04,22.15-3.01.6-.08.3-.04,7.26-.99.21-.03.38-.05.34-.05.6-.08,4.68-.63.6-.08,20.35-2.76,6.83-.93-1.83-13.48-2.09-15.36-5.93-43.7-2.13-15.69-1.66-12.25-7.13.97Z"/>
    <g>
      <path class="cls-23" d="m193.64,44.15l4.36,32.14c-1.75-.35-17.75-3.67-24.12-8.13l-.15.02-2.52-18.55-.75-5.54-.02-.15-.89-6.59,22.75-3.09,1.34,9.88Z"/>
      <path class="cls-4" d="m231.81,103.9l-2.75.37c-.18-.67-.38-1.36-.6-2.05l2.19-.3c.38.7.77,1.35,1.16,1.98Z"/>
      <path class="cls-14" d="m221.64,130.28l-4-.3-2.63,3.33-.72.1-.3-2.15.74.95,1.59-3.49,2.27.45-2.16-5.23,3.05,2.29.18-2.06,3.17.31-.78-2.94,1.54-.97-6.92-3.25-3.12,3.4-1.17-1.01-.28-2.04.91.99,2.12-3.72,3.67,2.36.73-1.95,3.07,1.25-1.41-2.55,1.78-2.07-3.67-1.18,2.02-1.42-.98-1.07,2.63-1.97-2.64-.33-.21-.5,4.16-.56c2.23,6.02,3.31,12.91,1.65,20.05l2.32,1.82s4.34-9.3.82-22.52l2.75-.37c2.34,3.72,4.78,6.25,6.99,7.97l2.43,17.88-20.95,2.84-.14-1.05,1.5-1.27Z"/>
      <path class="cls-4" d="m210.17,84.13c.29-.18,9.56,8.5,14.1,20.79l-4.16.56-.58-1.37-2.7,1.03-.2-.53-.61-2.23,2.69-.37-2.51-1.11,1.06-2.86-3.85,1.98,1-2.75-1.57-.33.4-1.96-2.51,1.02-.11-.79,2.11-1.84-1.57.21.07-3.44-1.72,1.99-.02-1.86-1.05.99-.12-.87,2.04-1.57-1.35.18.24-2.7-1.41.66-1.2-8.66c1.45-3.49,1.74-7.97.7-11.48-.54-1.82-1.79-3.37-2.34-5.14-.28-.91-.49-1.87-.6-2.84l20.73-2.81c-.2.7-.4,1.44-.57,2.21-1.13,4.89-1.69,11.08-1.17,18.87l.9,6.62c1.62,7.84,3.87,13.75,6.33,18.19l-2.19.3c-2.22-6.91-6.62-14.76-14.82-22.83l-3.46,4.75Z"/>
      <path class="cls-13" d="m166.25,55.18l-1.57.21-.36-.44-.35-2.56,1.04.89,1.75-.62.18,2.41,1.35-.18-.32-2.39,2.67-2.8.6-.08,2.52,18.55.45,3.3s7.02,6.82,15.32,7.3c0,0,8.15,1.62,9.43,4.31l-.92-6.8-4.36-32.14,2.57-2.38,2.07,1.75.41-4.85,1.74,2.16c-1.16,2.69-1.82,5.45-1.66,8.38.15,2.8,2,4.59,2.92,7.11.66,1.79.97,3.8.91,5.7-.06,1.85-.86,3.67-.89,5.57-.01.72.04,1.47.14,2.23.47,3.45,2.08,7.07,4.33,9.51.17-.33.33-.67.48-1.03l1.2,8.66-.53.25-.03-.79-.13-.97-.86,1.83-1.85-3.29.05.6-1.02-.78-.58,1.27-1.46-.69.87,3.61-1.3-.65-.26.86-1.79-.28.22,1.65,3.11,1.57,1.93-2.37,2.57,2.79,1.53-1.18.12.87-1.65,1.57-.41-1.32-.83.79-1.35-1.65-.33,1.49-2.47.34.59,4.34,4.38,2.11,2.78-2.44.04.24-2.15,2.62.36,6.4,3.17.96.19,1.37-2.57,3.43,2.47.27-.98,5.16,1.57-.21.84.91.28,2.04-1.51-1.3-1.71.84-.14-2.19-1.8.24.26,1.95-2.67,2.8.3,2.25-.6.08-3.89.53-1.52-11.22v-.02s1.46-4.22,1.46-4.22l-.02-.02-11.8-13.92-7.08,16.06v.02s1.51,3.81,1.51,3.81l1.3,9.58-3.29.45.3,2.25-2.03,1.85-2.07-1.75-.41,4.86-1.74-2.16c1.16-2.69,1.82-5.44,1.66-8.37-.15-2.8-1.99-4.57-2.92-7.08-.66-1.79-.97-3.76-.91-5.67.06-1.85.87-3.6.9-5.5.01-.72-.04-1.47-.14-2.22-.46-3.41-2.06-6.93-4.31-9.38-.01.03-.03.05-.04.08l-.11-.06-.86-6.37.84-1.43,1.96,3.27v-.61s1.05.77,1.05.77l.59-1.27,1.47.69-.87-3.61,1.31.65.04-.83,1.57.31-.22-1.65-2.89-1.6-1.81,2.35-2.48-2.58-1.16.99-.16-1.16,1.35-1.29.41,1.31.82-.8,1.38,1.87.36-1.27,2.02-.27-.65-4.79-4.13-1.92-2.25,2.12-.12-.85,1.66-1.91-.25-6.42-2.65-.83-.27-1.96,2.24-2.99-2.44-.05,1.02-4.94Z"/>
      <path class="cls-36" d="m171.3,115.33c.16-1.9-.08-3.93-.65-5.75-.55-1.77-1.78-3.16-2.32-4.99-1.13-3.85-.66-8.69,1.16-12.29l-.11-.06-.86-6.37-.25.42-.13-.97.21-.71-1.69.99.27-2.48-1.35.18,2.32-1.98-.16-1.16-1.35,1.29-.02-1.81-1.7,2.1.1-3.21-1.57.21,3.85-3.63-.12-.85-2.11,2.43-.13-.97-2.29,1,.63-1.99-1.57-.32,1-2.72-3.84,2.04,1.08-2.75-2.48-.88,2.69-.37-.64-2.46,3.61.78-1.02-1.86,2.69.25.21-1.63.93.29-.27-1.96-1,1.34-8.08,3.08-.79-1.87-2.64-.33,2.63-1.97-.98-1.08,2.02-1.42-3.67-1.18,1.78-2.07-1.41-2.55,3.07,1.26.73-1.92,3.68,2.41,2.14-3.6,1.41,1.69-.35-2.56-1.64-1.41-3.12,3.4-6.92-3.25,1.54-.97-.78-2.94,3.17.31.18-2.06,3.05,2.29-2.16-5.23,2.27.45,1.58-3.49,1.29,1.65-.27-1.98-.53-.73-1.09.15-2.41,3.15-4.11-.28,1.28-1.24-.12-.9-44.9,6.09.89,6.56c.05,0,.1,0,.15,0-.05,0-.1,0-.15,0-4.1-.03-8.14,1.24-12.05,2.36-3.46,1-6.74,2.47-9.81,4.36-5.56,3.42-11.36,8.01-13.1,14.61-2.49,9.49.59,20.75,7.23,27.92.04.05.09.09.13.14.64-.32,1.33-.53,2.05-.63,4.36-.59,8.65,3.24,10.78,9.07,2.55,1.2,4.41,2.37,7.29.57-4.23-8.77-4.67-19.84-4.67-19.84l-2.35-2.73.12-2.46-1.22-4.71s-13.37-18.61,12.17-23.6c0,0,8.5-12.59,28.1,7.16,0,0,7.67,6.74,3.5,16.68,1.7-.27,3.25,1.24,2.11,8.93,0,0-1.57,12.62-4.63,9.13.65.8,1.02,1.63,1.16,2.47h.06s1.17,4.45,1.17,4.45l.37,1.43h0s8.25,7.11,8.25,7.11l.02.07,11.96,4.67-4.82,13.18-4.66.63c.45,3,.89,5.98,1.38,8.96l17.6-2.39v-.07s-3.43-5.56-3.43-5.56l2.39-.32.78-3.27,3.48,2.05,1.67-1.7c-1.83-2.28-3.21-4.8-3.84-7.66-.6-2.74.7-4.97.93-7.64Zm-8.52-22.34c-25.16-24.78-14.6-47.4-14.6-47.4l2.32,1.82c-5.06,21.68,15.31,41.1,15.75,40.84l-3.46,4.75Z"/>
      <path class="cls-12" d="m246.3,115.44l1.82,13.37-6.88.93-2.43-17.88c3.85,2.99,6.97,3.51,7.5,3.58Z"/>
      <path class="cls-21" d="m238.8,111.87c-2.21-1.71-4.66-4.24-6.99-7.97-.39-.62-.78-1.28-1.16-1.98l13.57-1.84,2.09,15.36c-.52-.07-3.65-.59-7.5-3.58Z"/>
      <path class="cls-21" d="m229.63,46.55c2.51-3.57,5.06-5.14,6.1-5.67.2-.1.34-.16.42-.19l2.13,15.69-13.57,1.84c.17-.77.36-1.51.57-2.21,1.17-4.12,2.75-7.19,4.35-9.46Z"/>
      <path class="cls-12" d="m234.5,28.54l1.65,12.14c-.08.03-.22.1-.42.19-1.04.53-3.59,2.08-6.11,5.6l-2.3-16.96,7.18-.98Z"/>
      <path class="cls-16" d="m235.73,40.88c-1.04.54-3.59,2.11-6.1,5.67v-.07c2.51-3.52,5.06-5.07,6.1-5.6Z"/>
      <path class="cls-14" d="m227.32,29.52l2.3,16.96c-1.63,2.28-3.26,5.37-4.46,9.55l-20.73,2.81c-.11-.97-.13-1.95-.05-2.9.23-2.67,1.53-4.9.93-7.64-.63-2.87-2-5.37-3.84-7.65l1.68-1.68,3.15,1.88,1.35,9.93,2.99-.41-1.54-11.37-1.98.27.33-1.26,2.39-.32-3.23-5.35,20.72-2.81Zm-1.31,12.83c-.41-3.06-2.16-5.35-3.89-5.11-1.74.24-2.81,2.9-2.39,5.96.42,3.06,2.16,5.35,3.89,5.11,1.74-.24,2.81-2.91,2.39-5.96Zm-8.38,1.14c-.41-3.06-2.16-5.35-3.89-5.11-1.74.24-2.81,2.9-2.39,5.96.41,3.06,2.16,5.35,3.89,5.11,1.74-.24,2.81-2.9,2.39-5.96Z"/>
      <path class="cls-16" d="m225.16,56.03c1.2-4.17,2.83-7.27,4.46-9.55v.07c-1.59,2.27-3.17,5.34-4.34,9.46l-.12.02Z"/>
      <path class="cls-26" d="m222.8,37.75c1.74-.24,3.48,2.05,3.89,5.11.42,3.06-.66,5.73-2.39,5.96-1.74.24-3.48-2.05-3.89-5.11-.41-3.06.66-5.73,2.39-5.96Z"/>
      <path class="cls-26" d="m214.42,38.89c1.74-.24,3.48,2.05,3.89,5.11.42,3.06-.66,5.73-2.39,5.96-1.74.24-3.48-2.05-3.89-5.11-.42-3.06.66-5.73,2.39-5.96Z"/>
      <polygon class="cls-26" points="206.98 41.37 206.78 39.93 207.79 39.79 209.78 39.52 211.32 50.89 208.33 51.3 206.98 41.37"/>
      <path class="cls-9" d="m222.12,37.23c1.74-.24,3.48,2.05,3.89,5.11.42,3.06-.66,5.73-2.39,5.96-1.74.24-3.48-2.05-3.89-5.11-.41-3.06.65-5.73,2.39-5.96Z"/>
      <path class="cls-16" d="m225.16,56.03l.12-.02c-.2.7-.39,1.44-.57,2.21l-.13.02c.18-.77.37-1.51.57-2.21Z"/>
      <path class="cls-1" d="m224.71,58.22l13.57-1.84,5.93,43.7-13.57,1.84c-2.46-4.45-4.72-10.35-6.33-18.19l-.9-6.62c-.52-7.8.04-13.99,1.17-18.87l.13-.02Z"/>
      <path class="cls-26" d="m224.87,104.84c-4.54-12.28-13.8-20.97-14.1-20.79l3.46-4.75c8.2,8.08,12.6,15.92,14.82,22.83.22.69.42,1.38.6,2.05,3.52,13.21-.82,22.52-.82,22.52l-2.32-1.82c1.67-7.13.58-14.02-1.65-20.05Z"/>
      <polygon class="cls-26" points="212.7 117.58 211.86 116.66 210.29 116.88 211.28 111.71 208.81 111.44 211.38 108.01 212.05 107.11 217.43 105.06 220.13 104.04 220.71 105.4 220.92 105.91 223.56 106.24 220.93 108.21 221.91 109.28 219.89 110.7 223.56 111.88 221.78 113.95 223.2 116.51 220.13 115.26 219.4 117.2 215.73 114.84 213.61 118.56 212.7 117.58"/>
      <polygon class="cls-26" points="214.58 131.17 212.84 128.96 210.69 130.62 211.43 124.95 208.39 127.58 207.56 125.4 206.07 126.75 205.72 124.2 205.42 121.96 208.09 119.16 207.82 117.21 209.62 116.97 209.76 119.16 211.48 118.32 212.98 119.62 214.15 120.62 217.27 117.23 224.19 120.48 222.65 121.45 223.43 124.39 220.26 124.08 220.08 126.14 217.03 123.85 219.19 129.08 216.91 128.63 215.33 132.12 214.58 131.17"/>
      <polygon class="cls-26" points="211.19 106.64 208.02 105.68 207.66 99.27 209.81 96.66 210.6 95.69 211.23 95.14 211.34 95.93 213.85 94.91 213.45 96.87 215.01 97.2 214.02 99.95 217.86 97.97 216.8 100.83 219.31 101.94 216.62 102.3 217.23 104.54 213.59 103.53 214.6 105.39 211.9 105.15 211.66 106.78 211.19 106.64"/>
      <path class="cls-26" d="m207.26,78.22c-.15.36-.3.7-.48,1.03-2.26-2.44-3.87-6.06-4.33-9.51-.1-.76-.15-1.51-.14-2.23.03-1.9.83-3.72.89-5.57.06-1.91-.25-3.91-.91-5.7-.93-2.52-2.77-4.31-2.92-7.1-.16-2.93.5-5.69,1.66-8.38l-1.74-2.16-.41,4.85-2.07-1.75-2.57,2.38-1.34-9.88,14.3-1.94,3.23,5.35-2.39.32-.33,1.26-1.01.14.2,1.44-3.15-1.88-1.68,1.68c1.83,2.28,3.21,4.79,3.84,7.65.6,2.74-.7,4.96-.93,7.64-.08.95-.06,1.93.05,2.9.11.97.31,1.93.6,2.84.55,1.77,1.8,3.31,2.34,5.14,1.03,3.51.75,7.99-.7,11.48Z"/>
      <polygon class="cls-26" points="222.24 130.19 220.73 131.47 220.87 132.51 215.6 133.23 218.23 129.9 222.24 130.19"/>
      <polygon class="cls-26" points="209.77 96.41 206.99 98.85 202.6 96.74 202.02 92.39 204.49 92.06 204.82 90.57 206.16 92.22 206.99 91.42 207.4 92.75 209.05 91.18 210.1 90.19 210.12 92.06 211.84 90.07 211.77 93.51 213.34 93.3 211.23 95.14 211.2 94.96 210.6 95.69 209.77 96.41"/>
      <polygon class="cls-26" points="208.46 86.88 209.87 86.22 209.62 88.92 210.97 88.74 208.93 90.31 207.4 91.5 204.83 88.7 202.9 91.07 199.79 89.5 199.57 87.85 201.36 88.13 201.62 87.27 202.93 87.92 202.06 84.31 203.52 85 204.1 83.73 205.12 84.51 205.06 83.9 206.91 87.19 207.77 85.37 207.9 86.34 207.93 87.13 208.46 86.88"/>
      <polygon class="cls-26" points="214.66 133.32 214.66 133.36 206.51 134.46 205.57 127.58 207.89 129.17 209.61 128.1 210.12 131.91 212.86 130.99 214.66 133.32"/>
      <path class="cls-7" d="m224.27,104.92c-4.54-12.28-13.8-20.97-14.1-20.79l3.46-4.75c8.2,8.08,12.6,15.92,14.82,22.83.22.69.42,1.38.6,2.05,3.53,13.21-.82,22.52-.82,22.52l-2.32-1.82c1.67-7.13.58-14.02-1.65-20.05Z"/>
      <path class="cls-9" d="m213.74,38.37c1.74-.24,3.48,2.05,3.89,5.11.42,3.06-.65,5.73-2.39,5.96-1.74.24-3.48-2.05-3.89-5.11-.42-3.06.66-5.73,2.39-5.96Z"/>
      <polygon class="cls-41" points="212.1 117.66 211.27 116.75 209.69 116.96 210.68 111.8 208.21 111.52 210.78 108.09 211.46 107.19 216.83 105.14 219.53 104.12 220.11 105.49 220.32 105.99 222.96 106.32 220.33 108.29 221.31 109.36 219.3 110.78 222.96 111.96 221.19 114.03 222.6 116.59 219.53 115.34 218.81 117.28 215.13 114.93 213.01 118.64 212.1 117.66"/>
      <polygon class="cls-17" points="213.98 131.26 212.24 129.04 210.09 130.7 210.83 125.04 207.79 127.66 206.96 125.48 205.47 126.83 205.12 124.29 204.82 122.04 207.49 119.24 207.22 117.29 209.02 117.05 209.17 119.24 210.88 118.4 212.39 119.7 213.56 120.7 216.68 117.31 223.6 120.56 222.05 121.53 222.83 124.47 219.66 124.16 219.49 126.22 216.43 123.93 218.59 129.16 216.32 128.71 214.73 132.2 213.98 131.26"/>
      <polygon class="cls-38" points="210.59 106.72 207.42 105.76 207.06 99.35 209.21 96.74 210 95.77 210.63 95.22 210.74 96.01 213.25 94.99 212.85 96.95 214.42 97.28 213.42 100.03 217.26 98.05 216.2 100.91 218.72 102.02 216.02 102.38 216.63 104.62 212.99 103.61 214 105.48 211.3 105.23 211.06 106.86 210.59 106.72"/>
      <path class="cls-28" d="m206.66,78.3c-.15.36-.31.7-.48,1.03-2.26-2.44-3.86-6.06-4.33-9.51-.1-.76-.15-1.51-.14-2.23.03-1.9.83-3.72.89-5.57.06-1.91-.25-3.91-.91-5.7-.93-2.52-2.77-4.31-2.92-7.11-.16-2.93.5-5.69,1.66-8.38l-1.74-2.16-.41,4.85-2.07-1.75-2.57,2.38-1.34-9.88,14.3-1.94,3.23,5.35-2.39.32-.33,1.26-1.01.14.2,1.44-3.15-1.88-1.68,1.68c1.83,2.28,3.21,4.79,3.84,7.65.6,2.74-.7,4.96-.93,7.64-.08.95-.06,1.93.05,2.9.11.97.31,1.93.6,2.84.55,1.77,1.8,3.31,2.34,5.14,1.03,3.51.75,7.99-.7,11.48Z"/>
      <polygon class="cls-17" points="221.64 130.28 220.13 131.55 220.28 132.59 215 133.31 217.63 129.98 221.64 130.28"/>
      <polygon class="cls-9" points="206.3 40.85 206.1 39.41 207.11 39.27 209.1 39 210.64 50.38 207.65 50.78 206.3 40.85"/>
      <polygon class="cls-15" points="209.17 96.49 206.39 98.93 202.01 96.82 201.42 92.48 203.89 92.14 204.22 90.65 205.57 92.3 206.39 91.51 206.8 92.83 208.45 91.27 209.5 90.28 209.53 92.14 211.24 90.15 211.17 93.59 212.74 93.38 210.63 95.22 210.61 95.04 210 95.77 209.17 96.49"/>
      <polygon class="cls-15" points="207.86 86.97 209.27 86.3 209.02 89 210.37 88.82 208.33 90.39 206.8 91.58 204.23 88.78 202.3 91.15 199.19 89.58 198.97 87.93 200.76 88.21 201.03 87.35 202.33 88 201.46 84.39 202.92 85.08 203.5 83.81 204.52 84.59 204.46 83.98 206.31 87.27 207.17 85.45 207.3 86.42 207.33 87.21 207.86 86.97"/>
      <polygon class="cls-16" points="210.61 95.04 210.63 95.22 210 95.77 210.61 95.04"/>
      <polygon class="cls-16" points="210 95.77 209.21 96.74 209.17 96.49 210 95.77"/>
      <polygon class="cls-4" points="214 105.48 212.99 103.61 216.63 104.62 216.83 105.14 211.46 107.19 210.78 108.09 210.59 106.72 211.06 106.86 211.3 105.23 214 105.48"/>
      <polygon class="cls-17" points="214.06 133.4 214.06 133.44 205.91 134.54 204.97 127.66 207.29 129.25 209.01 128.18 209.52 132 212.26 131.07 214.06 133.4"/>
      <polygon class="cls-14" points="214.06 133.4 212.26 131.07 209.52 132 209.01 128.18 207.29 129.25 204.97 127.66 204.53 124.37 205.12 124.29 205.47 126.83 206.96 125.48 207.79 127.66 210.83 125.04 210.09 130.7 212.24 129.04 213.98 131.26 214.28 133.41 214.06 133.44 214.06 133.4"/>
      <polygon class="cls-26" points="182.4 127.53 182.09 125.28 185.38 124.83 184.08 115.25 184.23 115.23 193.19 113.26 200.02 113.53 200.01 113.56 201.53 124.77 205.42 124.24 205.87 127.54 206.81 134.42 183.76 137.55 182.4 127.53"/>
      <polygon class="cls-26" points="201.45 109.29 201.47 109.31 200.02 113.53 193.19 113.26 192.29 108.35 201.45 109.29"/>
      <polygon class="cls-26" points="189.65 95.37 201.45 109.29 192.29 108.35 182.65 111.42 182.58 111.45 182.57 111.43 189.65 95.37"/>
      <polygon class="cls-26" points="192.29 108.35 193.19 113.26 184.23 115.23 184.08 115.25 182.58 111.45 182.65 111.42 192.29 108.35"/>
      <polygon class="cls-35" points="181.5 127.65 181.19 125.4 184.49 124.95 183.19 115.38 183.34 115.36 192.29 113.38 199.12 113.65 199.11 113.68 200.63 124.9 204.53 124.37 204.97 127.66 205.91 134.54 182.86 137.67 181.5 127.65"/>
      <path class="cls-11" d="m198,76.29l.92,6.8c-1.28-2.69-9.43-4.31-9.43-4.31-8.3-.47-15.32-7.3-15.32-7.3l-.45-3.3.15-.02c6.37,4.46,22.37,7.78,24.12,8.13Z"/>
      <polygon class="cls-27" points="200.55 109.41 200.58 109.44 199.12 113.65 192.29 113.38 191.39 108.47 200.55 109.41"/>
      <polygon class="cls-30" points="188.75 95.49 200.55 109.41 191.39 108.47 181.75 111.54 181.68 111.57 181.68 111.55 188.75 95.49"/>
      <polygon class="cls-32" points="191.39 108.47 192.29 113.38 183.34 115.36 183.19 115.38 181.68 111.57 181.75 111.54 191.39 108.47"/>
      <polygon class="cls-26" points="168.5 81.25 169.66 80.26 172.14 82.84 173.96 80.49 176.84 82.09 177.06 83.74 175.5 83.43 175.46 84.26 174.15 83.61 175.02 87.22 173.55 86.53 172.96 87.8 171.91 87.03 171.9 87.64 169.95 84.37 169.11 85.8 168.87 86.22 168.73 85.25 168.94 84.54 167.25 85.53 167.52 83.05 166.17 83.24 168.5 81.25"/>
      <path class="cls-26" d="m182.1,127.57l1.36,10.02-13.54,1.84v-.07s-3.43-5.56-3.43-5.56l2.4-.32.78-3.27,3.48,2.05,1.67-1.7c-1.83-2.28-3.21-4.8-3.84-7.66-.6-2.74.7-4.97.93-7.64.16-1.9-.08-3.93-.65-5.75-.55-1.77-1.78-3.16-2.32-4.99-1.13-3.85-.66-8.69,1.16-12.29.01-.03.03-.05.04-.08,2.26,2.44,3.85,5.96,4.32,9.38.1.75.15,1.49.14,2.22-.03,1.9-.84,3.65-.9,5.5-.06,1.91.24,3.87.91,5.67.93,2.51,2.77,4.28,2.92,7.08.16,2.93-.5,5.68-1.66,8.37l1.74,2.16.41-4.86,2.07,1.75,2.04-1.85Z"/>
      <polygon class="cls-26" points="163.04 41.06 164.23 42.58 166.36 40.92 165.6 46.58 168.58 43.97 169.3 46.16 170.56 44.84 171.21 49.63 168.55 52.43 168.87 54.83 167.52 55.01 167.35 52.59 165.6 53.21 164.57 52.32 162.93 50.91 159.81 54.3 152.89 51.05 154.43 50.08 153.65 47.14 156.82 47.45 157 45.39 160.05 47.68 157.89 42.45 160.17 42.9 161.75 39.41 163.04 41.06"/>
      <polygon class="cls-26" points="167.65 75.05 169.9 72.94 174.03 74.86 174.68 79.64 172.66 79.92 172.3 81.19 170.92 79.32 170.09 80.12 169.69 78.81 168.34 80.1 166.99 81.39 166.97 79.59 165.27 81.68 165.37 78.47 163.8 78.68 167.65 75.05"/>
      <polygon class="cls-26" points="164.92 54.88 165.28 55.31 166.85 55.1 165.84 60.04 168.27 60.09 166.03 63.08 165.03 64.42 156.95 67.49 156.16 65.62 153.53 65.29 156.15 63.33 155.17 62.25 157.19 60.83 153.52 59.65 155.3 57.59 153.89 55.04 156.95 56.3 157.68 54.38 161.37 56.8 163.5 53.19 164.92 54.88"/>
      <polygon class="cls-26" points="166.29 65.04 168.95 65.87 169.2 72.29 167.54 74.2 165.43 76.63 165.3 75.66 163.01 76.66 163.64 74.67 162.07 74.35 163.07 71.64 159.24 73.67 160.31 70.93 157.83 70.04 160.52 69.68 159.88 67.22 163.49 68 162.47 66.14 165.15 66.38 165.37 64.75 166.29 65.04"/>
      <polygon class="cls-26" points="162.66 38.29 170.15 37.28 171.04 43.86 171.06 44.01 168.75 42.42 167.03 43.49 166.67 40.87 166.51 39.68 163.9 40.62 162.77 39.08 162.24 38.35 162.66 38.29"/>
      <polygon class="cls-26" points="161.15 38.5 158.74 41.65 154.62 41.37 155.9 40.13 155.78 39.23 161.15 38.5"/>
      <polygon class="cls-15" points="167.9 81.34 169.06 80.35 171.54 82.92 173.36 80.57 176.24 82.18 176.47 83.82 174.9 83.51 174.86 84.34 173.55 83.69 174.42 87.3 172.95 86.61 172.36 87.88 171.31 87.11 171.31 87.72 169.35 84.45 168.51 85.88 168.27 86.31 168.13 85.33 168.34 84.62 166.65 85.61 166.92 83.14 165.57 83.32 167.9 81.34"/>
      <polygon class="cls-16" points="170.46 44.09 171.21 49.63 170.62 49.71 169.97 44.92 168.7 46.24 167.98 44.05 165 46.66 165.77 41 166.07 40.95 166.43 43.57 168.15 42.5 170.46 44.09"/>
      <path class="cls-28" d="m181.5,127.65l1.36,10.02-13.54,1.84v-.07s-3.43-5.56-3.43-5.56l2.39-.32.78-3.27,3.48,2.05,1.67-1.7c-1.83-2.28-3.21-4.8-3.84-7.66-.6-2.74.7-4.97.93-7.64.16-1.9-.08-3.93-.65-5.75-.55-1.77-1.78-3.16-2.32-4.99-1.13-3.85-.66-8.69,1.16-12.29.01-.03.03-.05.04-.08,2.26,2.44,3.85,5.96,4.31,9.38.1.75.15,1.49.14,2.22-.03,1.9-.84,3.65-.9,5.5-.06,1.91.24,3.87.91,5.67.93,2.51,2.77,4.29,2.92,7.08.16,2.93-.5,5.68-1.66,8.37l1.74,2.16.41-4.86,2.07,1.75,2.03-1.85Z"/>
      <polygon class="cls-17" points="162.44 41.14 163.63 42.66 165.77 41 165 46.66 167.98 44.05 168.7 46.24 169.97 44.92 170.62 49.71 167.95 52.51 168.27 54.91 166.93 55.09 166.75 52.68 165 53.29 163.97 52.4 162.33 50.99 159.21 54.38 152.29 51.13 153.83 50.16 153.05 47.22 156.22 47.53 156.4 45.47 159.45 47.76 157.29 42.53 159.57 42.98 161.15 39.49 162.44 41.14"/>
      <polygon class="cls-15" points="167.06 75.13 169.3 73.02 173.43 74.94 174.08 79.73 172.06 80 171.7 81.27 170.32 79.4 169.5 80.2 169.09 78.89 167.74 80.18 166.39 81.47 166.38 79.67 164.67 81.76 164.78 78.55 163.2 78.76 167.06 75.13"/>
      <polygon class="cls-16" points="165.91 39.76 166.07 40.95 165.77 41 163.63 42.66 162.44 41.14 162.17 39.16 163.3 40.7 165.91 39.76"/>
      <polygon class="cls-41" points="164.32 54.96 164.68 55.4 166.25 55.18 165.24 60.12 167.67 60.17 165.43 63.16 164.43 64.5 156.35 67.58 155.56 65.7 152.93 65.37 155.56 63.41 154.57 62.33 156.59 60.91 152.92 59.73 154.7 57.67 153.29 55.12 156.36 56.38 157.09 54.46 160.77 56.88 162.91 53.27 164.32 54.96"/>
      <polygon class="cls-38" points="165.7 65.12 168.35 65.95 168.6 72.37 166.94 74.28 164.83 76.71 164.7 75.74 162.41 76.74 163.04 74.75 161.47 74.43 162.48 71.72 158.64 73.75 159.71 71.01 157.23 70.12 159.92 69.76 159.28 67.3 162.89 68.08 161.87 66.22 164.56 66.46 164.77 64.84 165.7 65.12"/>
      <polygon class="cls-17" points="162.07 38.37 169.55 37.36 170.44 43.94 170.46 44.09 168.15 42.5 166.43 43.57 166.07 40.95 165.91 39.76 163.3 40.7 162.17 39.16 161.64 38.43 162.07 38.37"/>
      <polygon class="cls-17" points="160.55 38.58 158.14 41.73 154.02 41.45 155.3 40.21 155.18 39.31 160.55 38.58"/>
      <path class="cls-26" d="m151.09,47.33c-5.06,21.68,15.31,41.1,15.75,40.84l-3.46,4.75c-25.16-24.78-14.6-47.4-14.6-47.4l2.32,1.82Z"/>
      <path class="cls-7" d="m150.49,47.41c-5.06,21.68,15.31,41.1,15.75,40.84l-3.46,4.75c-25.16-24.78-14.6-47.4-14.6-47.4l2.32,1.82Z"/>
      <polygon class="cls-20" points="159.82 119.13 155 132.31 145.12 133.65 148.2 130.11 142.07 125.72 150.21 123.98 147.86 114.46 159.82 119.13"/>
      <path class="cls-2" d="m139.35,80.86c1.7-.27,3.25,1.24,2.11,8.93,0,0-1.57,12.62-4.63,9.13-.03-.04-.06-.07-.09-.11,0,0-2.26-13.26-.51-16.09,0,0,1.62-1.62,3.12-1.86Z"/>
      <polygon class="cls-22" points="147.86 114.46 150.21 123.98 142.07 125.72 148.2 130.11 145.12 133.65 123.27 136.62 123.2 136.63 127.86 128.3 139.6 107.34 139.58 107.28 139.59 107.28 147.84 114.39 147.86 114.46"/>
      <path class="cls-18" d="m137.99,101.4c1.05,6.56-12,14.28-16.7,17.2-2.08,1.3-3.89,1.76-5.31,1.85-.39.03-.75.02-1.09,0l-1.97-2.84c8.52-5.73,2.43-8.87,2.43-8.87.93-.97-.24-1.74-.78-2.03l10.85-1.47c-.9-2.28-2.22-3.77-3.67-4.72l.04-.06,5.49-4-2.6-10.16,2.24-3.73,2.25-8.32c3.52,7.75,7.07,8.5,7.07,8.5-1.75,2.83.51,16.09.51,16.09.03.04.06.07.09.11.65.8,1.02,1.63,1.16,2.47Z"/>
      <polygon class="cls-22" points="126.91 82.55 124.67 86.28 113.19 88.24 113.01 87.81 110.98 83.11 118.67 80.24 126.91 82.55"/>
      <polygon class="cls-5" points="127.86 128.3 123.2 136.63 117.9 137.34 117.11 133.89 120.98 129.12 122.55 131.84 127.86 128.3"/>
      <path class="cls-16" d="m111.33,51.97c-.05,0-.1,0-.15,0h0c.05,0,.1,0,.15,0Z"/>
      <path class="cls-31" d="m111.17,51.96h0c-4.1-.03-8.14,1.25-12.05,2.37-3.46,1-6.74,2.47-9.81,4.36-5.56,3.42-11.36,8.01-13.1,14.61-2.49,9.49.59,20.75,7.23,27.92.04.05.09.09.13.14-4.25,2.07-6.76,8.58-5.78,15.83,1.13,8.35,6.47,14.52,11.93,13.77,5.46-.74,8.96-8.11,7.83-16.46-.23-1.67-.62-3.25-1.15-4.71,2.55,1.2,4.41,2.37,7.29.57,1.46,3.02,3.37,5.77,5.87,7.71l-.49,1.57.03.1c-.54.64-11.24,13.25-20.08,15.24l-3.6,5.34-.08-.06s-24.36,2.08-32.32-18.09l-2.25-16.56-.19.03c.11-3.2.49-6.69,1.19-10.5h0s4.32,3.63,4.32,3.63l3.77-5.17,3.64-.15-1.59-4.59,4.74-.64-1.59-1.97,3.82-3.67-8.91-.11,4.43-4.06-3.1-.04.9-6.11c5.91-8.61,15.8-14.93,25.53-18.24,3.26-1.11,6.63-1.81,10.06-2.1,4.44-.38,8.92-.21,13.37.05Zm-35.76,65.55c-1.13-8.35-6.47-14.52-11.93-13.77-5.46.74-8.96,8.11-7.83,16.46,1.13,8.35,6.47,14.52,11.93,13.77,5.46-.74,8.96-8.11,7.83-16.46Z"/>
      <polygon class="cls-37" points="120.98 129.12 117.11 133.89 112.05 133.26 113.1 127.64 115.98 120.47 120.98 129.12"/>
      <path class="cls-2" d="m112.51,99.28l4.48-2.2-3.8-8.84,11.48-1.96,2.6,10.16-5.49,4-.04.06c-4.07-2.68-9.2-1.17-9.2-1.17l-.03-.06Z"/>
      <path class="cls-29" d="m138.04,101.39l1.17,4.45.37,1.43.02.07-11.74,20.96-5.31,3.53-1.57-2.72-5-8.65v-.02c1.42-.09,3.22-.55,5.31-1.85,4.71-2.92,17.75-10.64,16.7-17.2h.06Z"/>
      <path class="cls-25" d="m113.69,120.6c.33.02.69.03,1.09,0v.02s-2.88,7.17-2.88,7.17l-1.2,3-1.46-5.7v-.04s-1.33-5.16-1.33-5.16l-.03-.1.49-1.57c.89.69,1.85,1.27,2.89,1.73,0,0,.88.54,2.44.65Z"/>
      <path class="cls-25" d="m102.5,110.52c-4.23-8.77-4.67-19.84-4.67-19.84l-2.35-2.73.12-2.46-1.23-4.71-.69-2.65c.57-.2,1.14-.51,1.71-.9,2.17,3.61,1.35,9.93,1.35,9.93l2.71,3.14,6.99-1.22.18,9.09,3.6,1.8v.12c-8.92.14-6.66,8.1-6.66,8.1l9.8-1.33c.54.29,1.71,1.06.78,2.03,0,0,6.09,3.14-2.43,8.87l1.97,2.84c-1.56-.11-2.44-.65-2.44-.65-1.04-.46-2-1.04-2.89-1.73-2.5-1.93-4.41-4.68-5.87-7.71Z"/>
      <path class="cls-25" d="m110.23,100.09v-.12s1.09-.54,1.09-.54l.03.06s5.13-1.52,9.2,1.17c1.45.96,2.77,2.44,3.67,4.72l-10.85,1.47-9.8,1.33s-2.27-7.96,6.66-8.1Z"/>
      <path class="cls-25" d="m111.99,88.4l3.8,8.84-4.48,2.2-1.09.54-3.6-1.8-.18-9.09-.1-5.35-7.69.59-1.9,2.85s.82-6.32-1.35-9.93c4.94-3.37,9.54-12.82,9.54-12.82,0,0,5.45,2,12.22,2.46,6.77.45,5.76-5.81,9.62,4.64.07.2.15.39.22.58.32.83.64,1.59.96,2.3h0s-2.25,8.32-2.25,8.32l-8.24-2.32-7.69,2.87,2.03,4.71.18.42Z"/>
      <path class="cls-25" d="m93.69,78.14l.69,2.65s-13.37-18.61,12.17-23.6c0,0,8.5-12.59,28.1,7.16,0,0,7.67,6.74,3.5,16.68-1.5.24-3.12,1.86-3.12,1.86,0,0-3.55-.75-7.07-8.5h0c-.32-.71-.64-1.47-.96-2.3-.08-.19-.15-.39-.22-.58-3.86-10.45-2.85-4.18-9.62-4.64-6.77-.45-12.22-2.46-12.22-2.46,0,0-4.6,9.46-9.54,12.82-.57.39-1.14.69-1.71.9Z"/>
      <path class="cls-29" d="m114.89,120.44c.33.02.69.03,1.09,0v.02s-2.88,7.17-2.88,7.17l-1.21,3-1.46-5.7v-.04s-1.33-5.16-1.33-5.16l-.03-.1.49-1.57c.89.69,1.85,1.27,2.89,1.73,0,0,.88.54,2.44.65Z"/>
      <polygon class="cls-34" points="117.11 133.89 117.9 137.34 110.03 138.41 112.05 133.26 117.11 133.89"/>
      <path class="cls-2" d="m103.7,110.36c-4.23-8.77-4.67-19.84-4.67-19.84l-2.35-2.73.12-2.46-1.22-4.71-.69-2.65c.57-.2,1.14-.51,1.71-.9,2.17,3.61,1.35,9.93,1.35,9.93l2.71,3.14,6.99-1.22.18,9.09,3.6,1.8v.12c-8.92.14-6.66,8.1-6.66,8.1l9.8-1.33c.54.29,1.71,1.06.78,2.03,0,0,6.09,3.14-2.43,8.87l1.97,2.84c-1.56-.11-2.44-.65-2.44-.65-1.04-.46-2-1.04-2.89-1.73-2.5-1.93-4.41-4.68-5.87-7.71Z"/>
      <polygon class="cls-22" points="107.54 83.58 107.64 88.93 100.66 90.15 97.94 87.01 99.84 84.16 107.54 83.58"/>
      <polygon class="cls-5" points="111.89 130.64 113.1 127.64 112.05 133.26 110.03 138.41 106.81 138.85 106.79 138.7 110.43 124.9 110.44 124.94 111.89 130.64"/>
      <path class="cls-26" d="m97.43,110.57c.53,1.46.92,3.04,1.15,4.71,1.13,8.35-2.37,15.72-7.83,16.46-5.46.74-10.8-5.43-11.93-13.78-.98-7.25,1.53-13.76,5.78-15.83.64-.32,1.33-.53,2.05-.63,4.36-.59,8.65,3.24,10.78,9.07Z"/>
      <path class="cls-26" d="m64.5,104.51c5.46-.74,10.8,5.43,11.93,13.78,1.13,8.35-2.37,15.72-7.83,16.46-5.46.74-10.8-5.43-11.93-13.78-1.13-8.35,2.37-15.72,7.83-16.46Z"/>
      <polygon class="cls-26" points="54.05 122.95 55.9 136.61 49.32 137.51 45.22 107.28 51.61 106.41 51.8 106.38 54.05 122.95"/>
      <path class="cls-6" d="m96.41,109.79c.53,1.46.92,3.04,1.15,4.71,1.13,8.35-2.37,15.72-7.83,16.46-5.46.74-10.8-5.43-11.93-13.77-.98-7.25,1.53-13.76,5.78-15.83.64-.32,1.33-.53,2.05-.63,4.36-.59,8.65,3.24,10.78,9.07Z"/>
      <path class="cls-6" d="m63.48,103.73c5.46-.74,10.8,5.43,11.93,13.77s-2.37,15.72-7.83,16.46c-5.46.74-10.8-5.43-11.93-13.77-1.13-8.35,2.37-15.72,7.83-16.46Z"/>
      <polygon class="cls-6" points="53.03 122.17 54.88 135.84 48.3 136.73 44.2 106.5 50.59 105.63 50.78 105.61 53.03 122.17"/>
      <path class="cls-1" d="m38.43,102.22l.9,6.62c.53,7.99-.06,14.28-1.23,19.22l-12.69,1.72-5.93-43.7,12.82-1.74c2.38,4.41,4.56,10.23,6.14,17.88Z"/>
      <path class="cls-21" d="m32.3,84.34l-12.82,1.74-2.1-15.44c2.37.58,9.21,3.11,14.92,13.7Z"/>
      <path class="cls-21" d="m25.41,129.78l12.69-1.72c-2.71,11.46-8.53,15.65-10.64,16.83l-2.05-15.11Z"/>
      <path class="cls-16" d="m30.7,81.43c.58.89,1.15,1.85,1.72,2.89l-.13.02c-5.71-10.59-12.54-13.12-14.92-13.7h0c2.15.51,7.98,2.61,13.32,10.79Z"/>
      <path class="cls-16" d="m17.38,70.64h0c-.12-.03-.23-.05-.33-.07.1.02.21.04.33.07Z"/>
      <path class="cls-26" d="m193.78,50.53c1.94-4.62-1.63-7.76-1.63-7.76-9.12-9.19-13.08-3.33-13.08-3.33-11.89,2.32-5.66,10.98-5.66,10.98l.57,2.19-.06,1.14,1.09,1.27s.2,5.15,2.17,9.23c.68,1.41,1.57,2.69,2.73,3.59.41.32.86.59,1.34.8,0,0,.41.25,1.14.3.15,0,.32.01.51,0,.66-.04,1.5-.26,2.47-.86,2.19-1.36,8.26-4.95,7.77-8-.06-.39-.23-.78-.54-1.15,1.42,1.62,2.15-4.25,2.15-4.25.53-3.58-.19-4.28-.98-4.16Zm-18.01,4.32l-1.26-1.46.88-1.33,3.58-.27.05,2.49-3.25.57Zm9.83,4.79l-.02.03c-1.89-1.25-4.28-.54-4.28-.54v-.03s2.07-1.02,2.07-1.02l-1.77-4.11,5.34-.91,1.21,4.73-2.55,1.86Z"/>
      <path class="cls-2" d="m193.18,50.62c.79-.13,1.51.58.98,4.16,0,0-.73,5.87-2.15,4.25-.01-.02-.03-.03-.04-.05,0,0-1.05-6.17-.24-7.49,0,0,.75-.76,1.45-.87Z"/>
      <path class="cls-18" d="m192.55,60.17c.49,3.05-5.58,6.64-7.77,8-.97.6-1.81.82-2.47.86-.18.01-.35,0-.51,0l-.92-1.32c3.97-2.67,1.13-4.13,1.13-4.13.43-.45-.11-.81-.36-.94l5.05-.69c-.42-1.06-1.03-1.75-1.71-2.2l.02-.03,2.55-1.86-1.21-4.73,1.04-1.73,1.05-3.87c1.64,3.61,3.29,3.95,3.29,3.95-.81,1.32.24,7.49.24,7.49.01.02.03.03.04.05.3.37.48.76.54,1.15Z"/>
      <path class="cls-40" d="m181.01,54.05l1.77,4.11-2.08,1.03-.51.25-1.67-.84-.08-4.23-.05-2.49-3.58.27-.88,1.33s.38-2.94-.63-4.62c2.3-1.57,4.44-5.97,4.44-5.97,0,0,2.54.93,5.69,1.14,3.15.21,2.68-2.71,4.48,2.16.03.09.07.18.1.27.15.38.3.74.45,1.07h0s-1.05,3.87-1.05,3.87l-3.84-1.08-3.58,1.34.94,2.19.08.2Z"/>
      <polygon class="cls-22" points="187.39 51.4 186.35 53.14 181.01 54.05 180.92 53.85 179.98 51.66 183.56 50.32 187.39 51.4"/>
      <path class="cls-39" d="m180.18,59.49v-.05s.51-.25.51-.25v.03s2.4-.71,4.3.54c.68.44,1.29,1.14,1.71,2.2l-5.05.69-4.56.62s-1.05-3.71,3.1-3.77Z"/>
      <path class="cls-16" d="m180.14,37.17s-.05,0-.07,0h0s.05,0,.07,0Z"/>
      <polygon class="cls-37" points="184.63 73.07 182.83 75.3 180.47 75 180.96 72.39 182.3 69.05 184.63 73.07"/>
      <path class="cls-2" d="m180.69,59.19l2.08-1.03-1.77-4.11,5.35-.91,1.21,4.73-2.55,1.86-.02.03c-1.89-1.25-4.28-.54-4.28-.54v-.03Z"/>
      <path class="cls-26" d="m193.17,60.09l.55,2.07.17.67v.03s-5.46,9.76-5.46,9.76l-2.47,1.64-.73-1.27-2.33-4.03h0c.66-.05,1.5-.27,2.47-.87,2.19-1.36,8.26-4.95,7.77-8h.03Z"/>
      <path class="cls-29" d="m192.57,60.17l.54,2.07.17.67v.03s-5.46,9.76-5.46,9.76l-2.47,1.64-.73-1.27-2.33-4.03h0c.66-.05,1.5-.27,2.47-.87,2.19-1.36,8.26-4.95,7.77-8h.03Z"/>
      <path class="cls-29" d="m181.8,69.04c.15.01.32.01.51,0h0s-1.34,3.35-1.34,3.35l-.56,1.4-.68-2.65v-.02s-.62-2.4-.62-2.4v-.05s.21-.73.21-.73c.41.32.86.59,1.34.8,0,0,.41.25,1.14.3Z"/>
      <path class="cls-2" d="m176.59,64.34c-1.97-4.08-2.17-9.23-2.17-9.23l-1.09-1.27.06-1.14-.57-2.19-.32-1.23c.27-.09.53-.24.79-.42,1.01,1.68.63,4.62.63,4.62l1.26,1.46,3.25-.57.08,4.23,1.67.84v.05c-4.15.06-3.1,3.77-3.1,3.77l4.56-.62c.25.13.8.49.36.94,0,0,2.83,1.46-1.13,4.13l.92,1.32c-.72-.05-1.14-.3-1.14-.3-.48-.21-.93-.48-1.34-.8-1.16-.9-2.05-2.18-2.73-3.59Z"/>
      <polygon class="cls-22" points="178.38 51.88 178.42 54.37 175.17 54.94 173.91 53.48 174.8 52.15 178.38 51.88"/>
      <path class="cls-39" d="m172.49,49.27l.32,1.23s-6.22-8.66,5.66-10.98c0,0,3.96-5.86,13.08,3.33,0,0,3.57,3.14,1.63,7.76-.7.11-1.45.87-1.45.87,0,0-1.65-.35-3.29-3.95h0c-.15-.33-.3-.69-.45-1.07-.03-.09-.07-.18-.1-.27-1.8-4.86-1.33-1.95-4.48-2.16-3.15-.21-5.69-1.14-5.69-1.14,0,0-2.14,4.4-4.44,5.97-.26.18-.53.32-.79.42Z"/>
      <path class="cls-26" d="m112.44,100.71v-.11s1.09-.54,1.09-.54l.03.06s5.13-1.52,9.2,1.17c1.45.96,2.77,2.44,3.67,4.72l-10.85,1.47-9.8,1.33s-2.27-7.97,6.66-8.11Z"/>
      <path class="cls-39" d="m111.42,99.93v-.12s1.09-.54,1.09-.54l.03.06s5.13-1.52,9.2,1.17c1.45.95,2.77,2.44,3.67,4.72l-10.85,1.47-9.8,1.33s-2.27-7.97,6.66-8.1Z"/>
      <path class="cls-26" d="m114.17,88.71l3.8,8.84-4.48,2.2-1.1.54-3.6-1.8-.18-9.09-.1-5.35-7.69.59-1.9,2.85s.82-6.32-1.35-9.93c4.94-3.37,9.54-12.82,9.54-12.82,0,0,5.45,2,12.22,2.46,6.77.45,5.77-5.81,9.62,4.64.07.2.14.39.22.58.32.83.64,1.59.96,2.3h0s-2.25,8.32-2.25,8.32l-8.24-2.32-7.69,2.87,2.03,4.71.18.42Z"/>
      <path class="cls-40" d="m113.19,88.24l3.8,8.84-4.48,2.2-1.09.54-3.6-1.8-.18-9.09-.1-5.35-7.69.59-1.9,2.85s.82-6.32-1.35-9.93c4.94-3.37,9.54-12.82,9.54-12.82,0,0,5.45,2,12.22,2.46,6.77.45,5.77-5.81,9.62,4.64.07.2.14.39.22.58.32.83.64,1.59.96,2.3h0s-2.25,8.32-2.25,8.32l-8.24-2.32-7.69,2.87,2.03,4.71.18.42Z"/>
      <path class="cls-39" d="m94.89,77.98l.69,2.65s-13.37-18.61,12.17-23.6c0,0,8.5-12.59,28.1,7.16,0,0,7.67,6.74,3.5,16.68-1.5.24-3.12,1.86-3.12,1.86,0,0-3.55-.75-7.07-8.5h0c-.32-.71-.64-1.47-.96-2.3-.07-.19-.15-.39-.22-.58-3.86-10.45-2.85-4.19-9.62-4.64-6.77-.45-12.22-2.46-12.22-2.46,0,0-4.6,9.46-9.54,12.82-.57.39-1.14.69-1.71.9Z"/>
      <path class="cls-24" d="m145.12,133.65l-21.85,2.97h-.07s-5.29.73-5.29.73l-7.87,1.07-3.22.44-22.45,3.05,1.07-1.58-.08-.06s-24.36,2.08-32.32-18.09l1.86,13.67-6.59.89-4.1-30.23,6.39-.87c.11-3.2.49-6.69,1.19-10.5,0,0,0,0,0,0l-7.3-2.16,2.14-1.87-5.14-4.94,5.74.72-1.3-1.32-.02-.15-15.19-3.97h-.01c.58.9,1.15,1.86,1.72,2.9l-.13.02c2.38,4.41,4.56,10.23,6.14,17.88l.9,6.62c.53,7.99-.06,14.28-1.23,19.22-2.71,11.46-8.53,15.65-10.64,16.83l1.85,13.63,122.41-16.61c-.49-2.98-.92-5.96-1.38-8.96l-5.22.71Z"/>
      <path class="cls-10" d="m110.28,45.4l.89,6.56c-4.45-.26-8.93-.43-13.37-.05-3.43.29-6.81.99-10.06,2.1-9.74,3.31-19.63,9.63-25.53,18.24l-5.27,3.05-1.52-1.12-1.46,4.21-3.8-4,.11,3.09-3.85-2.56,2.23,4.85-3.76-.72,4.63,6-3.59.49-.02-.15-15.19-3.97h-.01c-5.34-8.17-11.17-10.27-13.32-10.79l-1.68-12.39,94.59-12.84Z"/>
      <polygon class="cls-26" points="69.91 83.35 66.09 87.02 67.68 88.99 62.94 89.63 64.53 94.21 60.89 94.36 57.12 99.53 52.8 95.9 52.8 95.9 52.8 95.89 45.5 93.73 47.64 91.86 42.5 86.92 48.24 87.64 46.94 86.31 50.53 85.83 45.91 79.82 49.66 80.54 47.43 75.7 51.28 78.26 51.17 75.18 54.97 79.18 56.43 74.97 57.95 76.08 63.23 73.03 62.33 79.14 65.43 79.18 61 83.24 69.91 83.35"/>
      <polygon class="cls-19" points="68.89 82.57 65.07 86.24 66.66 88.21 61.92 88.85 63.51 93.44 59.87 93.59 56.1 98.76 51.78 95.13 51.78 95.13 51.78 95.12 44.48 92.95 46.62 91.08 41.48 86.14 47.22 86.86 45.92 85.54 49.51 85.05 44.89 79.05 48.64 79.77 46.41 74.92 50.26 77.49 50.15 74.4 53.95 78.4 55.41 74.19 56.93 75.31 62.21 72.25 61.31 78.37 64.41 78.4 59.98 82.46 68.89 82.57"/>
      <path class="cls-25" d="m107.91,119.9l1.32,5.16-3.64,13.8.02.15-22.45,3.05,1.07-1.58,3.6-5.34c8.84-1.99,19.54-14.6,20.07-15.24Z"/>
      <path class="cls-8" d="m109.11,119.74l1.32,5.16-3.64,13.8.02.15-22.45,3.05,1.07-1.58,3.6-5.34c8.84-1.99,19.54-14.6,20.08-15.24Z"/>
    </g>
    <path class="cls-25" d="m207.58,3.67l-19.44,5.86-.58.17-13.24,3.99-.58.17-21.4,6.45-.58.17-6.65,2.01-.41.12-.17.05-.41.12-.48.14-.58.17-4.61,1.39-.58.17-43.38,13.08L2.88,65.41l3.64,12.08s-.24-.02-.33-.02c.1,0,.32-.02.34.02l4.5,14.92,12.73,42.22,4.4,14.6,4,13.27,118.5-35.74,17-5.13.58-.17,12.51-3.77.58-.17.29-.09,21.4-6.45.58-.17.29-.09,7.01-2.12.21-.06.37-.11.33-.1.58-.17,4.52-1.36.58-.17,19.67-5.93,6.6-1.99-3.93-13.03-4.48-14.84-12.73-42.22-4.57-15.16-3.57-11.84-6.89,2.08Z"/>
    <g>
      <path class="cls-23" d="m173.51,21.84l9.37,31.05c-1.78-.07-18.11-.83-25.1-4.23l-.14.04-5.41-17.92-1.61-5.35-.04-.14-1.92-6.36,21.98-6.63,2.88,9.54Z"/>
      <path class="cls-4" d="m220.6,74.84l-2.66.8c-.28-.64-.59-1.28-.92-1.93l2.12-.64c.49.63.97,1.21,1.46,1.77Z"/>
      <path class="cls-14" d="m214.71,102.49l-4,.34-2.08,3.7-.7.21-.63-2.08.88.82,1.02-3.7,2.32.09-2.95-4.83,3.38,1.78-.15-2.06,3.18-.19-1.23-2.78,1.37-1.2-7.35-2.12-2.55,3.84-1.31-.81-.6-1.97,1.05.83,1.51-4.01,4,1.75.41-2.04,3.22.75-1.8-2.3,1.43-2.33-3.81-.59,1.77-1.72-1.14-.91,2.29-2.36-2.65.09-.29-.47,4.02-1.21c3.15,5.6,5.3,12.23,4.78,19.54l2.58,1.43s2.82-9.87-2.74-22.36l2.66-.8c2.89,3.31,5.71,5.42,8.16,6.77l5.21,17.28-20.24,6.11-.31-1.01,1.29-1.49Z"/>
      <path class="cls-4" d="m196.13,58.73c.26-.22,10.78,6.89,17.19,18.31l-4.02,1.21-.78-1.26-2.51,1.44-.28-.49-.95-2.11,2.6-.79-2.66-.7.6-2.99-3.49,2.56.55-2.87-1.6-.08.09-2-2.32,1.4-.23-.76,1.8-2.15-1.52.46-.47-3.41-1.38,2.23-.32-1.84-.88,1.14-.26-.84,1.77-1.87-1.3.39-.18-2.7-1.29.87-2.54-8.37c.88-3.68.46-8.14-1.11-11.45-.82-1.72-2.3-3.05-3.12-4.7-.43-.86-.77-1.77-1.04-2.71l20.03-6.04c-.09.73-.16,1.49-.22,2.27-.35,5,.07,11.2,1.81,18.82l1.93,6.39c2.83,7.49,5.99,12.97,9.12,16.97l-2.12.64c-3.28-6.48-8.86-13.53-18.23-20.22l-2.67,5.23Z"/>
      <path class="cls-13" d="m148.2,37.05l-1.52.46-.43-.37-.75-2.47,1.16.72,1.63-.88.55,2.36,1.3-.39-.7-2.31,2.19-3.19.58-.17,5.41,17.92.96,3.19s8.01,5.63,16.27,4.79c0,0,8.3.32,9.99,2.77l-1.98-6.57-9.37-31.05,2.17-2.76,2.32,1.41-.36-4.86,2.06,1.86c-.72,2.84-.94,5.67-.32,8.54.59,2.74,2.69,4.22,4.01,6.56.94,1.66,1.56,3.6,1.8,5.49.23,1.84-.27,3.76,0,5.64.1.72.27,1.45.49,2.18,1,3.33,3.16,6.65,5.78,8.71.12-.35.22-.72.31-1.09l2.54,8.37-.48.33-.16-.78-.28-.94-.56,1.94-2.34-2.96.15.59-1.13-.61-.37,1.35-1.55-.45,1.43,3.42-1.39-.44-.12.9h-1.81s.48,1.59.48,1.59l3.32,1.06,1.53-2.64,2.98,2.36,1.33-1.41.26.84-1.39,1.81-.61-1.24-.69.91-1.59-1.42-.09,1.52-2.39.72,1.26,4.19,4.66,1.4,2.37-2.84.07.24-1.72,2.92,1.37,6.27,3.28.45.4,1.33-2,3.79,2.48-.12-.16,5.25,1.52-.46.97.77.6,1.97-1.69-1.05-1.56,1.1-.49-2.14-1.73.52.57,1.88-2.19,3.19.65,2.17-.58.17-3.76,1.13-3.27-10.84v-.03s.78-4.39.78-4.39l-.03-.02-13.84-11.89-4.46,16.97v.02s2.09,3.52,2.09,3.52l2.79,9.25-3.18.96.66,2.17-1.72,2.15-2.32-1.41.36,4.86-2.06-1.86c.72-2.84.94-5.66.32-8.53-.59-2.74-2.69-4.2-4-6.54-.94-1.67-1.55-3.56-1.79-5.46-.23-1.84.29-3.69.02-5.57-.1-.72-.27-1.44-.48-2.17-.99-3.3-3.13-6.52-5.74-8.58,0,.03-.02.05-.03.08l-.12-.04-1.86-6.15.6-1.55,2.45,2.92-.09-.6,1.16.6.39-1.35,1.56.45-1.42-3.43,1.39.44-.09-.83,1.6.06-.48-1.59-3.1-1.13-1.42,2.61-2.86-2.15-.99,1.16-.34-1.12,1.13-1.49.61,1.23.69-.92,1.66,1.63.16-1.31,1.95-.59-1.4-4.63-4.38-1.24-1.89,2.44-.25-.82,1.34-2.15-1.26-6.3-2.75-.4-.57-1.9,1.74-3.31-2.41.33.23-5.04Z"/>
      <path class="cls-3" d="m162.64,95.66c-.14-1.9-.69-3.87-1.54-5.58-.82-1.66-2.26-2.84-3.08-4.56-1.73-3.62-2.02-8.48-.79-12.32l-.12-.04-1.86-6.15-.18.46-.28-.94.09-.73-1.52,1.24-.12-2.49-1.3.39,1.98-2.32-.34-1.12-1.13,1.49-.3-1.78-1.35,2.34-.4-3.19-1.52.46,3.23-4.19-.25-.82-1.7,2.73-.28-.94-2.1,1.35.31-2.06-1.6-.07.56-2.84-3.47,2.61.63-2.88-2.59-.48,2.6-.78-1.02-2.33,3.69.2-1.3-1.68,2.69-.18-.05-1.64.96.14-.57-1.9-.78,1.48-7.49,4.31-1.07-1.73-2.65.09,2.29-2.36-1.14-.91,1.77-1.72-3.81-.59,1.43-2.32-1.8-2.29,3.23.76.42-2.01,4.02,1.81,1.54-3.9,1.66,1.44-.75-2.47-1.84-1.14-2.55,3.84-7.34-2.12,1.37-1.2-1.23-2.78,3.18-.19-.15-2.06,3.38,1.78-2.95-4.83,2.31.09,1.01-3.7,1.54,1.43-.58-1.91-.64-.63-1.06.32-1.89,3.49-4.11.37,1.07-1.43-.26-.87-43.38,13.08,1.91,6.33c.05,0,.1,0,.15-.01-.05,0-.1.01-.15.02-4.06.61-7.85,2.5-11.53,4.22-3.26,1.53-6.27,3.5-9,5.85-4.95,4.26-9.96,9.7-10.64,16.49-.97,9.77,3.85,20.39,11.53,26.43.05.04.1.08.16.12.59-.41,1.23-.73,1.92-.94,4.22-1.27,9.06,1.83,12.07,7.26,2.71.79,4.73,1.65,7.29-.58-5.56-8-7.73-18.86-7.73-18.86l-2.75-2.33-.26-2.44-1.95-4.46s-16.13-16.27,8.3-25.22c0,0,6.42-13.77,28.88,2.65,0,0,8.64,5.45,6.08,15.92,1.64-.54,3.41.71,3.49,8.49,0,0,.43,12.71-3.13,9.75.77.68,1.27,1.44,1.53,2.26l.06-.02,1.86,4.21.59,1.36h0s9.27,5.72,9.27,5.72l.03.06,12.54,2.73-2.68,13.78-4.51,1.36c.92,2.89,1.82,5.77,2.77,8.63l17-5.13-.02-.07-4.25-4.95,2.31-.7.25-3.35,3.76,1.47,1.39-1.94c-2.17-1.96-3.92-4.23-5-6.96-1.02-2.61-.09-5.02-.29-7.69Zm-11.93-20.72c-28.75-20.52-21.88-44.51-21.88-44.51l2.58,1.43c-1.59,22.2,21.59,38.18,21.97,37.85l-2.67,5.23Z"/>
      <path class="cls-12" d="m236.73,83.96l3.9,12.92-6.65,2.01-5.21-17.28c4.27,2.35,7.44,2.37,7.97,2.35Z"/>
      <path class="cls-21" d="m228.76,81.61c-2.45-1.35-5.27-3.46-8.16-6.77-.49-.55-.97-1.14-1.46-1.77l13.11-3.95,4.48,14.84c-.53.02-3.69,0-7.97-2.35Z"/>
      <path class="cls-21" d="m209.43,18.55c1.92-3.92,4.19-5.87,5.13-6.56.18-.13.31-.21.38-.26l4.57,15.16-13.11,3.95c.05-.79.12-1.54.21-2.27.51-4.25,1.59-7.53,2.81-10.02Z"/>
      <path class="cls-12" d="m211.41,0l3.54,11.73c-.07.04-.2.13-.38.26-.95.69-3.21,2.62-5.15,6.49l-4.94-16.39,6.94-2.09Z"/>
      <path class="cls-16" d="m214.56,11.99c-.94.69-3.21,2.64-5.13,6.56l-.02-.07c1.94-3.87,4.21-5.8,5.15-6.49Z"/>
      <path class="cls-14" d="m204.47,2.09l4.94,16.39c-1.25,2.51-2.37,5.82-2.9,10.13l-20.03,6.04c-.27-.94-.44-1.91-.51-2.86-.2-2.68.74-5.08-.29-7.69-1.07-2.73-2.82-4.99-4.99-6.95l1.39-1.92,3.41,1.36,2.89,9.6,2.89-.87-3.31-10.99-1.92.58.12-1.3,2.31-.7-4.03-4.78,20.02-6.04Zm.73,12.87c-.89-2.96-2.97-4.94-4.65-4.43-1.68.51-2.31,3.31-1.42,6.27.89,2.96,2.97,4.94,4.65,4.43,1.68-.51,2.31-3.31,1.42-6.27Zm-8.1,2.44c-.89-2.96-2.97-4.94-4.65-4.43-1.68.51-2.31,3.31-1.42,6.27.89,2.96,2.97,4.94,4.65,4.43,1.68-.51,2.31-3.31,1.42-6.27Z"/>
      <path class="cls-16" d="m206.5,28.61c.53-4.31,1.65-7.62,2.9-10.13l.02.07c-1.22,2.49-2.3,5.77-2.81,10.02l-.12.04Z"/>
      <path class="cls-26" d="m201.3,10.94c1.68-.51,3.76,1.48,4.65,4.43.89,2.96.25,5.76-1.42,6.27-1.68.51-3.76-1.48-4.65-4.43-.89-2.96-.25-5.76,1.42-6.27Z"/>
      <path class="cls-26" d="m193.2,13.38c1.68-.51,3.76,1.48,4.65,4.43.89,2.96.25,5.76-1.42,6.27-1.68.51-3.76-1.48-4.65-4.43-.89-2.96-.25-5.76,1.42-6.27Z"/>
      <polygon class="cls-26" points="186.24 17 185.82 15.6 186.8 15.31 188.72 14.73 192.03 25.72 189.14 26.59 186.24 17"/>
      <path class="cls-9" d="m200.54,10.53c1.68-.51,3.76,1.48,4.65,4.43.89,2.96.25,5.76-1.42,6.27-1.68.51-3.76-1.48-4.65-4.43-.89-2.96-.25-5.76,1.42-6.27Z"/>
      <path class="cls-16" d="m206.5,28.61l.12-.04c-.09.73-.16,1.48-.21,2.27l-.12.04c.05-.79.13-1.55.22-2.27Z"/>
      <path class="cls-1" d="m206.41,30.85l13.11-3.95,12.73,42.22-13.11,3.95c-3.13-4-6.29-9.48-9.12-16.97l-1.93-6.39c-1.74-7.62-2.16-13.82-1.81-18.82l.12-.04Z"/>
      <path class="cls-26" d="m213.9,76.86c-6.42-11.42-16.93-18.53-17.19-18.31l2.67-5.23c9.37,6.68,14.95,13.74,18.23,20.22.33.65.63,1.3.92,1.93,5.56,12.49,2.74,22.37,2.74,22.37l-2.58-1.43c.52-7.31-1.64-13.94-4.78-19.54Z"/>
      <polygon class="cls-26" points="203.89 91.35 202.92 90.59 201.4 91.04 201.56 85.79 199.08 85.91 201.08 82.12 201.6 81.12 206.59 78.25 209.1 76.81 209.88 78.08 210.17 78.54 212.82 78.45 210.54 80.81 211.68 81.71 209.91 83.43 213.71 84.02 212.29 86.35 214.08 88.65 210.86 87.89 210.45 89.93 206.45 88.18 204.94 92.19 203.89 91.35"/>
      <polygon class="cls-26" points="207.88 104.49 205.81 102.57 203.95 104.55 203.79 98.84 201.2 101.91 200.04 99.89 198.78 101.46 198.04 99 197.38 96.83 199.58 93.64 199.01 91.76 200.75 91.24 201.24 93.38 202.8 92.28 204.49 93.33 205.8 94.13 208.35 90.29 215.69 92.41 214.32 93.62 215.55 96.4 212.38 96.59 212.53 98.65 209.15 96.87 212.1 101.7 209.79 101.61 208.77 105.31 207.88 104.49"/>
      <polygon class="cls-26" points="200.67 80.79 197.39 80.34 196.02 74.07 197.74 71.15 198.37 70.07 198.9 69.43 199.13 70.19 201.45 68.79 201.36 70.79 202.97 70.87 202.41 73.74 205.9 71.18 205.3 74.17 207.96 74.87 205.35 75.65 206.31 77.76 202.55 77.34 203.85 79.03 201.14 79.21 201.16 80.86 200.67 80.79"/>
      <path class="cls-26" d="m192.32,53.35c-.09.37-.19.74-.31,1.09-2.61-2.06-4.77-5.38-5.78-8.71-.22-.73-.38-1.46-.49-2.18-.27-1.88.23-3.81,0-5.64-.24-1.89-.86-3.83-1.8-5.49-1.31-2.34-3.42-3.82-4.01-6.56-.62-2.87-.4-5.7.32-8.54l-2.06-1.86.36,4.86-2.32-1.41-2.17,2.76-2.88-9.54,13.82-4.17,4.03,4.78-2.31.7-.12,1.3-.97.29.42,1.39-3.41-1.36-1.39,1.92c2.17,1.96,3.92,4.22,4.99,6.95,1.02,2.61.09,5.01.29,7.69.07.95.24,1.92.51,2.86.26.94.61,1.86,1.04,2.71.82,1.66,2.3,2.99,3.12,4.7,1.57,3.31,2,7.77,1.11,11.45Z"/>
      <polygon class="cls-26" points="215.29 102.32 214 103.81 214.31 104.82 209.21 106.36 211.29 102.65 215.29 102.32"/>
      <polygon class="cls-26" points="197.67 70.91 195.3 73.76 190.64 72.36 189.37 68.17 191.76 67.45 191.85 65.93 193.44 67.34 194.13 66.43 194.74 67.67 196.13 65.87 197.01 64.72 197.33 66.56 198.71 64.33 199.18 67.74 200.7 67.28 198.9 69.43 198.85 69.25 198.37 70.07 197.67 70.91"/>
      <polygon class="cls-26" points="194.87 61.71 196.15 60.84 196.34 63.54 197.64 63.15 195.87 65.03 194.55 66.44 191.57 64.08 190.04 66.72 186.72 65.66 186.24 64.07 188.05 64.06 188.18 63.17 189.57 63.6 188.14 60.18 189.69 60.63 190.07 59.28 191.19 59.89 191.05 59.3 193.39 62.26 193.95 60.32 194.23 61.26 194.39 62.04 194.87 61.71"/>
      <polygon class="cls-26" points="208.3 106.59 208.31 106.63 200.43 109.01 198.42 102.35 200.95 103.56 202.48 102.23 203.6 105.92 206.15 104.58 208.3 106.59"/>
      <path class="cls-7" d="m213.32,77.04c-6.42-11.42-16.93-18.53-17.19-18.31l2.67-5.23c9.37,6.68,14.95,13.74,18.23,20.22.33.65.63,1.3.92,1.93,5.56,12.49,2.74,22.36,2.74,22.36l-2.58-1.43c.52-7.31-1.64-13.94-4.78-19.54Z"/>
      <path class="cls-9" d="m192.45,12.98c1.68-.51,3.76,1.48,4.65,4.43.89,2.96.25,5.76-1.42,6.27-1.68.51-3.76-1.48-4.65-4.43-.89-2.96-.25-5.76,1.42-6.27Z"/>
      <polygon class="cls-41" points="203.31 91.53 202.34 90.76 200.82 91.22 200.98 85.96 198.5 86.08 200.5 82.29 201.02 81.3 206.01 78.43 208.52 76.99 209.3 78.25 209.59 78.71 212.24 78.62 209.96 80.98 211.1 81.89 209.33 83.61 213.14 84.19 211.71 86.52 213.51 88.82 210.28 88.07 209.87 90.1 205.87 88.35 204.36 92.36 203.31 91.53"/>
      <polygon class="cls-17" points="207.31 104.66 205.23 102.75 203.38 104.72 203.21 99.02 200.63 102.08 199.47 100.07 198.2 101.63 197.46 99.17 196.81 97 199 93.82 198.43 91.94 200.17 91.42 200.66 93.56 202.22 92.45 203.91 93.5 205.22 94.31 207.77 90.46 215.11 92.59 213.74 93.79 214.98 96.57 211.8 96.76 211.95 98.83 208.57 97.05 211.53 101.87 209.21 101.78 208.19 105.48 207.31 104.66"/>
      <polygon class="cls-38" points="200.09 80.97 196.81 80.51 195.45 74.25 197.16 71.33 197.79 70.25 198.32 69.61 198.55 70.37 200.87 68.97 200.79 70.97 202.39 71.05 201.83 73.91 205.32 71.35 204.72 74.35 207.38 75.04 204.78 75.83 205.73 77.94 201.97 77.52 203.27 79.2 200.56 79.39 200.58 81.03 200.09 80.97"/>
      <path class="cls-28" d="m191.74,53.52c-.09.37-.19.74-.31,1.09-2.61-2.06-4.77-5.38-5.78-8.71-.22-.73-.39-1.46-.49-2.18-.27-1.88.23-3.81,0-5.64-.24-1.89-.86-3.83-1.8-5.49-1.31-2.34-3.42-3.82-4.01-6.56-.62-2.87-.4-5.7.32-8.54l-2.06-1.86.36,4.86-2.32-1.41-2.17,2.76-2.88-9.54,13.82-4.17,4.03,4.78-2.31.7-.12,1.3-.98.29.42,1.39-3.41-1.36-1.39,1.92c2.17,1.96,3.92,4.22,4.99,6.95,1.02,2.61.09,5.01.29,7.69.07.95.24,1.92.51,2.86.26.94.61,1.86,1.04,2.71.82,1.66,2.3,2.99,3.12,4.7,1.57,3.31,2,7.77,1.11,11.45Z"/>
      <polygon class="cls-17" points="214.71 102.49 213.42 103.98 213.73 104.99 208.63 106.53 210.71 102.83 214.71 102.49"/>
      <polygon class="cls-9" points="185.49 16.59 185.07 15.2 186.05 14.91 187.96 14.33 191.28 25.32 188.39 26.19 185.49 16.59"/>
      <polygon class="cls-15" points="197.09 71.09 194.72 73.93 190.06 72.54 188.79 68.34 191.18 67.62 191.27 66.1 192.86 67.52 193.55 66.6 194.17 67.85 195.55 66.04 196.43 64.9 196.75 66.73 198.13 64.5 198.6 67.91 200.12 67.45 198.32 69.61 198.27 69.43 197.79 70.25 197.09 71.09"/>
      <polygon class="cls-15" points="194.29 61.89 195.58 61.01 195.76 63.72 197.06 63.33 195.29 65.2 193.97 66.61 190.99 64.25 189.46 66.89 186.14 65.83 185.66 64.24 187.48 64.24 187.6 63.34 188.99 63.78 187.56 60.35 189.11 60.8 189.49 59.46 190.62 60.06 190.47 59.48 192.81 62.43 193.37 60.5 193.65 61.44 193.81 62.21 194.29 61.89"/>
      <polygon class="cls-16" points="198.27 69.43 198.32 69.61 197.79 70.25 198.27 69.43"/>
      <polygon class="cls-16" points="197.79 70.25 197.16 71.33 197.09 71.09 197.79 70.25"/>
      <polygon class="cls-4" points="203.27 79.2 201.97 77.52 205.73 77.94 206.01 78.43 201.02 81.3 200.5 82.29 200.09 80.97 200.58 81.03 200.56 79.39 203.27 79.2"/>
      <polygon class="cls-17" points="207.72 106.77 207.73 106.8 199.85 109.18 197.84 102.53 200.38 103.74 201.91 102.41 203.02 106.09 205.57 104.75 207.72 106.77"/>
      <polygon class="cls-14" points="207.72 106.77 205.57 104.75 203.02 106.09 201.91 102.41 200.38 103.74 197.84 102.53 196.88 99.35 197.46 99.17 198.2 101.63 199.47 100.07 200.63 102.08 203.21 99.02 203.38 104.72 205.23 102.75 207.31 104.66 207.94 106.74 207.73 106.8 207.72 106.77"/>
      <polygon class="cls-26" points="175.53 105.95 174.87 103.78 178.05 102.82 175.26 93.56 175.41 93.52 183.94 90.16 190.73 89.35 190.72 89.38 193.99 100.22 197.75 99.09 198.71 102.27 200.72 108.92 178.45 115.63 175.53 105.95"/>
      <polygon class="cls-26" points="191.47 84.94 191.5 84.96 190.73 89.35 183.94 90.16 182.28 85.45 191.47 84.94"/>
      <polygon class="cls-26" points="177.63 73.05 191.47 84.94 182.28 85.45 173.24 90 173.18 90.04 173.17 90.02 177.63 73.05"/>
      <polygon class="cls-26" points="182.28 85.45 183.94 90.16 175.41 93.52 175.26 93.56 173.18 90.04 173.24 90 182.28 85.45"/>
      <polygon class="cls-35" points="174.66 106.21 174 104.04 177.18 103.08 174.39 93.83 174.54 93.78 183.07 90.42 189.86 89.62 189.85 89.64 193.12 100.48 196.88 99.35 197.84 102.53 199.85 109.18 177.58 115.9 174.66 106.21"/>
      <path class="cls-11" d="m182.87,52.9l1.98,6.57c-1.69-2.46-9.99-2.77-9.99-2.77-8.27.84-16.27-4.79-16.27-4.79l-.96-3.19.14-.04c6.99,3.4,23.31,4.16,25.1,4.23Z"/>
      <polygon class="cls-27" points="190.61 85.2 190.63 85.22 189.86 89.62 183.07 90.42 181.41 85.71 190.61 85.2"/>
      <polygon class="cls-30" points="176.76 73.31 190.61 85.2 181.41 85.71 172.37 90.26 172.31 90.3 172.3 90.29 176.76 73.31"/>
      <polygon class="cls-32" points="181.41 85.71 183.07 90.42 174.54 93.78 174.39 93.83 172.31 90.3 172.37 90.26 181.41 85.71"/>
      <polygon class="cls-26" points="154.52 62.44 155.51 61.28 158.37 63.44 159.79 60.83 162.89 61.96 163.37 63.55 161.77 63.49 161.87 64.32 160.47 63.88 161.9 67.31 160.34 66.86 159.95 68.21 158.8 67.61 158.89 68.21 156.44 65.29 155.84 66.84 155.66 67.29 155.38 66.35 155.47 65.62 153.96 66.86 153.84 64.37 152.54 64.77 154.52 62.44"/>
      <path class="cls-26" d="m175.24,106.04l2.92,9.69-13.09,3.95-.02-.07-4.25-4.95,2.31-.7.25-3.35,3.76,1.47,1.39-1.94c-2.17-1.96-3.92-4.23-5-6.96-1.02-2.61-.09-5.02-.29-7.69-.14-1.9-.69-3.87-1.54-5.58-.82-1.66-2.26-2.84-3.08-4.56-1.73-3.62-2.02-8.48-.79-12.32,0-.03.02-.05.03-.08,2.61,2.06,4.74,5.28,5.74,8.58.22.72.38,1.45.48,2.17.27,1.88-.25,3.73-.02,5.57.24,1.89.85,3.79,1.79,5.46,1.31,2.34,3.41,3.8,4,6.54.62,2.87.4,5.69-.32,8.53l2.06,1.86-.36-4.86,2.32,1.41,1.72-2.15Z"/>
      <polygon class="cls-26" points="142.8 23.61 144.22 24.92 146.06 22.94 146.2 28.66 148.73 25.61 149.78 27.66 150.83 26.16 152.23 30.78 150.03 33.97 150.73 36.28 149.43 36.68 148.87 34.32 147.25 35.2 146.08 34.48 144.24 33.35 141.7 37.19 134.35 35.07 135.72 33.87 134.49 31.08 137.67 30.89 137.52 28.83 140.89 30.61 137.94 25.78 140.25 25.88 141.27 22.18 142.8 23.61"/>
      <polygon class="cls-26" points="152.71 56.45 154.59 54.01 158.97 55.25 160.37 59.88 158.42 60.47 158.26 61.78 156.6 60.15 155.92 61.07 155.31 59.84 154.18 61.33 153.05 62.81 152.75 61.03 151.4 63.37 151 60.18 149.48 60.64 152.71 56.45"/>
      <polygon class="cls-26" points="146.83 36.96 147.26 37.33 148.78 36.87 148.55 41.91 150.97 41.58 149.22 44.88 148.44 46.36 140.95 50.67 139.88 48.94 137.22 49.03 139.51 46.68 138.37 45.77 140.14 44.05 136.33 43.47 137.76 41.14 135.96 38.85 139.19 39.61 139.61 37.6 143.63 39.41 145.17 35.51 146.83 36.96"/>
      <polygon class="cls-26" points="149.79 46.78 152.54 47.18 153.8 53.48 152.46 55.63 150.76 58.36 150.48 57.42 148.38 58.77 148.68 56.7 147.09 56.64 147.65 53.8 144.18 56.41 144.81 53.53 142.22 53.05 144.82 52.26 143.8 49.94 147.49 50.14 146.19 48.46 148.88 48.28 148.83 46.64 149.79 46.78"/>
      <polygon class="cls-26" points="142 20.93 149.23 18.75 151.15 25.12 151.19 25.26 148.66 24.05 147.13 25.38 146.36 22.85 146.01 21.69 143.58 23.04 142.23 21.69 141.59 21.06 142 20.93"/>
      <polygon class="cls-26" points="140.54 21.37 138.65 24.86 134.54 25.23 135.61 23.81 135.35 22.94 140.54 21.37"/>
      <polygon class="cls-15" points="153.94 62.62 154.93 61.46 157.79 63.61 159.21 61 162.31 62.13 162.79 63.72 161.19 63.66 161.29 64.49 159.89 64.05 161.32 67.48 159.76 67.03 159.37 68.38 158.22 67.78 158.31 68.39 155.86 65.46 155.26 67.01 155.09 67.47 154.8 66.53 154.9 65.79 153.38 67.04 153.26 64.55 151.96 64.94 153.94 62.62"/>
      <polygon class="cls-16" points="150.61 25.43 152.23 30.78 151.65 30.96 150.25 26.33 149.2 27.83 148.16 25.78 145.62 28.83 145.49 23.11 145.78 23.02 146.55 25.56 148.08 24.23 150.61 25.43"/>
      <path class="cls-28" d="m174.66,106.21l2.92,9.69-13.09,3.95-.02-.07-4.25-4.95,2.31-.7.25-3.35,3.76,1.47,1.39-1.94c-2.17-1.96-3.92-4.23-5-6.96-1.02-2.61-.09-5.02-.29-7.69-.14-1.9-.69-3.87-1.54-5.58-.82-1.66-2.26-2.84-3.08-4.56-1.73-3.62-2.02-8.48-.79-12.32,0-.03.02-.05.03-.08,2.61,2.06,4.74,5.28,5.74,8.58.22.72.38,1.45.48,2.17.27,1.88-.25,3.73-.02,5.57.24,1.89.85,3.79,1.79,5.46,1.31,2.34,3.41,3.8,4,6.54.62,2.87.4,5.69-.32,8.53l2.06,1.86-.36-4.86,2.32,1.41,1.72-2.15Z"/>
      <polygon class="cls-17" points="142.23 23.78 143.64 25.09 145.49 23.11 145.62 28.83 148.16 25.78 149.2 27.83 150.25 26.33 151.65 30.96 149.45 34.14 150.15 36.46 148.85 36.85 148.3 34.49 146.67 35.38 145.51 34.66 143.67 33.52 141.12 37.37 133.77 35.24 135.15 34.04 133.91 31.26 137.09 31.07 136.94 29.01 140.32 30.79 137.36 25.96 139.68 26.05 140.69 22.35 142.23 23.78"/>
      <polygon class="cls-15" points="152.13 56.62 154.02 54.18 158.4 55.43 159.79 60.05 157.84 60.64 157.68 61.95 156.03 60.32 155.34 61.24 154.73 60.01 153.6 61.5 152.47 62.99 152.17 61.21 150.82 63.55 150.42 60.36 148.9 60.81 152.13 56.62"/>
      <polygon class="cls-16" points="145.44 21.87 145.78 23.02 145.49 23.11 143.64 25.09 142.23 23.78 141.65 21.86 143 23.21 145.44 21.87"/>
      <polygon class="cls-41" points="146.25 37.13 146.68 37.5 148.2 37.05 147.97 42.08 150.39 41.75 148.64 45.06 147.86 46.53 140.37 50.84 139.3 49.12 136.64 49.21 138.93 46.85 137.79 45.94 139.56 44.23 135.75 43.64 137.18 41.32 135.39 39.02 138.61 39.79 139.03 37.78 143.05 39.58 144.59 35.69 146.25 37.13"/>
      <polygon class="cls-38" points="149.21 46.95 151.97 47.35 153.22 53.65 151.88 55.8 150.18 58.53 149.9 57.59 147.8 58.94 148.11 56.88 146.51 56.81 147.07 53.97 143.6 56.58 144.23 53.7 141.64 53.22 144.24 52.44 143.22 50.11 146.91 50.31 145.61 48.63 148.3 48.45 148.25 46.81 149.21 46.95"/>
      <polygon class="cls-17" points="141.42 21.11 148.65 18.93 150.57 25.29 150.61 25.43 148.08 24.23 146.55 25.56 145.78 23.02 145.44 21.87 143 23.21 141.65 21.86 141.01 21.23 141.42 21.11"/>
      <polygon class="cls-17" points="139.96 21.55 138.07 25.04 133.96 25.41 135.03 23.98 134.77 23.11 139.96 21.55"/>
      <path class="cls-26" d="m131.99,31.68c-1.59,22.2,21.59,38.18,21.98,37.85l-2.67,5.23c-28.75-20.51-21.88-44.51-21.88-44.51l2.58,1.43Z"/>
      <path class="cls-7" d="m131.41,31.86c-1.59,22.2,21.59,38.18,21.97,37.85l-2.67,5.23c-28.75-20.52-21.88-44.51-21.88-44.51l2.58,1.43Z"/>
      <polygon class="cls-20" points="151.91 101.21 149.22 114.98 139.68 117.86 142.16 113.88 135.41 110.51 143.19 107.52 139.36 98.48 151.91 101.21"/>
      <path class="cls-2" d="m125.67,66.64c1.64-.54,3.41.71,3.49,8.49,0,0,.43,12.71-3.13,9.75-.03-.03-.07-.06-.11-.09,0,0-4.31-12.74-3.03-15.81,0,0,1.34-1.86,2.79-2.33Z"/>
      <polygon class="cls-22" points="139.36 98.48 143.19 107.52 135.41 110.51 142.16 113.88 139.68 117.86 118.57 124.23 118.5 124.25 121.79 115.3 130.09 92.75 130.06 92.69 130.07 92.69 139.34 98.41 139.36 98.48"/>
      <path class="cls-18" d="m127.56,87.13c2.06,6.31-9.6,15.99-13.79,19.61-1.85,1.61-3.56,2.35-4.95,2.66-.38.09-.74.14-1.07.17l-2.4-2.5c7.51-7,1.01-9.14,1.01-9.14.76-1.1-.51-1.68-1.09-1.88l10.48-3.16c-1.25-2.11-2.78-3.37-4.37-4.09l.03-.07,4.79-4.82-4.17-9.63,1.62-4.03.91-8.57c4.7,7.1,8.32,7.28,8.32,7.28-1.28,3.07,3.03,15.81,3.03,15.81.04.03.07.06.11.09.77.68,1.27,1.44,1.53,2.26Z"/>
      <polygon class="cls-22" points="113.65 70.27 112.03 74.3 101 78.04 100.75 77.65 98.01 73.32 105.15 69.28 113.65 70.27"/>
      <polygon class="cls-5" points="121.79 115.3 118.5 124.25 113.38 125.79 112.06 122.51 115.12 117.18 117.1 119.62 121.79 115.3"/>
      <path class="cls-16" d="m93.45,42.52c-.05,0-.1.01-.15.02h0c.05-.01.1-.02.15-.02Z"/>
      <path class="cls-31" d="m93.3,42.53h0c-4.06.62-7.85,2.51-11.53,4.23-3.26,1.53-6.27,3.5-9,5.85-4.95,4.26-9.96,9.7-10.64,16.49-.97,9.77,3.85,20.39,11.53,26.43.05.04.1.08.16.12-3.87,2.71-5.33,9.54-3.22,16.54,2.43,8.07,8.68,13.32,13.95,11.73,5.27-1.59,7.57-9.42,5.14-17.48-.49-1.61-1.12-3.11-1.88-4.47,2.71.79,4.73,1.65,7.29-.58,1.92,2.75,4.24,5.17,7,6.69l-.23,1.63.04.09c-.43.71-9.01,14.85-17.43,18.21l-2.72,5.84-.09-.04s-23.73,5.89-34.76-12.78l-4.83-16-.19.06c-.39-3.18-.56-6.69-.48-10.56h0s4.83,2.91,4.83,2.91l2.91-5.7,3.57-.72-2.29-4.28,4.58-1.38-1.88-1.7,3.2-4.22-8.81,1.29,3.73-4.7-3.07.45-.08-6.18c4.48-9.43,13.25-17.23,22.34-22.03,3.04-1.61,6.27-2.83,9.61-3.66,4.33-1.07,8.78-1.61,13.21-2.06Zm-25,70.36c-2.43-8.07-8.68-13.32-13.95-11.73-5.27,1.59-7.57,9.42-5.14,17.48,2.43,8.07,8.68,13.32,13.95,11.73,5.27-1.59,7.57-9.42,5.14-17.48Z"/>
      <polygon class="cls-37" points="115.12 117.18 112.06 122.51 106.96 122.68 107.11 116.96 108.82 109.43 115.12 117.18"/>
      <path class="cls-2" d="m102.07,89.05l4.08-2.88-5.15-8.13,11.03-3.74,4.17,9.63-4.79,4.82-.03.07c-4.44-2.01-9.27.3-9.27.3l-.04-.06Z"/>
      <path class="cls-29" d="m127.61,87.12l1.86,4.21.59,1.36.03.06-8.3,22.55-4.69,4.32-1.98-2.44-6.3-7.76v-.02c1.39-.31,3.09-1.05,4.95-2.66,4.19-3.63,15.85-13.3,13.79-19.61l.06-.02Z"/>
      <path class="cls-25" d="m106.59,109.92c.33-.03.69-.08,1.07-.17v.02s-1.71,7.53-1.71,7.53l-.72,3.15-2.33-5.4-.02-.04-2.12-4.89-.04-.09.23-1.63c.98.54,2.02.96,3.12,1.25,0,0,.95.39,2.51.26Z"/>
      <path class="cls-25" d="m93.95,101.73c-5.56-8-7.73-18.86-7.73-18.86l-2.75-2.33-.26-2.44-1.95-4.46-1.1-2.51c.53-.29,1.05-.68,1.54-1.15,2.71,3.23,2.89,9.6,2.89,9.6l3.17,2.67,6.71-2.31,1.61,8.95,3.84,1.21.02.11c-8.79,1.54-5.3,9.05-5.3,9.05l9.47-2.86c.58.2,1.86.78,1.09,1.88,0,0,6.51,2.14-1,9.14l2.4,2.5c-1.56.13-2.51-.26-2.51-.26-1.1-.29-2.14-.71-3.12-1.25-2.77-1.52-5.09-3.93-7-6.69Z"/>
      <path class="cls-25" d="m99.94,90.21l-.02-.11,1-.7.04.06s4.83-2.3,9.27-.3c1.58.71,3.12,1.98,4.37,4.09l-10.48,3.16-9.47,2.86s-3.49-7.51,5.3-9.05Z"/>
      <path class="cls-25" d="m99.84,78.39l5.15,8.13-4.08,2.88-1,.7-3.84-1.21-1.61-8.95-.95-5.27-7.51,1.79-1.43,3.11s-.19-6.37-2.89-9.6c4.34-4.1,7.4-14.16,7.4-14.16,0,0,5.7,1.12,12.46.5,6.76-.62,4.78-6.65,10.23,3.07.1.18.2.36.31.54.44.77.88,1.47,1.31,2.12h0s-.91,8.57-.91,8.57l-8.5-.99-7.14,4.05,2.74,4.33.25.39Z"/>
      <path class="cls-25" d="m80.15,71.13l1.1,2.51s-16.13-16.27,8.3-25.22c0,0,6.42-13.77,28.88,2.65,0,0,8.64,5.45,6.08,15.92-1.44.47-2.79,2.33-2.79,2.33,0,0-3.62-.18-8.32-7.28h0c-.43-.65-.87-1.35-1.31-2.12-.1-.18-.21-.36-.31-.54-5.45-9.71-3.48-3.68-10.23-3.07-6.75.62-12.46-.5-12.46-.5,0,0-3.06,10.06-7.4,14.16-.5.47-1.01.86-1.54,1.15Z"/>
      <path class="cls-29" d="m107.75,109.57c.33-.03.69-.08,1.07-.17v.02s-1.71,7.53-1.71,7.53l-.72,3.15-2.33-5.4-.02-.04-2.11-4.89-.04-.09.23-1.63c.98.54,2.02.96,3.12,1.25,0,0,.95.39,2.51.26Z"/>
      <polygon class="cls-34" points="112.06 122.51 113.38 125.79 105.77 128.09 106.96 122.68 112.06 122.51"/>
      <path class="cls-2" d="m95.11,101.38c-5.56-8-7.73-18.86-7.73-18.86l-2.75-2.33-.26-2.44-1.95-4.46-1.1-2.51c.53-.29,1.05-.68,1.54-1.15,2.71,3.23,2.89,9.6,2.89,9.6l3.17,2.67,6.71-2.31,1.61,8.95,3.84,1.21.02.11c-8.8,1.54-5.3,9.05-5.3,9.05l9.47-2.86c.58.2,1.86.78,1.09,1.88,0,0,6.51,2.14-1.01,9.14l2.4,2.5c-1.56.14-2.51-.26-2.51-.26-1.1-.29-2.14-.71-3.12-1.25-2.77-1.52-5.09-3.93-7-6.69Z"/>
      <polygon class="cls-22" points="94.68 74.33 95.63 79.59 88.92 81.9 85.75 79.23 87.18 76.12 94.68 74.33"/>
      <polygon class="cls-5" points="106.39 120.12 107.11 116.96 106.96 122.68 105.77 128.09 102.66 129.03 102.62 128.88 104.04 114.68 104.06 114.72 106.39 120.12"/>
      <path class="cls-26" d="m88.95,102.57c.75,1.36,1.39,2.85,1.88,4.47,2.43,8.07.13,15.89-5.14,17.48-5.27,1.59-11.52-3.66-13.95-11.73-2.11-7-.66-13.83,3.22-16.54.59-.41,1.23-.73,1.92-.94,4.22-1.27,9.06,1.83,12.07,7.26Z"/>
      <path class="cls-26" d="m55.48,101.77c5.27-1.59,11.52,3.66,13.95,11.73,2.43,8.07.13,15.89-5.14,17.48-5.27,1.59-11.52-3.66-13.95-11.73-2.43-8.07-.13-15.89,5.14-17.48Z"/>
      <polygon class="cls-26" points="48.06 121.62 52.04 134.83 45.68 136.75 36.87 107.54 43.04 105.67 43.23 105.62 48.06 121.62"/>
      <path class="cls-6" d="m87.82,101.96c.75,1.36,1.39,2.86,1.88,4.47,2.43,8.07.13,15.89-5.14,17.48-5.27,1.59-11.52-3.66-13.95-11.73-2.11-7-.66-13.83,3.22-16.54.59-.41,1.23-.73,1.92-.94,4.22-1.27,9.06,1.83,12.07,7.26Z"/>
      <path class="cls-6" d="m54.35,101.16c5.27-1.59,11.52,3.66,13.95,11.73,2.43,8.07.13,15.89-5.14,17.48-5.27,1.59-11.52-3.66-13.95-11.73-2.43-8.07-.13-15.89,5.14-17.48Z"/>
      <polygon class="cls-6" points="46.93 121.02 50.91 134.22 44.55 136.14 35.74 106.93 41.91 105.07 42.1 105.01 46.93 121.02"/>
      <path class="cls-1" d="m29.37,103.61l1.93,6.39c1.78,7.8,2.19,14.11,1.81,19.17l-12.26,3.7-12.73-42.22,12.39-3.74c3.04,3.98,6.11,9.38,8.87,16.69Z"/>
      <path class="cls-21" d="m20.5,86.92l-12.39,3.74-4.5-14.92c2.43.2,9.59,1.62,16.89,11.18Z"/>
      <path class="cls-21" d="m20.85,132.88l12.26-3.7c-.87,11.75-5.96,16.8-7.86,18.29l-4.4-14.6Z"/>
      <path class="cls-16" d="m18.47,84.3c.71.79,1.43,1.65,2.15,2.58l-.12.04c-7.3-9.56-14.45-10.98-16.89-11.18h0c2.21.17,8.3,1.32,14.86,8.56Z"/>
      <path class="cls-16" d="m3.61,75.73h0c-.13,0-.24-.01-.34-.02.1,0,.21.01.33.02Z"/>
      <path class="cls-26" d="m174.65,28.13c1.19-4.87-2.83-7.41-2.83-7.41-10.45-7.64-13.44-1.23-13.44-1.23-11.37,4.16-3.86,11.74-3.86,11.74l.91,2.08.12,1.14,1.28,1.08s1.01,5.05,3.6,8.78c.89,1.28,1.97,2.41,3.26,3.11.46.25.94.45,1.45.58,0,0,.44.18,1.17.12.15-.01.32-.04.5-.08.65-.15,1.44-.49,2.3-1.24,1.95-1.69,7.38-6.19,6.42-9.13-.12-.38-.35-.73-.71-1.05,1.66,1.38,1.46-4.54,1.46-4.54-.04-3.62-.86-4.2-1.62-3.95Zm-17.1,7.1l-1.48-1.24.66-1.45,3.49-.83.44,2.45-3.12,1.07Zm10.46,3.19v.03c-2.08-.93-4.33.14-4.33.14l-.02-.03,1.9-1.34-2.4-3.78,5.13-1.74,1.94,4.48-2.23,2.24Z"/>
      <path class="cls-2" d="m174.07,28.3c.76-.25,1.59.33,1.62,3.95,0,0,.2,5.91-1.46,4.54-.02-.01-.03-.03-.05-.04,0,0-2.01-5.93-1.41-7.36,0,0,.62-.87,1.3-1.09Z"/>
      <path class="cls-18" d="m174.95,37.84c.96,2.94-4.47,7.44-6.42,9.13-.86.75-1.66,1.09-2.3,1.24-.18.04-.34.06-.5.08l-1.12-1.16c3.5-3.26.47-4.25.47-4.25.36-.51-.24-.78-.51-.87l4.88-1.47c-.58-.98-1.3-1.57-2.03-1.9v-.03s2.24-2.24,2.24-2.24l-1.94-4.48.76-1.88.43-3.99c2.19,3.3,3.87,3.39,3.87,3.39-.6,1.43,1.41,7.36,1.41,7.36.02.02.03.03.05.04.36.32.59.67.71,1.05Z"/>
      <path class="cls-40" d="m162.59,33.61l2.4,3.78-1.9,1.34-.46.33-1.79-.56-.75-4.17-.44-2.45-3.49.83-.67,1.45s-.09-2.97-1.35-4.47c2.02-1.91,3.45-6.59,3.45-6.59,0,0,2.65.52,5.8.23,3.14-.29,2.22-3.09,4.76,1.43.05.09.1.17.14.25.21.36.41.68.61.99h0s-.43,3.99-.43,3.99l-3.96-.46-3.32,1.88,1.28,2.01.11.18Z"/>
      <polygon class="cls-22" points="168.48 29.99 167.72 31.86 162.59 33.61 162.48 33.42 161.2 31.41 164.52 29.53 168.48 29.99"/>
      <path class="cls-39" d="m162.63,39.11v-.05s.45-.33.45-.33l.02.03s2.25-1.07,4.31-.14c.74.33,1.45.92,2.03,1.9l-4.88,1.47-4.41,1.33s-1.63-3.5,2.47-4.21Z"/>
      <path class="cls-16" d="m159.08,17.07s-.05,0-.07.01h0s.05,0,.07-.01Z"/>
      <polygon class="cls-37" points="169.16 51.82 167.74 54.3 165.36 54.38 165.43 51.72 166.23 48.21 169.16 51.82"/>
      <path class="cls-2" d="m163.09,38.73l1.9-1.34-2.4-3.78,5.13-1.74,1.94,4.48-2.23,2.24v.03c-2.08-.93-4.33.14-4.33.14l-.02-.03Z"/>
      <path class="cls-26" d="m175.56,37.66l.86,1.96.27.63v.03s-3.85,10.49-3.85,10.49l-2.18,2.01-.92-1.14-2.93-3.61h0c.65-.16,1.44-.5,2.3-1.25,1.95-1.69,7.38-6.19,6.42-9.13h.03Z"/>
      <path class="cls-29" d="m174.98,37.83l.86,1.96.27.63v.03s-3.85,10.49-3.85,10.49l-2.18,2.01-.92-1.14-2.93-3.61h0c.65-.16,1.44-.5,2.3-1.25,1.95-1.69,7.38-6.19,6.42-9.13h.03Z"/>
      <path class="cls-29" d="m165.73,48.28c.15-.01.32-.04.5-.08h0s-.8,3.52-.8,3.52l-.33,1.47-1.09-2.51v-.02s-.99-2.28-.99-2.28l-.02-.04.11-.76c.46.25.94.45,1.45.58,0,0,.44.18,1.17.12Z"/>
      <path class="cls-2" d="m159.85,44.47c-2.59-3.72-3.6-8.78-3.6-8.78l-1.28-1.08-.12-1.14-.91-2.08-.51-1.17c.25-.13.49-.32.72-.54,1.26,1.5,1.35,4.47,1.35,4.47l1.48,1.24,3.12-1.07.75,4.17,1.79.56v.05c-4.08.72-2.46,4.21-2.46,4.21l4.41-1.33c.27.09.86.36.51.87,0,0,3.03,1-.47,4.25l1.12,1.16c-.72.06-1.17-.12-1.17-.12-.51-.13-1-.33-1.45-.58-1.29-.71-2.37-1.83-3.26-3.11Z"/>
      <polygon class="cls-22" points="159.65 31.88 160.09 34.33 156.97 35.4 155.49 34.16 156.16 32.71 159.65 31.88"/>
      <path class="cls-39" d="m153.43,30.23l.51,1.17s-7.51-7.57,3.86-11.74c0,0,2.99-6.41,13.44,1.23,0,0,4.02,2.54,2.83,7.41-.67.22-1.3,1.09-1.3,1.09,0,0-1.69-.08-3.87-3.39h0c-.2-.3-.4-.63-.61-.99-.05-.08-.1-.17-.14-.25-2.54-4.52-1.62-1.71-4.76-1.43-3.14.29-5.8-.23-5.8-.23,0,0-1.42,4.68-3.45,6.59-.23.22-.47.4-.72.54Z"/>
      <path class="cls-26" d="m102.22,90.47l-.02-.11,1-.7.04.06s4.83-2.3,9.27-.3c1.58.71,3.12,1.98,4.37,4.09l-10.48,3.16-9.47,2.86s-3.49-7.51,5.3-9.05Z"/>
      <path class="cls-39" d="m101.09,89.86l-.02-.11,1-.7.04.06s4.83-2.3,9.27-.3c1.58.71,3.12,1.98,4.37,4.09l-10.48,3.16-9.47,2.86s-3.49-7.51,5.3-9.05Z"/>
      <path class="cls-26" d="m102.04,78.36l5.15,8.13-4.08,2.88-1,.7-3.84-1.21-1.61-8.95-.95-5.27-7.51,1.79-1.43,3.11s-.19-6.37-2.89-9.6c4.34-4.1,7.4-14.16,7.4-14.16,0,0,5.7,1.12,12.46.5,6.76-.62,4.78-6.65,10.23,3.07.1.18.2.36.31.54.44.77.88,1.47,1.31,2.12h0s-.91,8.57-.91,8.57l-8.5-.99-7.14,4.05,2.74,4.33.25.39Z"/>
      <path class="cls-40" d="m101,78.04l5.15,8.13-4.08,2.88-1,.7-3.84-1.21-1.61-8.95-.95-5.27-7.51,1.79-1.43,3.11s-.19-6.37-2.89-9.6c4.34-4.1,7.4-14.16,7.4-14.16,0,0,5.7,1.12,12.46.5,6.76-.62,4.78-6.65,10.23,3.07.1.18.2.36.31.54.44.77.88,1.47,1.31,2.12h0s-.91,8.57-.91,8.57l-8.5-.99-7.14,4.05,2.74,4.33.25.39Z"/>
      <path class="cls-39" d="m81.31,70.79l1.1,2.51s-16.13-16.27,8.3-25.22c0,0,6.42-13.77,28.88,2.65,0,0,8.64,5.45,6.08,15.92-1.44.47-2.79,2.33-2.79,2.33,0,0-3.62-.18-8.32-7.28h0c-.43-.65-.87-1.35-1.31-2.12-.1-.18-.21-.36-.31-.54-5.45-9.71-3.48-3.68-10.23-3.07-6.76.62-12.46-.5-12.46-.5,0,0-3.06,10.06-7.4,14.16-.5.47-1.01.86-1.54,1.15Z"/>
      <path class="cls-33" d="m139.68,117.86l-21.11,6.37-.07.02-5.12,1.54-7.61,2.29-3.11.94-21.69,6.54.8-1.73-.09-.04s-23.73,5.89-34.76-12.78l3.98,13.21-6.36,1.92-8.81-29.21,6.18-1.86c-.39-3.18-.56-6.69-.48-10.56,0,0,0,0,0,0l-7.55-.99,1.82-2.18-5.85-4.07,5.78-.19-1.49-1.1-.04-.14-15.62-1.53h-.01c.71.8,1.43,1.66,2.15,2.6l-.12.04c3.04,3.98,6.11,9.38,8.87,16.69l1.93,6.39c1.78,7.8,2.19,14.11,1.81,19.17-.87,11.75-5.96,16.8-7.86,18.29l3.97,13.17,118.27-35.67c-.95-2.86-1.85-5.74-2.77-8.63l-5.04,1.52Z"/>
      <path class="cls-10" d="m91.39,36.2l1.91,6.33c-4.43.45-8.88.98-13.21,2.06-3.34.83-6.57,2.05-9.61,3.66-9.09,4.8-17.87,12.59-22.34,22.03l-4.73,3.85-1.68-.86-.78,4.39-4.38-3.36.6,3.03-4.21-1.93,2.97,4.43-3.82-.12,5.51,5.2-3.47,1.05-.04-.14-15.62-1.53h-.01c-6.56-7.23-12.65-8.38-14.86-8.55l-3.61-11.98,91.39-27.56Z"/>
      <polygon class="cls-26" points="57.49 80.02 54.29 84.24 56.17 85.94 51.59 87.32 53.88 91.6 50.31 92.32 47.4 98.02 42.57 95.11 42.57 95.11 42.57 95.1 35.02 94.11 36.84 91.93 30.98 87.86 36.76 87.67 35.27 86.56 38.74 85.52 33.23 80.32 37.05 80.44 34.09 76 38.3 77.93 37.7 74.9 42.08 78.26 42.86 73.86 44.54 74.73 49.26 70.88 49.34 77.06 52.41 76.61 48.68 81.31 57.49 80.02"/>
      <polygon class="cls-19" points="56.36 79.41 53.16 83.64 55.04 85.33 50.46 86.71 52.75 90.99 49.18 91.71 46.27 97.41 41.44 94.51 41.44 94.51 41.44 94.5 33.89 93.51 35.71 91.33 29.85 87.25 35.63 87.06 34.14 85.96 37.61 84.91 32.1 79.71 35.93 79.83 32.96 75.4 37.17 77.33 36.57 74.29 40.95 77.65 41.73 73.26 43.41 74.12 48.13 70.28 48.21 76.46 51.28 76 47.55 80.71 56.36 79.41"/>
      <path class="cls-25" d="m100.77,110.14l2.12,4.89-1.42,14.2.04.14-21.69,6.54.8-1.73,2.72-5.84c8.41-3.36,17-17.49,17.43-18.21Z"/>
      <path class="cls-8" d="m101.92,109.79l2.11,4.89-1.42,14.2.04.14-21.69,6.54.8-1.73,2.72-5.84c8.41-3.36,17-17.49,17.43-18.21Z"/>
    </g>
  </g>
</svg>