<?xml version="1.0" encoding="UTF-8"?>
<svg id="Capa_2" data-name="Capa 2" xmlns="http://www.w3.org/2000/svg" viewBox="0 0 246.19 7.97">
  <defs>
    <style>
      .cls-1 {
        fill: #ccc;
      }
    </style>
  </defs>
  <g id="Layer_2" data-name="Layer 2">
    <g>
      <g>
        <polygon class="cls-1" points="211.49 7.68 203.81 7.68 207.69 0 215.37 0 211.49 7.68 211.49 7.68"/>
        <polygon class="cls-1" points="195.91 7.68 188.22 7.68 192.1 0 199.78 0 195.91 7.68 195.91 7.68"/>
        <polygon class="cls-1" points="180.32 7.68 172.63 7.68 176.51 0 184.19 0 180.32 7.68 180.32 7.68"/>
        <polygon class="cls-1" points="164.73 7.68 157.04 7.68 160.92 0 168.6 0 164.73 7.68 164.73 7.68"/>
        <polygon class="cls-1" points="242.31 7.68 234.63 7.68 238.51 0 246.19 0 242.31 7.68 242.31 7.68"/>
        <polygon class="cls-1" points="226.72 7.68 219.04 7.68 222.92 0 230.6 0 226.72 7.68 226.72 7.68"/>
      </g>
      <g>
        <polygon class="cls-1" points="23.27 7.97 15.59 7.97 19.47 .29 27.15 .29 23.27 7.97 23.27 7.97"/>
        <polygon class="cls-1" points="7.68 7.97 0 7.97 3.88 .29 11.56 .29 7.68 7.97 7.68 7.97"/>
        <polygon class="cls-1" points="116.73 7.97 109.04 7.97 112.92 .29 120.6 .29 116.73 7.97 116.73 7.97"/>
        <polygon class="cls-1" points="101.14 7.97 93.45 7.97 97.33 .29 105.01 .29 101.14 7.97 101.14 7.97"/>
        <polygon class="cls-1" points="85.55 7.97 77.86 7.97 81.74 .29 89.42 .29 85.55 7.97 85.55 7.97"/>
        <polygon class="cls-1" points="69.96 7.97 62.27 7.97 66.15 .29 73.83 .29 69.96 7.97 69.96 7.97"/>
        <polygon class="cls-1" points="54.37 7.97 46.68 7.97 50.56 .29 58.24 .29 54.37 7.97 54.37 7.97"/>
        <polygon class="cls-1" points="38.78 7.97 31.09 7.97 34.97 .29 42.65 .29 38.78 7.97 38.78 7.97"/>
        <polygon class="cls-1" points="147.82 7.97 140.14 7.97 144.01 .29 151.7 .29 147.82 7.97 147.82 7.97"/>
        <polygon class="cls-1" points="132.23 7.97 124.55 7.97 128.42 .29 136.11 .29 132.23 7.97 132.23 7.97"/>
      </g>
    </g>
  </g>
</svg>