<?xml version="1.0" encoding="UTF-8"?>
<svg id="Capa_2" data-name="Capa 2" xmlns="http://www.w3.org/2000/svg" viewBox="0 0 804.37 7.97">
  <defs>
    <style>
      .cls-1 {
        fill: #8b9800;
      }
    </style>
  </defs>
  <g id="Layer_2" data-name="Layer 2">
    <g>
      <g>
        <polygon class="cls-1" points="413.63 7.68 405.95 7.68 409.82 0 417.51 0 413.63 7.68 413.63 7.68"/>
        <polygon class="cls-1" points="522.1 7.97 514.41 7.97 518.29 .29 525.97 .29 522.1 7.97 522.1 7.97"/>
        <polygon class="cls-1" points="506.51 7.97 498.82 7.97 502.7 .29 510.38 .29 506.51 7.97 506.51 7.97"/>
        <polygon class="cls-1" points="490.92 7.97 483.23 7.97 487.11 .29 494.79 .29 490.92 7.97 490.92 7.97"/>
        <polygon class="cls-1" points="475.33 7.97 467.64 7.97 471.52 .29 479.2 .29 475.33 7.97 475.33 7.97"/>
        <polygon class="cls-1" points="459.74 7.97 452.05 7.97 455.93 .29 463.61 .29 459.74 7.97 459.74 7.97"/>
        <polygon class="cls-1" points="211.49 7.68 203.81 7.68 207.69 0 215.37 0 211.49 7.68 211.49 7.68"/>
        <polygon class="cls-1" points="195.91 7.68 188.22 7.68 192.1 0 199.78 0 195.91 7.68 195.91 7.68"/>
        <polygon class="cls-1" points="180.32 7.68 172.63 7.68 176.51 0 184.19 0 180.32 7.68 180.32 7.68"/>
        <polygon class="cls-1" points="164.73 7.68 157.04 7.68 160.92 0 168.6 0 164.73 7.68 164.73 7.68"/>
        <polygon class="cls-1" points="615.27 7.97 607.59 7.97 611.47 .29 619.15 .29 615.27 7.97 615.27 7.97"/>
        <polygon class="cls-1" points="599.68 7.97 592 7.97 595.88 .29 603.56 .29 599.68 7.97 599.68 7.97"/>
        <polygon class="cls-1" points="584.09 7.97 576.41 7.97 580.29 .29 587.97 .29 584.09 7.97 584.09 7.97"/>
        <polygon class="cls-1" points="568.5 7.97 560.82 7.97 564.7 .29 572.38 .29 568.5 7.97 568.5 7.97"/>
        <polygon class="cls-1" points="552.91 7.97 545.23 7.97 549.11 .29 556.79 .29 552.91 7.97 552.91 7.97"/>
        <polygon class="cls-1" points="537.32 7.97 529.64 7.97 533.52 .29 541.2 .29 537.32 7.97 537.32 7.97"/>
        <polygon class="cls-1" points="304.67 7.68 296.99 7.68 300.86 0 308.55 0 304.67 7.68 304.67 7.68"/>
        <polygon class="cls-1" points="289.08 7.68 281.4 7.68 285.27 0 292.96 0 289.08 7.68 289.08 7.68"/>
        <polygon class="cls-1" points="273.49 7.68 265.81 7.68 269.69 0 277.37 0 273.49 7.68 273.49 7.68"/>
        <polygon class="cls-1" points="257.9 7.68 250.22 7.68 254.1 0 261.78 0 257.9 7.68 257.9 7.68"/>
        <polygon class="cls-1" points="242.31 7.68 234.63 7.68 238.51 0 246.19 0 242.31 7.68 242.31 7.68"/>
        <polygon class="cls-1" points="226.72 7.68 219.04 7.68 222.92 0 230.6 0 226.72 7.68 226.72 7.68"/>
        <polygon class="cls-1" points="708.73 7.97 701.04 7.97 704.92 .29 712.6 .29 708.73 7.97 708.73 7.97"/>
        <polygon class="cls-1" points="693.14 7.97 685.45 7.97 689.33 .29 697.01 .29 693.14 7.97 693.14 7.97"/>
        <polygon class="cls-1" points="677.55 7.97 669.86 7.97 673.74 .29 681.42 .29 677.55 7.97 677.55 7.97"/>
        <polygon class="cls-1" points="661.96 7.97 654.27 7.97 658.15 .29 665.83 .29 661.96 7.97 661.96 7.97"/>
        <polygon class="cls-1" points="646.37 7.97 638.68 7.97 642.56 .29 650.24 .29 646.37 7.97 646.37 7.97"/>
        <polygon class="cls-1" points="630.78 7.97 623.09 7.97 626.97 .29 634.65 .29 630.78 7.97 630.78 7.97"/>
        <polygon class="cls-1" points="398.13 7.68 390.44 7.68 394.32 0 402 0 398.13 7.68 398.13 7.68"/>
        <polygon class="cls-1" points="382.54 7.68 374.85 7.68 378.73 0 386.41 0 382.54 7.68 382.54 7.68"/>
        <polygon class="cls-1" points="366.95 7.68 359.26 7.68 363.14 0 370.82 0 366.95 7.68 366.95 7.68"/>
        <polygon class="cls-1" points="351.36 7.68 343.67 7.68 347.55 0 355.23 0 351.36 7.68 351.36 7.68"/>
        <polygon class="cls-1" points="335.77 7.68 328.08 7.68 331.96 0 339.64 0 335.77 7.68 335.77 7.68"/>
        <polygon class="cls-1" points="320.18 7.68 312.49 7.68 316.37 0 324.05 0 320.18 7.68 320.18 7.68"/>
        <polygon class="cls-1" points="739.82 7.97 732.14 7.97 736.01 .29 743.7 .29 739.82 7.97 739.82 7.97"/>
        <polygon class="cls-1" points="724.23 7.97 716.55 7.97 720.42 .29 728.11 .29 724.23 7.97 724.23 7.97"/>
        <polygon class="cls-1" points="444.81 7.68 437.13 7.68 441 0 448.69 0 444.81 7.68 444.81 7.68"/>
        <polygon class="cls-1" points="429.22 7.68 421.54 7.68 425.41 0 433.1 0 429.22 7.68 429.22 7.68"/>
      </g>
      <g>
        <polygon class="cls-1" points="23.27 7.97 15.59 7.97 19.47 .29 27.15 .29 23.27 7.97 23.27 7.97"/>
        <polygon class="cls-1" points="7.68 7.97 0 7.97 3.88 .29 11.56 .29 7.68 7.97 7.68 7.97"/>
        <polygon class="cls-1" points="116.73 7.97 109.04 7.97 112.92 .29 120.6 .29 116.73 7.97 116.73 7.97"/>
        <polygon class="cls-1" points="101.14 7.97 93.45 7.97 97.33 .29 105.01 .29 101.14 7.97 101.14 7.97"/>
        <polygon class="cls-1" points="85.55 7.97 77.86 7.97 81.74 .29 89.42 .29 85.55 7.97 85.55 7.97"/>
        <polygon class="cls-1" points="69.96 7.97 62.27 7.97 66.15 .29 73.83 .29 69.96 7.97 69.96 7.97"/>
        <polygon class="cls-1" points="54.37 7.97 46.68 7.97 50.56 .29 58.24 .29 54.37 7.97 54.37 7.97"/>
        <polygon class="cls-1" points="38.78 7.97 31.09 7.97 34.97 .29 42.65 .29 38.78 7.97 38.78 7.97"/>
        <polygon class="cls-1" points="147.82 7.97 140.14 7.97 144.01 .29 151.7 .29 147.82 7.97 147.82 7.97"/>
        <polygon class="cls-1" points="132.23 7.97 124.55 7.97 128.42 .29 136.11 .29 132.23 7.97 132.23 7.97"/>
      </g>
      <g>
        <polygon class="cls-1" points="800.49 7.68 792.81 7.68 796.69 0 804.37 0 800.49 7.68 800.49 7.68"/>
        <polygon class="cls-1" points="784.91 7.68 777.22 7.68 781.1 0 788.78 0 784.91 7.68 784.91 7.68"/>
        <polygon class="cls-1" points="769.32 7.68 761.63 7.68 765.51 0 773.19 0 769.32 7.68 769.32 7.68"/>
        <polygon class="cls-1" points="753.73 7.68 746.04 7.68 749.92 0 757.6 0 753.73 7.68 753.73 7.68"/>
      </g>
    </g>
  </g>
</svg>