<?xml version="1.0" encoding="UTF-8"?>
<svg id="Capa_2" data-name="Capa 2" xmlns="http://www.w3.org/2000/svg" xmlns:xlink="http://www.w3.org/1999/xlink" viewBox="0 0 256.08 107.08">
  <defs>
    <style>
      .cls-1 {
        fill: #a7a7a7;
      }

      .cls-1, .cls-2, .cls-3, .cls-4, .cls-5, .cls-6, .cls-7, .cls-8, .cls-9, .cls-10, .cls-11, .cls-12, .cls-13, .cls-14, .cls-15, .cls-16 {
        fill-rule: evenodd;
      }

      .cls-2 {
        fill: #b8b8b8;
      }

      .cls-3 {
        fill: #fff;
      }

      .cls-4, .cls-17 {
        fill: #9f9f9f;
      }

      .cls-5 {
        fill: #8b8b8b;
      }

      .cls-6 {
        fill: #858585;
      }

      .cls-18 {
        font-family: MyriadPro-Regular, 'Myriad Pro';
        font-size: 12px;
      }

      .cls-7 {
        fill: #1d1d1d;
      }

      .cls-19, .cls-12 {
        fill: #2f2f2f;
      }

      .cls-20, .cls-13 {
        fill: #1b1b1b;
      }

      .cls-8 {
        fill: url(#GradientFill_4);
      }

      .cls-9 {
        fill: #494949;
      }

      .cls-10 {
        fill: #626262;
      }

      .cls-11 {
        fill: #d2d2d2;
      }

      .cls-14 {
        fill: #1e1e1e;
      }

      .cls-21 {
        letter-spacing: -.01em;
      }

      .cls-15 {
        fill: #cd4600;
      }

      .cls-16 {
        fill: #c1c1c1;
      }
    </style>
    <linearGradient id="GradientFill_4" data-name="GradientFill 4" x1="-3645.29" y1="-14.39" x2="-3645.29" y2="18.31" gradientTransform="translate(-3535.05) rotate(-180) scale(1 -1)" gradientUnits="userSpaceOnUse">
      <stop offset="0" stop-color="#292929"/>
      <stop offset="1" stop-color="#2a2a2a"/>
    </linearGradient>
  </defs>
  <g id="Layer_2" data-name="Layer 2">
    <g id="_2" data-name="2">
      <g>
        <polygon class="cls-12" points="99.35 2.58 106.9 2.23 107.17 5.1 98.9 5.7 99.35 2.58"/>
        <polygon class="cls-13" points="98.02 2.52 105.57 2.18 104.97 5 96.71 5.61 98.02 2.52"/>
        <polygon class="cls-12" points="77.7 4.65 87.35 3.09 85.79 6.35 76.63 7.02 77.7 4.65"/>
        <polygon class="cls-13" points="76.56 4.6 86.21 3.04 84.65 6.3 75.49 6.97 76.56 4.6"/>
        <polygon class="cls-13" points="140.32 3.37 130.54 2.11 132.41 5.31 141.62 5.71 140.32 3.37"/>
        <path class="cls-9" d="m141.44,5.95c.4.41,1.09.44,1.53.07.44-.38.47-1.01.06-1.43-3.03-3.09-11.08-4.31-20.51-4.54-15.66-.39-35.32,1.84-41.52,2.71-1.35.19-2.58.58-3.65,1.09-1.26.59-2.3,1.35-3.08,2.09-.41.4-.4,1.04.03,1.42.43.39,1.11.38,1.52-.02.61-.59,1.46-1.2,2.5-1.69.88-.41,1.89-.74,3-.89,6.16-.86,25.67-3.08,41.13-2.69,8.91.22,16.41,1.27,18.98,3.89Z"/>
      </g>
      <g>
        <polygon class="cls-12" points="58.56 3.79 65.59 3.12 65.95 5.97 58.26 6.93 58.56 3.79"/>
        <polygon class="cls-13" points="57.31 3.79 64.34 3.12 63.9 5.97 56.21 6.93 57.31 3.79"/>
        <polygon class="cls-12" points="38.43 6.79 47.38 4.82 46.05 8.14 37.53 9.2 38.43 6.79"/>
        <polygon class="cls-13" points="37.37 6.79 46.31 4.82 44.98 8.14 36.46 9.2 37.37 6.79"/>
        <polygon class="cls-13" points="96.83 2.83 87.65 1.98 89.52 5.1 98.13 5.1 96.83 2.83"/>
        <path class="cls-9" d="m97.97,5.35c.39.39,1.03.39,1.43,0,.39-.39.39-1.03,0-1.43-2.96-2.95-10.52-3.83-19.33-3.66-14.63.28-32.89,3.35-38.64,4.48-1.26.25-2.39.69-3.36,1.24-1.15.65-2.1,1.44-2.79,2.22-.37.42-.33,1.05.09,1.42.42.37,1.05.33,1.42-.09.55-.62,1.32-1.26,2.27-1.8.8-.45,1.73-.82,2.76-1.02,5.71-1.12,23.84-4.17,38.29-4.45,8.32-.16,15.36.57,17.87,3.07Z"/>
      </g>
      <g>
        <g>
          <path class="cls-13" d="m105.48,106.01h9.68c8.22,0,14.89-10.28,14.89-22.96,0-12.68-6.66-22.96-14.89-22.96h-9.68c-8.95,0-9.25,45.93,0,45.93Z"/>
          <path class="cls-13" d="m105.48,106.01c-8.2,0-14.89-10.32-14.89-22.96s6.69-22.96,14.89-22.96c8.2,0,14.89,10.32,14.89,22.96,0,12.65-6.69,22.96-14.89,22.96Z"/>
          <path class="cls-13" d="m105.48,99.82c-5.99,0-10.87-7.53-10.87-16.77s4.88-16.77,10.87-16.77,10.87,7.53,10.87,16.77c0,9.24-4.88,16.77-10.87,16.77Z"/>
          <path class="cls-13" d="m105.48,97.43c-5.14,0-9.32-6.46-9.32-14.38s4.19-14.38,9.32-14.38c5.14,0,9.32,6.46,9.32,14.38,0,7.92-4.19,14.38-9.32,14.38Z"/>
          <path class="cls-13" d="m107.29,97.16c4.29-1.3,7.52-7.12,7.52-14.11,0-6.99-3.23-12.82-7.52-14.11-4.29,1.3-7.52,7.12-7.52,14.11,0,6.99,3.23,12.82,7.52,14.11Z"/>
          <path class="cls-13" d="m106.91,97.26c-4.12-.97-8.45-5.32-8.45-14.23,0-8.91,4.29-13.19,8.38-14.21,2.2.5,4.14,2.18,5.56,4.61-.19-.05-.36.02-.51.22-.47.64-.71,3.1-.09,4.43.63,1.32,2.1,1.47,2.57.83l.03-.04c.21,1.07.34,2.2.39,3.36-.59-.22-1.87.99-2.1,2.64-.22,1.66.63,3.69,1.22,3.92.04.01.07.02.11.03-.35,1.22-.8,2.36-1.35,3.37.04-.27.04-.53-.03-.77-.26-.92-1.62-1.87-2.53-1.14-.9.75-1.31,3.14-1.05,4.07.26.92,1.15.83,2.2-.03h.01c-1.24,1.51-2.73,2.55-4.36,2.94h0Zm1.21-26.74c-1.16,0-1.98.57-1.98,1.6s.98,2.88,1.98,2.89c1,0,1.98-1.86,1.98-2.89,0-1.02-.82-1.6-1.98-1.6h0Zm-5.79,4.69c-.72,1.55-.97,2.99-.49,3.63.47.64,1.94.48,2.57-.84.62-1.34.37-3.79-.1-4.43-.47-.64-1.25.1-1.97,1.65h0Zm-1.44,10.57c.26,1.92.77,3.15,1.36,2.92.59-.23,1.43-2.27,1.21-3.93-.23-1.65-1.52-2.86-2.11-2.63-.59.23-.73,1.72-.47,3.64h0Zm6.17,8.52c.26-.92-.15-3.32-1.05-4.06-.91-.73-2.26.23-2.53,1.15-.26.92.33,2.04,1.38,2.89,1.05.85,1.93.94,2.2.01Z"/>
          <path class="cls-13" d="m106.13,97.4c-4.58-.19-8.26-6.55-8.26-14.36,0-7.71,3.58-13.99,8.07-14.35,4.94.36,8.87,6.65,8.87,14.35v.37s0,.02,0,.02c-.12,7.44-3.91,13.47-8.68,13.98h0Zm.25-26.87c-1.16,0-1.98.57-1.98,1.6s.98,2.88,1.98,2.89c1,0,1.98-1.86,1.98-2.89s-.82-1.6-1.98-1.6h0Zm-5.79,4.69c-.72,1.55-.97,2.99-.49,3.63.47.64,1.94.48,2.57-.84.62-1.34.37-3.79-.1-4.43-.47-.64-1.25.1-1.97,1.65h0Zm-1.44,10.57c.26,1.92.78,3.15,1.36,2.92.59-.23,1.43-2.27,1.21-3.93-.23-1.65-1.52-2.86-2.11-2.63-.59.23-.73,1.72-.47,3.64h0Zm3.97,8.5c1.05.85,1.94.94,2.2.01.26-.92-.15-3.32-1.05-4.06-.91-.73-2.26.23-2.53,1.15-.26.92.33,2.04,1.38,2.89h0Zm6.4.04c1.05-.86,1.64-1.98,1.38-2.9-.26-.92-1.62-1.87-2.53-1.14-.9.75-1.31,3.14-1.05,4.07.26.92,1.15.83,2.2-.03h0Zm4.01-8.46c.26-1.92.11-3.41-.48-3.64-.59-.23-1.87.99-2.1,2.64-.22,1.66.63,3.69,1.22,3.92.59.23,1.1-1.01,1.36-2.93h0Zm-3.37-12.22c-.47.64-.71,3.1-.09,4.43.63,1.32,2.1,1.47,2.57.83.47-.64.22-2.08-.5-3.63-.73-1.54-1.5-2.27-1.97-1.63Z"/>
          <path class="cls-13" d="m106.34,79.73c-1.25,0-2.26,1.56-2.26,3.48s1.01,3.48,2.26,3.48c1.25,0,2.26-1.56,2.26-3.48s-1.01-3.48-2.26-3.48Z"/>
        </g>
        <g>
          <path class="cls-13" d="m215.23,106.01h9.68c8.22,0,14.89-10.28,14.89-22.96,0-12.68-6.66-22.96-14.89-22.96h-9.68c-8.95,0-9.25,45.93,0,45.93Z"/>
          <path class="cls-13" d="m215.23,106.01c-8.2,0-14.89-10.32-14.89-22.96,0-12.65,6.69-22.96,14.89-22.96,8.2,0,14.89,10.32,14.89,22.96,0,12.65-6.69,22.96-14.89,22.96Z"/>
          <path class="cls-13" d="m215.23,99.82c-5.99,0-10.87-7.53-10.87-16.77s4.88-16.77,10.87-16.77c5.99,0,10.87,7.53,10.87,16.77,0,9.24-4.88,16.77-10.87,16.77Z"/>
          <path class="cls-13" d="m215.23,97.43c-5.14,0-9.32-6.46-9.32-14.38,0-7.92,4.19-14.38,9.32-14.38s9.32,6.46,9.32,14.38-4.19,14.38-9.32,14.38Z"/>
          <path class="cls-13" d="m217.03,97.16c4.29-1.3,7.52-7.12,7.52-14.11,0-6.99-3.23-12.82-7.52-14.11-4.29,1.3-7.52,7.12-7.52,14.11,0,6.99,3.23,12.82,7.52,14.11Z"/>
          <path class="cls-13" d="m216.66,97.26c-4.12-.97-8.45-5.32-8.45-14.23,0-8.91,4.29-13.19,8.38-14.21,2.2.5,4.14,2.18,5.56,4.61-.19-.05-.36.02-.51.22-.47.64-.71,3.1-.09,4.43.63,1.32,2.1,1.47,2.57.83l.03-.04c.21,1.07.34,2.2.39,3.36-.59-.22-1.87.99-2.1,2.64-.22,1.66.63,3.69,1.22,3.92.04.01.07.02.11.03-.35,1.22-.8,2.36-1.35,3.37.04-.27.04-.53-.03-.77-.26-.92-1.62-1.87-2.53-1.14-.9.75-1.31,3.14-1.05,4.07.26.92,1.15.83,2.2-.03h.01c-1.24,1.51-2.73,2.55-4.36,2.94h0Zm1.21-26.74c-1.16,0-1.98.57-1.98,1.6s.98,2.88,1.98,2.89c1,0,1.98-1.86,1.98-2.89s-.82-1.6-1.98-1.6h0Zm-5.79,4.69c-.72,1.55-.97,2.99-.49,3.63.47.64,1.94.48,2.57-.84.62-1.34.37-3.79-.1-4.43-.47-.64-1.25.1-1.97,1.65h0Zm-1.44,10.57c.26,1.92.77,3.15,1.36,2.92.59-.23,1.43-2.27,1.21-3.93-.23-1.65-1.52-2.86-2.11-2.63-.59.23-.73,1.72-.47,3.64h0Zm6.17,8.52c.26-.92-.15-3.32-1.05-4.06-.91-.73-2.26.23-2.53,1.15-.26.92.33,2.04,1.38,2.89,1.05.85,1.93.94,2.2.01Z"/>
          <path class="cls-13" d="m215.87,97.4c-4.58-.19-8.26-6.55-8.26-14.36s3.58-13.99,8.07-14.35c4.94.36,8.87,6.65,8.87,14.35v.37s0,.02,0,.02c-.12,7.44-3.91,13.47-8.68,13.98h0Zm.25-26.87c-1.16,0-1.98.57-1.98,1.6s.98,2.88,1.98,2.89c1,0,1.98-1.86,1.98-2.89s-.82-1.6-1.98-1.6h0Zm-5.79,4.69c-.72,1.55-.97,2.99-.49,3.63.47.64,1.94.48,2.57-.84.62-1.34.37-3.79-.1-4.43-.47-.64-1.25.1-1.97,1.65h0Zm-1.44,10.57c.26,1.92.78,3.15,1.36,2.92.59-.23,1.43-2.27,1.21-3.93-.23-1.65-1.52-2.86-2.11-2.63-.59.23-.73,1.72-.47,3.64h0Zm3.97,8.5c1.05.85,1.94.94,2.2.01.26-.92-.15-3.32-1.05-4.06-.91-.73-2.26.23-2.53,1.15-.26.92.33,2.04,1.38,2.89h0Zm6.4.04c1.05-.86,1.64-1.98,1.38-2.9-.26-.92-1.62-1.87-2.53-1.14-.9.75-1.31,3.14-1.05,4.07.26.92,1.15.83,2.2-.03h0Zm4.01-8.46c.26-1.92.11-3.41-.48-3.64-.59-.23-1.87.99-2.1,2.64-.22,1.66.63,3.69,1.22,3.92.59.23,1.1-1.01,1.36-2.93h0Zm-3.37-12.22c-.47.64-.71,3.1-.09,4.43.63,1.32,2.1,1.47,2.57.83.47-.64.22-2.08-.5-3.63-.73-1.54-1.5-2.27-1.97-1.63Z"/>
          <path class="cls-13" d="m216.08,79.73c-1.25,0-2.26,1.56-2.26,3.48s1.01,3.48,2.26,3.48,2.26-1.56,2.26-3.48-1.01-3.48-2.26-3.48Z"/>
        </g>
      </g>
      <polygon class="cls-13" points="171.45 91.19 50.84 91.18 11.88 85.43 11.77 49.1 171.45 49.1 171.45 91.19"/>
      <g>
        <path class="cls-13" d="m139.64,60.08h9.68c8.22,0,14.89,10.28,14.89,22.97,0,12.68-6.66,22.96-14.89,22.96h-9.68c-8.95,0-9.25-45.93,0-45.93Z"/>
        <path class="cls-12" d="m139.64,106.01c-8.2,0-14.89-10.32-14.89-22.97,0-12.65,6.69-22.96,14.89-22.96,8.2,0,14.89,10.32,14.89,22.96,0,12.65-6.69,22.97-14.89,22.97Z"/>
        <g>
          <text class="cls-18" transform="translate(136.23 74.8)"><tspan x="0" y="0">L</tspan><tspan x="-6.71" y="14.4">o</tspan><tspan class="cls-21" x="-.12" y="14.4">r</tspan><tspan x="3.69" y="14.4">e</tspan></text>
          <path class="cls-6" d="m139.64,97.43c-5.14,0-9.32-6.46-9.32-14.38,0-7.92,4.19-14.38,9.32-14.38s9.32,6.46,9.32,14.38c0,7.92-4.19,14.38-9.32,14.38Z"/>
          <path class="cls-13" d="m141.44,68.94c4.29,1.3,7.52,7.12,7.52,14.11,0,6.99-3.23,12.82-7.52,14.11-4.29-1.3-7.52-7.12-7.52-14.11,0-6.99,3.23-12.82,7.52-14.11Z"/>
          <path class="cls-2" d="m142,92.58c-3.4,0-6.17-4.28-6.17-9.53,0-5.25,2.77-9.53,6.17-9.53,3.4,0,6.17,4.28,6.17,9.53s-2.77,9.53-6.17,9.53Z"/>
          <path class="cls-10" d="m145.66,72.08c1.01,1.33,1.84,2.98,2.41,4.85l-2.05,4.49,2.94,1.36v.27c0,1.95-.25,3.81-.71,5.5l-3.4-1.57v7.99c-1.05,1.1-2.26,1.87-3.56,2.23-.08-.02-.16-.05-.24-.07v-10.16s-6.3,2.92-6.3,2.92h-1.76c.88-2.96.84-2.63.67-5.6l6.22-2.88-3.75-8.19c1.11-1.83,1.22-1.11,1.33-3.37h1.76s3.72,8.13,3.72,8.13l2.71-5.91Z"/>
          <path class="cls-3" d="m144.5,70.78c1.1,1.04,2.05,2.42,2.78,4.04l-3.02,6.6,4.69,2.18c-.05,2.03-.37,3.95-.91,5.68l-4.95-2.29v9.43c-.84.52-1.74.85-2.68.97-.38-.05-.75-.13-1.11-.25v-10.16s-6.3,2.92-6.3,2.92c-.26-.73-.47-1.5-.65-2.3l-.17-.88c-.13-.78-.23-1.59-.27-2.42l6.22-2.88-3.75-8.19c.38-.63.8-1.21,1.25-1.72l.4-.44c.45-.47.93-.87,1.44-1.21l3.72,8.13,3.3-7.21Z"/>
          <path class="cls-4" d="m140.82,85.98c-1.04,0-1.9-1.31-1.9-2.93s.85-2.93,1.9-2.93c1.04,0,1.9,1.31,1.9,2.93s-.85,2.93-1.9,2.93Z"/>
        </g>
      </g>
      <g>
        <path class="cls-13" d="m29.89,106.01h9.68c8.22,0,14.89-10.28,14.89-22.97,0-12.68-6.66-22.96-14.89-22.96h-9.68c-8.95,0-9.25,45.93,0,45.93Z"/>
        <path class="cls-12" d="m29.89,106.01c-8.2,0-14.89-10.32-14.89-22.96s6.69-22.96,14.89-22.96c8.2,0,14.89,10.32,14.89,22.96,0,12.65-6.69,22.96-14.89,22.96Z"/>
        <g>
          <path class="cls-3" d="m29.89,99.82c-5.99,0-10.87-7.53-10.87-16.77,0-9.24,4.88-16.77,10.87-16.77,5.99,0,10.87,7.53,10.87,16.77s-4.88,16.77-10.87,16.77Z"/>
          <path class="cls-6" d="m29.89,97.43c-5.14,0-9.32-6.46-9.32-14.38,0-7.92,4.19-14.38,9.32-14.38s9.32,6.46,9.32,14.38-4.19,14.38-9.32,14.38Z"/>
          <path class="cls-13" d="m31.69,97.16c4.29-1.3,7.52-7.12,7.52-14.11,0-6.99-3.23-12.82-7.52-14.11-4.29,1.3-7.52,7.12-7.52,14.11,0,6.99,3.23,12.82,7.52,14.11Z"/>
          <path class="cls-2" d="m32.25,92.57c-3.4,0-6.17-4.28-6.17-9.53s2.77-9.53,6.17-9.53c3.4,0,6.18,4.28,6.18,9.53s-2.77,9.53-6.18,9.53Z"/>
          <path class="cls-10" d="m35.92,94.02c1.01-1.33,1.84-2.98,2.41-4.85l-2.05-4.49,2.94-1.36v-.27c0-1.95-.25-3.81-.71-5.5l-3.4,1.57v-7.99c-1.05-1.1-2.26-1.87-3.56-2.23-.08.02-.16.05-.24.07v10.16s-6.3-2.92-6.3-2.92h-1.76c.88,2.96.84,2.63.67,5.6l6.22,2.88-3.75,8.19c1.11,1.83,1.22,1.11,1.33,3.37h1.76s3.72-8.13,3.72-8.13l2.71,5.91Z"/>
          <path class="cls-3" d="m34.75,95.32c1.1-1.04,2.05-2.42,2.78-4.04l-3.02-6.6,4.69-2.18c-.05-2.03-.37-3.95-.91-5.68l-4.95,2.29v-9.43c-.84-.52-1.74-.85-2.68-.97-.38.05-.75.13-1.11.25v10.16s-6.3-2.92-6.3-2.92c-.26.73-.47,1.5-.65,2.3l-.17.88c-.13.78-.23,1.59-.27,2.42l6.22,2.88-3.75,8.19c.38.63.8,1.21,1.25,1.72l.4.44c.45.46.93.87,1.44,1.21l3.72-8.13,3.3,7.21Z"/>
          <path class="cls-4" d="m31.07,85.97c-1.04,0-1.9-1.31-1.9-2.93s.85-2.93,1.9-2.93,1.9,1.31,1.9,2.93-.85,2.93-1.9,2.93Z"/>
        </g>
      </g>
      <rect class="cls-20" x="52.29" y="86.86" width="65.01" height="4.32"/>
      <path class="cls-1" d="m32.08,9.1c23.44-4.31,54.3-5.75,76.5-5.75,18.25,0,46.86.02,55.43,4.31,14.87,7.62,25,18.15,38.04,26.87,16.17,2.22,33.87,5.31,40.68,8.48,8.96,4.17,9.05,8.07,9.91,17.57.14,1.51,2.48,1.97,3,3.54.74,2.24.4,6.22.02,7.7-.21.81-1.48,1.63-1.45,2.46.27,7.43-1.53,13.39-6.78,16.91h-81.71s-4.19-5.15-4.19-5.15h-3.89c.39-1.9.6-3.88.6-5.93,0-13.4-7.29-24.66-18.28-24.66-10.99,0-18.28,11.26-18.28,24.66,0,1.79.16,3.54.46,5.22l-2.83,5.85-6.24-5.15h-61.49s-3.36-5.93-3.36-5.93c0-13.4-7.29-24.66-18.28-24.66-9.42,0-15.7,8.39-17.75,19.12l-.32,10.87-6.91-6.38c-1.28-4.02-2.56-6.01-3.83-10.03-.15-4.77.27-8.58.53-10.35.1-.67.35-1.39.62-1.92.72-1.46,2.07-3.98,2.09-4.28.29-3.36-.02-5.9.74-8.99.45-1.83-.24-4.61.06-6.22.22-1.17,5.85-3.4,6.41-3.92l14.98-20.73c1.31-1.82,2.96-3.03,5.53-3.51Z"/>
      <path class="cls-16" d="m42.6,50.59c-5.82-3.72-13.81-3.61-19.74-.85-5.53,2.57-9.61,9.25-7.95,10.14,1.35.73,3.21-2.31,6.65-3.77,5.32-2.25,13.14-3.27,18.72-.47,9.19,4.61,7.38,22.66,11.78,22.68,4.4.02,3.48-19.46-9.46-27.73Z"/>
      <path class="cls-16" d="m153.74,50.69c-6.77-4.38-15.81-5.2-23.78.01-5.23,3.42-7.71,9.38-7.56,11.64.11,1.56,5.06-3.73,10.39-5.97,5.55-2.32,12.46-3.09,17.15-.73,9.19,4.61,9.94,24.68,11.78,22.68,1.84-2,2.6-20.79-7.98-27.64Z"/>
      <path class="cls-16" d="m32.08,9.1c23.44-4.31,54.3-5.75,76.5-5.75,18.25,0,46.86.02,55.43,4.31,14.87,7.62,25,18.15,38.04,26.87,16.17,2.22,33.87,5.31,40.68,8.48,2.97,1.38,4.97,2.74,6.34,4.28-12.47,1.34-32.72,1.85-49.6,1.45-14.49-.84-25.88,0-37.39-1.8-8.72-1.36-15.94-1.75-21.81-2.59H4.93c.15-.8.2-1.61.09-2.42l6.55-8.59,11.65,1.17h97.33c2.44,0,4.05-2.37,1.37-5.74-5.38-6.77-8.44-11.6-15.04-18.93-6.38-7.08-37.58-3.9-74.81-.74Z"/>
      <path class="cls-16" d="m48.5,82.87c.83-8.97-2.69-21.45-8.11-28.54,2.65,1.82,9.84,3.84,10.91,5.96,5.87,11.62,9.46,18.48,44.89,20.74,1.08.07,1.2,1.77-.02,1.77l-47.66.06Z"/>
      <path class="cls-15" d="m5.11,43.48c-.04-.98-.32-4.18.06-6.22.28-1.53,5.71-3.55,6.41-3.92.87-.53,1.46,5.02,1.15,6.16-.46,1.72-7.61,5.42-7.62,3.98Z"/>
      <path class="cls-13" d="m164.94,8.14c14.35,7.57,24.34,17.83,37.08,26.37h-71.52c-.82,0-1.58-.32-2.14-1.02l-19.08-24.05c-.56-.7-.34-1.3.76-1.3h54.89Z"/>
      <path class="cls-12" d="m161.25,86.03h-4.01c.39-1.9.6-3.88.6-5.93,0-13.4-7.55-24.26-17.87-24.26-10.32,0-17.87,10.86-17.87,24.26,0,2.02.2,3.99.59,5.87.62,3.03-1.2,5.21-2.7,5.21-1.16-3.41-1.8-7.15-1.8-11.07,0-16.03,8.64-29.03,21.79-29.03s21.78,13,21.78,29.03c0,2.03-.17,4.01-.5,5.93Z"/>
      <path class="cls-12" d="m51.19,86.31l-1.35,4.87c-2.88,0-2.88-3.87-2.62-5.12.39-1.9.6-3.9.6-5.95,0-13.4-8-24.26-17.47-24.26-9.47,0-15.7,7.99-17.75,18.71l-.72,10.87c-1.59-3.52-2.63-7.81-2.33-11.72,1.41-12.47,8.56-22.64,20.8-22.64,12.25,0,21.38,13,21.38,29.03,0,2.13-.19,4.2-.55,6.2Z"/>
      <path class="cls-12" d="m252.07,86.03c.71-1.34,1.17-2.67,1.51-3.99l-1.37-6.76c-.37-1.81-1.86-2.61-3.69-2.61h-48.26c-1.72,0-2.84.96-3.49,2.61l-3.29,8.35-2.33,2.39h-26.85s-2.7-2.39-2.7-2.39l-4.34,2.39c0,2.68,2.69,5.15,5.3,5.15,16.65,0,32.19,0,48.84,0h36.05c2.07-1.14,3.77-3.52,4.64-5.15h0Zm-131.51,0h-9.5s5.3,4.37,5.3,4.37c.59.48,1.28.77,1.98.77h1.63s.58-5.15.58-5.15h0Zm-72.63,0l1.53,5.14h4.24s7.17-5.14,7.17-5.14h-12.94Z"/>
      <path class="cls-13" d="m31.37,13.76c12.83-2.93,30.59-5.3,43.32-5.85,8.47-.36,24.19-1.36,28.87,3.67,5.49,5.89,10.82,14.19,15.56,21.49.44.68.12,1.43-.57,1.43H20.3c-.59,0-1.05-.69-.76-1.19l10.56-18.61c.26-.46.56-.78,1.27-.94Z"/>
      <path class="cls-8" d="m117.82,33.29c-4.59-7.07-9.44-14.76-15.14-20.89-3.75-4.02-16.63-3.78-24.32-3.45l-2.05,24.34h41.51Zm81.72,0h-69.04c-.49,0-.88-.18-1.19-.56l-18.55-23.38h55.56c7.78,4.31,14.61,9.63,21.6,15.14,3.82,3.01,7.64,6.01,11.62,8.8h0Zm-130.48,0l3.1-24.04c-6.64.38-13.33,1.12-19.9,2.02-.65.09-1.31.18-1.96.28l-7.38,21.74h26.14Zm-48.12,0l10.21-17.99c.14-.24.2-.29.48-.36,4.67-1.06,9.41-1.95,14.15-2.71l-7.48,21.06h-17.37Z"/>
      <path class="cls-13" d="m117.82,33.29c-1.09-1.68-2.19-3.39-3.32-5.11-10.59-1.92-21.83-3.35-33.49-4.19-1.3-.09-2.6-.18-3.9-.25l-.8,9.54h41.51Zm81.72,0c-2.13-1.49-4.21-3.05-6.27-4.63-15.54-3.94-33.03-6.78-51.62-8.11-7.72-.55-15.28-.82-22.64-.82l10.31,12.99c.31.39.7.56,1.19.56h69.04Zm-129.21-9.88l-1.27,9.88h-26.14s3.35-9.87,3.35-9.87c7.75-.31,15.8-.32,24.06,0h0Zm-32.02,9.88h-17.37s4.69-8.26,4.69-8.26c5.18-.62,10.56-1.09,16.11-1.4l-3.43,9.66Z"/>
      <path class="cls-12" d="m247.24,56.47l.43,1.21c.23.64.3,1.37-.18,1.91l-1.25,1.44c-.66.75-1.59,1.34-2.7,1.34h-35.2c-2.04,0-3.78-.71-5.44-1.34l-3.77-1.44c-.88-.33-1.69-1.11-1.42-1.91l.42-1.21h49.11Zm-2.12-5.92l1.39,3.9h-47.64s1.45-3.9,1.45-3.9c.29-.79.79-1.18,1.56-1.18h41.71c.76,0,1.3.53,1.53,1.18Z"/>
      <path class="cls-13" d="m244.44,56.47l.43,1.21c.23.64.3,1.37-.18,1.91l-1.25,1.44c-.66.75-1.59,1.34-2.7,1.34h-32.4c-2.04,0-3.78-.71-5.44-1.34l-3.77-1.44c-.88-.33-1.69-1.11-1.42-1.91l.42-1.21h46.3Zm-45.56-2.02l1.45-3.9c.29-.79.79-1.18,1.56-1.18h38.9c.76,0,1.3.53,1.53,1.18l1.39,3.9h-44.83Z"/>
      <path class="cls-14" d="m213.11,86.03c.85,0,1.14.79.57,1.38l-3.68,3.78h-16.06s3.83-3.94,3.83-3.94c.64-.66,1.48-1.22,2.47-1.22h12.86Zm32.17,0c.89,0,1.37.6,1.5,1.36l.64,3.79h-16.34s3.83-3.94,3.83-3.94c.78-.8,1.79-1.22,2.91-1.22h7.44Zm-26.22,0c-1.25,0-1.92.6-2.52,1.22l-3.83,3.94h16.1s3.72-3.82,3.72-3.82c.53-.55.23-1.34-.56-1.34h-12.89Z"/>
      <path class="cls-7" d="m248.42,82.24h-46.54c-.81,0-1.66-.93-1.39-1.69l.73-2.05c.27-.76,1.07-1.47,1.87-1.47h45.33c.81,0,1.47.66,1.47,1.47v2.27c0,.81-.66,1.47-1.47,1.47Z"/>
      <path class="cls-13" d="m245.62,82.24h-43.73c-.81,0-1.66-.93-1.39-1.69l.73-2.05c.27-.76,1.07-1.47,1.87-1.47h42.52c.81,0,1.47.66,1.47,1.47v2.27c0,.81-.66,1.47-1.47,1.47Z"/>
      <path class="cls-12" d="m186.58,72.68h-10.06c-1.3,0-2.6,1.06-2.89,2.36l-.53,2.38c-.29,1.3.54,2.36,1.84,2.36h10.06c1.3,0,2.6-1.06,2.89-2.36l.53-2.38c.29-1.3-.54-2.36-1.84-2.36Z"/>
      <path class="cls-13" d="m183.97,72.68h-7.46c-1.3,0-2.6,1.06-2.89,2.36l-.53,2.38c-.29,1.3.54,2.36,1.84,2.36h7.46c1.3,0,2.6-1.06,2.89-2.36l.53-2.38c.29-1.3-.54-2.36-1.84-2.36Z"/>
      <path class="cls-11" d="m180.65,73.93h-3.32c-.84,0-1.68.69-1.87,1.53l-.34,1.54c-.19.84.35,1.53,1.19,1.53h3.32c.84,0,1.68-.69,1.87-1.53l.34-1.54c.19-.84-.35-1.53-1.19-1.53Z"/>
      <rect class="cls-20" x="71.09" y="41.32" width="8.39" height="2.47" rx="1.24" ry="1.24"/>
      <rect class="cls-20" x="39.15" y="41.32" width="8.39" height="2.47" rx="1.24" ry="1.24"/>
      <g>
        <path class="cls-3" d="m170.68,46.65l23.7,2.4c.97.1,1.58,1.07,1.26,1.98l-1.98,5.58c-.29.8-1.03,1.26-1.99,1.2l-14.56-1c-.8-.05-1.5-.46-2-1.09l-5.51-7.01c-.68-.86-.21-2.19,1.08-2.06Z"/>
        <path class="cls-11" d="m249.67,48.01c1.88.97,3.1,7.88,2.74,9.75l-.99.07c-1.02.07-1.81-.39-2.12-1.2l-2.02-5.34c-.34-.91-.04-1.48.7-2.06l1.7-1.22Z"/>
      </g>
      <g>
        <path class="cls-1" d="m101.52,23.89h7.46c4.41,0,4.41,9,0,9h-7.46c-1.75,0-3.17-1.43-3.17-3.17v-2.65c0-1.75,1.43-3.17,3.17-3.17Z"/>
        <path class="cls-1" d="m110.37,28.53l4.43,1.24c1.03.29,1.54,1.13,1.38,2.35-.15,1.12-1.35,1.89-3.38,1.37l-2.91-.73c-.63-.16-1.34-.55-1.18-1.18l.49-1.87c.16-.63.56-1.36,1.18-1.18Z"/>
        <path class="cls-5" d="m99.8,25.62h0c.8,0,1.45.65,1.45,1.45v3.4c0,.66.39,1.01,1.02,1.01h6.91c1.33,0,1.33,1.41,0,1.41h-7.66c-1.92,0-3.17-1.46-3.17-3.27v-2.56c0-.8.65-1.45,1.45-1.45Z"/>
      </g>
      <path class="cls-16" d="m254.63,65.26c.26-.49.07-1.1-.42-1.36-.49-.26-1.1-.07-1.36.42-.26.5-.7.85-1.29,1.08-.7.28-1.61.4-2.71.4h0c-19.81,0-54.53-.06-72.27-3.82-6.05-1.28.88,5.21,3.23,5.21,20.52,1.26,48.42.63,69.04.63h0c1.35,0,2.5-.17,3.44-.54,1.05-.41,1.84-1.07,2.34-2.02Z"/>
      <rect class="cls-19" x="56.45" y="86.03" width="58.92" height="2.38"/>
      <path class="cls-13" d="m235.58,104.85c.61,0,1.12.5,1.12,1.12h0c0,.61-.52,1.12-1.12,1.12H19c-.6,0-1.11-.5-1.11-1.12h0c0-.61.5-1.12,1.11-1.12h216.58Zm17.7,0c.61,0,1.11.5,1.11,1.12h0c0,.61-.52,1.12-1.11,1.12h-8.59c-.6,0-1.12-.5-1.12-1.12h0c0-.61.5-1.12,1.12-1.12h8.59Zm-242.45,1.12h0c0,.61-.51,1.12-1.12,1.12H1.12c-.6,0-1.12-.5-1.12-1.12h0c0-.61.5-1.12,1.12-1.12h8.59c.61,0,1.12.5,1.12,1.12Z"/>
      <rect class="cls-17" x="223.13" y="54.17" width="8.39" height="2.47" rx="1.24" ry="1.24"/>
      <path class="cls-1" d="m201.8,48.16c-2.73-2.73-10.06-5.11-20.29-7.12-10.73-2.1-23.1-3.3-38.34-4.55-2.72-.22-9.31.48-4.04.89,16.06,1.28,30.86,3.05,42.06,5.24,9.12,1.79,16.04,3.85,18.7,6.12.78.66,1.17.73,1.88.45.71-.28.14-.91.02-1.04Z"/>
    </g>
  </g>
</svg>