<?xml version="1.0" encoding="UTF-8"?>
<svg id="Capa_2" data-name="Capa 2" xmlns="http://www.w3.org/2000/svg" xmlns:xlink="http://www.w3.org/1999/xlink" viewBox="0 0 358.17 149.77">
  <defs>
    <style>
      .cls-1 {
        fill: #c6c6c6;
      }

      .cls-1, .cls-2, .cls-3, .cls-4, .cls-5, .cls-6, .cls-7, .cls-8, .cls-9, .cls-10, .cls-11, .cls-12, .cls-13, .cls-14, .cls-15, .cls-16 {
        fill-rule: evenodd;
      }

      .cls-2 {
        fill: #cfcfcf;
      }

      .cls-3 {
        fill: #fff;
      }

      .cls-4 {
        fill: #1d1d1d;
      }

      .cls-5, .cls-17 {
        fill: #adadad;
      }

      .cls-18, .cls-11 {
        fill: #2f2f2f;
      }

      .cls-19, .cls-13 {
        fill: #1b1b1b;
      }

      .cls-6 {
        fill: url(#GradientFill_4);
      }

      .cls-7 {
        fill: #494949;
      }

      .cls-8 {
        fill: #e0e0e0;
      }

      .cls-9 {
        fill: #626262;
      }

      .cls-10 {
        fill: #db4600;
      }

      .cls-12 {
        fill: #b5b5b5;
      }

      .cls-14 {
        fill: #1e1e1e;
      }

      .cls-15 {
        fill: #939393;
      }

      .cls-16 {
        fill: #999;
      }
    </style>
    <linearGradient id="GradientFill_4" data-name="GradientFill 4" x1="203.97" y1="-20.13" x2="203.97" y2="25.61" gradientUnits="userSpaceOnUse">
      <stop offset="0" stop-color="#292929"/>
      <stop offset="1" stop-color="#2a2a2a"/>
    </linearGradient>
  </defs>
  <g id="Layer_2" data-name="Layer 2">
    <g id="_2" data-name="2">
      <g>
        <polygon class="cls-11" points="219.21 3.61 208.65 3.13 208.27 7.13 219.83 7.98 219.21 3.61"/>
        <polygon class="cls-13" points="221.07 3.53 210.51 3.05 211.35 7 222.91 7.85 221.07 3.53"/>
        <polygon class="cls-11" points="249.48 6.51 235.99 4.33 238.18 8.88 250.98 9.82 249.48 6.51"/>
        <polygon class="cls-13" points="251.08 6.44 237.58 4.26 239.77 8.81 252.58 9.75 251.08 6.44"/>
        <polygon class="cls-13" points="161.9 4.72 175.59 2.95 172.97 7.43 160.09 7.98 161.9 4.72"/>
        <path class="cls-7" d="m160.34,8.32c-.57.58-1.52.62-2.13.09-.61-.53-.65-1.42-.09-1.99,4.24-4.32,15.5-6.02,28.69-6.35,21.9-.54,49.4,2.57,58.07,3.78,1.89.26,3.61.82,5.1,1.52,1.76.83,3.22,1.88,4.3,2.93.57.56.55,1.45-.04,1.99-.6.54-1.55.53-2.13-.03-.86-.83-2.04-1.68-3.5-2.36-1.23-.58-2.64-1.03-4.19-1.25-8.61-1.2-35.9-4.3-57.53-3.76-12.46.31-22.95,1.78-26.55,5.44Z"/>
      </g>
      <g>
        <polygon class="cls-11" points="276.27 5.3 266.43 4.37 265.92 8.35 276.68 9.69 276.27 5.3"/>
        <polygon class="cls-13" points="278.01 5.3 268.17 4.37 268.79 8.35 279.55 9.69 278.01 5.3"/>
        <polygon class="cls-11" points="304.41 9.5 291.9 6.74 293.76 11.38 305.68 12.87 304.41 9.5"/>
        <polygon class="cls-13" points="305.9 9.5 293.39 6.74 295.25 11.38 307.17 12.87 305.9 9.5"/>
        <polygon class="cls-13" points="222.73 3.95 235.58 2.77 232.95 7.14 220.91 7.14 222.73 3.95"/>
        <path class="cls-7" d="m221.13,7.48c-.55.55-1.45.55-2,0-.55-.55-.55-1.45,0-2,4.13-4.13,14.71-5.35,27.04-5.12,20.46.4,46.01,4.69,54.05,6.27,1.76.34,3.34.97,4.7,1.74,1.61.91,2.93,2.02,3.9,3.11.51.58.46,1.47-.12,1.98-.58.51-1.47.46-1.98-.12-.77-.86-1.84-1.76-3.17-2.51-1.12-.63-2.42-1.15-3.86-1.43-7.99-1.57-33.34-5.84-53.55-6.23-11.64-.22-21.49.79-25,4.3Z"/>
      </g>
      <g>
        <g>
          <path class="cls-13" d="m210.63,148.28h-13.54c-11.5,0-20.82-14.38-20.82-32.12s9.32-32.12,20.82-32.12h13.54c12.52,0,12.93,64.24,0,64.24Z"/>
          <path class="cls-13" d="m210.63,148.28c11.47,0,20.82-14.43,20.82-32.12s-9.35-32.12-20.82-32.12-20.82,14.43-20.82,32.12,9.35,32.12,20.82,32.12Z"/>
          <path class="cls-13" d="m210.63,139.61c8.37,0,15.2-10.54,15.2-23.45s-6.83-23.45-15.2-23.45-15.2,10.54-15.2,23.45,6.83,23.45,15.2,23.45Z"/>
          <path class="cls-13" d="m210.63,136.27c7.18,0,13.04-9.04,13.04-20.12s-5.86-20.12-13.04-20.12-13.04,9.04-13.04,20.12,5.86,20.12,13.04,20.12Z"/>
          <path class="cls-13" d="m208.11,135.9c-5.99-1.81-10.52-9.96-10.52-19.74s4.52-17.93,10.52-19.74c5.99,1.81,10.52,9.96,10.52,19.74s-4.52,17.93-10.52,19.74Z"/>
          <path class="cls-13" d="m208.63,136.04c-2.28-.54-4.37-2-6.1-4.12h.02c1.46,1.21,2.7,1.34,3.07.05.37-1.29-.2-4.64-1.46-5.69-1.26-1.02-3.17.3-3.54,1.59-.1.35-.11.71-.05,1.08-.76-1.42-1.4-3.01-1.88-4.72.05,0,.1-.02.15-.04.82-.32,2.01-3.17,1.71-5.49-.32-2.31-2.1-4-2.93-3.7.06-1.63.24-3.2.54-4.7l.04.05c.66.89,2.71.69,3.59-1.16.87-1.87.53-5.31-.13-6.2-.2-.27-.44-.37-.71-.3,1.98-3.4,4.71-5.75,7.78-6.44,5.72,1.42,11.73,7.41,11.73,19.88s-6.05,18.54-11.82,19.9h0Zm-1.7-37.4c-1.63,0-2.78.8-2.78,2.23s1.37,4.03,2.78,4.04c1.4-.01,2.78-2.61,2.78-4.04s-1.15-2.23-2.78-2.23h0Zm8.1,6.56c-1.01-2.16-2.09-3.19-2.76-2.3-.66.89-1.01,4.33-.14,6.2.88,1.86,2.93,2.07,3.59,1.18.66-.89.32-2.91-.69-5.08h0Zm2.01,14.79c.36-2.69.16-4.77-.66-5.09-.82-.32-2.62,1.37-2.94,3.68-.31,2.32.87,5.17,1.7,5.5.82.32,1.54-1.4,1.91-4.08h0Zm-5.56,11.89c1.47-1.19,2.3-2.76,1.93-4.05-.36-1.29-2.27-2.63-3.53-1.61-1.26,1.04-1.84,4.39-1.47,5.68.37,1.29,1.6,1.17,3.07-.02Z"/>
          <path class="cls-13" d="m209.73,136.23c-6.67-.7-11.96-9.14-12.14-19.55v-.02s0-.5,0-.5v-.02c0-10.77,5.51-19.57,12.41-20.07,6.28.5,11.28,9.29,11.28,20.07s-5.15,19.83-11.56,20.09h0Zm-.34-37.59c-1.63,0-2.78.8-2.78,2.23s1.37,4.03,2.78,4.04c1.4-.01,2.78-2.61,2.78-4.04s-1.15-2.23-2.78-2.23h0Zm8.1,6.56c-1.01-2.16-2.09-3.19-2.76-2.3-.66.89-1.01,4.33-.14,6.2.88,1.86,2.93,2.07,3.59,1.18.66-.89.32-2.91-.69-5.08h0Zm2.01,14.79c.36-2.69.16-4.77-.66-5.09-.82-.32-2.62,1.37-2.95,3.68-.31,2.32.87,5.17,1.7,5.5.82.32,1.54-1.4,1.91-4.08h0Zm-5.56,11.89c1.47-1.19,2.3-2.76,1.93-4.05-.36-1.29-2.27-2.63-3.53-1.61-1.26,1.04-1.84,4.39-1.47,5.68.37,1.29,1.6,1.17,3.07-.02h0Zm-8.95.05c1.46,1.2,2.7,1.33,3.07.04.37-1.29-.2-4.64-1.46-5.69-1.26-1.02-3.17.3-3.54,1.59-.37,1.29.46,2.86,1.93,4.06h0Zm-5.6-11.83c.36,2.69,1.08,4.41,1.9,4.1.82-.32,2.01-3.17,1.71-5.49-.32-2.31-2.11-4.01-2.94-3.69-.82.32-1.03,2.39-.67,5.08h0Zm1.95-14.81c-1.01,2.16-1.36,4.18-.7,5.07.66.89,2.71.69,3.59-1.16.87-1.87.53-5.31-.13-6.2-.66-.89-1.74.13-2.76,2.28Z"/>
          <path class="cls-13" d="m209.44,111.51c1.75,0,3.16,2.18,3.16,4.87s-1.41,4.87-3.16,4.87-3.16-2.18-3.16-4.87,1.42-4.87,3.16-4.87Z"/>
        </g>
        <g>
          <path class="cls-13" d="m57.13,148.28h-13.54c-11.5,0-20.82-14.38-20.82-32.12s9.32-32.12,20.82-32.12h13.54c12.52,0,12.93,64.24,0,64.24Z"/>
          <path class="cls-13" d="m57.13,148.28c11.47,0,20.82-14.43,20.82-32.12s-9.35-32.12-20.82-32.12-20.82,14.43-20.82,32.12,9.35,32.12,20.82,32.12Z"/>
          <path class="cls-13" d="m57.13,139.61c8.37,0,15.2-10.54,15.2-23.45s-6.83-23.45-15.2-23.45-15.2,10.54-15.2,23.45,6.83,23.45,15.2,23.45Z"/>
          <path class="cls-13" d="m57.13,136.27c7.18,0,13.04-9.04,13.04-20.12s-5.86-20.12-13.04-20.12-13.04,9.04-13.04,20.12,5.86,20.12,13.04,20.12Z"/>
          <path class="cls-13" d="m54.61,135.9c-5.99-1.81-10.52-9.96-10.52-19.74s4.52-17.93,10.52-19.74c5.99,1.81,10.52,9.96,10.52,19.74s-4.52,17.93-10.52,19.74Z"/>
          <path class="cls-13" d="m55.13,136.04c-2.28-.54-4.37-2-6.1-4.12h.02c1.46,1.21,2.7,1.34,3.07.05.37-1.29-.2-4.64-1.46-5.69-1.26-1.02-3.17.3-3.54,1.59-.1.35-.11.71-.05,1.08-.76-1.42-1.4-3.01-1.88-4.72.05,0,.1-.02.15-.04.82-.32,2.01-3.17,1.71-5.49-.32-2.31-2.1-4-2.93-3.7.06-1.63.24-3.2.54-4.7l.04.05c.66.89,2.71.69,3.59-1.16.87-1.87.53-5.31-.13-6.2-.2-.27-.44-.37-.71-.3,1.98-3.4,4.71-5.75,7.78-6.44,5.72,1.42,11.73,7.41,11.73,19.88s-6.05,18.54-11.82,19.9h0Zm-1.7-37.4c-1.63,0-2.78.8-2.78,2.23s1.37,4.03,2.78,4.04c1.4-.01,2.78-2.61,2.78-4.04s-1.15-2.23-2.78-2.23h0Zm8.1,6.56c-1.01-2.16-2.09-3.19-2.76-2.3-.66.89-1.01,4.33-.14,6.2.88,1.86,2.93,2.07,3.59,1.18.66-.89.32-2.91-.69-5.08h0Zm2.01,14.79c.36-2.69.16-4.77-.66-5.09-.82-.32-2.62,1.37-2.94,3.68-.31,2.32.87,5.17,1.7,5.5.82.32,1.54-1.4,1.91-4.08h0Zm-5.56,11.89c1.47-1.19,2.3-2.76,1.93-4.05-.36-1.29-2.27-2.63-3.53-1.61-1.26,1.04-1.84,4.39-1.47,5.68.37,1.29,1.6,1.17,3.07-.02Z"/>
          <path class="cls-13" d="m56.23,136.23c-6.67-.7-11.96-9.14-12.14-19.55v-.02s0-.5,0-.5v-.02c0-10.77,5.51-19.57,12.41-20.07,6.28.5,11.28,9.29,11.28,20.07s-5.15,19.83-11.56,20.09h0Zm-.34-37.59c-1.63,0-2.78.8-2.78,2.23s1.37,4.03,2.78,4.04c1.4-.01,2.78-2.61,2.78-4.04s-1.15-2.23-2.78-2.23h0Zm8.1,6.56c-1.01-2.16-2.09-3.19-2.76-2.3-.66.89-1.01,4.33-.14,6.2.88,1.86,2.93,2.07,3.59,1.18.66-.89.32-2.91-.69-5.08h0Zm2.01,14.79c.36-2.69.16-4.77-.66-5.09-.82-.32-2.62,1.37-2.95,3.68-.31,2.32.87,5.17,1.7,5.5.82.32,1.54-1.4,1.91-4.08h0Zm-5.56,11.89c1.47-1.19,2.3-2.76,1.93-4.05-.36-1.29-2.27-2.63-3.53-1.61-1.26,1.04-1.84,4.39-1.47,5.68.37,1.29,1.6,1.17,3.07-.02h0Zm-8.95.05c1.46,1.2,2.7,1.33,3.07.04.37-1.29-.2-4.64-1.46-5.69-1.26-1.02-3.17.3-3.54,1.59-.37,1.29.46,2.86,1.93,4.06h0Zm-5.6-11.83c.36,2.69,1.08,4.41,1.9,4.1.82-.32,2.01-3.17,1.71-5.49-.32-2.31-2.11-4.01-2.94-3.69-.82.32-1.03,2.39-.67,5.08h0Zm1.95-14.81c-1.01,2.16-1.36,4.18-.7,5.07.66.89,2.71.69,3.59-1.16.87-1.87.53-5.31-.13-6.2-.66-.89-1.74.13-2.76,2.28Z"/>
          <path class="cls-13" d="m55.94,111.51c1.75,0,3.16,2.18,3.16,4.87s-1.41,4.87-3.16,4.87-3.16-2.18-3.16-4.87,1.42-4.87,3.16-4.87Z"/>
        </g>
      </g>
      <polygon class="cls-13" points="118.36 127.54 287.06 127.52 341.55 119.49 341.71 68.68 118.36 68.68 118.36 127.54"/>
      <g>
        <path class="cls-13" d="m162.86,84.04h-13.54c-11.5,0-20.82,14.38-20.82,32.12s9.32,32.12,20.82,32.12h13.54c12.52,0,12.93-64.24,0-64.24Z"/>
        <path class="cls-11" d="m162.86,148.28c11.47,0,20.82-14.43,20.82-32.12s-9.35-32.12-20.82-32.12-20.82,14.43-20.82,32.12,9.35,32.12,20.82,32.12Z"/>
        <g>
          <path class="cls-3" d="m162.86,139.61c8.37,0,15.2-10.54,15.2-23.45s-6.83-23.45-15.2-23.45-15.2,10.54-15.2,23.45,6.83,23.45,15.2,23.45Z"/>
          <path class="cls-15" d="m162.86,136.27c7.18,0,13.04-9.04,13.04-20.12s-5.86-20.12-13.04-20.12-13.04,9.04-13.04,20.12,5.86,20.12,13.04,20.12Z"/>
          <path class="cls-13" d="m160.34,96.42c-5.99,1.81-10.52,9.96-10.52,19.74s4.52,17.93,10.52,19.74c5.99-1.81,10.52-9.96,10.52-19.74s-4.52-17.93-10.52-19.74Z"/>
          <path class="cls-1" d="m159.56,129.48c4.76,0,8.64-5.99,8.64-13.32s-3.88-13.32-8.64-13.32-8.64,5.99-8.64,13.32,3.88,13.32,8.64,13.32Z"/>
          <path class="cls-9" d="m154.43,100.81c-1.42,1.85-2.57,4.16-3.37,6.79l2.87,6.28-4.11,1.9v.38c0,2.73.35,5.33.99,7.7l4.75-2.2v11.18c1.47,1.54,3.16,2.62,4.97,3.13.11-.03.22-.06.33-.1v-14.2l8.82,4.08h2.46c-1.23-4.14-1.18-3.68-.94-7.83l-8.7-4.04,5.24-11.45c-1.55-2.55-1.71-1.55-1.86-4.72h-2.46l-5.2,11.37-3.78-8.27Z"/>
          <path class="cls-3" d="m156.06,98.99c-1.54,1.45-2.86,3.38-3.89,5.65l4.23,9.23-6.56,3.04c.07,2.84.52,5.53,1.27,7.94l6.93-3.21v13.19c1.18.72,2.43,1.19,3.75,1.36.53-.07,1.05-.19,1.56-.35v-14.2l8.82,4.08c.36-1.02.66-2.09.9-3.21l.24-1.23c.19-1.09.32-2.23.38-3.38l-8.71-4.04,5.24-11.45c-.53-.88-1.12-1.69-1.75-2.41l-.56-.61c-.63-.65-1.31-1.22-2.01-1.69l-5.2,11.37-4.62-10.09Z"/>
          <path class="cls-5" d="m161.21,120.25c1.46,0,2.65-1.84,2.65-4.09s-1.19-4.09-2.65-4.09-2.65,1.84-2.65,4.09,1.19,4.09,2.65,4.09Z"/>
        </g>
      </g>
      <g>
        <path class="cls-13" d="m316.36,148.28h-13.54c-11.5,0-20.82-14.38-20.82-32.12s9.32-32.12,20.82-32.12h13.54c12.52,0,12.93,64.24,0,64.24Z"/>
        <path class="cls-11" d="m316.36,148.28c11.47,0,20.82-14.43,20.82-32.12s-9.35-32.12-20.82-32.12-20.82,14.43-20.82,32.12,9.35,32.12,20.82,32.12Z"/>
        <g>
          <path class="cls-3" d="m316.36,139.61c8.37,0,15.2-10.53,15.2-23.45s-6.83-23.45-15.2-23.45-15.2,10.54-15.2,23.45,6.83,23.45,15.2,23.45Z"/>
          <path class="cls-15" d="m316.36,136.27c7.18,0,13.04-9.04,13.04-20.12s-5.86-20.12-13.04-20.12-13.04,9.04-13.04,20.12,5.86,20.12,13.04,20.12Z"/>
          <path class="cls-13" d="m313.84,135.9c-5.99-1.81-10.52-9.96-10.52-19.74s4.52-17.93,10.52-19.74c5.99,1.81,10.52,9.96,10.52,19.74s-4.52,17.93-10.52,19.74Z"/>
          <path class="cls-1" d="m313.06,129.48c4.76,0,8.64-5.99,8.64-13.32s-3.88-13.32-8.64-13.32-8.64,5.99-8.64,13.32,3.88,13.32,8.64,13.32Z"/>
          <path class="cls-9" d="m307.93,131.5c-1.42-1.85-2.57-4.16-3.37-6.79l2.87-6.28-4.11-1.9v-.38c0-2.73.35-5.33.99-7.7l4.75,2.2v-11.18c1.47-1.54,3.16-2.62,4.97-3.13.11.03.22.06.33.1v14.2l8.82-4.08h2.46c-1.23,4.14-1.18,3.68-.94,7.83l-8.71,4.03,5.24,11.45c-1.55,2.55-1.71,1.55-1.86,4.72h-2.46l-5.2-11.37-3.78,8.27Z"/>
          <path class="cls-3" d="m309.56,133.32c-1.54-1.45-2.86-3.38-3.89-5.65l4.23-9.23-6.56-3.04c.07-2.84.52-5.53,1.27-7.94l6.93,3.21v-13.19c1.18-.72,2.43-1.19,3.75-1.36.53.07,1.05.19,1.56.35v14.2l8.82-4.08c.36,1.02.66,2.09.9,3.21l.24,1.23c.19,1.09.32,2.23.38,3.38l-8.7,4.03,5.24,11.45c-.53.88-1.12,1.69-1.75,2.41l-.56.61c-.63.65-1.31,1.22-2.01,1.69l-5.2-11.37-4.62,10.09Z"/>
          <path class="cls-5" d="m314.71,120.25c1.46,0,2.65-1.84,2.65-4.09s-1.19-4.09-2.65-4.09-2.65,1.84-2.65,4.09,1.19,4.09,2.65,4.09Z"/>
        </g>
      </g>
      <rect class="cls-19" x="194.1" y="121.49" width="90.93" height="6.04"/>
      <path class="cls-12" d="m313.29,12.72c-32.78-6.03-75.95-8.04-107-8.04-25.53,0-65.54.03-77.52,6.03-20.79,10.65-34.97,25.39-53.2,37.58-22.62,3.1-47.38,7.43-56.9,11.87-12.53,5.83-12.65,11.29-13.86,24.57-.19,2.11-3.46,2.75-4.19,4.95-1.04,3.13-.57,8.7-.02,10.77.3,1.13,2.07,2.28,2.03,3.45-.38,10.4,2.14,18.73,9.48,23.65h114.29s5.85-7.21,5.85-7.21h5.43c-.55-2.65-.84-5.43-.84-8.29,0-18.74,10.2-34.49,25.56-34.49s25.56,15.75,25.56,34.49c0,2.51-.22,4.95-.65,7.31l3.96,8.18,8.73-7.2h86l4.7-8.29c0-18.74,10.2-34.49,25.56-34.49,13.18,0,21.95,11.74,24.83,26.74l.44,15.21,9.66-8.92c1.79-5.62,3.58-8.41,5.36-14.03.21-6.67-.38-12.01-.74-14.48-.13-.94-.49-1.94-.86-2.69-1-2.04-2.89-5.57-2.93-5.99-.41-4.7.02-8.25-1.03-12.57-.62-2.56.33-6.45-.08-8.7-.3-1.64-8.19-4.75-8.96-5.49l-20.95-29c-1.83-2.54-4.13-4.24-7.73-4.91Z"/>
      <path class="cls-2" d="m298.59,70.76c8.14-5.2,19.31-5.05,27.61-1.19,7.74,3.6,13.43,12.94,11.12,14.19-1.89,1.02-4.48-3.24-9.31-5.28-7.44-3.15-18.38-4.57-26.18-.66-12.85,6.45-10.32,31.7-16.47,31.72-6.15.03-4.87-27.22,13.23-38.79Z"/>
      <path class="cls-2" d="m143.14,70.89c9.47-6.13,22.12-7.27,33.26.02,7.31,4.78,10.79,13.12,10.57,16.28-.15,2.18-7.08-5.22-14.53-8.35-7.76-3.25-17.43-4.32-23.99-1.03-12.85,6.45-13.9,34.52-16.47,31.72-2.58-2.79-3.64-29.08,11.16-38.65Z"/>
      <path class="cls-2" d="m313.29,12.72c-32.78-6.03-75.95-8.04-107-8.04-25.53,0-65.54.03-77.52,6.03-20.79,10.65-34.97,25.39-53.2,37.58-22.62,3.1-47.38,7.43-56.9,11.87-4.16,1.94-6.95,3.83-8.87,5.98,17.44,1.88,45.76,2.59,69.37,2.03,20.26-1.18,36.2-.01,52.3-2.52,12.2-1.9,22.3-2.45,30.51-3.63h189.29c-.21-1.13-.28-2.25-.13-3.38l-9.17-12.01-16.3,1.63h-136.14c-3.41,0-5.67-3.32-1.92-8.03,7.53-9.46,11.8-16.23,21.04-26.48,8.92-9.9,52.56-5.46,104.63-1.04Z"/>
      <path class="cls-2" d="m290.33,115.9c-1.16-12.55,3.77-30,11.35-39.91-3.7,2.54-13.76,5.37-15.26,8.34-8.2,16.26-13.23,25.85-62.78,29.01-1.51.1-1.67,2.47.03,2.47l66.66.09Z"/>
      <path class="cls-10" d="m351.02,60.81c.06-1.38.44-5.85-.08-8.7-.39-2.14-7.99-4.96-8.96-5.49-1.22-.74-2.04,7.02-1.61,8.62.65,2.41,10.64,7.58,10.66,5.57Z"/>
      <path class="cls-13" d="m127.47,11.39c-20.08,10.59-34.04,24.94-51.87,36.88h100.03c1.15,0,2.21-.45,2.99-1.43l26.68-33.63c.78-.98.48-1.81-1.06-1.81h-76.77Z"/>
      <path class="cls-11" d="m132.63,120.33h5.61c-.55-2.65-.84-5.43-.84-8.29,0-18.74,10.57-33.93,25-33.93s25,15.19,25,33.93c0,2.83-.28,5.58-.82,8.2-.86,4.24,1.68,7.29,3.78,7.29,1.62-4.77,2.51-10,2.51-15.49,0-22.42-12.08-40.6-30.47-40.6s-30.47,18.18-30.47,40.6c0,2.84.24,5.61.7,8.29Z"/>
      <path class="cls-11" d="m286.57,120.71l1.89,6.81c4.03,0,4.03-5.41,3.66-7.16-.55-2.66-.84-5.45-.84-8.32,0-18.74,11.19-33.93,24.43-33.93s21.95,11.17,24.83,26.17l1.01,15.21c2.23-4.93,3.68-10.93,3.25-16.39-1.97-17.44-11.97-31.66-29.09-31.66s-29.9,18.18-29.9,40.6c0,2.98.26,5.88.76,8.67Z"/>
      <path class="cls-11" d="m5.61,120.33c1.21,2.29,3.6,5.61,6.49,7.21h50.42c23.29,0,45.02,0,68.31,0,3.65,0,7.42-3.46,7.42-7.2l-6.07-3.35-3.78,3.35h-37.56l-3.26-3.35-4.61-11.68c-.91-2.31-2.48-3.66-4.89-3.66H10.59c-2.57,0-4.66,1.13-5.17,3.66l-1.91,9.45c.47,1.84,1.11,3.7,2.11,5.58h0Zm183.93,0l.82,7.2h2.28c.98,0,1.95-.41,2.77-1.08l7.42-6.12h-13.29Zm83.49,0l10.03,7.2h5.93s2.14-7.2,2.14-7.2h-18.1Z"/>
      <path class="cls-13" d="m314.29,19.25c-17.94-4.09-42.79-7.42-60.59-8.18-11.84-.51-33.83-1.9-40.38,5.13-7.68,8.24-15.13,19.85-21.76,30.06-.62.95-.16,2,.8,2h137.41c.83,0,1.46-.96,1.07-1.66l-14.77-26.04c-.37-.65-.79-1.09-1.77-1.32Z"/>
      <path class="cls-6" d="m193.38,46.57h58.06l-2.87-34.04c-10.75-.46-28.77-.79-34.01,4.83-7.98,8.56-14.77,19.32-21.18,29.21h0Zm-114.3,0c5.56-3.9,10.91-8.1,16.25-12.31,9.78-7.71,19.32-15.15,30.21-21.18h77.71l-25.94,32.7c-.43.54-.98.79-1.66.79h-96.56Zm182.5,0h36.56l-10.33-30.41c-.92-.13-1.83-.26-2.74-.39-9.19-1.27-18.54-2.3-27.83-2.83l4.33,33.63h0Zm43.01,0l-10.46-29.46c6.64,1.06,13.27,2.3,19.8,3.79.4.09.48.16.67.5l14.28,25.17h-24.29Z"/>
      <path class="cls-13" d="m193.38,46.57h58.06l-1.12-13.35c-1.81.11-3.63.22-5.45.35-16.32,1.17-32.03,3.17-46.84,5.85-1.57,2.4-3.12,4.8-4.64,7.14h0Zm-114.3,0h96.56c.68,0,1.24-.25,1.66-.79l14.42-18.17c-10.29,0-20.87.37-31.67,1.15-25.99,1.86-50.46,5.83-72.2,11.34-2.88,2.21-5.8,4.38-8.77,6.47h0Zm180.72-13.81c11.56-.45,22.81-.43,33.65,0l4.69,13.81h-36.56l-1.78-13.81h0Zm39.99.31c7.76.44,15.29,1.1,22.53,1.96l6.55,11.55h-24.29l-4.8-13.51Z"/>
      <path class="cls-11" d="m12.36,78.99h68.69l.58,1.69c.38,1.11-.75,2.2-1.98,2.67l-5.28,2.01c-2.32.88-4.76,1.88-7.61,1.88H17.53c-1.55,0-2.86-.82-3.78-1.88l-1.75-2.01c-.66-.76-.56-1.78-.25-2.67l.61-1.69h0Zm5.1-9.93h58.33c1.07,0,1.77.55,2.18,1.65l2.02,5.45H13.37l1.95-5.45c.33-.92,1.08-1.65,2.14-1.65Z"/>
      <path class="cls-13" d="m16.28,78.99h64.76l.58,1.69c.38,1.11-.75,2.2-1.98,2.67l-5.28,2.01c-2.32.88-4.76,1.88-7.61,1.88H21.45c-1.55,0-2.86-.82-3.78-1.88l-1.75-2.01c-.66-.76-.56-1.78-.25-2.67l.61-1.69h0Zm1.01-2.83l1.95-5.45c.33-.92,1.08-1.65,2.14-1.65h54.41c1.07,0,1.77.55,2.18,1.65l2.02,5.45H17.29Z"/>
      <path class="cls-14" d="m60.1,120.33h17.99c1.4,0,2.57.78,3.46,1.7l5.36,5.51h-22.47l-5.14-5.28c-.8-.82-.38-1.93.8-1.93h0Zm-44.99,0h10.41c1.58,0,2.98.58,4.08,1.7l5.36,5.51H12.1l.9-5.3c.18-1.07.86-1.91,2.1-1.91h0Zm18.64,0c-1.11,0-1.53,1.11-.78,1.87l5.2,5.34h22.51l-5.36-5.51c-.84-.86-1.79-1.7-3.53-1.7h-18.03Z"/>
      <path class="cls-4" d="m10.71,115.03h65.09c1.13,0,2.32-1.29,1.95-2.36l-1.02-2.87c-.38-1.06-1.49-2.05-2.62-2.05H10.71c-1.13,0-2.05.93-2.05,2.05v3.17c0,1.13.92,2.05,2.05,2.05Z"/>
      <path class="cls-13" d="m14.63,115.03h61.17c1.13,0,2.32-1.29,1.95-2.36l-1.02-2.87c-.38-1.06-1.49-2.05-2.62-2.05H14.63c-1.13,0-2.05.93-2.05,2.05v3.17c0,1.13.92,2.05,2.05,2.05Z"/>
      <path class="cls-11" d="m97.21,101.65h14.08c1.82,0,3.64,1.49,4.04,3.31l.74,3.33c.41,1.82-.75,3.31-2.57,3.31h-14.08c-1.82,0-3.64-1.49-4.04-3.31l-.74-3.33c-.41-1.82.75-3.31,2.57-3.31Z"/>
      <path class="cls-13" d="m100.85,101.65h10.43c1.82,0,3.64,1.49,4.04,3.31l.74,3.33c.41,1.82-.75,3.31-2.57,3.31h-10.43c-1.82,0-3.64-1.49-4.04-3.31l-.74-3.33c-.41-1.82.75-3.31,2.57-3.31Z"/>
      <path class="cls-8" d="m105.49,103.41h4.65c1.18,0,2.35.96,2.61,2.14l.48,2.15c.26,1.18-.48,2.14-1.66,2.14h-4.65c-1.18,0-2.35-.96-2.61-2.14l-.48-2.15c-.26-1.18.48-2.14,1.66-2.14Z"/>
      <rect class="cls-19" x="247" y="57.79" width="11.74" height="3.46" rx="1.73" ry="1.73"/>
      <rect class="cls-19" x="291.68" y="57.79" width="11.74" height="3.46" rx="1.73" ry="1.73"/>
      <g>
        <path class="cls-3" d="m119.44,65.25l-33.14,3.36c-1.36.14-2.21,1.49-1.76,2.76l2.77,7.81c.4,1.12,1.44,1.77,2.78,1.67l20.37-1.39c1.12-.08,2.1-.65,2.79-1.53l7.71-9.8c.95-1.2.3-3.06-1.52-2.88Z"/>
        <path class="cls-8" d="m8.96,67.15c-2.63,1.36-4.34,11.02-3.83,13.64l1.39.1c1.43.1,2.54-.55,2.96-1.67l2.83-7.47c.48-1.27.06-2.07-.98-2.89l-2.38-1.7Z"/>
      </g>
      <g>
        <path class="cls-12" d="m216.17,33.42h-10.44c-6.17,0-6.17,12.59,0,12.59h10.44c2.44,0,4.44-2,4.44-4.44v-3.71c0-2.44-2-4.44-4.44-4.44Z"/>
        <path class="cls-12" d="m203.8,39.91l-6.19,1.74c-1.43.4-2.15,1.58-1.93,3.28.2,1.57,1.88,2.64,4.73,1.92l4.07-1.02c.88-.22,1.88-.77,1.65-1.65l-.68-2.62c-.23-.88-.78-1.9-1.65-1.65Z"/>
        <path class="cls-16" d="m218.58,35.83h0c-1.11,0-2.03.92-2.03,2.03v4.76c0,.92-.55,1.41-1.43,1.41h-9.67c-1.86,0-1.86,1.98,0,1.98h10.72c2.69,0,4.44-2.04,4.44-4.57v-3.58c0-1.12-.91-2.03-2.03-2.03Z"/>
      </g>
      <path class="cls-2" d="m2.02,91.28c-.36-.69-.1-1.54.59-1.9.69-.36,1.54-.1,1.9.59.37.7.98,1.19,1.81,1.51.98.39,2.25.56,3.79.56h0c27.71,0,76.26-.09,101.08-5.35,8.46-1.79-1.23,7.28-4.51,7.28-28.71,1.76-67.72.89-96.57.89h0c-1.89,0-3.5-.24-4.81-.75-1.47-.58-2.57-1.49-3.27-2.83Z"/>
      <rect class="cls-18" x="196.81" y="120.33" width="82.4" height="3.34"/>
      <path class="cls-13" d="m28.67,146.65h302.92c.86,0,1.56.7,1.56,1.56h0c0,.86-.73,1.56-1.56,1.56H28.67c-.83,0-1.56-.7-1.56-1.56h0c0-.86.7-1.56,1.56-1.56h0Zm-24.75,0h12.01c.86,0,1.56.7,1.56,1.56h0c0,.86-.72,1.56-1.56,1.56H3.92c-.84,0-1.56-.7-1.56-1.56h0c0-.86.7-1.56,1.56-1.56h0Zm340.67,0h12.01c.86,0,1.56.7,1.56,1.56h0c0,.86-.72,1.56-1.56,1.56h-12.01c-.84,0-1.56-.7-1.56-1.56h0c0-.86.7-1.56,1.56-1.56Z"/>
      <rect class="cls-17" x="34.35" y="75.77" width="11.74" height="3.46" rx="1.73" ry="1.73"/>
      <path class="cls-12" d="m75.92,67.36c3.81-3.81,14.06-7.15,28.38-9.96,15-2.94,32.31-4.61,53.62-6.37,3.81-.31,13.02.67,5.65,1.25-22.47,1.79-43.16,4.27-58.83,7.34-12.75,2.5-22.43,5.38-26.16,8.56-1.09.93-1.64,1.02-2.63.63-.99-.39-.2-1.27-.02-1.45Z"/>
    </g>
  </g>
</svg>