<?xml version="1.0" encoding="UTF-8"?>
<svg id="Capa_2" data-name="Capa 2" xmlns="http://www.w3.org/2000/svg" xmlns:xlink="http://www.w3.org/1999/xlink" viewBox="0 0 365.77 160.74">
  <defs>
    <style>
      .cls-1 {
        fill: url(#_Áåçûìÿííûé_ãðàäèåíò_5-2);
      }

      .cls-1, .cls-2, .cls-3, .cls-4, .cls-5, .cls-6, .cls-7, .cls-8, .cls-9, .cls-10, .cls-11 {
        fill-rule: evenodd;
      }

      .cls-12 {
        fill: #0f0f0f;
      }

      .cls-13, .cls-2 {
        fill: #fff;
      }

      .cls-14 {
        fill: #cbcbcb;
      }

      .cls-15, .cls-3 {
        fill: #a5aaaf;
      }

      .cls-16 {
        fill: #8b9800;
      }

      .cls-4 {
        fill: #ce2929;
      }

      .cls-5 {
        fill: #a31a1a;
      }

      .cls-6, .cls-17 {
        fill: #2a2f37;
      }

      .cls-18, .cls-7 {
        fill: #1c1f25;
      }

      .cls-19 {
        opacity: .45;
      }

      .cls-8 {
        fill: url(#_Áåçûìÿííûé_ãðàäèåíò_5-4);
      }

      .cls-9 {
        fill: url(#_Áåçûìÿííûé_ãðàäèåíò_5-3);
      }

      .cls-10 {
        fill: #d93a3a;
      }

      .cls-11 {
        fill: url(#_Áåçûìÿííûé_ãðàäèåíò_5);
      }
    </style>
    <linearGradient id="_Áåçûìÿííûé_ãðàäèåíò_5" data-name="Áåçûìÿííûé ãðàäèåíò 5" x1="139.06" y1="77.73" x2="139.06" y2="93.51" gradientTransform="translate(225.68) rotate(-180) scale(1 -1)" gradientUnits="userSpaceOnUse">
      <stop offset="0" stop-color="#25292e"/>
      <stop offset="1" stop-color="#1c1f25"/>
    </linearGradient>
    <linearGradient id="_Áåçûìÿííûé_ãðàäèåíò_5-2" data-name="Áåçûìÿííûé ãðàäèåíò 5" x1="73.14" y1="77.45" x2="73.14" y2="95.61" xlink:href="#_Áåçûìÿííûé_ãðàäèåíò_5"/>
    <linearGradient id="_Áåçûìÿííûé_ãðàäèåíò_5-3" data-name="Áåçûìÿííûé ãðàäèåíò 5" x1="279.16" y1="88.36" x2="279.16" y2="104.15" gradientTransform="matrix(1, 0, 0, 1, 0, 0)" xlink:href="#_Áåçûìÿííûé_ãðàäèåíò_5"/>
    <linearGradient id="_Áåçûìÿííûé_ãðàäèåíò_5-4" data-name="Áåçûìÿííûé ãðàäèåíò 5" x1="213.24" y1="88.09" x2="213.24" y2="106.25" gradientTransform="matrix(1, 0, 0, 1, 0, 0)" xlink:href="#_Áåçûìÿííûé_ãðàäèåíò_5"/>
  </defs>
  <g id="Layer_2" data-name="Layer 2">
    <g class="cls-19">
      <g>
        <polygon class="cls-7" points="72.83 138.46 178.87 138.46 205.92 134.61 210.17 134.61 212.99 125.37 212.53 108.07 72.83 108.07 72.83 138.46"/>
        <path class="cls-7" d="m129.36,113.49c6.37,0,11.53,7.96,11.53,17.79s-5.16,17.79-11.53,17.79h-7.5c-6.37,0-11.53-7.96-11.53-17.79s5.16-17.79,11.53-17.79h7.5Zm-100.07,35.58c-6.37,0-11.53-7.96-11.53-17.79s5.16-17.79,11.53-17.79h7.5c6.37,0,11.53,7.96,11.53,17.79s-5.16,17.79-11.53,17.79h-7.5Z"/>
        <path class="cls-7" d="m103.6,149.06h-7.5c-6.37,0-11.53-7.96-11.53-17.79s5.16-17.79,11.53-17.79h7.5c6.93,0,7.16,35.58,0,35.58Z"/>
        <ellipse class="cls-17" cx="103.6" cy="131.27" rx="11.53" ry="17.79"/>
        <ellipse class="cls-13" cx="103.6" cy="131.27" rx="8.5" ry="13.12"/>
        <ellipse class="cls-15" cx="103.6" cy="131.27" rx="7.29" ry="11.25"/>
        <path class="cls-7" d="m102.19,142.32c-3.35-1.01-5.88-5.57-5.88-11.04s2.53-10.03,5.88-11.04c3.35,1.01,5.88,5.57,5.88,11.04s-2.53,10.03-5.88,11.04Z"/>
        <path class="cls-6" d="m102.09,142.29c3.3-1.07,5.78-5.6,5.78-11.01s-2.48-9.94-5.78-11.01c-1.95.63-3.61,2.46-4.64,4.97.48.55.75,1.67.12,3.36-.38,1.03-.82,1.5-1.23,1.63-.02.35-.03.7-.03,1.06s.01.71.03,1.05c.41.13.84.6,1.23,1.63.63,1.68.36,2.81-.12,3.36,1.04,2.51,2.7,4.34,4.64,4.97h0Zm-1.51-16.39c-2.36,0-2.04-3.28-1.24-3.55.82-.28,1.65-.27,2.47,0,.8.26,1.14,3.55-1.23,3.55h0Zm3.02,2.69c-1.18-3.16.82-4.37,1.38-3.43.57.96.98,2.07,1.24,3.3.25,1.2-1.43,3.29-2.61.13h0Zm0,5.38c1.18-3.16,2.86-1.09,2.61.13-.25,1.24-.67,2.34-1.24,3.3-.55.94-2.56-.26-1.38-3.43h0Zm-1.78,6.24c-.82.28-1.65.27-2.47,0-.8-.26-1.14-3.55,1.24-3.55s2.04,3.28,1.24,3.55Z"/>
        <path class="cls-2" d="m102.63,142.43c3.57-.73,6.32-5.45,6.32-11.15s-2.75-10.42-6.32-11.15c-2.08.43-3.89,2.21-5.03,4.76.75-.24,2.04,1.03,1.04,3.71-.77,2.05-1.75,1.9-2.27,1.2-.04.49-.06.98-.06,1.48,0,.5.02,1,.06,1.48.52-.69,1.5-.85,2.27,1.2,1,2.68-.28,3.95-1.04,3.71,1.14,2.54,2.95,4.33,5.03,4.76h0Zm-.97-16.53c-2.36,0-2.04-3.28-1.24-3.55.82-.28,1.65-.27,2.47,0,.8.26,1.14,3.55-1.23,3.55h0Zm3.02,2.69c-1.18-3.16.82-4.37,1.38-3.43.57.96.98,2.07,1.24,3.3.25,1.2-1.43,3.29-2.61.13h0Zm0,5.38c1.18-3.16,2.86-1.09,2.61.13-.25,1.24-.67,2.34-1.24,3.3-.55.94-2.56-.26-1.38-3.43h0Zm-1.78,6.24c-.82.28-1.65.27-2.47,0-.8-.26-1.14-3.55,1.24-3.55s2.04,3.28,1.24,3.55Z"/>
        <path class="cls-3" d="m101.59,128.14c1.17,0,2.11,1.46,2.11,3.26s-.95,3.26-2.11,3.26-2.11-1.46-2.11-3.26.95-3.26,2.11-3.26Z"/>
        <path class="cls-7" d="m196.17,149.06h-7.5c-6.37,0-11.53-7.96-11.53-17.79s5.16-17.79,11.53-17.79h7.5c6.93,0,7.16,35.58,0,35.58Z"/>
        <ellipse class="cls-17" cx="196.17" cy="131.27" rx="11.53" ry="17.79"/>
        <ellipse class="cls-13" cx="196.17" cy="131.27" rx="8.5" ry="13.12"/>
        <ellipse class="cls-15" cx="196.17" cy="131.27" rx="7.29" ry="11.25"/>
        <path class="cls-7" d="m194.76,142.32c-3.35-1.01-5.88-5.57-5.88-11.04s2.53-10.03,5.88-11.04c3.35,1.01,5.88,5.57,5.88,11.04s-2.53,10.03-5.88,11.04Z"/>
        <path class="cls-6" d="m194.66,142.29c3.3-1.07,5.78-5.6,5.78-11.01,0-5.42-2.48-9.94-5.78-11.01-1.95.63-3.61,2.46-4.64,4.97.48.55.75,1.67.12,3.36-.38,1.03-.82,1.5-1.23,1.63-.02.35-.03.7-.03,1.06,0,.36.01.71.03,1.05.41.13.84.6,1.23,1.63.63,1.68.36,2.81-.12,3.36,1.04,2.51,2.7,4.34,4.64,4.97h0Zm-1.51-16.39c-2.36,0-2.04-3.28-1.24-3.55.82-.28,1.65-.27,2.47,0,.8.26,1.14,3.55-1.23,3.55h0Zm3.02,2.69c-1.18-3.16.82-4.37,1.38-3.43.57.96.98,2.07,1.24,3.3.25,1.2-1.43,3.29-2.61.13h0Zm0,5.38c1.18-3.16,2.86-1.09,2.61.13-.25,1.24-.67,2.34-1.24,3.3-.55.94-2.56-.26-1.38-3.43h0Zm-1.78,6.24c-.82.28-1.65.27-2.47,0-.8-.26-1.14-3.55,1.24-3.55s2.04,3.28,1.24,3.55Z"/>
        <path class="cls-2" d="m195.2,142.43c3.57-.73,6.32-5.45,6.32-11.15,0-5.71-2.75-10.42-6.32-11.15-2.08.43-3.89,2.21-5.03,4.76.75-.24,2.04,1.03,1.04,3.71-.77,2.05-1.75,1.9-2.27,1.2-.04.49-.06.98-.06,1.48s.02,1,.06,1.48c.52-.69,1.5-.85,2.27,1.2,1,2.68-.28,3.95-1.04,3.71,1.14,2.54,2.95,4.33,5.03,4.76h0Zm-.97-16.53c-2.36,0-2.04-3.28-1.24-3.55.82-.28,1.65-.27,2.47,0,.8.26,1.14,3.55-1.23,3.55h0Zm3.02,2.69c-1.18-3.16.82-4.37,1.38-3.43.57.96.98,2.07,1.24,3.3.25,1.2-1.43,3.29-2.61.13h0Zm0,5.38c1.18-3.16,2.86-1.09,2.61.13-.25,1.24-.67,2.34-1.24,3.3-.55.94-2.56-.26-1.38-3.43h0Zm-1.78,6.24c-.82.28-1.65.27-2.47,0-.8-.26-1.14-3.55,1.24-3.55s2.04,3.28,1.24,3.55Z"/>
        <path class="cls-3" d="m194.16,128.14c1.17,0,2.11,1.46,2.11,3.26s-.95,3.26-2.11,3.26-2.11-1.46-2.11-3.26.95-3.26,2.11-3.26Z"/>
        <path class="cls-4" d="m210.96,95.54c-4.06-1.21-8.3-2.15-12.67-2.87-6.91-4.67-13.48-9.9-20.74-14.02-3.68-2.09-7.7-3.76-11.87-4.5-14.99-2.66-28.79-3.04-42.7-2.77-13.6.26-30.14,1.31-39.84,4.36-14.15,4.45-25.17,12.28-35.73,19.86-11.71,1.9-23.15,5.41-31.88,9.85-.3.15-.56.48-.68.75l-2.62,5.77-1.54,1.52c-.5.5-.71,1.07-.78,1.64l-.67,6.22c-.4.49-.79.97-1.19,1.46-.18.21-.29.48-.31.82l.17,2.57c.05.82.55,1.99,1.46,1.99h.72l.14,4.98c-.69,0-1.08.47-1.08,1.11v3.09c0,.67.36,1.09,1.09,1.09h76.17c2.38-.32,2.06-4.87,3.12-11.07,1.39-8.12,6.32-16.41,14.13-16.41,9.41,0,13.73,12.12,13.73,19.96,0,2.27-.33,4.44-.94,6.44-.19.64.16,1.09.65,1.09h61.77c2.38-.32,2.06-4.87,3.12-11.07,1.39-8.12,6.32-16.41,14.13-16.41,9.41,0,13.73,12.12,13.73,19.96,0,.93-.06,1.85-.16,2.74-.11.9.24,1.02.64.92l3.1-.84c.68-.18,1.12-.47,1.59-.97l1.39-1.46c.36-.38.7-1.03.7-1.96v-3.61s1.08-3.62,1.08-3.62c.22-.74.33-1.51.39-2.32l.16-2c.07-.86-.14-1.59-.42-2.22l-1.19-2.67-.78-4.58.52-.85c.2-.33.32-.71.21-1.12l-1.07-4.09c-.07-.28-.28-.45-.53-.59l-1.09-.6c-.57-1.69-1.34-3.34-2.53-4.94-.2-.27-.56-.5-.91-.61Z"/>
        <path class="cls-4" d="m210.96,95.54c-4.06-1.21-8.3-2.15-12.67-2.87-6.91-4.67-13.48-9.9-20.74-14.02-3.68-2.09-7.7-3.76-11.87-4.5-14.99-2.66-28.79-3.04-42.7-2.77-13.6.26-30.14,1.31-39.84,4.36-14.15,4.45-25.17,12.28-35.73,19.86-5.76.93-11.46,2.26-16.79,3.89h183.17c-.49-1.14-1.11-2.25-1.92-3.34-.2-.27-.56-.5-.91-.61Z"/>
        <path class="cls-4" d="m12.32,111.75l-.1.21-1.54,1.52c-.5.5-.71,1.07-.78,1.64l-.67,6.22c-.4.49-.79.97-1.19,1.46-.18.21-.29.48-.31.82l.17,2.57c.05.82.55,1.99,1.46,1.99h.72l.14,4.98c-.69,0-1.08.47-1.08,1.11v3.09c0,.67.36,1.09,1.09,1.09h71.48c-12.56-9.5-7.96-22.61-.06-28.59,6.03-4.57-7.81-3.73-24.21-1.85-17.19,1.97-37.31,5.07-45.13,3.73Z"/>
        <path class="cls-10" d="m177.54,138.46h1.34c2.38-.32,2.06-4.87,3.12-11.07,1.39-8.12,6.32-16.41,14.13-16.41,9.41,0,13.73,12.12,13.73,19.96,0,.93-.06,1.85-.16,2.74-.11.9.24,1.02.64.92l1.9-.51c.15-1.13.24-2.3.24-3.49,0-10.4-5.9-22.52-16.56-22.52s-15.09,9.35-16.66,18.51c-.98,5.77-.42,10.27-1.7,11.88Z"/>
        <path class="cls-10" d="m85,138.46h1.42c2.38-.32,2.06-4.87,3.12-11.07,1.39-8.12,6.32-16.41,14.13-16.41,9.41,0,13.73,12.12,13.73,19.96,0,2.27-.33,4.44-.94,6.44-.19.64.16,1.09.65,1.09h1.72c-.04-.18-.03-.38.04-.61.68-2.25,1.05-4.7,1.05-7.26,0-10.4-5.9-22.52-16.56-22.52s-15.09,9.35-16.66,18.51c-.98,5.77-.42,10.27-1.7,11.88Z"/>
        <path class="cls-10" d="m210.96,95.54c-4.06-1.21-8.3-2.15-12.67-2.87l-10.78,3.05h-73.78s-6.39-.2-6.39-.2l3.88-1.5,2.14-2.03,12.48-13.21c1.21-1.21,2.83-2.86,6.58-3.88,7.04-1.93,21.39-1.76,37.44.29h0c-1.37-.44-2.75-.8-4.16-1.05-14.99-2.66-28.79-3.04-42.7-2.77h-.64s-.64.03-.64.03h0c-10.54.24-22.64.96-31.88,2.71h0c-.38.07-.75.14-1.12.22h0s-.55.11-.55.11h0s-.54.12-.54.12h0s-.53.12-.53.12h0s-.52.12-.52.12h0s-.51.12-.51.12c-.17.04-.34.08-.51.13l-.5.13-.49.13-.48.14c-.16.05-.31.09-.47.14-.15.05-.31.09-.46.14-14.15,4.45-25.17,12.28-35.73,19.86-4.11.72-8.15,1.57-12.1,2.58-7.29,1.93-14.16,4.45-19.81,7.28h-.01s0,.01,0,.01h0s0,0,0,0h0s0,0,0,0h0s0,0,0,0h0s0,0,0,0h0s0,0,0,0h0s0,0,0,0h0s0,0,0,0h0s0,0,0,0h0s0,0,0,0h0s0,0,0,0h0s0,0,0,0h0s0,0,0,0h0s0,0,0,0h0s0,0,0,0h0s0,0,0,0h0s0,0,0,0h0s0,0,0,0h0s0,0,0,0h0s0,0,0,0h0s0,0,0,0h0s0,0,0,0h0s0,0,0,0h0s0,0,0,0h0s0,0,0,0h0s0,0,0,0h0s0,0,0,0h0s0,0,0,0h0s0,0,0,0h0s0,0,0,0h0s0,0,0,0h0s0,0,0,0h0s0,0,0,0h0s0,0,0,0h0s0,0,0,0h0s0,0,0,0h0s0,0,0,0h0s0,0,0,0h0s0,0,0,0h0s0,0,0,0h0s0,0,0,0h0s0,0,0,0h0s0,0,0,0l1.43,1.92h3.09s45.65.45,45.65.45l18.39-2.34c4.99-2.19,23.19-5.75,32.63-5.66l98.03.99c-.57-1.69-1.34-3.34-2.53-4.94l-.02-.03h-.01s0-.02,0-.02h0s-.01-.02-.01-.02h0s0-.01,0-.01h0s-.03-.03-.03-.03h0s-.01-.01-.01-.01h0s-.01-.01-.01-.01h0s0-.01,0-.01h-.01s0-.02,0-.02h0s0,0,0,0h0s0-.01,0-.01h0s0,0,0,0h0s0,0,0,0h0s0,0,0,0h0s0,0,0,0h0s0,0,0,0h0s0,0,0,0h0s0,0,0,0h0s0,0,0,0h0s0,0,0,0h0s0-.01,0-.01h0s0,0,0,0h0s0-.01,0-.01h0s0,0,0,0h0s0-.01,0-.01h0s0,0,0,0h0s0,0,0,0h0s0,0,0,0h0s0,0,0,0h0s0,0,0,0h0s0,0,0,0h0s0,0,0,0h0s0,0,0,0h0s0,0,0,0h0s0,0,0,0h0s0,0,0,0h0s0,0,0,0h0s0,0,0,0h0s0,0,0,0h0s0,0,0,0h0s0,0,0,0h0s0,0,0,0h0s0,0,0,0h0s0,0,0,0h0s0,0,0,0h0s0,0,0,0h0s0,0,0,0h0s0,0,0,0h0s0,0,0,0h-.02s0-.01,0-.01h0s0,0,0,0h0s0,0,0,0h0s0,0,0,0h0s0,0,0,0h0s0,0,0,0h0s0,0,0,0h-.01s0,0,0,0h-.02s0,0,0,0h0s0,0,0,0h0c-.06-.03-.12-.05-.19-.07h0s0,0,0,0h0s-.02,0-.02,0h-.02Z"/>
        <path class="cls-7" d="m83.99,75.48c-.29.08-.57.17-.85.26-14.15,4.45-25.17,12.28-35.73,19.86h51.42c4.54,0,9.03-1.01,11.8-3.89l14.69-15.29c.4-.41.23-.94-.46-.94h-40.88Z"/>
        <path class="cls-11" d="m49.54,94.51h49.3c3.75,0,8.3-.73,11.02-3.56l13.84-14.4h-41.91c-12.07,4.06-22,10.65-32.24,17.96Z"/>
        <path class="cls-5" d="m216.35,108.33l.52-.85c.2-.33.32-.7.22-1.1l-1.07-4.11c-.08-.28-.25-.46-.51-.58l-1.11-.61-3.37-.05c-.65,0-.88.63-.44,1.13l5.26,5.97c.12.14.32.21.51.2Z"/>
        <path class="cls-10" d="m12.22,111.96l3.27,3.12c.95.6,3.01.82,4.44.78h32.85c2.46,0,2.31.15,4.44-.22l23.03-4.07-20.64,7.38c-1.27.41-2.59.66-3.97.65l-38.59-.14c-1.08,0-1.94-.45-2.64-1.12l-4.26-4.11h0s0-.01,0-.01h0s0-.02,0-.02h0s0-.01,0-.01h0s0-.02,0-.02h0s0-.02,0-.02h0s0-.01,0-.01h0s0-.02,0-.02l.02-.04h0s0-.01,0-.01h0s0-.02,0-.02h0s0-.01,0-.01h0s0-.02,0-.02h0s0-.02,0-.02h0s0-.01,0-.01h0s0-.02,0-.02h0s0-.01,0-.01h0s0-.01,0-.01h0s0-.02,0-.02h0s0-.01,0-.01h0s0-.02,0-.02h0s0-.02,0-.02h0s0-.01,0-.01h0s0-.02,0-.02h0s0-.02,0-.02h0s0-.01,0-.01h0s0-.02,0-.02h0s0-.02,0-.02h0s0-.01,0-.01h0s0-.02,0-.02h0s0-.02,0-.02h0s0-.01,0-.01h0s0-.02,0-.02h0s0-.01,0-.01h0s0-.01,0-.01h0s0-.02,0-.02h0s0-.01,0-.01h0s0-.01,0-.01h0s.01-.02.01-.02h0s0-.01,0-.01h.01s0-.02,0-.02h0s.01-.02.01-.02h0s0-.01,0-.01h.01s0-.02,0-.02h0s.01-.01.01-.01h.01s.02-.03.02-.03l1.54-1.52h0Zm1.51,14.22l-5.9-2.99c.05-.13.12-.25.2-.36h0s0-.02,0-.02h0s.02-.03.02-.03l.02-.02.02-.02.02-.02.02-.02.02-.02.02-.02.02-.02.02-.02.02-.02.02-.02.02-.02.02-.02.02-.02.02-.02.02-.02.02-.02.02-.02.02-.02.02-.02.02-.02.02-.02.02-.02.02-.02.02-.02.02-.02.02-.02.02-.02.02-.02.02-.02.02-.02.02-.02.02-.02.02-.02.02-.02.02-.02.02-.02.02-.02.02-.02.02-.02.02-.02.02-.02.02-.02.02-.02.02-.02.02-.02.02-.02.02-.02.02-.02.02-.02.02-.02.02-.02.02-.02.02-.02.02-.02.02-.02.02-.02.02-.02.02-.02.02-.02.02-.02.02-.02.02-.02.02-.02,4.49,4.84Z"/>
        <path class="cls-7" d="m10.1,129.99l.14,4.98c.86,0,1.72,0,2.58,0,.34,0,.66-.19.7-.62l.34-3.64c.05-.49-.25-.72-.63-.72h-3.14Z"/>
        <path class="cls-6" d="m19.46,107.65h36.24c.43,0,.75.49.47.93l-4.11,6.31c-.31.51-1.07.97-1.82.97h-22.77s-8.6,0-8.6,0c-.28,0-.6-.34-.58-.63l.6-7.05c.03-.35.26-.55.57-.55Z"/>
        <path class="cls-7" d="m21.4,107.65h34.3c.43,0,.75.49.47.93l-4.11,6.31c-.31.51-1.07.97-1.82.97h-20.82s-1.95,0-1.95,0h-6.65c-.28,0-.6-.34-.58-.63l.6-7.05c.03-.34.25-.54.55-.55Z"/>
        <path class="cls-6" d="m17.42,128.91h35.16c.72,0,1.57.4,1.96.81l4.79,4.97c.36.37.14,1-.46,1H16.35c-.44,0-.71-.35-.65-.74l.87-5.42c.05-.32.36-.62.84-.62Z"/>
        <path class="cls-7" d="m19.44,128.91h33.14c.72,0,1.57.4,1.96.81l4.79,4.97c.36.37.14,1-.46,1H18.38s-.02,0-.02,0c-.43-.01-.69-.36-.63-.74l.87-5.42c.05-.32.36-.62.84-.62Z"/>
        <path class="cls-6" d="m61.74,129.99h7.22c.8,0,1.49.35,1.98.89l2.71,3c.39.43.18,1.09-.48,1.09h-6.84c-.82,0-1.67-.4-2.04-.8l-2.99-3.18c-.4-.42-.19-1,.44-1Z"/>
        <path class="cls-7" d="m63.76,129.99h5.19c.8,0,1.49.35,1.98.89l2.71,3c.39.43.18,1.09-.48,1.09h-4.82c-.82,0-1.67-.4-2.04-.8l-2.99-3.18c-.4-.42-.19-1,.44-1Z"/>
        <path class="cls-2" d="m15.17,105.72c-.14.15-.25.32-.32.47-1.11,1.79-1.94,3.74-2.62,5.77l3.08,3.02c.46.33.9.1.95-.42l.62-6.47c.04-.44-.2-.68-.54-1.07l-1.16-1.3Z"/>
        <rect class="cls-12" x="30.31" y="110.7" width="6.68" height="2.11" rx="1.05" ry="1.05"/>
        <rect class="cls-14" x="29.26" y="110.7" width="6.68" height="2.11" rx="1.05" ry="1.05"/>
        <rect class="cls-18" x="149.79" y="102.52" width="7.1" height="2.16" rx="1.08" ry="1.08"/>
        <rect class="cls-18" x="180.34" y="102.52" width="7.1" height="2.16" rx="1.08" ry="1.08"/>
        <polygon class="cls-6" points="17.33 131.43 56.19 131.43 57.85 133.16 17.33 133.16 17.33 131.43"/>
        <polygon class="cls-6" points="63.06 131.43 71.43 131.43 73.1 133.16 64.45 133.16 63.06 131.43"/>
        <path class="cls-6" d="m10.18,131.43h3.6s-.16,1.73-.16,1.73h-3.45c-.9,0-.92-1.73,0-1.73Z"/>
        <path class="cls-10" d="m178.75,116.93l-6.45,7.66c-3.67,3.4-8.53,5.32-14.44,5.94l-32.79,2.24c-4.44.41.31-2.54,11.48-4.18,14.81-2.17,26.41-4.62,35.2-10.2,5.95-3.91,9.7-4.44,7-1.46Z"/>
        <path class="cls-2" d="m83.08,105.21l-21.12,2.34c-.54.06-.99.38-1.21.73l-4.04,6.45c-.3.47.1.99.56.91l22.98-4.07c.4-.09.83-.37,1.03-.79l2.38-4.71c.19-.38-.1-.9-.58-.85Z"/>
        <path class="cls-7" d="m114.67,95.71h72.83s2.67-.75,2.67-.75c.44,0,.55-.48.39-.71-2.91-4.29-16.06-14.76-21.63-16.19-6.99-1.8-14.48-2.48-21.56-2.68-4.8-.14-11.36.14-16.13,2.32-4.41,2.02-11.72,10.51-16.93,17.27-.25.33-.1.74.37.74Z"/>
        <path class="cls-1" d="m115.93,94.63c3.81-4.88,11.23-13.89,15.75-15.95,4.19-1.92,9.89-2.31,14.6-2.25l.02.06.07.22.04.14.04.14.07.22.02.06.09.29h0s.08.28.08.28l.03.09.06.19.05.17.03.11.07.25v.03s.09.28.09.28v.04s.08.24.08.24l.04.12.05.16.06.2.02.08.08.28h0s.08.29.08.29l.02.07.06.21.04.15.04.13.06.23v.05s.09.28.09.28v.03s.08.26.08.26l.03.1.05.18.05.18.03.1.07.26v.02s.08.28.08.28v.06s.07.23.07.23l.03.13.04.15.14.56h0s.07.28.07.28l.02.08.05.2.04.16.03.12.06.24v.04s.08.28.08.28v.04s.07.24.07.24l.03.11.04.17.07.28.06.27h0s.06.29.06.29l.02.07.05.22.03.14.03.14.05.22v.06s.08.28.08.28v.02s.06.26.06.26l.06.26v.03s.04.18.04.18l.02.11.12.57v.05s.06.24.06.24l.03.13.03.16.04.21.02.08.06.29h0l.05.29.02.08.04.21.03.16.02.13.04.24v.05s.06.29.06.29v.03s.05.26.05.26l.04.26v.03s.04.19.04.19l.02.1.05.27v.02s.05.29.05.29v.06s.05.23.05.23l.05.29.03.22v.07s.05.29.05.29h-34.66Zm39.73,0c-.89-6.24-2.32-12-4.13-18,5.76.33,11.56,1.04,17.11,2.47,1.02.26,2.37.89,3.89,1.75,2.8,4.53,5.15,8.92,7.19,13.79h-24.07Zm31.68,0l1.78-.5c-2.36-2.93-7.98-7.65-13.01-11.05.75,1.31,1.47,2.62,2.16,3.94,1.31,2.52,2.47,5.06,3.48,7.61h5.6Z"/>
        <path class="cls-7" d="m13.39,147.83c-.62,0-1.14.51-1.14,1.14h0c0,.62.53,1.14,1.14,1.14h198.7c.6,0,1.14-.51,1.14-1.14h0c0-.62-.51-1.14-1.14-1.14H13.39Zm-12.26,0c-.62,0-1.14.51-1.14,1.14h0c0,.62.53,1.14,1.14,1.14h4.63c.6,0,1.14-.51,1.14-1.14h0c0-.62-.51-1.14-1.14-1.14H1.14Zm217.23,1.14h0c0,.62.53,1.14,1.14,1.14h5.04c.6,0,1.14-.51,1.14-1.14h0c0-.62-.51-1.14-1.14-1.14h-5.04c-.62,0-1.14.51-1.14,1.14Z"/>
      </g>
    </g>
    <g>
      <polygon class="cls-7" points="292.94 149.09 186.9 149.09 159.85 145.24 155.6 145.25 152.79 136.01 153.24 118.7 292.94 118.7 292.94 149.09"/>
      <path class="cls-7" d="m236.42,124.12h7.5c6.37,0,11.53,7.96,11.53,17.79s-5.16,17.79-11.53,17.79h-7.5c-6.37,0-11.53-7.96-11.53-17.79s5.16-17.79,11.53-17.79h0Zm92.57,35.58c-6.37,0-11.53-7.96-11.53-17.79s5.16-17.79,11.53-17.79h7.5c6.37,0,11.53,7.96,11.53,17.79s-5.16,17.79-11.53,17.79h-7.5Z"/>
      <path class="cls-7" d="m262.17,159.7h7.5c6.37,0,11.53-7.96,11.53-17.79s-5.16-17.79-11.53-17.79h-7.5c-6.93,0-7.16,35.58,0,35.58Z"/>
      <ellipse class="cls-17" cx="262.17" cy="141.91" rx="11.53" ry="17.79"/>
      <ellipse class="cls-13" cx="262.17" cy="141.91" rx="8.5" ry="13.12"/>
      <ellipse class="cls-15" cx="262.17" cy="141.91" rx="7.29" ry="11.25"/>
      <path class="cls-7" d="m263.58,152.95c3.35-1.01,5.88-5.57,5.88-11.04s-2.53-10.03-5.88-11.04c-3.35,1.01-5.88,5.57-5.88,11.04s2.53,10.03,5.88,11.04Z"/>
      <path class="cls-6" d="m263.68,152.92c1.95-.63,3.61-2.46,4.64-4.97-.48-.55-.75-1.68-.12-3.36.39-1.03.82-1.5,1.23-1.63.02-.35.03-.7.03-1.05s-.01-.71-.03-1.06c-.41-.13-.84-.6-1.23-1.63-.63-1.68-.36-2.81.12-3.36-1.04-2.51-2.7-4.34-4.64-4.97-3.3,1.07-5.78,5.6-5.78,11.01s2.48,9.94,5.78,11.01h0Zm1.51-16.39c-2.37,0-2.04-3.29-1.23-3.55.82-.27,1.65-.28,2.47,0,.81.27,1.13,3.55-1.24,3.55h0Zm-3.02,2.69c-1.19,3.17-2.86,1.08-2.61-.13.26-1.24.67-2.34,1.24-3.3.56-.94,2.56.27,1.38,3.43h0Zm0,5.38c1.18,3.17-.83,4.37-1.38,3.43-.56-.96-.98-2.06-1.24-3.3-.25-1.21,1.43-3.29,2.61-.13h0Zm3.02,2.69c2.37,0,2.04,3.29,1.24,3.55-.82.27-1.65.28-2.47,0-.81-.27-1.13-3.55,1.24-3.55Z"/>
      <path class="cls-2" d="m263.14,153.06c2.08-.43,3.89-2.21,5.03-4.76-.75.25-2.04-1.03-1.04-3.71.77-2.06,1.74-1.9,2.27-1.2.04-.49.06-.98.06-1.48s-.02-1-.06-1.48c-.52.69-1.5.85-2.27-1.2-1-2.68.29-3.95,1.04-3.71-1.14-2.54-2.95-4.33-5.03-4.76-3.57.73-6.32,5.45-6.32,11.15s2.75,10.42,6.32,11.15h0Zm.97-16.53c-2.37,0-2.04-3.29-1.23-3.55.82-.27,1.65-.28,2.47,0,.81.27,1.13,3.55-1.24,3.55h0Zm-3.02,2.69c-1.19,3.17-2.86,1.08-2.61-.13.26-1.24.67-2.34,1.24-3.3.56-.94,2.56.27,1.38,3.43h0Zm0,5.38c1.18,3.17-.83,4.37-1.38,3.43-.56-.96-.98-2.06-1.24-3.3-.25-1.21,1.43-3.29,2.61-.13h0Zm3.02,2.69c2.37,0,2.04,3.29,1.24,3.55-.82.27-1.65.28-2.47,0-.81-.27-1.13-3.55,1.24-3.55Z"/>
      <path class="cls-3" d="m264.19,138.78c-1.17,0-2.11,1.46-2.11,3.26s.95,3.26,2.11,3.26,2.11-1.46,2.11-3.26-.95-3.26-2.11-3.26Z"/>
      <path class="cls-7" d="m169.6,159.7h7.5c6.37,0,11.53-7.96,11.53-17.79s-5.16-17.79-11.53-17.79h-7.5c-6.93,0-7.16,35.58,0,35.58Z"/>
      <ellipse class="cls-17" cx="169.6" cy="141.91" rx="11.53" ry="17.79"/>
      <ellipse class="cls-13" cx="169.6" cy="141.91" rx="8.5" ry="13.12"/>
      <ellipse class="cls-15" cx="169.6" cy="141.91" rx="7.29" ry="11.25"/>
      <path class="cls-7" d="m171.01,152.95c3.35-1.01,5.88-5.57,5.88-11.04s-2.53-10.03-5.88-11.04c-3.35,1.01-5.88,5.57-5.88,11.04s2.53,10.03,5.88,11.04Z"/>
      <path class="cls-6" d="m171.11,152.92c1.95-.63,3.61-2.46,4.64-4.97-.48-.55-.75-1.68-.12-3.36.39-1.03.82-1.5,1.23-1.63.02-.35.03-.7.03-1.05s-.01-.71-.03-1.06c-.41-.13-.84-.6-1.23-1.63-.63-1.68-.36-2.81.12-3.36-1.04-2.51-2.7-4.34-4.64-4.97-3.3,1.07-5.78,5.6-5.78,11.01s2.48,9.94,5.78,11.01h0Zm1.51-16.39c-2.37,0-2.04-3.29-1.23-3.55.82-.27,1.65-.28,2.47,0,.81.27,1.13,3.55-1.24,3.55h0Zm-3.02,2.69c-1.19,3.17-2.86,1.08-2.61-.13.26-1.24.67-2.34,1.24-3.3.56-.94,2.56.27,1.38,3.43h0Zm0,5.38c1.18,3.17-.83,4.37-1.38,3.43-.56-.96-.98-2.06-1.24-3.3-.25-1.21,1.43-3.29,2.61-.13h0Zm3.02,2.69c2.37,0,2.04,3.29,1.24,3.55-.82.27-1.65.28-2.47,0-.81-.27-1.13-3.55,1.24-3.55Z"/>
      <path class="cls-2" d="m170.57,153.06c2.08-.43,3.89-2.21,5.03-4.76-.75.25-2.04-1.03-1.04-3.71.77-2.06,1.74-1.9,2.27-1.2.04-.49.06-.98.06-1.48s-.02-1-.06-1.48c-.52.69-1.5.85-2.27-1.2-1-2.68.29-3.95,1.04-3.71-1.14-2.54-2.95-4.33-5.03-4.76-3.57.73-6.32,5.45-6.32,11.15s2.75,10.42,6.32,11.15h0Zm.97-16.53c-2.37,0-2.04-3.29-1.23-3.55.82-.27,1.65-.28,2.47,0,.81.27,1.13,3.55-1.24,3.55h0Zm-3.02,2.69c-1.19,3.17-2.86,1.08-2.61-.13.26-1.24.67-2.34,1.24-3.3.56-.94,2.56.27,1.38,3.43h0Zm0,5.38c1.18,3.17-.83,4.37-1.38,3.43-.56-.96-.98-2.06-1.24-3.3-.25-1.21,1.43-3.29,2.61-.13h0Zm3.02,2.69c2.37,0,2.04,3.29,1.24,3.55-.82.27-1.65.28-2.47,0-.81-.27-1.13-3.55,1.24-3.55Z"/>
      <path class="cls-3" d="m171.61,138.78c-1.17,0-2.11,1.46-2.11,3.26s.95,3.26,2.11,3.26,2.11-1.46,2.11-3.26-.95-3.26-2.11-3.26Z"/>
      <path class="cls-4" d="m154.81,106.18c4.06-1.21,8.3-2.15,12.67-2.87,6.91-4.67,13.48-9.9,20.74-14.02,3.68-2.09,7.7-3.76,11.87-4.5,14.99-2.66,28.79-3.04,42.7-2.77,13.6.26,30.14,1.31,39.84,4.36,14.15,4.45,25.17,12.28,35.73,19.86,11.71,1.9,23.15,5.41,31.88,9.85.3.15.56.48.68.75l2.62,5.77,1.54,1.52c.5.5.71,1.07.78,1.64l.67,6.22c.4.49.79.97,1.19,1.46.18.21.29.48.31.82l-.17,2.57c-.05.82-.55,1.99-1.46,1.99h-.72l-.14,4.98c.69,0,1.08.47,1.08,1.11v3.09c0,.67-.36,1.09-1.09,1.09h-76.17c-2.38-.32-2.06-4.87-3.12-11.07-1.39-8.12-6.32-16.41-14.13-16.41-9.41,0-13.73,12.12-13.73,19.96,0,2.27.33,4.44.94,6.44.19.64-.16,1.09-.65,1.09h-61.77c-2.38-.32-2.06-4.87-3.12-11.07-1.39-8.12-6.32-16.41-14.13-16.41-9.41,0-13.73,12.12-13.73,19.96,0,.93.06,1.85.16,2.74.11.9-.24,1.02-.64.92l-3.1-.84c-.68-.18-1.12-.47-1.59-.97l-1.39-1.46c-.36-.38-.7-1.03-.7-1.96v-3.61s-1.08-3.62-1.08-3.62c-.22-.74-.33-1.51-.39-2.32l-.16-2c-.07-.86.14-1.59.42-2.22l1.19-2.67.78-4.58-.52-.85c-.2-.33-.32-.71-.21-1.12l1.07-4.09c.07-.28.28-.45.53-.59l1.09-.6c.57-1.69,1.34-3.34,2.53-4.94.2-.27.56-.5.91-.61Z"/>
      <path class="cls-4" d="m154.81,106.18c4.06-1.21,8.3-2.15,12.67-2.87,6.91-4.67,13.48-9.9,20.74-14.02,3.68-2.09,7.7-3.76,11.87-4.5,14.99-2.66,28.79-3.04,42.7-2.77,13.6.26,30.14,1.31,39.84,4.36,14.15,4.45,25.17,12.28,35.73,19.86,5.76.93,11.46,2.26,16.79,3.89h-183.17c.49-1.14,1.11-2.25,1.92-3.34.2-.27.56-.5.91-.61Z"/>
      <path class="cls-4" d="m353.45,122.38l.1.21,1.54,1.52c.5.5.71,1.07.78,1.64l.67,6.22c.4.49.79.97,1.19,1.46.18.21.29.48.31.82l-.17,2.57c-.05.82-.55,1.99-1.46,1.99h-.72l-.14,4.98c.69,0,1.08.47,1.08,1.11v3.09c0,.67-.36,1.09-1.09,1.09h-71.48c12.56-9.5,7.96-22.61.06-28.59-6.03-4.57,7.81-3.73,24.21-1.85,17.19,1.97,37.31,5.07,45.13,3.73Z"/>
      <path class="cls-10" d="m188.23,149.09h-1.34c-2.38-.32-2.06-4.87-3.12-11.07-1.39-8.12-6.32-16.41-14.13-16.41-9.41,0-13.73,12.12-13.73,19.96,0,.93.06,1.85.16,2.74.11.9-.24,1.02-.64.92l-1.9-.51c-.15-1.13-.24-2.3-.24-3.49,0-10.4,5.9-22.52,16.56-22.52s15.09,9.35,16.66,18.51c.98,5.77.42,10.27,1.7,11.88Z"/>
      <path class="cls-10" d="m280.78,149.09h-1.42c-2.38-.32-2.06-4.87-3.12-11.07-1.39-8.12-6.32-16.41-14.13-16.41-9.41,0-13.73,12.12-13.73,19.96,0,2.27.33,4.44.94,6.44.19.64-.16,1.09-.65,1.09h-1.72c.04-.18.03-.38-.04-.61-.68-2.25-1.05-4.7-1.05-7.26,0-10.4,5.9-22.52,16.56-22.52s15.09,9.35,16.66,18.51c.98,5.77.42,10.27,1.7,11.88Z"/>
      <path class="cls-10" d="m154.81,106.18c4.06-1.21,8.3-2.15,12.67-2.87l10.78,3.05h73.78l6.39-.2-3.88-1.5-2.14-2.03-12.48-13.21c-1.21-1.21-2.83-2.86-6.58-3.88-7.04-1.93-21.39-1.76-37.44.29h0c1.37-.44,2.75-.8,4.16-1.05,14.99-2.66,28.79-3.04,42.7-2.77h.64s.64.03.64.03h0c10.54.24,22.64.96,31.88,2.71h0c.38.07.75.14,1.12.22h0s.55.11.55.11h0s.54.12.54.12h0s.53.12.53.12h0s.52.12.52.12h0s.51.12.51.12c.17.04.34.08.51.13l.5.13.49.13.48.14c.16.05.31.09.47.14.15.05.31.09.46.14,14.15,4.45,25.17,12.28,35.73,19.86,4.11.72,8.15,1.57,12.1,2.58,7.29,1.93,14.16,4.45,19.81,7.28h.01s0,.01,0,.01h0s0,0,0,0h0s0,0,0,0h0s0,0,0,0h0s0,0,0,0h0s0,0,0,0h0s0,0,0,0h0s0,0,0,0h0s0,0,0,0h0s0,0,0,0h0s0,0,0,0h0s0,0,0,0h0s0,0,0,0h0s0,0,0,0h0s0,0,0,0h0s0,0,0,0h0s0,0,0,0h0s0,0,0,0h0s0,0,0,0h0s0,0,0,0h0s0,0,0,0h0s0,0,0,0h0s0,0,0,0h0s0,0,0,0h0s0,0,0,0h0s0,0,0,0h0s0,0,0,0h0s0,0,0,0h0s0,0,0,0h0s0,0,0,0h0s0,0,0,0h0s0,0,0,0h0s0,0,0,0h0s0,0,0,0h0s0,0,0,0h0s0,0,0,0h0s0,0,0,0h0s0,0,0,0h0s0,0,0,0h0s0,0,0,0h0s0,0,0,0h0s0,0,0,0h0s0,0,0,0l-1.43,1.92h-3.09s-45.65.45-45.65.45l-18.39-2.34c-4.99-2.19-23.19-5.75-32.63-5.66l-98.03.99c.57-1.69,1.34-3.34,2.53-4.94l.02-.03h.01s0-.02,0-.02h0s.01-.02.01-.02h0s0-.01,0-.01h0s.03-.03.03-.03h0s.01-.01.01-.01h0s.01-.01.01-.01h0s0-.01,0-.01h.01s0-.02,0-.02h0s0,0,0,0h0s0-.01,0-.01h0s0,0,0,0h0s0,0,0,0h0s0,0,0,0h0s0,0,0,0h0s0,0,0,0h0s0,0,0,0h0s0,0,0,0h0s0,0,0,0h0s0,0,0,0h0s0-.01,0-.01h0s0,0,0,0h0s0-.01,0-.01h0s0,0,0,0h0s0-.01,0-.01h0s0,0,0,0h0s0,0,0,0h0s0,0,0,0h0s0,0,0,0h0s0,0,0,0h0s0,0,0,0h0s0,0,0,0h0s0,0,0,0h0s0,0,0,0h0s0,0,0,0h0s0,0,0,0h0s0,0,0,0h0s0,0,0,0h0s0,0,0,0h0s0,0,0,0h0s0,0,0,0h0s0,0,0,0h0s0,0,0,0h0s0,0,0,0h0s0,0,0,0h0s0,0,0,0h0s0,0,0,0h0s0,0,0,0h0s0,0,0,0h.02s0-.01,0-.01h0s0,0,0,0h0s0,0,0,0h0s0,0,0,0h0s0,0,0,0h0s0,0,0,0h0s0,0,0,0h.01s0,0,0,0h.02s0,0,0,0h0s0,0,0,0h0c.06-.03.12-.05.19-.07h0s0,0,0,0h0s.02,0,.02,0h.02Z"/>
      <path class="cls-7" d="m281.78,86.11c.29.08.57.17.85.26,14.15,4.45,25.17,12.28,35.73,19.86h-51.42c-4.54,0-9.03-1.01-11.8-3.89l-14.69-15.29c-.4-.41-.23-.94.46-.94h40.88Z"/>
      <path class="cls-9" d="m316.23,105.15h-49.3c-3.75,0-8.3-.73-11.02-3.56l-13.84-14.4h41.91c12.07,4.06,22,10.65,32.24,17.96Z"/>
      <path class="cls-5" d="m149.42,118.97l-.52-.85c-.2-.33-.32-.7-.22-1.1l1.07-4.11c.08-.28.25-.46.51-.58l1.11-.61,3.37-.05c.65,0,.88.63.44,1.13l-5.26,5.97c-.12.14-.32.21-.51.2Z"/>
      <path class="cls-10" d="m353.55,122.59l1.54,1.52.02.02h.01s.01.02.01.02h0s0,.01,0,.01h.01s0,.01,0,.01h0s.01.02.01.02h0s0,.01,0,.01h.01s0,.02,0,.02h0s.01.01.01.01h0s0,.01,0,.01h0s0,.02,0,.02h0s0,.01,0,.01h0s0,.01,0,.01h0s0,.02,0,.02h0s0,.01,0,.01h0s0,.02,0,.02h0s0,.02,0,.02h0s0,.01,0,.01h0s0,.02,0,.02h0s0,.01,0,.01h0s0,.01,0,.01h0s0,.02,0,.02h0s0,.01,0,.01h0s0,.02,0,.02h0s0,.02,0,.02h0s0,.01,0,.01h0s0,.02,0,.02h0s0,.02,0,.02h0s0,.01,0,.01h0s0,.02,0,.02h0s0,.01,0,.01h0s0,.01,0,.01h0s0,.02,0,.02h0s0,.01,0,.01h0s0,.02,0,.02h0s0,.02,0,.02h0s0,.01,0,.01h0s0,.02,0,.02h0s0,.01,0,.01l.02.04h0s0,.02,0,.02h0s0,.01,0,.01h0s0,.02,0,.02h0s0,.02,0,.02h0s0,.01,0,.01h0s0,.02,0,.02h0s0,.01,0,.01l-4.26,4.11c-.7.67-1.55,1.12-2.64,1.12l-38.59.14c-1.38,0-2.7-.24-3.97-.65l-20.64-7.38,23.03,4.07c2.13.38,1.97.22,4.44.22h32.85c1.43.03,3.49-.18,4.44-.78l3.27-3.12h0Zm2.98,9.39l.02.02.02.02.02.02.02.02.02.02.02.02.02.02.02.02.02.02.02.02.02.02.02.02.02.02.02.02.02.02.02.02.02.02.02.02.02.02.02.02.02.02.02.02.02.02.02.02.02.02.02.02.02.02.02.02.02.02.02.02.02.02.02.02.02.02.02.02.02.02.02.02.02.02.02.02.02.02.02.02.02.02.02.02.02.02.02.02.02.02.02.02.02.02.02.02.02.02.02.02.02.02.02.02.02.02.02.02.02.02.02.02.02.02.02.02.02.02.02.02.02.02.02.02.02.02.02.02h0s0,.02,0,.02h0c.08.12.15.23.2.37l-5.9,2.99,4.49-4.84Z"/>
      <path class="cls-7" d="m355.68,140.62l-.14,4.98c-.86,0-1.72,0-2.58,0-.34,0-.66-.19-.7-.62l-.34-3.64c-.05-.49.25-.72.63-.72h3.14Z"/>
      <path class="cls-6" d="m346.31,118.28h-36.24c-.43,0-.75.49-.47.93l4.11,6.31c.31.51,1.07.97,1.82.97h31.37c.28,0,.6-.34.58-.63l-.6-7.05c-.03-.35-.26-.55-.57-.55Z"/>
      <path class="cls-7" d="m344.37,118.28h-34.3c-.43,0-.75.49-.47.93l4.11,6.31c.31.51,1.07.97,1.82.97h29.42c.28,0,.6-.34.58-.63l-.6-7.05c-.03-.34-.25-.54-.55-.55Z"/>
      <path class="cls-6" d="m348.36,139.54h-35.16c-.72,0-1.57.4-1.96.81l-4.79,4.97c-.36.37-.14,1,.46,1h42.51c.44,0,.71-.35.65-.74l-.87-5.42c-.05-.32-.36-.62-.84-.62Z"/>
      <path class="cls-7" d="m346.33,139.54h-33.14c-.72,0-1.57.4-1.96.81l-4.79,4.97c-.36.37-.14,1,.46,1h40.48s.02,0,.02,0c.43-.01.69-.36.63-.74l-.87-5.42c-.05-.32-.36-.62-.84-.62Z"/>
      <path class="cls-6" d="m304.04,140.62h-7.22c-.8,0-1.49.35-1.98.89l-2.71,3c-.39.43-.18,1.09.48,1.09h6.84c.82,0,1.67-.4,2.04-.8l2.99-3.18c.4-.42.19-1-.44-1Z"/>
      <path class="cls-7" d="m302.01,140.62h-5.19c-.8,0-1.49.35-1.98.89l-2.71,3c-.39.43-.18,1.09.48,1.09h4.82c.82,0,1.67-.4,2.04-.8l2.99-3.18c.4-.42.19-1-.44-1Z"/>
      <path class="cls-2" d="m350.6,116.35c.14.15.25.32.32.47,1.11,1.79,1.94,3.74,2.62,5.77l-3.08,3.02c-.46.33-.9.1-.95-.42l-.62-6.47c-.04-.44.2-.68.54-1.07l1.16-1.3Z"/>
      <rect class="cls-12" x="328.78" y="121.34" width="6.68" height="2.11" rx="1.05" ry="1.05"/>
      <rect class="cls-14" x="329.84" y="121.34" width="6.68" height="2.11" rx="1.05" ry="1.05"/>
      <rect class="cls-18" x="208.88" y="113.16" width="7.1" height="2.16" rx="1.08" ry="1.08"/>
      <rect class="cls-18" x="178.33" y="113.16" width="7.1" height="2.16" rx="1.08" ry="1.08"/>
      <polygon class="cls-6" points="348.45 142.07 309.58 142.07 307.92 143.8 348.45 143.8 348.45 142.07"/>
      <polygon class="cls-6" points="302.71 142.07 294.34 142.07 292.67 143.8 301.33 143.8 302.71 142.07"/>
      <path class="cls-6" d="m355.59,142.07h-3.6l.16,1.73h3.45c.9,0,.92-1.73,0-1.73Z"/>
      <path class="cls-10" d="m187.02,127.57l6.45,7.66c3.67,3.4,8.53,5.32,14.44,5.94l32.79,2.24c4.44.41-.31-2.54-11.48-4.18-14.81-2.17-26.41-4.62-35.2-10.2-5.95-3.91-9.7-4.44-7-1.46Z"/>
      <path class="cls-2" d="m282.69,115.85l21.12,2.34c.54.06.99.38,1.21.73l4.04,6.45c.3.47-.1.99-.56.91l-22.98-4.07c-.4-.09-.83-.37-1.03-.79l-2.38-4.71c-.19-.38.1-.9.58-.85Z"/>
      <path class="cls-7" d="m251.1,106.35h-72.83l-2.67-.75c-.44,0-.55-.48-.39-.71,2.91-4.29,16.06-14.76,21.63-16.19,6.99-1.8,14.48-2.48,21.56-2.68,4.8-.14,11.36.14,16.13,2.32,4.41,2.02,11.72,10.51,16.93,17.27.25.33.1.74-.37.74Z"/>
      <path class="cls-8" d="m249.84,105.27h-34.66l.04-.29v-.07s.04-.22.04-.22l.05-.29.04-.23v-.06s.06-.29.06-.29v-.02s.05-.27.05-.27l.02-.1.03-.19v-.03s.05-.26.05-.26l.05-.26v-.03s.06-.29.06-.29v-.05s.05-.24.05-.24l.02-.13.03-.16.04-.21.02-.08.05-.29h0l.06-.29.02-.08.04-.21.03-.16.03-.13.05-.24v-.05s.13-.57.13-.57l.02-.11.04-.18v-.03s.06-.26.06-.26l.06-.26v-.02s.07-.28.07-.28v-.06s.06-.22.06-.22l.03-.14.03-.14.05-.22.02-.07.06-.28h0s.06-.28.06-.28l.07-.28.04-.17.03-.11.06-.24v-.04s.08-.28.08-.28v-.04s.07-.24.07-.24l.03-.12.04-.16.05-.2.02-.08.07-.27h0s.14-.57.14-.57l.04-.15.03-.13.06-.23v-.06s.09-.28.09-.28v-.02s.08-.26.08-.26l.03-.1.05-.18.05-.18.03-.1.07-.26v-.03s.09-.28.09-.28v-.05s.08-.23.08-.23l.04-.13.04-.15.06-.21.02-.07.08-.28h0s.08-.28.08-.28l.02-.08.06-.2.05-.16.04-.12.07-.24v-.04s.1-.28.1-.28v-.03s.08-.25.08-.25l.03-.11.05-.17.06-.19.03-.09.08-.27h0s.09-.3.09-.3l.02-.06.07-.22.04-.14.04-.14.07-.22.02-.06c4.71-.07,10.41.33,14.6,2.25,4.52,2.07,11.94,11.08,15.75,15.95h0Zm-39.73,0h-24.07c2.04-4.87,4.4-9.26,7.19-13.79,1.52-.86,2.87-1.48,3.89-1.75,5.55-1.43,11.36-2.14,17.11-2.47-1.8,6-3.24,11.76-4.13,18h0Zm-26.09,0c1.01-2.55,2.17-5.09,3.48-7.61.68-1.32,1.4-2.64,2.16-3.94-5.03,3.4-10.65,8.12-13.01,11.05l1.78.5h5.6Z"/>
      <path class="cls-7" d="m352.38,158.47h-198.7c-.62,0-1.14.51-1.14,1.14h0c0,.62.53,1.14,1.14,1.14h198.7c.6,0,1.14-.51,1.14-1.14h0c0-.62-.51-1.14-1.14-1.14h0Zm12.26,0h-4.63c-.62,0-1.14.51-1.14,1.14h0c0,.62.53,1.14,1.14,1.14h4.63c.6,0,1.14-.51,1.14-1.14h0c0-.62-.51-1.14-1.14-1.14h0Zm-218.36,0h-5.04c-.62,0-1.14.51-1.14,1.14h0c0,.62.53,1.14,1.14,1.14h5.04c.6,0,1.14-.51,1.14-1.14h0c0-.62-.51-1.14-1.14-1.14Z"/>
    </g>
    <g>
      <path class="cls-16" d="m140.37,49.96c6.64-15.26,11.64-35.41,28.71-42.26,3.56-1.43,7.44-2.13,11.08-1.53,3.84.63,7.36,2.45,10.32,4.94,3.2,2.69,5.91,5.92,8.36,9.29,2.83,3.9,5.47,7.94,7.98,12.05,5.67,9.32,10.56,19.13,14.54,29.29.59,1.51,2.01,2.56,3.69,2.1,1.44-.4,2.69-2.17,2.1-3.69-3.81-9.74-8.33-19.18-13.63-28.2-2.6-4.43-5.38-8.75-8.33-12.95-2.65-3.78-5.48-7.51-8.85-10.7s-7.43-5.92-11.97-7.31-9.07-1.29-13.47-.19c-8.99,2.24-16.53,8.61-21.71,16.1-6.33,9.15-9.6,19.91-14,30.02-.65,1.48-.44,3.22,1.08,4.1,1.27.74,3.45.42,4.1-1.08h0Z"/>
      <path class="cls-16" d="m227.06,64.24c1.38-11.98,2.76-23.95,4.14-35.93.19-1.61-1.51-3-3-3-1.78,0-2.81,1.38-3,3-1.38,11.98-2.76,23.95-4.14,35.93-.19,1.61,1.51,3,3,3,1.78,0,2.81-1.38,3-3h0Z"/>
      <path class="cls-16" d="m224.25,61.13c-4.35-1.98-8.07-4.45-11.39-7.58-3.5-3.29-6.04-6.61-8.31-10.87-.76-1.43-2.75-1.87-4.1-1.08-1.45.85-1.84,2.67-1.08,4.1,4.79,8.98,12.59,16.37,21.85,20.6,1.47.67,3.23.42,4.1-1.08.75-1.29.41-3.43-1.08-4.1h0Z"/>
      <path class="cls-16" d="m141.1,49.78c1.05-12.39,2.1-24.79,3.15-37.18.14-1.62-1.48-3-3-3-1.74,0-2.86,1.38-3,3-1.05,12.39-2.1,24.79-3.15,37.18-.14,1.62,1.48,3,3,3,1.74,0,2.86-1.38,3-3h0Z"/>
      <path class="cls-16" d="m138.35,52c9.26-6.15,19.05-11.46,29.26-15.86,1.49-.64,1.82-2.83,1.08-4.1-.9-1.54-2.61-1.72-4.1-1.08-10.21,4.4-20,9.71-29.26,15.86-1.35.9-1.93,2.65-1.08,4.1.78,1.34,2.75,1.98,4.1,1.08h0Z"/>
    </g>
  </g>
</svg>