<?xml version="1.0" encoding="UTF-8"?>
<svg id="Capa_2" data-name="Capa 2" xmlns="http://www.w3.org/2000/svg" xmlns:xlink="http://www.w3.org/1999/xlink" viewBox="0 0 261.68 98.84">
  <defs>
    <style>
      .cls-1 {
        fill: #4e4e4e;
      }

      .cls-1, .cls-2, .cls-3, .cls-4, .cls-5, .cls-6, .cls-7, .cls-8, .cls-9, .cls-10, .cls-11, .cls-12, .cls-13, .cls-14, .cls-15, .cls-16, .cls-17 {
        fill-rule: evenodd;
      }

      .cls-2 {
        fill: url(#GradientFill_13);
      }

      .cls-18, .cls-9 {
        fill: #343434;
      }

      .cls-3, .cls-19 {
        fill: #a40d0d;
      }

      .cls-4 {
        fill: #8a8a8a;
      }

      .cls-5 {
        fill: #fff;
      }

      .cls-6 {
        fill: #676767;
      }

      .cls-7 {
        fill: #8b001a;
      }

      .cls-20, .cls-16 {
        fill: #a4a4a4;
      }

      .cls-21, .cls-15 {
        fill: #1b1b1b;
      }

      .cls-8 {
        fill: #80090a;
      }

      .cls-22, .cls-12 {
        fill: #2a2a2a;
      }

      .cls-23, .cls-13 {
        fill: gray;
      }

      .cls-10 {
        fill: #d7d7d7;
      }

      .cls-11 {
        fill: #ac2526;
      }

      .cls-14 {
        fill: #920c0c;
      }

      .cls-17 {
        fill: #bdbdbd;
      }
    </style>
    <linearGradient id="GradientFill_13" data-name="GradientFill 13" x1="-3044.09" y1="-3.89" x2="-3047.76" y2="37.95" gradientTransform="translate(-2910.14) rotate(-180) scale(1 -1)" gradientUnits="userSpaceOnUse">
      <stop offset="0" stop-color="#1f222e"/>
      <stop offset="1" stop-color="#252a2f"/>
    </linearGradient>
  </defs>
  <g id="Layer_2" data-name="Layer 2">
    <g id="_4" data-name="4">
      <path class="cls-15" d="m99.89,97.95h9.33c7.92,0,14.34-9.91,14.34-22.12,0-12.22-6.42-22.12-14.34-22.12h-9.33c-7.92,0-14.34,9.91-14.34,22.12,0,12.22,6.42,22.12,14.34,22.12Z"/>
      <path class="cls-15" d="m222.7,97.95h9.33c7.92,0,14.34-9.91,14.34-22.12,0-12.22-6.42-22.12-14.34-22.12h-9.33c-7.92,0-14.34,9.91-14.34,22.12,0,12.22,6.42,22.12,14.34,22.12Z"/>
      <path class="cls-15" d="m240.21,96.85c.55,0,.99.45.99.99h0c0,.55-.46.99-.99.99H22.11c-.53,0-.99-.45-.99-.99h0c0-.55.45-.99.99-.99h218.1Zm15.77,0c.55,0,.99.45.99.99h0c0,.55-.46.99-.99.99h-7.65c-.53,0-.99-.45-.99-.99h0c0-.55.45-.99.99-.99h7.65Zm-241.16.99h0c0,.55-.46.99-.99.99h-7.65c-.54,0-.99-.45-.99-.99h0c0-.55.45-.99.99-.99h7.65c.55,0,.99.45.99.99Z"/>
      <polygon class="cls-15" points="193.03 81.16 47.95 81.16 14.53 76.28 7.9 66.33 10.07 42.92 193.03 42.92 193.03 81.16"/>
      <rect class="cls-23" x="177.54" y="76.28" width="64.92" height="4.88"/>
      <g>
        <path class="cls-15" d="m155.94,97.95h9.33c7.92,0,14.34-9.9,14.34-22.12,0-12.22-6.42-22.12-14.34-22.12h-9.33c-8.62,0-8.91,44.25,0,44.25Z"/>
        <path class="cls-12" d="m155.94,97.95c-7.9,0-14.34-9.94-14.34-22.12,0-12.18,6.44-22.12,14.34-22.12,7.9,0,14.34,9.94,14.34,22.12,0,12.19-6.44,22.12-14.34,22.12Z"/>
        <g>
          <path class="cls-5" d="m155.94,91.44c-5.56,0-10.1-7-10.1-15.59s4.54-15.59,10.1-15.59c5.56,0,10.1,7,10.1,15.59s-4.54,15.59-10.1,15.59Z"/>
          <path class="cls-4" d="m155.94,89.22c-4.77,0-8.67-6.01-8.67-13.37,0-7.36,3.89-13.37,8.67-13.37,4.77,0,8.67,6.01,8.67,13.37,0,7.36-3.89,13.37-8.67,13.37Z"/>
          <path class="cls-15" d="m157.61,88.97c3.98-1.2,6.99-6.62,6.99-13.12,0-6.5-3.01-11.91-6.99-13.12-3.98,1.2-6.99,6.62-6.99,13.12,0,6.5,3.01,11.91,6.99,13.12Z"/>
          <path class="cls-6" d="m157.73,88.93c-3.92-1.27-6.87-6.65-6.87-13.08,0-6.43,2.95-11.81,6.87-13.08,2.31.75,4.29,2.93,5.52,5.9-.57.65-.89,1.99-.14,3.99.46,1.22.98,1.79,1.46,1.94.03.41.04.83.04,1.25s-.01.84-.04,1.25c-.48.15-1,.72-1.46,1.94-.75,2-.42,3.34.14,3.99-1.23,2.98-3.2,5.15-5.52,5.9h0Zm1.79-19.47c2.81,0,2.43-3.9,1.47-4.22-.98-.33-1.96-.32-2.93,0-.95.31-1.35,4.22,1.47,4.22h0Zm-3.58,3.19c1.4-3.75-.97-5.19-1.64-4.07-.68,1.14-1.16,2.45-1.47,3.92-.3,1.43,1.69,3.91,3.1.15h0Zm0,6.39c-1.4-3.75-3.4-1.29-3.1.15.3,1.47.8,2.78,1.47,3.92.65,1.12,3.04-.31,1.64-4.07h0Zm2.12,7.41c.98.33,1.96.32,2.93,0,.95-.31,1.35-4.22-1.47-4.22-2.81,0-2.43,3.9-1.47,4.22Z"/>
          <path class="cls-5" d="m157.09,89.1c-4.24-.87-7.5-6.47-7.5-13.25s3.27-12.38,7.5-13.25c2.47.51,4.62,2.63,5.97,5.65-.89-.29-2.42,1.22-1.23,4.41.91,2.44,2.07,2.25,2.69,1.43.05.58.08,1.16.08,1.76s-.03,1.19-.08,1.76c-.62-.82-1.78-1.01-2.69,1.43-1.19,3.18.34,4.7,1.23,4.41-1.36,3.02-3.5,5.14-5.97,5.65h0Zm1.16-19.64c2.81,0,2.43-3.9,1.47-4.22-.98-.33-1.96-.32-2.93,0-.95.31-1.35,4.22,1.47,4.22h0Zm-3.58,3.19c1.4-3.75-.97-5.19-1.64-4.07-.68,1.14-1.16,2.45-1.47,3.92-.3,1.43,1.69,3.91,3.1.15h0Zm0,6.39c-1.4-3.75-3.4-1.29-3.1.15.3,1.47.8,2.78,1.47,3.92.65,1.12,3.04-.31,1.64-4.07h0Zm2.12,7.41c.98.33,1.96.32,2.93,0,.95-.31,1.35-4.22-1.47-4.22-2.81,0-2.43,3.9-1.47,4.22Z"/>
          <path class="cls-6" d="m158.33,73.12c-1.03,0-1.87,1.29-1.87,2.88s.84,2.88,1.87,2.88,1.87-1.29,1.87-2.88-.84-2.88-1.87-2.88Z"/>
        </g>
      </g>
      <g>
        <path class="cls-15" d="m31.22,97.95h9.33c7.92,0,14.34-9.9,14.34-22.12s-6.42-22.12-14.34-22.12h-9.33c-8.62,0-8.91,44.25,0,44.25Z"/>
        <ellipse class="cls-22" cx="31.22" cy="75.82" rx="14.34" ry="22.12"/>
        <g>
          <path class="cls-5" d="m31.22,91.44c-5.56,0-10.1-7-10.1-15.59,0-8.59,4.54-15.59,10.1-15.59,5.56,0,10.1,7,10.1,15.59s-4.54,15.59-10.1,15.59Z"/>
          <path class="cls-4" d="m31.22,89.22c-4.77,0-8.67-6.01-8.67-13.37s3.89-13.37,8.67-13.37c4.77,0,8.67,6.01,8.67,13.37,0,7.36-3.89,13.37-8.67,13.37Z"/>
          <path class="cls-15" d="m32.89,88.97c3.98-1.2,6.99-6.62,6.99-13.12s-3.01-11.91-6.99-13.12c-3.98,1.2-6.99,6.62-6.99,13.12s3.01,11.91,6.99,13.12Z"/>
          <path class="cls-6" d="m33.01,88.93c-3.92-1.27-6.87-6.65-6.87-13.08s2.95-11.81,6.87-13.08c2.31.75,4.29,2.93,5.52,5.9-.57.65-.89,1.99-.14,3.99.46,1.22.98,1.79,1.46,1.94.03.41.04.83.04,1.25s-.01.84-.04,1.25c-.48.15-1,.72-1.46,1.94-.75,2-.42,3.34.14,3.99-1.23,2.98-3.2,5.15-5.52,5.9h0Zm1.79-19.47c2.81,0,2.43-3.9,1.47-4.22-.98-.33-1.96-.32-2.93,0-.95.31-1.35,4.22,1.47,4.22h0Zm-3.58,3.19c1.4-3.75-.97-5.19-1.64-4.07-.68,1.14-1.16,2.45-1.47,3.92-.3,1.43,1.69,3.91,3.1.15h0Zm0,6.39c-1.4-3.75-3.4-1.29-3.1.15.3,1.47.8,2.78,1.47,3.92.65,1.12,3.04-.31,1.64-4.07h0Zm2.12,7.41c.98.33,1.96.32,2.93,0,.95-.31,1.35-4.22-1.47-4.22-2.81,0-2.43,3.9-1.47,4.22Z"/>
          <path class="cls-5" d="m32.38,89.1c-4.24-.87-7.5-6.47-7.5-13.25,0-6.78,3.27-12.38,7.5-13.25,2.47.51,4.62,2.63,5.97,5.65-.89-.29-2.42,1.22-1.23,4.41.91,2.44,2.07,2.25,2.69,1.43.05.58.07,1.16.07,1.76s-.03,1.19-.07,1.76c-.62-.82-1.78-1.01-2.69,1.43-1.19,3.18.34,4.7,1.23,4.41-1.36,3.02-3.5,5.14-5.97,5.65h0Zm1.16-19.64c2.81,0,2.43-3.9,1.47-4.22-.98-.33-1.96-.32-2.93,0-.95.31-1.35,4.22,1.47,4.22h0Zm-3.58,3.19c1.4-3.75-.97-5.19-1.64-4.07-.68,1.14-1.16,2.45-1.47,3.92-.3,1.43,1.69,3.91,3.1.15h0Zm0,6.39c-1.4-3.75-3.4-1.29-3.1.15.3,1.47.8,2.78,1.47,3.92.65,1.12,3.04-.31,1.64-4.07h0Zm2.12,7.41c.98.33,1.96.32,2.93,0,.95-.31,1.35-4.22-1.47-4.22-2.81,0-2.43,3.9-1.47,4.22Z"/>
          <path class="cls-6" d="m33.61,73.12c-1.03,0-1.87,1.29-1.87,2.88s.84,2.88,1.87,2.88c1.03,0,1.87-1.29,1.87-2.88s-.84-2.88-1.87-2.88Z"/>
        </g>
      </g>
      <path class="cls-3" d="m241.09,29.04c-9.03-1.89-22.87-3.16-35.04-3.9-9.58-8.08-19.06-15.09-30.04-20.55C167.7.45,156.12.49,144,.24c-19.5-.41-39.46-.33-59.77.51-4.41.18-8.58.88-12.32,2.04-1.79.56-3.16,1.76-3.89,3.24-3.58,7.29-6.02,14.74-8.05,22.66l-51.6.04c-1.28,0-2.18.65-2.57,1.6l-2.27,5.52c-1.29,8.97-2.32,18.94-1.32,26.64l1.99,13.78h10.39c-.16-1.24-.71-4.22-.24-9.56.73-8.33,8.1-17.68,16.88-17.68,10.45,0,18.93,11.18,18.93,24.97,0,.77-.03,1.52-.08,2.27h89.1c-.16-1.24-1.07-4.22-.6-9.56.72-8.33,8.46-18.04,17.24-18.04,10.45,0,22.88,11.54,22.88,25.33,0,.77-.03,1.52-.08,2.27h3.52s75.31,0,75.31,0c1.51,0,2.23-1.44,2.25-2.89l.19-17.28c-.15-1.54-.48-2.83-2.2-3.28l-1.18-14.08c-2.22-3.75-4.34-2.98-5.97-4.98-.58-.71-1.25-1.44-1.99-2.13-1.19-1.11-5.53-2.21-7.45-2.61Z"/>
      <path class="cls-14" d="m206.15,38.46c.48.5,1.27.52,1.78.04.5-.48.52-1.27.04-1.78-.46-.49-1.22-1.22-1.98-1.82-.61-.48-1.23-.89-1.76-1.07-4.79-1.65-12.33-2.89-20.93-3.78-10.26-1.06-22.08-1.63-32.54-1.79-.69,0-1.26.55-1.27,1.24,0,.69.55,1.26,1.24,1.27,10.37.15,22.11.72,32.32,1.78,8.41.87,15.75,2.08,20.36,3.66.25.09.63.34,1.02.65.64.5,1.3,1.14,1.72,1.58Z"/>
      <path class="cls-14" d="m3.54,35.86h74.16s38.18,0,38.18,0h.3c.65,0,1.19.53,1.19,1.19h0c0,.65-.53,1.19-1.19,1.19h-12.53s-25.95,0-25.95,0H3.21c.11-.8.22-1.59.33-2.38h0Zm120.19,1.19h0c0,.65.53,1.19,1.19,1.19h7.73c.65,0,1.19-.53,1.19-1.19h0c0-.65-.53-1.19-1.19-1.19h-7.73c-.65,0-1.19.53-1.19,1.19Z"/>
      <path class="cls-15" d="m77.27,5.31l27.39-.44c6.85.18,14.97.51,18.26,3.98,4.44,4.55,9.01,8.97,12.47,14.33,1.7,2.63.49,5.52-2.74,5.52h-54.59c-3.57,0-8-2.76-10.05-4.81-.53-.53-.8-1.07-.51-1.98l4.29-13.48c.79-2.47,2.11-3.07,5.48-3.12Z"/>
      <path class="cls-15" d="m206.05,25.14c-9.41-7.94-18.73-14.85-29.49-20.27h-47.69c-.74,0-.94.48-.54.92l16.5,18.53c.45.5,1.2.82,1.93.82h59.28Z"/>
      <path class="cls-2" d="m204.21,24.06c-8.26-6.86-16.8-13.12-26.32-18.12h-47.96s15.72,17.66,15.72,17.66c.26.29.74.46,1.13.46h57.43ZM104.66,5.95c4.67.12,14.22.25,17.49,3.65,4.35,4.5,8.93,8.88,12.34,14.17,1.21,1.87.57,3.85-1.83,3.85h-35.25c1.02-7.23,2.49-14.44,4.38-21.62l2.87-.05h0Zm-8.84.14l-18.53.3c-2.26.04-3.72.05-4.46,2.37l-4.29,13.48c-.14.43-.06.58.25.89,2.09,2.09,6.25,4.49,9.29,4.49h11.89c1.55-7.11,3.49-14.46,5.86-21.53Z"/>
      <path class="cls-15" d="m204.21,24.06c-1.69-1.41-3.4-2.79-5.12-4.14-14.83-3.05-31.54-4.77-49.23-4.77-3.89,0-7.73.08-11.51.25l7.3,8.2c.26.29.74.46,1.13.46h57.43Zm-73.44-5.29c-8.52-.87-17.43-1.33-26.6-1.33-1.69,0-3.37.02-5.03.05-.67,3.37-1.24,6.75-1.72,10.13h35.25c2.4,0,3.05-1.98,1.83-3.85-1.13-1.75-2.39-3.4-3.73-4.99h0Zm-40.81,8.84h-11.89c-3.03,0-7.2-2.4-9.29-4.49-.31-.31-.39-.46-.25-.89l.79-2.48c7.36-1.01,15.07-1.71,23.03-2.06-.88,3.32-1.68,6.65-2.39,9.92Z"/>
      <path class="cls-9" d="m59.98,28.69h-1.83c-1.41,8.09-2.26,16.1-2.34,24.01-.07,7.88.62,15.97,2.31,23.58h1.84c-1.72-7.59-2.43-15.69-2.36-23.56.07-7.88.94-15.9,2.37-24.03Z"/>
      <path class="cls-10" d="m257.64,52.25c.96,0,.26-11.45-.96-11.45-1.14.18-2.03,1.28-1.93,2.29l.79,7.48c.1.96.66,1.7,1.55,1.69h.55Z"/>
      <path class="cls-12" d="m138.98,76.28h.2c-.16-1.24-.71-4.22-.24-9.56.73-8.33,8.1-17.68,16.88-17.68,6.66,0,12.52,4.54,15.89,11.4.58,1.18,1.47,2.14,2.49,2.14l3.16-.07c1.36,0,1.29-1.49,1.08-2.09-3.89-11.11-12.42-18.82-22.3-18.82-11.38,0-20.85,12.1-20.45,22.95.23,6.14,2.61,9.84,3.32,11.73Z"/>
      <path class="cls-12" d="m14.53,76.28h.06c-.16-1.24-.71-4.22-.24-9.56.73-8.33,8.1-17.68,16.88-17.68,10.45,0,18.93,11.18,18.93,24.97,0,.77-.03,1.52-.08,2.27l4.56-13.77c-3.52-12.22-12.47-20.91-22.97-20.91-11.38,0-20.85,12.1-20.45,22.95.23,6.14,2.61,9.84,3.32,11.73Z"/>
      <rect class="cls-21" x="94.31" y="34" width="9.43" height="2.2" rx="1.1" ry="1.1"/>
      <rect class="cls-21" x="62.71" y="34" width="9.44" height="2.2" rx="1.1" ry="1.1"/>
      <path class="cls-11" d="m183.65,43.36c.59.36,10.36.17,10.72-.42.36-.59.17-1.36-.42-1.72-7.7-4.68-26.61-4.91-34.11-5.01h-1.07c-.69-.02-1.26.53-1.27,1.22,0,.69.55,1.26,1.24,1.27h1.07c7.3.11,16.73.34,23.84,4.66Z"/>
      <path class="cls-12" d="m259.46,76.28h-82.39c-1.22,0-2.03-1.01-2.21-2.21l-1.44-9.36c-.19-1.2,1-2.21,2.21-2.21h83.83c1.22,0,2.21,1,2.21,2.21v1.37h-1.24s0,6.61,0,6.61h1.24v1.37c0,1.22-1,2.21-2.21,2.21Z"/>
      <path class="cls-15" d="m260.75,66.08v6.61h-3.54c-.46,0-.84-.38-.84-.84v-4.94c0-.46.38-.84.84-.84h3.54Z"/>
      <g>
        <path class="cls-11" d="m118.62,17.8h7.78c4.6,0,4.6,9.38,0,9.38h-7.78c-1.82,0-3.31-1.49-3.31-3.31v-2.77c0-1.82,1.49-3.31,3.31-3.31Z"/>
        <path class="cls-11" d="m127.84,22.64l4.8.32c1.11.07,2.01.42,2.11,1.7.17,2.35-2.26,3.69-4.38,3.16l-3.03-.76c-.66-.16-1.4-.58-1.23-1.23l.51-1.95c.17-.66.56-1.28,1.23-1.23Z"/>
        <path class="cls-3" d="m116.82,19.59h0c.83,0,1.51.68,1.51,1.51v3.55c0,.68.41,1.05,1.07,1.05h7.21c1.38,0,1.39,1.47,0,1.47h-7.99c-2,0-3.31-1.52-3.31-3.41v-2.67c0-.83.68-1.51,1.51-1.51Z"/>
      </g>
      <polygon class="cls-9" points="54.64 62.5 135.7 62.5 139.18 76.28 50.08 76.28 54.64 62.5"/>
      <polygon class="cls-12" points="138.23 72.51 139.18 76.28 50.08 76.28 51.33 72.51 138.23 72.51"/>
      <polygon class="cls-1" points="54.64 62.5 135.7 62.5 136.94 67.42 53.01 67.42 54.64 62.5"/>
      <path class="cls-9" d="m207.9,37.48h40.33c1.74,0,3.31,1.42,3.51,3.16l1.76,15.79c.19,1.73-1.07,3.16-2.8,3.16h-46.07c-2.2,0-3.84-1.59-3.34-4.05l3.04-14.9c.35-1.71,1.84-3.16,3.57-3.16Z"/>
      <path class="cls-15" d="m207.9,37.48h37.46c1.74,0,3.31,1.42,3.51,3.16l1.76,15.79c.19,1.73-1.07,3.16-2.8,3.16h-43.2c-2.2,0-3.84-1.59-3.34-4.05l3.04-14.9c.35-1.71,1.84-3.16,3.57-3.16Z"/>
      <path class="cls-5" d="m196.33,40.77l-19.29-.15c-1.7-.01-1.72,1.18-1,2l7.06,7.98c.56.64,1.63,1.49,2.52,1.51l9.17.15c.89.01,1.54-.73,1.76-1.69l1.73-7.48c.25-1.1-.67-2.3-1.95-2.31Z"/>
      <rect class="cls-19" x="201.8" y="45.41" width="52.47" height="6.26"/>
      <path class="cls-17" d="m240.8,81.16h-44.2s-2.8,0-2.8,0l11.02-7.26c1.4-.93,2.58-1.21,4.25-1.21h43.14c1.68,0,2.19,2.27.69,3.01l-8.07,3.97c-1.4.93-3.09,1.49-4.02,1.49Z"/>
      <polygon class="cls-8" points="234.04 46.8 229.3 46.8 227.3 47.62 227.3 49.77 231.67 50.75 233.75 50.75 234.04 46.8"/>
      <path class="cls-16" d="m242.97,81.16h-46.37s8.93-5.94,8.93-5.94c1.4-.93,2.58-1.21,3.5-1.21h43.8c.93,0,1.44.76.05,1.68l-5.69,3.77c-1.4.93-3.3,1.69-4.23,1.69Z"/>
      <polygon class="cls-16" points="237.75 47.62 235.76 46.8 231.02 46.8 229.03 47.62 229.03 49.77 233.39 50.75 237.75 49.77 237.75 47.62"/>
      <path class="cls-13" d="m242.71,76.53c2.58-1.65-2.3-.81-3.56,0l-3.32,2.12c-2.58,1.65,2.29.81,3.56,0l3.32-2.12h0Zm-12.22,0c2.58-1.65-2.3-.81-3.56,0l-3.32,2.12c-2.58,1.65,2.29.81,3.56,0l3.32-2.12h0Zm-15.78,0l-3.32,2.12c-2.58,1.65,2.29.81,3.56,0l3.32-2.12c2.58-1.65-2.3-.81-3.56,0Z"/>
      <rect class="cls-18" x="209.56" y="66.08" width="41.34" height="6.61" rx="1.39" ry="1.39"/>
      <rect class="cls-21" x="209.56" y="66.08" width="39.05" height="6.61" rx="1.39" ry="1.39"/>
      <rect class="cls-18" x="184.31" y="66.08" width="14.6" height="6.61" rx="1.39" ry="1.39"/>
      <path class="cls-21" d="m185.71,66.08h9.52c.77,0,1.39.62,1.39,1.39v3.82c0,.77-.62,1.39-1.39,1.39h-9.52c-.77,0-1.39-.62-1.39-1.39v-3.82c0-.77.62-1.39,1.39-1.39Z"/>
      <rect class="cls-20" x="57.38" y="76.28" width="67.66" height="2.66" rx="1.33" ry="1.33"/>
      <path class="cls-13" d="m132.43,76.28h-8.16c-.73,0-1.33.6-1.33,1.33h0c0,.73.61,1.33,1.33,1.33h6.82c.73,0,1.33-.6,1.33-1.33v-1.33Z"/>
      <path class="cls-12" d="m6.81,76.28h-3.86c-1.27,0-2.95-3.31-2.95-3.77v-6c0-1.04,1.17-4.01,2.21-4.01h1.94c.93,1.03,1.56,2.3,1.86,3.87l2,6.85c-.06,1.15-.46,2.17-1.19,3.06Z"/>
      <polygon class="cls-7" points="3.54 35.86 4.91 35.86 5.78 37.13 5.08 42.64 2.5 44.07 1.62 42.52 2.39 36.96 3.54 35.86"/>
      <path class="cls-11" d="m135.85,48.73c.34-.61.12-1.37-.49-1.71-.61-.34-1.37-.12-1.71.49l-4.66,8.38h-60.13s-7.19-10.41-7.19-10.41c-.39-.57-1.18-.71-1.75-.32-.57.39-.71,1.18-.32,1.75l7.57,10.95h0c.23.33.6.54,1.03.54h61.47c.46.03.91-.21,1.15-.64l5.02-9.02Z"/>
      <path class="cls-17" d="m192.39,67.56c-1.02,0-1.84.82-1.84,1.84s.82,1.84,1.84,1.84,1.84-.82,1.84-1.84-.82-1.84-1.84-1.84h0Zm-6.87,1.84c0,1.02.82,1.84,1.84,1.84,1.02,0,1.84-.82,1.84-1.84s-.82-1.84-1.84-1.84c-1.02,0-1.84.82-1.84,1.84Z"/>
    </g>
  </g>
</svg>