<?xml version="1.0" encoding="UTF-8"?>
<svg id="Capa_2" data-name="Capa 2" xmlns="http://www.w3.org/2000/svg" xmlns:xlink="http://www.w3.org/1999/xlink" viewBox="0 0 366 138.25">
  <defs>
    <style>
      .cls-1 {
        fill: #4e4e4e;
      }

      .cls-1, .cls-2, .cls-3, .cls-4, .cls-5, .cls-6, .cls-7, .cls-8, .cls-9, .cls-10, .cls-11, .cls-12, .cls-13, .cls-14, .cls-15, .cls-16, .cls-17 {
        fill-rule: evenodd;
      }

      .cls-2 {
        fill: url(#GradientFill_13);
      }

      .cls-18, .cls-10 {
        fill: #343434;
      }

      .cls-3 {
        fill: #e5e5e5;
      }

      .cls-4 {
        fill: #fff;
      }

      .cls-5, .cls-19 {
        fill: #b20d0d;
      }

      .cls-6 {
        fill: #82090a;
      }

      .cls-20, .cls-9 {
        fill: #b2b2b2;
      }

      .cls-7 {
        fill: #989898;
      }

      .cls-8 {
        fill: #676767;
      }

      .cls-21, .cls-14 {
        fill: #1b1b1b;
      }

      .cls-22, .cls-11 {
        fill: #2a2a2a;
      }

      .cls-23, .cls-12 {
        fill: gray;
      }

      .cls-13 {
        fill: #99001a;
      }

      .cls-15 {
        fill: #ba2526;
      }

      .cls-16 {
        fill: #cbcbcb;
      }

      .cls-17 {
        fill: #a00c0c;
      }
    </style>
    <linearGradient id="GradientFill_13" data-name="GradientFill 13" x1="178.64" y1="-5.44" x2="173.52" y2="53.08" gradientUnits="userSpaceOnUse">
      <stop offset="0" stop-color="#1f222e"/>
      <stop offset="1" stop-color="#252a2f"/>
    </linearGradient>
  </defs>
  <g id="Layer_2" data-name="Layer 2">
    <g id="_4" data-name="4">
      <path class="cls-14" d="m226.29,137h-13.05c-11.08,0-20.06-13.85-20.06-30.94s8.98-30.94,20.06-30.94h13.05c11.08,0,20.06,13.85,20.06,30.94s-8.98,30.94-20.06,30.94Z"/>
      <path class="cls-14" d="m54.52,137h-13.05c-11.08,0-20.06-13.85-20.06-30.94s8.98-30.94,20.06-30.94h13.05c11.08,0,20.06,13.85,20.06,30.94s-8.98,30.94-20.06,30.94Z"/>
      <path class="cls-14" d="m30.02,135.46h305.05c.76,0,1.39.63,1.39,1.39h0c0,.76-.65,1.39-1.39,1.39H30.02c-.74,0-1.39-.63-1.39-1.39h0c0-.77.63-1.39,1.39-1.39h0Zm-22.06,0h10.71c.77,0,1.39.63,1.39,1.39h0c0,.76-.64,1.39-1.39,1.39H7.97c-.75,0-1.39-.63-1.39-1.39h0c0-.77.63-1.39,1.39-1.39h0Zm338.7,0h10.71c.76,0,1.39.63,1.39,1.39h0c0,.76-.64,1.39-1.39,1.39h-10.71c-.75,0-1.39-.63-1.39-1.39h0c0-.77.63-1.39,1.39-1.39Z"/>
      <polygon class="cls-14" points="96.02 113.52 298.94 113.52 345.67 106.69 354.95 92.77 351.91 60.04 96.02 60.04 96.02 113.52"/>
      <rect class="cls-23" x="26.88" y="106.69" width="90.79" height="6.83"/>
      <g>
        <path class="cls-14" d="m147.9,137h-13.05c-11.08,0-20.06-13.85-20.06-30.94s8.98-30.94,20.06-30.94h13.05c12.06,0,12.46,61.89,0,61.89Z"/>
        <path class="cls-11" d="m147.9,137c11.05,0,20.06-13.9,20.06-30.94s-9.01-30.94-20.06-30.94-20.06,13.9-20.06,30.94,9.01,30.94,20.06,30.94Z"/>
        <g>
          <path class="cls-4" d="m147.9,127.89c7.78,0,14.13-9.79,14.13-21.8s-6.35-21.8-14.13-21.8-14.13,9.79-14.13,21.8,6.35,21.8,14.13,21.8Z"/>
          <path class="cls-7" d="m147.9,124.79c6.68,0,12.12-8.4,12.12-18.7s-5.44-18.7-12.12-18.7-12.12,8.4-12.12,18.7,5.45,18.7,12.12,18.7Z"/>
          <path class="cls-14" d="m145.55,124.44c-5.57-1.68-9.78-9.26-9.78-18.35s4.21-16.66,9.78-18.35c5.57,1.68,9.78,9.26,9.78,18.35s-4.21,16.66-9.78,18.35Z"/>
          <path class="cls-8" d="m145.39,124.39c-3.24-1.05-6-4.09-7.72-8.25.79-.91,1.24-2.78.2-5.58-.64-1.71-1.37-2.5-2.04-2.71-.04-.58-.05-1.16-.05-1.75s.02-1.18.05-1.75c.68-.22,1.4-1,2.04-2.71,1.05-2.8.59-4.67-.2-5.58,1.72-4.16,4.48-7.2,7.72-8.26,5.49,1.78,9.61,9.3,9.61,18.3s-4.12,16.51-9.61,18.3h0Zm-2.51-27.23c3.94,0,3.38-5.47,2.05-5.9-1.37-.45-2.74-.46-4.1,0-1.34.45-1.88,5.9,2.05,5.9h0Zm5.01,4.47c1.97,5.27,4.76,1.79,4.34-.21-.43-2.05-1.11-3.89-2.05-5.49-.93-1.56-4.25.45-2.29,5.7h0Zm0,8.93c-1.97,5.27,1.38,7.26,2.29,5.69.94-1.6,1.63-3.42,2.05-5.49.41-2.02-2.38-5.46-4.34-.21h0Zm-5.01,4.47c-3.94,0-3.38,5.47-2.05,5.9,1.37.45,2.74.46,4.1,0,1.34-.46,1.88-5.9-2.05-5.9Z"/>
          <path class="cls-4" d="m146.28,124.63c-3.46-.71-6.46-3.68-8.35-7.91,1.25.41,3.39-1.71,1.72-6.16-1.28-3.42-2.9-3.15-3.77-2-.07-.81-.11-1.63-.11-2.46s.04-1.66.11-2.46c.87,1.15,2.49,1.41,3.77-2,1.67-4.46-.47-6.57-1.72-6.16,1.9-4.23,4.89-7.19,8.35-7.9,5.93,1.22,10.5,9.05,10.5,18.53s-4.57,17.31-10.5,18.53h0Zm-1.62-27.46c3.94,0,3.38-5.47,2.05-5.9-1.37-.45-2.74-.46-4.1,0-1.34.45-1.88,5.9,2.05,5.9h0Zm5.01,4.47c1.97,5.27,4.76,1.79,4.34-.21-.43-2.05-1.11-3.89-2.05-5.49-.93-1.56-4.25.45-2.29,5.7h0Zm0,8.93c-1.97,5.27,1.38,7.26,2.29,5.69.94-1.6,1.63-3.42,2.05-5.49.41-2.02-2.37-5.46-4.34-.21h0Zm-5.01,4.47c-3.94,0-3.38,5.47-2.05,5.9,1.37.45,2.74.46,4.1,0,1.34-.46,1.88-5.9-2.05-5.9Z"/>
          <path class="cls-8" d="m144.55,102.27c1.44,0,2.61,1.8,2.61,4.03s-1.17,4.03-2.61,4.03-2.61-1.8-2.61-4.03,1.17-4.03,2.61-4.03Z"/>
        </g>
      </g>
      <g>
        <path class="cls-14" d="m322.34,137h-13.05c-11.08,0-20.06-13.85-20.06-30.94s8.98-30.94,20.06-30.94h13.05c12.06,0,12.46,61.89,0,61.89Z"/>
        <ellipse class="cls-22" cx="322.34" cy="106.05" rx="20.06" ry="30.94"/>
        <g>
          <path class="cls-4" d="m322.34,127.89c7.78,0,14.13-9.79,14.13-21.8s-6.35-21.8-14.13-21.8-14.13,9.79-14.13,21.8,6.35,21.8,14.13,21.8Z"/>
          <path class="cls-7" d="m322.34,124.79c6.68,0,12.12-8.4,12.12-18.7s-5.44-18.7-12.12-18.7-12.12,8.4-12.12,18.7,5.45,18.7,12.12,18.7Z"/>
          <path class="cls-14" d="m319.99,124.44c-5.57-1.68-9.78-9.26-9.78-18.35s4.21-16.66,9.78-18.35c5.57,1.68,9.78,9.26,9.78,18.35s-4.21,16.66-9.78,18.35Z"/>
          <path class="cls-8" d="m319.83,124.39c-3.24-1.05-6-4.09-7.72-8.25.79-.91,1.24-2.78.2-5.58-.64-1.71-1.37-2.5-2.04-2.71-.04-.58-.05-1.16-.05-1.75s.02-1.18.05-1.75c.67-.22,1.4-1,2.04-2.71,1.05-2.8.59-4.67-.2-5.58,1.72-4.16,4.48-7.2,7.72-8.26,5.49,1.78,9.61,9.3,9.61,18.3s-4.12,16.51-9.61,18.3h0Zm-2.51-27.23c3.94,0,3.38-5.47,2.05-5.9-1.37-.45-2.74-.46-4.1,0-1.34.45-1.88,5.9,2.05,5.9h0Zm5.01,4.47c1.97,5.27,4.76,1.79,4.34-.21-.43-2.05-1.11-3.89-2.05-5.49-.92-1.56-4.25.45-2.29,5.7h0Zm0,8.93c-1.97,5.27,1.38,7.26,2.29,5.69.94-1.6,1.63-3.42,2.05-5.49.41-2.02-2.37-5.46-4.34-.21h0Zm-5.01,4.47c-3.94,0-3.38,5.47-2.05,5.9,1.37.45,2.74.46,4.1,0,1.34-.46,1.88-5.9-2.05-5.9Z"/>
          <path class="cls-4" d="m320.72,124.63c-3.46-.71-6.46-3.68-8.35-7.91,1.25.41,3.39-1.71,1.72-6.16-1.28-3.42-2.9-3.15-3.77-2-.07-.81-.1-1.63-.1-2.46s.04-1.66.1-2.46c.87,1.15,2.49,1.41,3.77-2,1.67-4.46-.47-6.57-1.72-6.16,1.9-4.23,4.89-7.19,8.35-7.9,5.93,1.22,10.5,9.05,10.5,18.53s-4.57,17.31-10.5,18.53h0Zm-1.62-27.46c3.94,0,3.38-5.47,2.05-5.9-1.37-.45-2.74-.46-4.1,0-1.34.45-1.88,5.9,2.05,5.9h0Zm5.01,4.47c1.97,5.27,4.76,1.79,4.34-.21-.43-2.05-1.11-3.89-2.05-5.49-.92-1.56-4.25.45-2.29,5.7h0Zm0,8.93c-1.97,5.27,1.38,7.26,2.29,5.69.94-1.6,1.63-3.42,2.05-5.49.41-2.02-2.38-5.46-4.34-.21h0Zm-5.01,4.47c-3.94,0-3.38,5.47-2.05,5.9,1.37.45,2.74.46,4.1,0,1.34-.46,1.88-5.9-2.05-5.9Z"/>
          <path class="cls-8" d="m318.99,102.27c1.44,0,2.61,1.8,2.61,4.03s-1.17,4.03-2.61,4.03-2.61-1.8-2.61-4.03,1.17-4.03,2.61-4.03Z"/>
        </g>
      </g>
      <path class="cls-5" d="m28.79,40.61c12.64-2.65,31.98-4.42,49-5.46,13.39-11.3,26.65-21.1,42.02-28.75C131.45.63,147.65.69,164.59.33c27.27-.57,55.19-.46,83.6.72,6.17.25,12,1.23,17.22,2.85,2.51.78,4.42,2.47,5.44,4.53,5,10.19,8.41,20.62,11.25,31.7l72.17.06c1.78,0,3.05.91,3.59,2.24l3.18,7.72c1.8,12.54,3.25,26.49,1.85,37.26l-2.79,19.28h-14.53c.22-1.73.99-5.9.34-13.37-1.02-11.66-11.33-24.73-23.6-24.73-14.62,0-26.47,15.64-26.47,34.93,0,1.07.04,2.13.11,3.18h-124.62c.22-1.73,1.49-5.9.84-13.37-1.01-11.65-11.84-25.24-24.11-25.24-14.62,0-32.01,16.14-32.01,35.43,0,1.07.04,2.13.11,3.18H5.92c-2.11,0-3.12-2.02-3.15-4.04l-.26-24.17c.21-2.15.67-3.96,3.08-4.59l1.65-19.69c3.11-5.24,6.07-4.17,8.35-6.96.81-.99,1.75-2.02,2.79-2.98,1.67-1.55,7.73-3.09,10.42-3.65Z"/>
      <path class="cls-17" d="m77.67,53.8c-.67.7-1.78.73-2.48.06-.7-.67-.73-1.78-.06-2.48.65-.68,1.71-1.7,2.78-2.54.85-.67,1.72-1.24,2.46-1.49,6.7-2.3,17.24-4.04,29.27-5.29,14.35-1.49,30.88-2.28,45.52-2.5.97-.01,1.76.76,1.77,1.73.01.97-.76,1.76-1.73,1.77-14.51.22-30.92,1.01-45.2,2.49-11.76,1.22-22.03,2.91-28.48,5.12-.35.12-.88.48-1.43.92-.89.71-1.82,1.6-2.4,2.21Z"/>
      <path class="cls-17" d="m361.05,50.15c.16,1.1.31,2.21.46,3.32h-158.01c-.91,0-1.66-.75-1.66-1.66h0c0-.91.75-1.66,1.66-1.66h157.55Zm-169.76,0h-10.81c-.91,0-1.66.75-1.66,1.66h0c0,.91.75,1.66,1.66,1.66h10.81c.91,0,1.66-.75,1.66-1.66h0c0-.91-.75-1.66-1.66-1.66Z"/>
      <path class="cls-14" d="m257.93,7.42l-38.32-.62c-9.58.25-20.94.72-25.55,5.56-6.21,6.36-12.6,12.54-17.45,20.05-2.38,3.68-.68,7.72,3.83,7.72h76.36c4.99,0,11.19-3.86,14.06-6.72.74-.74,1.12-1.5.72-2.77l-6-18.85c-1.1-3.46-2.95-4.29-7.66-4.37Z"/>
      <path class="cls-14" d="m77.8,35.16c13.17-11.11,26.2-20.77,41.24-28.36h66.7c1.03,0,1.31.67.76,1.29l-23.08,25.92c-.63.7-1.68,1.15-2.71,1.15h-82.91Z"/>
      <path class="cls-2" d="m80.39,33.65h80.33c.55,0,1.21-.23,1.58-.64l21.99-24.69h-67.07c-13.33,6.98-25.27,15.74-36.82,25.34h0ZM219.62,8.32l4.01.06c2.65,10.04,4.7,20.12,6.13,30.24h-49.3c-3.36,0-4.26-2.77-2.57-5.39,4.78-7.39,11.19-13.52,17.26-19.82,4.58-4.75,17.94-4.93,24.47-5.1h0Zm20.56,30.31h16.63c4.24,0,10.06-3.35,12.99-6.28.44-.44.54-.64.35-1.25l-6-18.85c-1.03-3.25-3.09-3.27-6.24-3.32l-25.92-.42c3.32,9.88,6.02,20.16,8.2,30.11Z"/>
      <path class="cls-14" d="m80.39,33.65h80.33c.55,0,1.21-.23,1.58-.64l10.21-11.47c-5.29-.23-10.66-.34-16.1-.34-24.74,0-48.12,2.4-68.86,6.67-2.41,1.89-4.79,3.82-7.16,5.79h0Zm102.72-7.4c-1.87,2.22-3.63,4.53-5.21,6.98-1.69,2.62-.8,5.39,2.57,5.39h49.3c-.67-4.73-1.47-9.45-2.41-14.17-2.33-.04-4.68-.07-7.04-.07-12.83,0-25.29.65-37.2,1.86h0Zm53.73-1.5c11.13.49,21.91,1.46,32.21,2.88l1.1,3.47c.19.61.09.81-.35,1.25-2.93,2.93-8.75,6.28-12.99,6.28h-16.63c-1-4.58-2.11-9.22-3.34-13.87Z"/>
      <path class="cls-10" d="m282.11,40.13h2.55c1.97,11.32,3.16,22.53,3.27,33.59.1,11.02-.87,22.34-3.23,32.97h-2.57c2.41-10.61,3.4-21.94,3.3-32.95-.1-11.02-1.31-22.24-3.31-33.61Z"/>
      <path class="cls-3" d="m5.65,73.08c-1.35,0-.36-16.02,1.34-16.02,1.59.26,2.84,1.79,2.69,3.2l-1.1,10.47c-.14,1.34-.93,2.38-2.17,2.36h-.77Z"/>
      <path class="cls-11" d="m171.61,106.69h-.27c.22-1.73.99-5.9.34-13.37-1.02-11.66-11.33-24.73-23.6-24.73-9.32,0-17.51,6.35-22.23,15.94-.81,1.65-2.06,3-3.48,3l-4.41-.1c-1.9,0-1.8-2.09-1.51-2.92,5.44-15.54,17.37-26.32,31.2-26.32,15.92,0,29.17,16.93,28.6,32.1-.32,8.59-3.65,13.76-4.64,16.41Z"/>
      <path class="cls-11" d="m345.67,106.69h-.09c.22-1.73.99-5.9.34-13.37-1.02-11.66-11.33-24.73-23.6-24.73-14.62,0-26.47,15.64-26.47,34.93,0,1.07.04,2.13.11,3.18l-6.38-19.26c4.92-17.09,17.45-29.25,32.13-29.25,15.92,0,29.17,16.93,28.6,32.1-.32,8.59-3.65,13.76-4.64,16.41Z"/>
      <path class="cls-21" d="m222.44,47.55h10.11c.85,0,1.54.69,1.54,1.54h0c0,.85-.69,1.54-1.54,1.54h-10.11c-.85,0-1.54-.69-1.54-1.54h0c0-.85.69-1.54,1.54-1.54Z"/>
      <rect class="cls-21" x="265.09" y="47.55" width="13.2" height="3.08" rx="1.54" ry="1.54"/>
      <path class="cls-15" d="m109.13,60.65c-.83.5-14.49.24-14.99-.59-.5-.83-.24-1.91.59-2.41,10.77-6.54,37.21-6.87,47.7-7.01l1.5-.02c.97-.01,1.76.76,1.77,1.73.01.97-.76,1.76-1.73,1.77l-1.5.02c-10.21.13-23.39.46-33.35,6.5Z"/>
      <path class="cls-11" d="m3.1,106.69h115.23c1.7,0,2.84-1.41,3.1-3.1l2.01-13.08c.26-1.68-1.4-3.1-3.1-3.1H3.1c-1.7,0-3.1,1.4-3.1,3.1v1.92h1.73v9.25H0v1.92c0,1.7,1.39,3.1,3.1,3.1Z"/>
      <path class="cls-14" d="m1.3,92.43v9.25h4.96c.64,0,1.17-.53,1.17-1.17v-6.91c0-.64-.53-1.17-1.17-1.17H1.3Z"/>
      <g>
        <path class="cls-15" d="m200.09,24.89h-10.88c-6.43,0-6.43,13.12,0,13.12h10.88c2.55,0,4.63-2.08,4.63-4.63v-3.87c0-2.55-2.08-4.63-4.63-4.63Z"/>
        <path class="cls-15" d="m187.2,31.66l-6.71.45c-1.55.1-2.82.59-2.95,2.37-.24,3.29,3.16,5.16,6.13,4.42l4.24-1.07c.92-.23,1.96-.81,1.72-1.72l-.71-2.73c-.24-.92-.78-1.79-1.72-1.72Z"/>
        <path class="cls-5" d="m202.6,27.4h0c-1.16,0-2.12.95-2.12,2.12v4.97c0,.96-.57,1.47-1.49,1.47h-10.08c-1.94,0-1.94,2.06,0,2.06h11.18c2.8,0,4.63-2.12,4.63-4.77v-3.73c0-1.16-.95-2.12-2.12-2.12Z"/>
      </g>
      <polygon class="cls-10" points="289.58 87.41 176.2 87.41 171.34 106.69 295.96 106.69 289.58 87.41"/>
      <polygon class="cls-11" points="172.67 101.41 171.34 106.69 295.96 106.69 294.21 101.41 172.67 101.41"/>
      <polygon class="cls-1" points="289.58 87.41 176.2 87.41 174.46 94.3 291.86 94.3 289.58 87.41"/>
      <path class="cls-10" d="m75.21,52.42H18.8c-2.43,0-4.64,1.99-4.91,4.41l-2.46,22.09c-.27,2.43,1.49,4.41,3.92,4.41h64.43c3.08,0,5.37-2.23,4.67-5.66l-4.25-20.84c-.49-2.39-2.57-4.41-5-4.41Z"/>
      <path class="cls-14" d="m75.21,52.42H22.81c-2.43,0-4.64,1.99-4.91,4.41l-2.46,22.09c-.27,2.43,1.49,4.41,3.92,4.41h60.42c3.08,0,5.37-2.23,4.67-5.66l-4.25-20.84c-.49-2.39-2.57-4.41-5-4.41Z"/>
      <path class="cls-4" d="m91.41,57.03l26.98-.22c2.38-.02,2.41,1.66,1.4,2.8l-9.88,11.17c-.79.89-2.29,2.09-3.53,2.11l-12.82.21c-1.24.02-2.16-1.02-2.47-2.36l-2.41-10.47c-.35-1.53.94-3.22,2.73-3.24Z"/>
      <rect class="cls-19" x="10.36" y="63.51" width="73.38" height="8.75"/>
      <path class="cls-16" d="m29.2,113.52h65.74l-15.41-10.16c-1.95-1.3-3.6-1.69-5.94-1.69H13.25c-2.36,0-3.06,3.18-.96,4.21l11.28,5.55c1.95,1.3,4.32,2.09,5.62,2.09Z"/>
      <polygon class="cls-6" points="38.66 65.45 45.29 65.45 48.08 66.61 48.08 69.61 41.98 70.98 39.06 70.98 38.66 65.45"/>
      <path class="cls-9" d="m26.16,113.52h64.85l-12.49-8.3c-1.95-1.3-3.6-1.69-4.9-1.69H12.36c-1.3,0-2.02,1.06-.07,2.36l7.96,5.28c1.95,1.3,4.61,2.36,5.91,2.36Z"/>
      <polygon class="cls-9" points="33.46 66.61 36.25 65.45 42.88 65.45 45.67 66.61 45.67 69.61 39.57 70.98 33.46 69.61 33.46 66.61"/>
      <path class="cls-12" d="m26.54,107.04l4.64,2.97c1.77,1.13,8.58,2.31,4.98,0l-4.64-2.97c-1.76-1.13-8.59-2.31-4.98,0h0Zm17.1,0l4.64,2.97c1.77,1.13,8.58,2.31,4.98,0l-4.64-2.97c-1.76-1.13-8.59-2.31-4.98,0h0Zm17.1,0l4.64,2.97c1.77,1.13,8.58,2.31,4.98,0l-4.64-2.97c-1.76-1.13-8.59-2.31-4.98,0Z"/>
      <rect class="cls-18" x="15.08" y="92.43" width="57.82" height="9.25" rx="1.95" ry="1.95"/>
      <rect class="cls-21" x="18.27" y="92.43" width="54.62" height="9.25" rx="1.95" ry="1.95"/>
      <rect class="cls-18" x="87.79" y="92.43" width="20.41" height="9.25" rx="1.95" ry="1.95"/>
      <rect class="cls-21" x="90.99" y="92.43" width="17.22" height="9.25" rx="1.95" ry="1.95"/>
      <rect class="cls-20" x="191.11" y="106.69" width="94.63" height="3.73" rx="1.86" ry="1.86"/>
      <path class="cls-12" d="m180.78,106.69h11.41c1.03,0,1.86.84,1.86,1.86h0c0,1.02-.85,1.86-1.86,1.86h-9.54c-1.01,0-1.86-.84-1.86-1.86v-1.86Z"/>
      <path class="cls-11" d="m356.47,106.69h5.4c1.77,0,4.13-4.63,4.13-5.28v-8.39c0-1.46-1.64-5.61-3.1-5.61h-2.71c-1.3,1.43-2.18,3.22-2.59,5.41l-2.79,9.59c.08,1.61.65,3.03,1.66,4.28Z"/>
      <polygon class="cls-13" points="361.05 50.15 359.13 50.15 357.92 51.93 358.9 59.64 362.51 61.65 363.73 59.48 362.65 51.69 361.05 50.15"/>
      <path class="cls-15" d="m176,68.16c-.47-.85-.17-1.92.68-2.39.85-.47,1.92-.17,2.39.68l6.52,11.72h84.1s10.06-14.57,10.06-14.57c.55-.8,1.64-1,2.44-.45.8.55,1,1.64.45,2.44l-10.58,15.31h0c-.32.46-.85.76-1.44.76h-85.98c-.64.04-1.27-.29-1.61-.89l-7.02-12.62Z"/>
      <path class="cls-16" d="m96.91,94.5c-1.42,0-2.58,1.15-2.58,2.58s1.15,2.58,2.58,2.58,2.58-1.15,2.58-2.58-1.15-2.58-2.58-2.58h0Zm7.03,0c-1.42,0-2.58,1.15-2.58,2.58s1.15,2.58,2.58,2.58,2.58-1.15,2.58-2.58-1.15-2.58-2.58-2.58Z"/>
    </g>
  </g>
</svg>