<?xml version="1.0" encoding="UTF-8"?>
<svg id="Capa_2" data-name="Capa 2" xmlns="http://www.w3.org/2000/svg" xmlns:xlink="http://www.w3.org/1999/xlink" viewBox="0 0 357.67 137.23">
  <defs>
    <style>
      .cls-1, .cls-2, .cls-3, .cls-4, .cls-5, .cls-6, .cls-7, .cls-8, .cls-9, .cls-10, .cls-11, .cls-12, .cls-13, .cls-14 {
        fill-rule: evenodd;
      }

      .cls-1, .cls-15 {
        fill: #c6c6c6;
      }

      .cls-2, .cls-16 {
        fill: #1a1a1a;
      }

      .cls-17, .cls-4 {
        fill: #fff;
      }

      .cls-3 {
        fill: url(#GradientFill_2);
      }

      .cls-5 {
        fill: #2a2c31;
      }

      .cls-6 {
        fill: #fa3430;
      }

      .cls-7 {
        fill: #616161;
      }

      .cls-8, .cls-18 {
        fill: #121212;
      }

      .cls-9 {
        fill: #4c7cbc;
      }

      .cls-10 {
        fill: #e0e0e0;
      }

      .cls-11 {
        fill: #1c1c1c;
      }

      .cls-19 {
        fill: #050505;
      }

      .cls-12 {
        fill: #939393;
      }

      .cls-13 {
        fill: #3d6ca5;
      }

      .cls-14 {
        fill: #114380;
      }
    </style>
    <linearGradient id="GradientFill_2" data-name="GradientFill 2" x1="171.45" y1="34.84" x2="171.08" y2="45.45" gradientUnits="userSpaceOnUse">
      <stop offset="0" stop-color="#5481bc"/>
      <stop offset="1" stop-color="#4371b0"/>
    </linearGradient>
  </defs>
  <g id="Layer_2" data-name="Layer 2">
    <g id="_8" data-name="8">
      <path class="cls-8" d="m331.43,134.27H30.33c-.81,0-1.48.66-1.48,1.48h0c0,.81.7,1.48,1.48,1.48h301.1c.77,0,1.48-.66,1.48-1.48h0c0-.81-.66-1.48-1.48-1.48h0Zm23.42,0h-11.37c-.81,0-1.48.66-1.48,1.48h0c0,.81.69,1.48,1.48,1.48h11.37c.79,0,1.48-.66,1.48-1.48h0c0-.81-.66-1.48-1.48-1.48h0Zm-336.83,0H6.66c-.81,0-1.48.66-1.48,1.48h0c0,.81.69,1.48,1.48,1.48h11.37c.78,0,1.48-.66,1.48-1.48h0c0-.81-.66-1.48-1.48-1.48Z"/>
      <path class="cls-8" d="m145.65,135.62h12.42c10.54,0,19.09-13.18,19.09-29.45s-8.55-29.45-19.09-29.45h-12.42c-10.54,0-19.09,13.18-19.09,29.45s8.55,29.45,19.09,29.45h0Zm159.41-58.9c-10.54,0-19.09,13.18-19.09,29.45s8.55,29.45,19.09,29.45h12.42c10.54,0,19.09-13.18,19.09-29.45s-8.55-29.45-19.09-29.45h-12.42Z"/>
      <polygon class="cls-8" points="269.92 118.89 73.07 118.89 18.87 114.32 9.41 111.53 15.56 69.85 269.92 71.1 269.92 118.89"/>
      <g>
        <path class="cls-8" d="m44.07,135.62h12.41c10.54,0,19.09-13.18,19.09-29.45s-8.55-29.45-19.09-29.45h-12.41c-11.48,0-11.86,58.9,0,58.9Z"/>
        <ellipse class="cls-16" cx="44.07" cy="106.17" rx="19.09" ry="29.45"/>
        <g>
          <path class="cls-4" d="m44.07,126.96c7.41,0,13.45-9.32,13.45-20.75s-6.04-20.75-13.45-20.75-13.45,9.32-13.45,20.75,6.04,20.75,13.45,20.75Z"/>
          <path class="cls-12" d="m44.07,124.01c6.35,0,11.54-7.99,11.54-17.8s-5.18-17.8-11.54-17.8-11.54,7.99-11.54,17.8,5.18,17.8,11.54,17.8Z"/>
          <path class="cls-2" d="m46.3,123.67c5.3-1.6,9.3-8.81,9.3-17.46s-4-15.86-9.3-17.46c-5.3,1.6-9.31,8.81-9.31,17.46s4,15.86,9.31,17.46Z"/>
          <path class="cls-7" d="m46.46,123.62c3.08-1,5.71-3.89,7.34-7.86-.75-.86-1.18-2.65-.19-5.31.61-1.63,1.3-2.38,1.94-2.58.03-.55.05-1.11.05-1.67s-.02-1.12-.05-1.67c-.64-.21-1.33-.96-1.94-2.58-1-2.66-.56-4.44.19-5.31-1.64-3.96-4.27-6.86-7.34-7.86-5.22,1.7-9.14,8.85-9.14,17.41s3.92,15.72,9.14,17.41h0Zm2.39-25.91c-3.75,0-3.22-5.2-1.95-5.62,1.3-.43,2.6-.44,3.91,0,1.28.43,1.79,5.62-1.95,5.62h0Zm-4.77,4.25c-1.87,5.01-4.53,1.7-4.13-.2.41-1.95,1.05-3.7,1.95-5.22.88-1.49,4.05.42,2.18,5.42h0Zm0,8.5c1.87,5.01-1.31,6.91-2.18,5.42-.89-1.53-1.55-3.26-1.95-5.22-.39-1.92,2.26-5.2,4.13-.2h0Zm4.77,4.25c3.75,0,3.22,5.2,1.95,5.62-1.3.43-2.6.44-3.91,0-1.27-.43-1.78-5.62,1.95-5.62Z"/>
          <path class="cls-4" d="m45.61,123.85c3.29-.68,6.15-3.5,7.95-7.52-1.19.39-3.23-1.63-1.64-5.86,1.22-3.25,2.76-3,3.59-1.9.07-.77.1-1.55.1-2.35s-.03-1.58-.1-2.35c-.83,1.1-2.37,1.34-3.59-1.9-1.59-4.24.45-6.25,1.64-5.87-1.81-4.02-4.66-6.84-7.95-7.52-5.64,1.16-9.99,8.62-9.99,17.64s4.35,16.48,9.99,17.64h0Zm1.54-26.14c-3.75,0-3.22-5.2-1.95-5.62,1.3-.43,2.6-.44,3.91,0,1.28.43,1.79,5.62-1.95,5.62h0Zm-4.77,4.25c-1.87,5.01-4.53,1.7-4.13-.2.41-1.95,1.05-3.7,1.95-5.22.88-1.49,4.05.42,2.18,5.42h0Zm0,8.5c1.87,5.01-1.31,6.91-2.18,5.42-.89-1.53-1.55-3.26-1.95-5.22-.39-1.92,2.26-5.2,4.13-.2h0Zm4.77,4.25c3.75,0,3.22,5.2,1.95,5.62-1.3.43-2.6.44-3.91,0-1.27-.43-1.78-5.62,1.95-5.62Z"/>
          <path class="cls-7" d="m47.26,102.57c-1.37,0-2.49,1.72-2.49,3.84s1.11,3.84,2.49,3.84,2.49-1.72,2.49-3.84-1.11-3.84-2.49-3.84Z"/>
        </g>
      </g>
      <g>
        <path class="cls-8" d="m203.48,135.62h12.42c10.54,0,19.09-13.18,19.09-29.45s-8.55-29.45-19.09-29.45h-12.42c-11.48,0-11.86,58.9,0,58.9Z"/>
        <ellipse class="cls-16" cx="203.48" cy="106.17" rx="19.09" ry="29.45"/>
        <g>
          <ellipse class="cls-17" cx="203.48" cy="106.21" rx="13.45" ry="20.75"/>
          <path class="cls-12" d="m203.48,124.01c6.35,0,11.54-7.99,11.54-17.8s-5.18-17.8-11.54-17.8-11.54,7.99-11.54,17.8,5.18,17.8,11.54,17.8Z"/>
          <path class="cls-2" d="m205.71,123.67c5.3-1.6,9.31-8.81,9.31-17.46s-4-15.86-9.31-17.46c-5.3,1.6-9.3,8.81-9.3,17.46s4,15.86,9.3,17.46Z"/>
          <path class="cls-7" d="m205.86,123.62c3.08-1,5.71-3.89,7.34-7.86-.75-.86-1.18-2.65-.19-5.31.61-1.63,1.3-2.38,1.94-2.58.03-.55.05-1.11.05-1.67s-.02-1.12-.05-1.67c-.64-.21-1.33-.96-1.94-2.58-.99-2.66-.56-4.44.19-5.31-1.64-3.96-4.27-6.86-7.34-7.86-5.22,1.7-9.14,8.85-9.14,17.41s3.92,15.72,9.14,17.41h0Zm2.39-25.91c-3.75,0-3.22-5.2-1.95-5.62,1.3-.43,2.6-.44,3.91,0,1.28.43,1.79,5.62-1.95,5.62h0Zm-4.77,4.25c-1.87,5.01-4.53,1.7-4.13-.2.41-1.95,1.05-3.7,1.95-5.22.88-1.49,4.05.42,2.18,5.42h0Zm0,8.5c1.87,5.01-1.31,6.91-2.18,5.42-.89-1.53-1.55-3.26-1.95-5.22-.39-1.92,2.26-5.2,4.13-.2h0Zm4.77,4.25c3.75,0,3.22,5.2,1.95,5.62-1.3.43-2.6.44-3.91,0-1.27-.43-1.78-5.62,1.95-5.62Z"/>
          <path class="cls-4" d="m205.02,123.85c3.29-.68,6.15-3.5,7.95-7.52-1.19.39-3.22-1.63-1.64-5.86,1.22-3.25,2.76-3,3.59-1.9.07-.77.1-1.55.1-2.35s-.03-1.58-.1-2.35c-.83,1.1-2.37,1.34-3.59-1.9-1.59-4.24.45-6.25,1.64-5.87-1.81-4.02-4.66-6.84-7.95-7.52-5.64,1.16-9.99,8.62-9.99,17.64s4.35,16.48,9.99,17.64h0Zm1.54-26.14c-3.75,0-3.22-5.2-1.95-5.62,1.3-.43,2.6-.44,3.91,0,1.27.43,1.79,5.62-1.95,5.62h0Zm-4.77,4.25c-1.87,5.01-4.53,1.7-4.13-.2.41-1.95,1.05-3.7,1.95-5.22.88-1.49,4.05.42,2.18,5.42h0Zm0,8.5c1.87,5.01-1.31,6.91-2.18,5.42-.89-1.53-1.55-3.26-1.95-5.22-.39-1.92,2.26-5.2,4.13-.2h0Zm4.77,4.25c3.75,0,3.22,5.2,1.95,5.62-1.3.43-2.6.44-3.91,0-1.28-.43-1.79-5.62,1.95-5.62Z"/>
          <path class="cls-7" d="m206.67,102.57c-1.37,0-2.49,1.72-2.49,3.84s1.11,3.84,2.49,3.84,2.49-1.72,2.49-3.84-1.11-3.84-2.49-3.84Z"/>
        </g>
      </g>
      <path class="cls-13" d="m356.64,86.16l-3.14-8.28-5.62-12.65c-6.2-8.07-29.36-14.64-50.06-20.01-19.03-13.1-47.08-31.45-59.39-34.75C210.24,2.93,180.83.89,150.6.12c-38.27-.97-80.47,3.9-112.53,11.36-2.51.58-4.08,1.82-5.19,3.07-10.92,12.25-20.54,24.73-28.16,37.41-1.27,4.44-3.44,10.91.03,14.53l-4.07,13.83c-.52,1.78-.79,3.66-.62,5.48l1.56,16.75c.13,1.4.4,2.45.99,3.41l1.93,3.14c.57.93,1.43,1.65,2.44,1.93l11.39,3.17c2.06.57,3.35-.51,3.27-2.57-.14-3.69-.12-8.8.06-11.35,1.02-14.65,9.66-27.29,22.95-27.29s19.96,12.16,22.95,27.29c.88,4.46,1.75,8.89,2.7,13.3.38,1.75,2.65,5.29,4.55,5.29h105.16c2.16,0,2.73-1.1,2.27-3.43-.96-4.91-1.24-10.04-.88-15.17,1.03-14.65,9.66-27.29,22.95-27.29s19.96,12.16,22.95,27.29c.88,4.47,1.74,8.89,2.7,13.3.38,1.76,2.65,5.29,4.55,5.29h118.45c2.2,0,4.72-3.25,4.71-5.95l-1.57-6.73c-.4-1.7,1.53-1.72,1.53-3.36l-.04-11.74c0-1.74-.35-3.36-.95-4.94Z"/>
      <path class="cls-8" d="m297.81,45.23l-.04-.02-.04-.02-.04-.02-.04-.03-.04-.02-.04-.02-.04-.03-.04-.02-.04-.02-.04-.03-.04-.02-.04-.02-.04-.03-.04-.02-.04-.03-.04-.02-.04-.03-.04-.03-.04-.02-.04-.03-.04-.02-.04-.03-.04-.03-.04-.03-.03-.02h0s-.04-.03-.04-.03l-.04-.03-.04-.03-.04-.02-.04-.03-.04-.03-.04-.03-.04-.03-.04-.03-.04-.03-.04-.03-.04-.03-.04-.03-.04-.03-.04-.03-.04-.03-.04-.03-.04-.03-.04-.03-.04-.03-.04-.03-.04-.03-.04-.03-.04-.03-.03-.02h0s-.04-.03-.04-.03l-.04-.03-.04-.03-.04-.03-.04-.03-.04-.03-.04-.03-.04-.03-.04-.03-.04-.03-.04-.03-.04-.03-.04-.03-.04-.03c-18.41-12.59-43.8-29.05-56.05-32.85h-.02s-.02-.01-.02-.01h-.02s-.02,0-.02,0h-.02s-.02-.01-.02-.01h-.02s-.02,0-.02,0h-.02s-.02-.01-.02-.01h-.02s-.02,0-.02,0h-.02s-.02,0-.02,0h-.02s-.02,0-.02,0h-.02s-.02,0-.02,0h-.02s-.02,0-.02,0h-.02s-.02,0-.02,0l-.11-.03h-.02s-.02,0-.02,0h-.02s-.02,0-.02,0c-.15-.04-.29-.08-.43-.12h-.02s-.02,0-.02,0h-.01c-1.71-.46-3.42-.9-5.13-1.32h-68.86c-1.55,0-2.09,1.27-1.13,2.05l39.71,32.23c1.47,1.19,3.05,1.78,4.74,1.78h90.06Z"/>
      <path class="cls-5" d="m294.53,43.62h-86.78c-1.42,0-2.63-.53-3.72-1.42l-38.73-31.44h72.15l.84.22c5.42,1.45,11.78,4.89,16.69,7.61,7.42,4.11,14.68,8.62,21.8,13.22,5.97,3.85,11.88,7.8,17.75,11.8Z"/>
      <path class="cls-2" d="m293.45,43.62h-85.7c-1.42,0-2.63-.53-3.72-1.42l-22.56-18.31c5.35-.32,10.81-.49,16.34-.49,37.9,0,71.99,7.8,95.64,20.22Z"/>
      <path class="cls-14" d="m3.39,64.31c.3.8.74,1.53,1.35,2.18l-4.07,13.83-.02.08C.23,81.84-.01,83.34,0,84.82l2.37,19.85,3.65,5.95,12.68,3.67c1.85.37,3-.71,2.92-2.65-.06-1.61-.09-3.49-.09-5.31,0-2.07.03-4.05.12-5.54v-.13s0-.02,0-.02v-.11s.01-.07.01-.07v-.05s.01-.12.01-.12c.02-.23.03-.46.05-.69h0c.02-.23.04-.46.06-.68.02-.23.05-.45.08-.68h0c.03-.23.06-.45.09-.68h0c.03-.22.06-.45.1-.67h0c.03-.22.07-.45.11-.67h0c.04-.22.08-.44.12-.66h0c.04-.22.08-.44.13-.66h0c.04-.22.09-.44.14-.65h0c.05-.22.1-.43.15-.65h0c.05-.22.11-.43.16-.64h0c.06-.21.11-.43.17-.64h0c.06-.21.12-.42.18-.63h0c.12-.42.26-.83.39-1.24h0c.07-.21.14-.41.21-.61h0c.07-.2.15-.4.22-.6h0c.08-.2.15-.4.23-.6h0c.08-.2.16-.39.24-.59h0c.08-.2.17-.39.25-.58h0c.26-.58.53-1.15.82-1.7h0c.1-.19.19-.37.29-.55h0c.1-.18.2-.36.3-.54h0c.2-.36.41-.71.63-1.06h0c.22-.35.44-.68.67-1.02h0c.11-.17.23-.33.35-.49h0c.12-.16.24-.32.36-.48h0c.24-.32.49-.63.74-.94h0c.13-.15.25-.3.38-.45h0c.13-.15.26-.3.39-.44h0c.13-.15.27-.29.4-.43h0c.14-.14.27-.28.41-.42h0c.14-.14.28-.27.42-.41h0c.14-.13.28-.26.43-.39h0c.14-.13.29-.26.44-.38h0c.15-.13.29-.25.44-.37h0c.15-.12.3-.24.45-.35h0c.15-.12.31-.23.46-.34h0c.15-.11.31-.22.47-.33.16-.11.32-.21.48-.31.16-.1.32-.2.49-.3h0c.16-.1.33-.19.49-.29h0c.17-.09.33-.18.5-.27h0c.17-.09.34-.17.51-.26h0c.17-.08.34-.16.52-.24h0c.17-.08.35-.15.52-.23.18-.07.35-.14.53-.21.18-.07.36-.13.54-.2h0c.18-.06.36-.12.55-.18.18-.06.37-.11.56-.16.19-.05.37-.1.56-.15.19-.05.38-.09.57-.13.19-.04.38-.08.58-.12.19-.04.39-.07.58-.1.2-.03.39-.06.59-.08.2-.02.4-.05.6-.06.2-.02.4-.03.61-.05.2-.01.41-.02.61-.03.21,0,.41,0,.62,0,13.29,0,19.96,12.16,22.95,27.29.88,4.46,1.75,8.89,2.7,13.3.38,1.75,2.65,5.29,4.55,5.29h105.16c2.13,0,2.71-1.06,2.3-3.31h0s-.02-.11-.02-.11h0s-.04-.24-.04-.24l-.04-.22h0s-.04-.23-.04-.23h0s-.04-.23-.04-.23h0s-.04-.23-.04-.23h0s-.04-.23-.04-.23h0s-.04-.23-.04-.23h0s-.07-.46-.07-.46h0s-.03-.23-.03-.23h0s-.07-.47-.07-.47h0s-.03-.23-.03-.23h0s-.03-.23-.03-.23h0s-.06-.47-.06-.47h0c-.07-.55-.13-1.1-.18-1.65h0s-.02-.24-.02-.24h0s-.02-.24-.02-.24h0s-.02-.24-.02-.24h0s-.02-.24-.02-.24h0s-.02-.24-.02-.24h0s-.02-.24-.02-.24h0s-.02-.24-.02-.24h0s-.01-.24-.01-.24h0s-.01-.24-.01-.24h0s-.03-.48-.03-.48h0s-.01-.24-.01-.24h0s-.01-.24-.01-.24h0s0-.24,0-.24h0s-.02-.48-.02-.48h0s0-.24,0-.24h0s0-.24,0-.24h0s0-.48,0-.48h0c0-.24,0-.48,0-.72v-.24h0s0-.24,0-.24h0s0-.24,0-.24h0s0-.24,0-.24h0s0-.24,0-.24h0s0-.24,0-.24h0s0-.24,0-.24h0s0-.24,0-.24h0s0-.24,0-.24h0s0-.24,0-.24h0s0-.24,0-.24h0s.01-.24.01-.24h0s.01-.24.01-.24h0s.01-.24.01-.24h0s.01-.24.01-.24h0s.01-.24.01-.24h0s.02-.24.02-.24l.02-.24c.02-.23.03-.46.05-.69.02-.23.04-.46.06-.68h0c.02-.23.05-.45.08-.68.03-.23.06-.45.09-.67.03-.22.06-.45.1-.67.03-.22.07-.44.11-.67.04-.22.08-.44.12-.66h0c.04-.22.08-.44.13-.66.04-.22.09-.44.14-.65s.1-.43.15-.65c.05-.21.11-.43.16-.64.06-.21.11-.43.17-.64h0c.06-.21.12-.42.18-.63h0c.06-.21.13-.42.19-.63.07-.21.13-.41.2-.62.07-.21.14-.41.21-.61.07-.2.15-.4.22-.6.08-.2.15-.4.23-.6h0c.08-.2.16-.39.24-.59h0c.08-.2.17-.39.25-.58.09-.19.17-.38.26-.57.09-.19.18-.38.27-.57.09-.19.19-.37.28-.56s.19-.37.29-.55h0c.1-.18.2-.36.3-.54.1-.18.21-.36.31-.53.1-.18.21-.35.32-.52.11-.17.22-.34.33-.51h0c.11-.17.22-.34.34-.5h0c.11-.17.23-.33.35-.49h0c.12-.16.24-.32.36-.48.12-.16.24-.32.37-.47.12-.16.25-.31.37-.46.13-.15.25-.3.38-.45.13-.15.26-.3.39-.44h0c.13-.14.27-.29.4-.43.14-.14.27-.28.41-.42.14-.14.28-.27.42-.4.14-.13.28-.26.43-.39.14-.13.29-.26.44-.38.15-.12.29-.25.44-.37.15-.12.3-.24.45-.35.15-.12.31-.23.46-.34.15-.11.31-.22.47-.33.16-.11.32-.21.48-.31h0c.16-.1.32-.2.48-.3.16-.1.33-.19.49-.29.17-.09.33-.18.5-.27.17-.09.34-.17.51-.26s.34-.17.52-.24c.17-.08.35-.15.52-.23.18-.07.35-.14.53-.21.18-.07.36-.13.54-.2.18-.06.36-.12.55-.18.18-.06.37-.11.56-.16.19-.05.37-.1.56-.15.19-.05.38-.09.57-.13.19-.04.38-.08.58-.12.19-.04.39-.07.58-.1.2-.03.39-.06.59-.08.2-.02.4-.05.6-.06.2-.02.4-.03.61-.05.2-.01.41-.02.61-.03.21,0,.41,0,.62,0,13.29,0,19.96,12.16,22.95,27.29.88,4.47,1.74,8.89,2.7,13.3.38,1.76,2.65,5.29,4.55,5.29h44.64c8.25-8.3,11.55-17.17,6.94-26.98-.96-2.05-3.76-4.24-6.87-5.33-14.85-5.22-31.07-10.76-37.98-17.68-3.11-3.11-8.93-4.79-13.61-4.79l-224.24.2Z"/>
      <path class="cls-4" d="m353.5,77.88l-5.56-12.51-2.37,1.75c-.76.56-1.18,1.55-1,2.65l1.74,10.33c.23,1.34,1.63,1.86,2.54,1.19l4.65-3.41Z"/>
      <path class="cls-8" d="m188.35,47.88H31.12c-1.01,0-1.55-.44-1.89-1.28l-3.37-8.39c-.42-1.05-.21-1.86.32-2.69l9.72-15.18c.58-.91,1.79-2,3.33-2.36,31.88-7.58,52.09-10.09,88.16-9.12,10.49.28,24.61,2.72,31.19,8.71l30.76,27.98c1.12,1.02.69,2.34-1,2.34Z"/>
      <path class="cls-5" d="m187.77,46.28h-65.49c.05-5.76.5-11.7,1.22-17.65h0c.76-6.25,1.8-12.35,2.98-18.19l.86.02c8.79.24,23.52,2.25,30.16,8.29l30.27,27.53h0Zm-73.48,0h-39.51c.42-5.43,1.22-10.91,2.24-16.36,1.1-5.92,2.5-12.02,3.9-18.01,12.48-1.38,24.92-1.75,37.44-1.63-1.13,5.72-2.11,11.56-2.82,17.37v.02c-.75,6.15-1.22,12.4-1.26,18.61h0Zm-47.53,0H31.12c-.06,0-.22,0-.27-.03-.05-.04-.11-.19-.13-.25l-3.37-8.39c-.2-.5-.1-.78.18-1.23l9.72-15.18c.5-.78,1.45-1.45,2.35-1.67,10.88-2.59,21.79-4.91,32.85-6.53-1.16,5.01-2.3,10.15-3.29,15.48-1.1,5.93-1.97,11.89-2.4,17.8Z"/>
      <path class="cls-2" d="m187.77,46.28h-65.49c.05-5.76.5-11.7,1.22-17.65h0c.2-1.63.42-3.25.65-4.86,16.57.85,32.21,3.21,46.3,6.77l17.31,15.75h0Zm-77.62-22.88c-11.13,0-21.92.67-32.23,1.94-.32,1.54-.62,3.07-.9,4.58-1.01,5.45-1.82,10.93-2.24,16.36h39.51c.04-6.21.51-12.46,1.26-18.61v-.02c.17-1.39.36-2.79.56-4.19-1.98-.04-3.96-.07-5.96-.07h0Zm-40.61,3.12c-15.57,2.46-29.83,6.3-42.15,11.21l3.33,8.27c.02.06.09.2.13.25.06.03.21.03.27.03h35.65c.43-5.91,1.3-11.87,2.4-17.8.12-.66.25-1.31.37-1.96Z"/>
      <path class="cls-4" d="m245.52,64.1c-1.58-.07-2.38,1.62-1.52,2.62h0c2.62,3.04,13.36,9.83,25.93,12.19l16.98,3.19c1.88.35,2.74-1.27,1.85-2.85-6.76-12.01-13.47-13.92-23.13-14.32l-20.11-.83Z"/>
      <path class="cls-11" d="m293.23,69.06c15.17-1.59,30.07-1.16,45.71.79,1.25.16,2.05.9,2.18,1.95l1.74,14.04c.2,1.6-.12,3.81-1.88,4.36-10.97,3.48-22.55,3.28-34.78,0-2.33-.62-3.96-2.5-5.17-4.36l-9.18-14.04c-.87-1.33-.29-2.57,1.39-2.74Z"/>
      <path class="cls-8" d="m293.23,69.06c5.62-.59,11.21-.9,16.81-.96,8.17.09,16.4.69,24.84,1.75,1.25.16,2.05.9,2.18,1.95l1.74,14.04c.2,1.6-.12,3.81-1.88,4.36-4.76,1.51-9.64,2.33-14.63,2.5-5.23-.18-10.59-1.03-16.09-2.5-2.33-.62-3.96-2.5-5.17-4.36l-9.18-14.04c-.87-1.33-.29-2.57,1.39-2.74Z"/>
      <path class="cls-11" d="m346.23,104.49h-47.71c-1.45,0-2.68.47-3.67,1.42l-3.56,3.42c-1,.96-1.05,2.13.14,2.82l3.18,1.85c1.28.74,2.55,1,3.82,1h48.43c.83,0,1.55-.44,1.99-1.11l1.18-1.81c.48-.74.47-1.58.16-2.36l-1.3-3.28c-.46-1.16-1.38-1.95-2.68-1.95Z"/>
      <path class="cls-8" d="m342.91,104.49h-44.39c-1.45,0-2.68.47-3.67,1.42l-3.56,3.42c-1,.96-1.05,2.13.14,2.82l3.18,1.85c1.26.73,2.51.99,3.76,1h45.17c.83,0,1.56-.44,1.99-1.11l1.18-1.81c.48-.74.47-1.58.17-2.36l-1.3-3.28c-.46-1.16-1.38-1.95-2.68-1.95Z"/>
      <path class="cls-11" d="m288.87,104.49h-13.34c-1.54,0-2.87.45-3.81,1.37l-3.51,3.41c-1.08,1.05-.63,2.47,1.04,2.47h13.33c1.34,0,2.39-.43,3.09-1.1l4.16-3.94c.72-.68.41-2.21-.96-2.21Z"/>
      <path class="cls-8" d="m285.33,104.49h-9.81c-1.54,0-2.87.45-3.81,1.37l-3.51,3.41c-1.08,1.05-.63,2.47,1.04,2.47h9.8c1.34,0,2.39-.43,3.09-1.1l4.16-3.94c.72-.68.41-2.21-.96-2.21Z"/>
      <rect class="cls-18" x="100.92" y="56.22" width="11.75" height="3.04" rx="1.52" ry="1.52"/>
      <rect class="cls-18" x="16.68" y="56.22" width="53.37" height="3.04" rx="1.52" ry="1.52"/>
      <path class="cls-18" d="m125.41,56.22h8.71c.84,0,1.52.68,1.52,1.52h0c0,.84-.68,1.52-1.52,1.52h-8.71c-.84,0-1.52-.68-1.52-1.52h0c0-.84.68-1.52,1.52-1.52Z"/>
      <path class="cls-6" d="m4.72,51.96c.78-1.98,1.95-3.94,3.67-5.87l1.19,10.81-4.83,9.58c-3.46-3.61-1.4-9.7-.03-14.53Z"/>
      <path class="cls-19" d="m315.71,78.8h8.85c1.07,0,1.94.87,1.94,1.94h0c0,1.07-.87,1.94-1.94,1.94h-8.85c-1.07,0-1.94-.87-1.94-1.94h0c0-1.07.87-1.94,1.94-1.94Z"/>
      <rect class="cls-15" x="315.79" y="78.8" width="12.72" height="3.87" rx="1.94" ry="1.94"/>
      <path class="cls-10" d="m276.26,110.88c1.14,0,2.07-1.24,2.07-2.77s-.93-2.77-2.07-2.77-2.07,1.24-2.07,2.77.93,2.77,2.07,2.77Z"/>
      <path class="cls-11" d="m352.96,104.49h-1.2c-.85,0-1.48.73-1.17,1.55l1.58,4.16c.31.82,1.07,1.55,1.92,1.55h.64c.85,0,1.38-.7,1.17-1.55l-1.02-4.16c-.21-.85-1.07-1.55-1.93-1.55Z"/>
      <g>
        <path class="cls-3" d="m161.52,34.8c.29-.84,1.38-1.59,2.69-1.68,2.69-.19,7.15-.45,8.66.19,1.57.67,7.91,8.02,8.73,10.47.47,1.38-.1,2.84-2.84,2.84h-14.29c-1.16-.01-2.48-.43-2.86-1.38-1.32-3.34-1.28-6.95-.1-10.44Z"/>
        <path class="cls-9" d="m161.52,34.8c.06-.17.15-.34.27-.5l1.77-.08c1.59-.08,1.8.88,2.02,2.05l1.23,6.73c.21,1.17-.91,2.19-2.51,2.26l-2.62.13s-.04-.09-.06-.13c-1.32-3.34-1.28-6.95-.1-10.44Z"/>
      </g>
      <path class="cls-1" d="m352.97,105.6c.44,0,1.06,1.13,1.39,2.52.33,1.39.25,2.52-.18,2.52s-1.06-1.13-1.39-2.52c-.33-1.39-.25-2.52.18-2.52Z"/>
    </g>
  </g>
</svg>