<?xml version="1.0" encoding="UTF-8"?>
<svg id="Capa_2" data-name="Capa 2" xmlns="http://www.w3.org/2000/svg" viewBox="0 0 20.1 18.02">
  <defs>
    <style>
      .cls-1 {
        fill: #eb2227;
        fill-rule: evenodd;
      }
    </style>
  </defs>
  <g id="Layer_2" data-name="Layer 2">
    <path class="cls-1" d="m12.06,1.16l7.72,13.37c.89,1.55-.22,3.49-2.01,3.49H2.33c-1.79,0-2.91-1.94-2.01-3.49L8.04,1.16c.89-1.55,3.13-1.55,4.03,0h0Zm-2.75,10.01h0v.03c0,.4.33.73.73.73h0c.4,0,.73-.33.73-.73v-.03h0c.02-.43.05-.82.08-1.18.08-.74.24-1.81.48-3.22.05-.3.07-.54.07-.73,0-.24-.06-.47-.18-.69-.12-.22-.3-.39-.52-.52-.22-.13-.44-.19-.68-.19s-.45.06-.67.19c-.22.13-.39.3-.51.51-.12.21-.18.44-.18.69,0,.15.01.34.04.57l.45,2.95c.04.3.08.84.14,1.62h0Zm.74,1.6c-.38,0-.69.13-.96.39-.27.26-.4.58-.4.95s.13.69.4.95c.26.26.58.39.96.39s.7-.13.96-.39c.27-.26.4-.58.4-.95s-.13-.69-.4-.95c-.26-.26-.58-.39-.96-.39Z"/>
  </g>
</svg>